<?xml version="1.0" encoding="utf-8"?>
<!-- Generator: Adobe Illustrator 23.1.1, SVG Export Plug-In . SVG Version: 6.00 Build 0)  -->
<svg version="1.1" id="Layer_1" xmlns="http://www.w3.org/2000/svg" xmlns:xlink="http://www.w3.org/1999/xlink" x="0px" y="0px"
	 viewBox="0 0 460.8 345.6" style="enable-background:new 0 0 460.8 345.6;" xml:space="preserve">
<style type="text/css">
	.st0{fill:#FFFFFF;}
	.st1{opacity:0.4;clip-path:url(#SVGID_2_);fill:#1F77B4;enable-background:new    ;}
	.st2{opacity:0.4;clip-path:url(#SVGID_4_);fill:#1F77B4;enable-background:new    ;}
	.st3{opacity:0.4;clip-path:url(#SVGID_6_);fill:#1F77B4;enable-background:new    ;}
	.st4{opacity:0.4;clip-path:url(#SVGID_8_);fill:#1F77B4;enable-background:new    ;}
	.st5{opacity:0.4;clip-path:url(#SVGID_10_);fill:#1F77B4;enable-background:new    ;}
	.st6{opacity:0.4;clip-path:url(#SVGID_12_);fill:#1F77B4;enable-background:new    ;}
	.st7{opacity:0.4;clip-path:url(#SVGID_14_);fill:#1F77B4;enable-background:new    ;}
	.st8{opacity:0.4;clip-path:url(#SVGID_16_);fill:#1F77B4;enable-background:new    ;}
	.st9{opacity:0.4;clip-path:url(#SVGID_28_);fill:#1F77B4;enable-background:new    ;}
	.st10{opacity:0.4;clip-path:url(#SVGID_32_);fill:#1F77B4;enable-background:new    ;}
	.st11{opacity:0.4;clip-path:url(#SVGID_34_);fill:#1F77B4;enable-background:new    ;}
	.st12{opacity:0.4;clip-path:url(#SVGID_36_);fill:#1F77B4;enable-background:new    ;}
	.st13{opacity:0.4;clip-path:url(#SVGID_38_);fill:#1F77B4;enable-background:new    ;}
	.st14{opacity:0.4;clip-path:url(#SVGID_40_);fill:#1F77B4;enable-background:new    ;}
	.st15{opacity:0.4;clip-path:url(#SVGID_44_);fill:#1F77B4;enable-background:new    ;}
	.st16{opacity:0.4;clip-path:url(#SVGID_46_);fill:#1F77B4;enable-background:new    ;}
	.st17{opacity:0.4;clip-path:url(#SVGID_48_);fill:#1F77B4;enable-background:new    ;}
	.st18{opacity:0.4;clip-path:url(#SVGID_50_);fill:#1F77B4;enable-background:new    ;}
	.st19{opacity:0.4;clip-path:url(#SVGID_52_);fill:#1F77B4;enable-background:new    ;}
	.st20{opacity:0.4;clip-path:url(#SVGID_56_);fill:#1F77B4;enable-background:new    ;}
	.st21{opacity:0.4;clip-path:url(#SVGID_58_);fill:#1F77B4;enable-background:new    ;}
	.st22{opacity:0.4;clip-path:url(#SVGID_62_);fill:#1F77B4;enable-background:new    ;}
	.st23{opacity:0.4;clip-path:url(#SVGID_64_);fill:#1F77B4;enable-background:new    ;}
	.st24{opacity:0.4;clip-path:url(#SVGID_66_);fill:#1F77B4;enable-background:new    ;}
	.st25{opacity:0.4;clip-path:url(#SVGID_68_);fill:#1F77B4;enable-background:new    ;}
	.st26{opacity:0.4;clip-path:url(#SVGID_70_);fill:#1F77B4;enable-background:new    ;}
	.st27{opacity:0.4;clip-path:url(#SVGID_72_);fill:#1F77B4;enable-background:new    ;}
	.st28{opacity:0.4;clip-path:url(#SVGID_74_);fill:#1F77B4;enable-background:new    ;}
	.st29{opacity:0.4;clip-path:url(#SVGID_76_);fill:#1F77B4;enable-background:new    ;}
	.st30{opacity:0.4;clip-path:url(#SVGID_78_);fill:#1F77B4;enable-background:new    ;}
	.st31{stroke:#000000;stroke-width:0.8;stroke-linejoin:round;}
	.st32{stroke:#000000;stroke-width:0.6;stroke-linejoin:round;}
	.st33{fill:none;stroke:#000000;stroke-width:0.8;stroke-linecap:square;}
	.st34{opacity:0.4;fill:#1F77B4;enable-background:new    ;}
</style>
<g id="figure_1">
	<g id="patch_1">
		<path class="st0" d="M0,345.6h460.8V0H0V345.6z"/>
	</g>
	<g id="axes_1">
		<g id="patch_2">
			<path class="st0" d="M57.6,307.6h357.1V41.5H57.6V307.6z"/>
		</g>
		<g id="patch_3">
			<g>
				<defs>
					<rect id="SVGID_1_" x="57.6" y="41.5" width="357.1" height="266.1"/>
				</defs>
				<clipPath id="SVGID_2_">
					<use xlink:href="#SVGID_1_"  style="overflow:visible;"/>
				</clipPath>
				<path class="st1" d="M73.8,307.6h8.1v-254h-8.1V307.6z"/>
			</g>
		</g>
		<g id="patch_4">
			<g>
				<defs>
					<rect id="SVGID_3_" x="57.6" y="41.5" width="357.1" height="266.1"/>
				</defs>
				<clipPath id="SVGID_4_">
					<use xlink:href="#SVGID_3_"  style="overflow:visible;"/>
				</clipPath>
				<path class="st2" d="M81.9,307.2h8.1V204.1h-8.1V307.2z"/>
			</g>
		</g>
		<g id="patch_5">
			<g>
				<defs>
					<rect id="SVGID_5_" x="57.6" y="41.5" width="357.1" height="266.1"/>
				</defs>
				<clipPath id="SVGID_6_">
					<use xlink:href="#SVGID_5_"  style="overflow:visible;"/>
				</clipPath>
				<path class="st3" d="M90.1,307.3h8.1v-48.1h-8.1V307.3z"/>
				<path class="st3" d="M139,307.3h8.1v-48.1H139V307.3z"/>
				<path class="st3" d="M155.8,307.5h8.1v-48.1h-8.1V307.5z"/>
				<path class="st3" d="M236.3,306.8h8.1v-48.1h-8.1V306.8z"/>
				<path class="st3" d="M391,306.7h8.1v-48.1H391V306.7z"/>
			</g>
		</g>
		<g id="patch_6">
			<g>
				<defs>
					<rect id="SVGID_7_" x="57.6" y="41.5" width="357.1" height="266.1"/>
				</defs>
				<clipPath id="SVGID_8_">
					<use xlink:href="#SVGID_7_"  style="overflow:visible;"/>
				</clipPath>
				<path class="st4" d="M98.2,307.6h8.1V250h-8.1V307.6z"/>
			</g>
		</g>
		<g id="patch_7">
			<g>
				<defs>
					<rect id="SVGID_9_" x="57.6" y="41.5" width="357.1" height="266.1"/>
				</defs>
				<clipPath id="SVGID_10_">
					<use xlink:href="#SVGID_9_"  style="overflow:visible;"/>
				</clipPath>
				<path class="st5" d="M106.3,75907.8h8.1l0,0H106.3z"/>
			</g>
		</g>
		<g id="patch_8">
			<g>
				<defs>
					<rect id="SVGID_11_" x="57.6" y="41.5" width="357.1" height="266.1"/>
				</defs>
				<clipPath id="SVGID_12_">
					<use xlink:href="#SVGID_11_"  style="overflow:visible;"/>
				</clipPath>
				<path class="st6" d="M114.4,307.4h8.1v-34.8h-8.1V307.4z"/>
			</g>
		</g>
		<g id="patch_9">
			<g>
				<defs>
					<rect id="SVGID_13_" x="57.6" y="41.5" width="357.1" height="266.1"/>
				</defs>
				<clipPath id="SVGID_14_">
					<use xlink:href="#SVGID_13_"  style="overflow:visible;"/>
				</clipPath>
				<path class="st7" d="M122.5,306.8h8.1v-57.6h-8.1V306.8z"/>
			</g>
		</g>
		<g id="patch_10">
			<g>
				<defs>
					<rect id="SVGID_15_" x="57.6" y="41.5" width="357.1" height="266.1"/>
				</defs>
				<clipPath id="SVGID_16_">
					<use xlink:href="#SVGID_15_"  style="overflow:visible;"/>
				</clipPath>
				<path class="st8" d="M130.6,307.2h8.1v-34.9h-8.1V307.2z"/>
				<path class="st8" d="M163.7,307.6h8.1v-34.9h-8.1V307.6z"/>
				<path class="st8" d="M146.9,307.6h8.1v-34.9h-8.1V307.6z"/>
				<path class="st8" d="M172.2,307.6h8.1v-34.9h-8.1V307.6z"/>
			</g>
		</g>
		<g id="patch_11">
			<g>
				<defs>
					<rect id="SVGID_17_" x="57.6" y="41.5" width="357.1" height="266.1"/>
				</defs>
				<clipPath id="SVGID_18_">
					<use xlink:href="#SVGID_17_"  style="overflow:visible;"/>
				</clipPath>
			</g>
		</g>
		<g id="patch_12">
			<g>
				<defs>
					<rect id="SVGID_19_" x="57.6" y="41.5" width="357.1" height="266.1"/>
				</defs>
				<clipPath id="SVGID_20_">
					<use xlink:href="#SVGID_19_"  style="overflow:visible;"/>
				</clipPath>
			</g>
		</g>
		<g id="patch_13">
			<g>
				<defs>
					<rect id="SVGID_21_" x="57.6" y="41.5" width="357.1" height="266.1"/>
				</defs>
				<clipPath id="SVGID_22_">
					<use xlink:href="#SVGID_21_"  style="overflow:visible;"/>
				</clipPath>
			</g>
		</g>
		<g id="patch_14">
			<g>
				<defs>
					<rect id="SVGID_23_" x="57.6" y="41.5" width="357.1" height="266.1"/>
				</defs>
				<clipPath id="SVGID_24_">
					<use xlink:href="#SVGID_23_"  style="overflow:visible;"/>
				</clipPath>
			</g>
		</g>
		<g id="patch_15">
			<g>
				<defs>
					<rect id="SVGID_25_" x="57.6" y="41.5" width="357.1" height="266.1"/>
				</defs>
				<clipPath id="SVGID_26_">
					<use xlink:href="#SVGID_25_"  style="overflow:visible;"/>
				</clipPath>
			</g>
		</g>
		<g id="patch_16">
			<g>
				<defs>
					<rect id="SVGID_27_" x="57.6" y="41.5" width="357.1" height="266.1"/>
				</defs>
				<clipPath id="SVGID_28_">
					<use xlink:href="#SVGID_27_"  style="overflow:visible;"/>
				</clipPath>
				<path class="st9" d="M180.3,307h7.1V293h-7.1V307z"/>
				<path class="st9" d="M188.5,307h8.1v-14.1h-8.1V307z"/>
				<path class="st9" d="M308.9,307.4h8.1v-14.1h-8.1V307.4z"/>
			</g>
		</g>
		<g id="patch_17">
			<g>
				<defs>
					<rect id="SVGID_29_" x="57.6" y="41.5" width="357.1" height="266.1"/>
				</defs>
				<clipPath id="SVGID_30_">
					<use xlink:href="#SVGID_29_"  style="overflow:visible;"/>
				</clipPath>
			</g>
		</g>
		<g id="patch_18">
			<g>
				<defs>
					<rect id="SVGID_31_" x="57.6" y="41.5" width="357.1" height="266.1"/>
				</defs>
				<clipPath id="SVGID_32_">
					<use xlink:href="#SVGID_31_"  style="overflow:visible;"/>
				</clipPath>
				<path class="st10" d="M195.6,75907.8h8.1l0,0H195.6z"/>
			</g>
		</g>
		<g id="patch_19">
			<g>
				<defs>
					<rect id="SVGID_33_" x="57.6" y="41.5" width="357.1" height="266.1"/>
				</defs>
				<clipPath id="SVGID_34_">
					<use xlink:href="#SVGID_33_"  style="overflow:visible;"/>
				</clipPath>
				<path class="st11" d="M203.7,75907.8h8.1l0,0H203.7z"/>
			</g>
		</g>
		<g id="patch_20">
			<g>
				<defs>
					<rect id="SVGID_35_" x="57.6" y="41.5" width="357.1" height="266.1"/>
				</defs>
				<clipPath id="SVGID_36_">
					<use xlink:href="#SVGID_35_"  style="overflow:visible;"/>
				</clipPath>
				<path class="st12" d="M211.8,75907.8h8.1l0,0H211.8z"/>
			</g>
		</g>
		<g id="patch_21">
			<g>
				<defs>
					<rect id="SVGID_37_" x="57.6" y="41.5" width="357.1" height="266.1"/>
				</defs>
				<clipPath id="SVGID_38_">
					<use xlink:href="#SVGID_37_"  style="overflow:visible;"/>
				</clipPath>
				<path class="st13" d="M219.9,75907.8h8.1l0,0H219.9z"/>
			</g>
		</g>
		<g id="patch_22">
			<g>
				<defs>
					<rect id="SVGID_39_" x="57.6" y="41.5" width="357.1" height="266.1"/>
				</defs>
				<clipPath id="SVGID_40_">
					<use xlink:href="#SVGID_39_"  style="overflow:visible;"/>
				</clipPath>
				<path class="st14" d="M228,75907.8h8.1l0,0H228z"/>
			</g>
		</g>
		<g id="patch_23">
			<g>
				<defs>
					<rect id="SVGID_41_" x="57.6" y="41.5" width="357.1" height="266.1"/>
				</defs>
				<clipPath id="SVGID_42_">
					<use xlink:href="#SVGID_41_"  style="overflow:visible;"/>
				</clipPath>
			</g>
		</g>
		<g id="patch_24">
			<g>
				<defs>
					<rect id="SVGID_43_" x="57.6" y="41.5" width="357.1" height="266.1"/>
				</defs>
				<clipPath id="SVGID_44_">
					<use xlink:href="#SVGID_43_"  style="overflow:visible;"/>
				</clipPath>
				<path class="st15" d="M244.3,75907.8h8.1l0,0H244.3z"/>
			</g>
		</g>
		<g id="patch_25">
			<g>
				<defs>
					<rect id="SVGID_45_" x="57.6" y="41.5" width="357.1" height="266.1"/>
				</defs>
				<clipPath id="SVGID_46_">
					<use xlink:href="#SVGID_45_"  style="overflow:visible;"/>
				</clipPath>
				<path class="st16" d="M252.4,75907.8h8.1l0,0H252.4z"/>
			</g>
		</g>
		<g id="patch_26">
			<g>
				<defs>
					<rect id="SVGID_47_" x="57.6" y="41.5" width="357.1" height="266.1"/>
				</defs>
				<clipPath id="SVGID_48_">
					<use xlink:href="#SVGID_47_"  style="overflow:visible;"/>
				</clipPath>
				<path class="st17" d="M260.5,75907.8h8.1l0,0H260.5z"/>
			</g>
		</g>
		<g id="patch_27">
			<g>
				<defs>
					<rect id="SVGID_49_" x="57.6" y="41.5" width="357.1" height="266.1"/>
				</defs>
				<clipPath id="SVGID_50_">
					<use xlink:href="#SVGID_49_"  style="overflow:visible;"/>
				</clipPath>
				<path class="st18" d="M268.6,75907.8h8.1l0,0H268.6z"/>
			</g>
		</g>
		<g id="patch_28">
			<g>
				<defs>
					<rect id="SVGID_51_" x="57.6" y="41.5" width="357.1" height="266.1"/>
				</defs>
				<clipPath id="SVGID_52_">
					<use xlink:href="#SVGID_51_"  style="overflow:visible;"/>
				</clipPath>
				<path class="st19" d="M276.7,75907.8h8.1l0,0H276.7z"/>
			</g>
		</g>
		<g id="patch_29">
			<g>
				<defs>
					<rect id="SVGID_53_" x="57.6" y="41.5" width="357.1" height="266.1"/>
				</defs>
				<clipPath id="SVGID_54_">
					<use xlink:href="#SVGID_53_"  style="overflow:visible;"/>
				</clipPath>
			</g>
		</g>
		<g id="patch_30">
			<g>
				<defs>
					<rect id="SVGID_55_" x="57.6" y="41.5" width="357.1" height="266.1"/>
				</defs>
				<clipPath id="SVGID_56_">
					<use xlink:href="#SVGID_55_"  style="overflow:visible;"/>
				</clipPath>
				<path class="st20" d="M293,75907.8h8.1l0,0H293z"/>
			</g>
		</g>
		<g id="patch_31">
			<g>
				<defs>
					<rect id="SVGID_57_" x="57.6" y="41.5" width="357.1" height="266.1"/>
				</defs>
				<clipPath id="SVGID_58_">
					<use xlink:href="#SVGID_57_"  style="overflow:visible;"/>
				</clipPath>
				<path class="st21" d="M301.1,75907.8h8.1l0,0H301.1z"/>
			</g>
		</g>
		<g id="patch_32">
			<g>
				<defs>
					<rect id="SVGID_59_" x="57.6" y="41.5" width="357.1" height="266.1"/>
				</defs>
				<clipPath id="SVGID_60_">
					<use xlink:href="#SVGID_59_"  style="overflow:visible;"/>
				</clipPath>
			</g>
		</g>
		<g id="patch_33">
			<g>
				<defs>
					<rect id="SVGID_61_" x="57.6" y="41.5" width="357.1" height="266.1"/>
				</defs>
				<clipPath id="SVGID_62_">
					<use xlink:href="#SVGID_61_"  style="overflow:visible;"/>
				</clipPath>
				<path class="st22" d="M317.3,75907.8h8.1l0,0H317.3z"/>
			</g>
		</g>
		<g id="patch_34">
			<g>
				<defs>
					<rect id="SVGID_63_" x="57.6" y="41.5" width="357.1" height="266.1"/>
				</defs>
				<clipPath id="SVGID_64_">
					<use xlink:href="#SVGID_63_"  style="overflow:visible;"/>
				</clipPath>
				<path class="st23" d="M325.4,75907.8h8.1l0,0H325.4z"/>
			</g>
		</g>
		<g id="patch_35">
			<g>
				<defs>
					<rect id="SVGID_65_" x="57.6" y="41.5" width="357.1" height="266.1"/>
				</defs>
				<clipPath id="SVGID_66_">
					<use xlink:href="#SVGID_65_"  style="overflow:visible;"/>
				</clipPath>
				<path class="st24" d="M333.6,75907.8h8.1l0,0H333.6z"/>
			</g>
		</g>
		<g id="patch_36">
			<g>
				<defs>
					<rect id="SVGID_67_" x="57.6" y="41.5" width="357.1" height="266.1"/>
				</defs>
				<clipPath id="SVGID_68_">
					<use xlink:href="#SVGID_67_"  style="overflow:visible;"/>
				</clipPath>
				<path class="st25" d="M341.7,75907.8h8.1l0,0H341.7z"/>
			</g>
		</g>
		<g id="patch_37">
			<g>
				<defs>
					<rect id="SVGID_69_" x="57.6" y="41.5" width="357.1" height="266.1"/>
				</defs>
				<clipPath id="SVGID_70_">
					<use xlink:href="#SVGID_69_"  style="overflow:visible;"/>
				</clipPath>
				<path class="st26" d="M349.8,75907.8h8.1l0,0H349.8z"/>
			</g>
		</g>
		<g id="patch_38">
			<g>
				<defs>
					<rect id="SVGID_71_" x="57.6" y="41.5" width="357.1" height="266.1"/>
				</defs>
				<clipPath id="SVGID_72_">
					<use xlink:href="#SVGID_71_"  style="overflow:visible;"/>
				</clipPath>
				<path class="st27" d="M357.9,75907.8h8.1l0,0H357.9z"/>
			</g>
		</g>
		<g id="patch_39">
			<g>
				<defs>
					<rect id="SVGID_73_" x="57.6" y="41.5" width="357.1" height="266.1"/>
				</defs>
				<clipPath id="SVGID_74_">
					<use xlink:href="#SVGID_73_"  style="overflow:visible;"/>
				</clipPath>
				<path class="st28" d="M366,75907.8h8.1l0,0H366z"/>
			</g>
		</g>
		<g id="patch_40">
			<g>
				<defs>
					<rect id="SVGID_75_" x="57.6" y="41.5" width="357.1" height="266.1"/>
				</defs>
				<clipPath id="SVGID_76_">
					<use xlink:href="#SVGID_75_"  style="overflow:visible;"/>
				</clipPath>
				<path class="st29" d="M374.1,75907.8h8.1l0,0H374.1z"/>
			</g>
		</g>
		<g id="patch_41">
			<g>
				<defs>
					<rect id="SVGID_77_" x="57.6" y="41.5" width="357.1" height="266.1"/>
				</defs>
				<clipPath id="SVGID_78_">
					<use xlink:href="#SVGID_77_"  style="overflow:visible;"/>
				</clipPath>
				<path class="st30" d="M382.3,75907.8h8.1l0,0H382.3z"/>
			</g>
		</g>
		<g id="patch_42">
			<g>
				<defs>
					<rect id="SVGID_79_" x="57.6" y="41.5" width="357.1" height="266.1"/>
				</defs>
				<clipPath id="SVGID_80_">
					<use xlink:href="#SVGID_79_"  style="overflow:visible;"/>
				</clipPath>
			</g>
		</g>
		<g id="matplotlib.axis_1">
			<g id="xtick_1">
				<g id="line2d_1">
					<g>
						<g>
							<path id="mdad0067ef6" class="st31" d="M73.8,307.6v3.5"/>
						</g>
					</g>
				</g>
				<g id="text_1">
					<g transform="translate(70.651477 322.182437)scale(0.1 -0.1)">
						<g>
							<path id="DejaVuSans-48" d="M31.8,66.4c-5.1,0-8.9-2.5-11.5-7.5c-2.6-5-3.8-12.5-3.8-22.5c0-10,1.3-17.5,3.8-22.5
								c2.6-5,6.4-7.5,11.5-7.5c5.1,0,8.9,2.5,11.5,7.5c2.6,5,3.8,12.5,3.8,22.5c0,10-1.3,17.5-3.8,22.5
								C40.7,63.9,36.9,66.4,31.8,66.4z M31.8,74.2c8.2,0,14.4-3.2,18.7-9.7c4.3-6.5,6.5-15.8,6.5-28.1c0-12.3-2.2-21.6-6.5-28.1
								C46.2,1.8,40-1.4,31.8-1.4c-8.2,0-14.4,3.2-18.7,9.7c-4.3,6.5-6.5,15.8-6.5,28.1c0,12.3,2.2,21.7,6.5,28.1
								C17.4,71,23.6,74.2,31.8,74.2z"/>
						</g>
					</g>
				</g>
			</g>
			<g id="xtick_2">
				<g id="line2d_2">
					<g>
						<g>
							<path class="st31" d="M150.3,307.6v3.5"/>
						</g>
					</g>
				</g>
				<g id="text_2">
					<g transform="translate(137.623057 322.182437)scale(0.1 -0.1)">
						<g>
							<path id="DejaVuSans-49" d="M12.4,8.3h16.1v55.6L11,60.4v9l17.4,3.5h9.9V8.3h16.1V0h-42V8.3z"/>
						</g>
						<g>
							<path d="M95.4,66.4c-5.1,0-8.9-2.5-11.5-7.5c-2.6-5-3.8-12.5-3.8-22.5c0-10,1.3-17.5,3.8-22.5c2.6-5,6.4-7.5,11.5-7.5
								c5.1,0,8.9,2.5,11.5,7.5c2.6,5,3.8,12.5,3.8,22.5c0,10-1.3,17.5-3.8,22.5C104.4,63.9,100.5,66.4,95.4,66.4z M95.4,74.2
								c8.2,0,14.4-3.2,18.7-9.7c4.3-6.5,6.5-15.8,6.5-28.1c0-12.3-2.2-21.6-6.5-28.1c-4.3-6.5-10.6-9.7-18.7-9.7
								c-8.2,0-14.4,3.2-18.7,9.7c-4.3,6.5-6.5,15.8-6.5,28.1c0,12.3,2.2,21.7,6.5,28.1C81,71,87.2,74.2,95.4,74.2z"/>
						</g>
						<g>
							<path d="M159,66.4c-5.1,0-8.9-2.5-11.5-7.5c-2.6-5-3.8-12.5-3.8-22.5c0-10,1.3-17.5,3.8-22.5c2.6-5,6.4-7.5,11.5-7.5
								c5.1,0,8.9,2.5,11.5,7.5c2.6,5,3.8,12.5,3.8,22.5c0,10-1.3,17.5-3.8,22.5C168,63.9,164.1,66.4,159,66.4z M159,74.2
								c8.2,0,14.4-3.2,18.7-9.7c4.3-6.5,6.5-15.8,6.5-28.1c0-12.3-2.2-21.6-6.5-28.1c-4.3-6.5-10.6-9.7-18.7-9.7
								c-8.2,0-14.4,3.2-18.7,9.7c-4.3,6.5-6.5,15.8-6.5,28.1c0,12.3,2.2,21.7,6.5,28.1C144.6,71,150.9,74.2,159,74.2z"/>
						</g>
						<g>
							<path d="M222.7,66.4c-5.1,0-8.9-2.5-11.5-7.5c-2.6-5-3.8-12.5-3.8-22.5c0-10,1.3-17.5,3.8-22.5c2.6-5,6.4-7.5,11.5-7.5
								c5.1,0,8.9,2.5,11.5,7.5c2.6,5,3.8,12.5,3.8,22.5c0,10-1.3,17.5-3.8,22.5C231.6,63.9,227.8,66.4,222.7,66.4z M222.7,74.2
								c8.2,0,14.4-3.2,18.7-9.7c4.3-6.5,6.5-15.8,6.5-28.1c0-12.3-2.2-21.6-6.5-28.1c-4.3-6.5-10.6-9.7-18.7-9.7
								c-8.2,0-14.4,3.2-18.7,9.7c-4.3,6.5-6.5,15.8-6.5,28.1c0,12.3,2.2,21.7,6.5,28.1C208.2,71,214.5,74.2,222.7,74.2z"/>
						</g>
					</g>
				</g>
			</g>
			<g id="xtick_3">
				<g id="line2d_3">
					<g>
						<g>
							<path class="st31" d="M226.9,307.6v3.5"/>
						</g>
					</g>
				</g>
				<g id="text_3">
					<g transform="translate(214.138387 322.182437)scale(0.1 -0.1)">
						<g>
							<path id="DejaVuSans-50" d="M19.2,8.3h34.4V0H7.3v8.3c3.7,3.9,8.8,9.1,15.3,15.6c6.5,6.5,10.5,10.7,12.2,12.6
								c3.2,3.5,5.4,6.5,6.6,9c1.3,2.5,1.9,4.9,1.9,7.2c0,3.9-1.4,7-4.1,9.5c-2.7,2.4-6.3,3.7-10.6,3.7c-3.1,0-6.4-0.5-9.8-1.6
								c-3.4-1.1-7.1-2.7-11-4.9v10c4,1.6,7.7,2.8,11.1,3.6c3.5,0.8,6.6,1.2,9.5,1.2c7.6,0,13.6-1.9,18.1-5.7
								c4.5-3.8,6.7-8.8,6.7-15.1c0-3-0.6-5.8-1.7-8.5c-1.1-2.7-3.2-5.8-6.1-9.5c-0.8-0.9-3.4-3.7-7.8-8.2
								C33.3,22.7,27.1,16.4,19.2,8.3z"/>
						</g>
						<g>
							<path d="M95.4,66.4c-5.1,0-8.9-2.5-11.5-7.5c-2.6-5-3.8-12.5-3.8-22.5c0-10,1.3-17.5,3.8-22.5c2.6-5,6.4-7.5,11.5-7.5
								c5.1,0,8.9,2.5,11.5,7.5c2.6,5,3.8,12.5,3.8,22.5c0,10-1.3,17.5-3.8,22.5C104.4,63.9,100.5,66.4,95.4,66.4z M95.4,74.2
								c8.2,0,14.4-3.2,18.7-9.7c4.3-6.5,6.5-15.8,6.5-28.1c0-12.3-2.2-21.6-6.5-28.1c-4.3-6.5-10.6-9.7-18.7-9.7
								c-8.2,0-14.4,3.2-18.7,9.7c-4.3,6.5-6.5,15.8-6.5,28.1c0,12.3,2.2,21.7,6.5,28.1C81,71,87.2,74.2,95.4,74.2z"/>
						</g>
						<g>
							<path d="M159,66.4c-5.1,0-8.9-2.5-11.5-7.5c-2.6-5-3.8-12.5-3.8-22.5c0-10,1.3-17.5,3.8-22.5c2.6-5,6.4-7.5,11.5-7.5
								c5.1,0,8.9,2.5,11.5,7.5c2.6,5,3.8,12.5,3.8,22.5c0,10-1.3,17.5-3.8,22.5C168,63.9,164.1,66.4,159,66.4z M159,74.2
								c8.2,0,14.4-3.2,18.7-9.7c4.3-6.5,6.5-15.8,6.5-28.1c0-12.3-2.2-21.6-6.5-28.1c-4.3-6.5-10.6-9.7-18.7-9.7
								c-8.2,0-14.4,3.2-18.7,9.7c-4.3,6.5-6.5,15.8-6.5,28.1c0,12.3,2.2,21.7,6.5,28.1C144.6,71,150.9,74.2,159,74.2z"/>
						</g>
						<g>
							<path d="M222.7,66.4c-5.1,0-8.9-2.5-11.5-7.5c-2.6-5-3.8-12.5-3.8-22.5c0-10,1.3-17.5,3.8-22.5c2.6-5,6.4-7.5,11.5-7.5
								c5.1,0,8.9,2.5,11.5,7.5c2.6,5,3.8,12.5,3.8,22.5c0,10-1.3,17.5-3.8,22.5C231.6,63.9,227.8,66.4,222.7,66.4z M222.7,74.2
								c8.2,0,14.4-3.2,18.7-9.7c4.3-6.5,6.5-15.8,6.5-28.1c0-12.3-2.2-21.6-6.5-28.1c-4.3-6.5-10.6-9.7-18.7-9.7
								c-8.2,0-14.4,3.2-18.7,9.7c-4.3,6.5-6.5,15.8-6.5,28.1c0,12.3,2.2,21.7,6.5,28.1C208.2,71,214.5,74.2,222.7,74.2z"/>
						</g>
					</g>
				</g>
			</g>
			<g id="xtick_4">
				<g id="line2d_4">
					<g>
						<g>
							<path class="st31" d="M303.4,307.6v3.5"/>
						</g>
					</g>
				</g>
				<g id="text_4">
					<g transform="translate(290.653717 322.182437)scale(0.1 -0.1)">
						<g>
							<path id="DejaVuSans-51" d="M40.6,39.3c4.7-1,8.4-3.1,11-6.3c2.7-3.2,4-7.1,4-11.8c0-7.2-2.5-12.8-7.4-16.7
								c-4.9-3.9-12-5.9-21.1-5.9c-3.1,0-6.2,0.3-9.4,0.9S11.1,1,7.6,2.2v9.5c2.7-1.6,5.7-2.8,9-3.6c3.3-0.8,6.7-1.2,10.2-1.2
								c6.2,0,10.9,1.2,14.1,3.7s4.9,6,4.9,10.6c0,4.3-1.5,7.7-4.5,10.1c-3,2.4-7.2,3.6-12.6,3.6h-8.5V43h8.9c4.8,0,8.6,1,11.1,2.9
								s3.9,4.7,3.9,8.4c0,3.7-1.3,6.6-4,8.6c-2.6,2-6.4,3-11.4,3c-2.7,0-5.6-0.3-8.7-0.9c-3.1-0.6-6.5-1.5-10.2-2.7v8.8
								c3.8,1,7.3,1.8,10.5,2.3s6.4,0.8,9.2,0.8c7.5,0,13.4-1.7,17.8-5.1c4.4-3.4,6.5-8,6.5-13.8c0-4-1.2-7.5-3.5-10.2
								S44.8,40.4,40.6,39.3z"/>
						</g>
						<g>
							<path d="M95.4,66.4c-5.1,0-8.9-2.5-11.5-7.5c-2.6-5-3.8-12.5-3.8-22.5c0-10,1.3-17.5,3.8-22.5c2.6-5,6.4-7.5,11.5-7.5
								c5.1,0,8.9,2.5,11.5,7.5c2.6,5,3.8,12.5,3.8,22.5c0,10-1.3,17.5-3.8,22.5C104.4,63.9,100.5,66.4,95.4,66.4z M95.4,74.2
								c8.2,0,14.4-3.2,18.7-9.7c4.3-6.5,6.5-15.8,6.5-28.1c0-12.3-2.2-21.6-6.5-28.1c-4.3-6.5-10.6-9.7-18.7-9.7
								c-8.2,0-14.4,3.2-18.7,9.7c-4.3,6.5-6.5,15.8-6.5,28.1c0,12.3,2.2,21.7,6.5,28.1C81,71,87.2,74.2,95.4,74.2z"/>
						</g>
						<g>
							<path d="M159,66.4c-5.1,0-8.9-2.5-11.5-7.5c-2.6-5-3.8-12.5-3.8-22.5c0-10,1.3-17.5,3.8-22.5c2.6-5,6.4-7.5,11.5-7.5
								c5.1,0,8.9,2.5,11.5,7.5c2.6,5,3.8,12.5,3.8,22.5c0,10-1.3,17.5-3.8,22.5C168,63.9,164.1,66.4,159,66.4z M159,74.2
								c8.2,0,14.4-3.2,18.7-9.7c4.3-6.5,6.5-15.8,6.5-28.1c0-12.3-2.2-21.6-6.5-28.1c-4.3-6.5-10.6-9.7-18.7-9.7
								c-8.2,0-14.4,3.2-18.7,9.7c-4.3,6.5-6.5,15.8-6.5,28.1c0,12.3,2.2,21.7,6.5,28.1C144.6,71,150.9,74.2,159,74.2z"/>
						</g>
						<g>
							<path d="M222.7,66.4c-5.1,0-8.9-2.5-11.5-7.5c-2.6-5-3.8-12.5-3.8-22.5c0-10,1.3-17.5,3.8-22.5c2.6-5,6.4-7.5,11.5-7.5
								c5.1,0,8.9,2.5,11.5,7.5c2.6,5,3.8,12.5,3.8,22.5c0,10-1.3,17.5-3.8,22.5C231.6,63.9,227.8,66.4,222.7,66.4z M222.7,74.2
								c8.2,0,14.4-3.2,18.7-9.7c4.3-6.5,6.5-15.8,6.5-28.1c0-12.3-2.2-21.6-6.5-28.1c-4.3-6.5-10.6-9.7-18.7-9.7
								c-8.2,0-14.4,3.2-18.7,9.7c-4.3,6.5-6.5,15.8-6.5,28.1c0,12.3,2.2,21.7,6.5,28.1C208.2,71,214.5,74.2,222.7,74.2z"/>
						</g>
					</g>
				</g>
			</g>
			<g id="xtick_5">
				<g id="line2d_5">
					<g>
						<g>
							<path class="st31" d="M379.9,307.6v3.5"/>
						</g>
					</g>
				</g>
				<g id="text_5">
					<g transform="translate(367.169048 322.182437)scale(0.1 -0.1)">
						<g>
							<path id="DejaVuSans-52" d="M37.8,64.3L12.9,25.4h24.9V64.3z M35.2,72.9h12.4V25.4H58v-8.2H47.6V0h-9.8v17.2H4.9v9.5
								L35.2,72.9z"/>
						</g>
						<g>
							<path d="M95.4,66.4c-5.1,0-8.9-2.5-11.5-7.5c-2.6-5-3.8-12.5-3.8-22.5c0-10,1.3-17.5,3.8-22.5c2.6-5,6.4-7.5,11.5-7.5
								c5.1,0,8.9,2.5,11.5,7.5c2.6,5,3.8,12.5,3.8,22.5c0,10-1.3,17.5-3.8,22.5C104.4,63.9,100.5,66.4,95.4,66.4z M95.4,74.2
								c8.2,0,14.4-3.2,18.7-9.7c4.3-6.5,6.5-15.8,6.5-28.1c0-12.3-2.2-21.6-6.5-28.1c-4.3-6.5-10.6-9.7-18.7-9.7
								c-8.2,0-14.4,3.2-18.7,9.7c-4.3,6.5-6.5,15.8-6.5,28.1c0,12.3,2.2,21.7,6.5,28.1C81,71,87.2,74.2,95.4,74.2z"/>
						</g>
						<g>
							<path d="M159,66.4c-5.1,0-8.9-2.5-11.5-7.5c-2.6-5-3.8-12.5-3.8-22.5c0-10,1.3-17.5,3.8-22.5c2.6-5,6.4-7.5,11.5-7.5
								c5.1,0,8.9,2.5,11.5,7.5c2.6,5,3.8,12.5,3.8,22.5c0,10-1.3,17.5-3.8,22.5C168,63.9,164.1,66.4,159,66.4z M159,74.2
								c8.2,0,14.4-3.2,18.7-9.7c4.3-6.5,6.5-15.8,6.5-28.1c0-12.3-2.2-21.6-6.5-28.1c-4.3-6.5-10.6-9.7-18.7-9.7
								c-8.2,0-14.4,3.2-18.7,9.7c-4.3,6.5-6.5,15.8-6.5,28.1c0,12.3,2.2,21.7,6.5,28.1C144.6,71,150.9,74.2,159,74.2z"/>
						</g>
						<g>
							<path d="M222.7,66.4c-5.1,0-8.9-2.5-11.5-7.5c-2.6-5-3.8-12.5-3.8-22.5c0-10,1.3-17.5,3.8-22.5c2.6-5,6.4-7.5,11.5-7.5
								c5.1,0,8.9,2.5,11.5,7.5c2.6,5,3.8,12.5,3.8,22.5c0,10-1.3,17.5-3.8,22.5C231.6,63.9,227.8,66.4,222.7,66.4z M222.7,74.2
								c8.2,0,14.4-3.2,18.7-9.7c4.3-6.5,6.5-15.8,6.5-28.1c0-12.3-2.2-21.6-6.5-28.1c-4.3-6.5-10.6-9.7-18.7-9.7
								c-8.2,0-14.4,3.2-18.7,9.7c-4.3,6.5-6.5,15.8-6.5,28.1c0,12.3,2.2,21.7,6.5,28.1C208.2,71,214.5,74.2,222.7,74.2z"/>
						</g>
					</g>
				</g>
			</g>
			<g id="text_6">
				<g transform="translate(212.738125 335.860562)scale(0.1 -0.1)">
					<g>
						<path id="DejaVuSans-82" d="M44.4,34.2c2.1-0.7,4.2-2.3,6.2-4.6s4-5.6,6-9.7L66.6,0H56l-9.3,18.7c-2.4,4.9-4.8,8.1-7,9.7
							s-5.3,2.4-9.2,2.4H19.7V0H9.8v72.9h22.3c8.3,0,14.6-1.7,18.7-5.2c4.1-3.5,6.2-8.7,6.2-15.8c0-4.6-1.1-8.4-3.2-11.4
							C51.6,37.4,48.5,35.4,44.4,34.2z M19.7,64.8V38.9h12.4c4.8,0,8.3,1.1,10.8,3.3s3.6,5.4,3.6,9.7s-1.2,7.5-3.6,9.6
							s-6,3.2-10.8,3.2H19.7z"/>
					</g>
					<g>
						<path id="DejaVuSans-111" d="M100,48.4c-4.8,0-8.6-1.9-11.4-5.6c-2.8-3.8-4.2-8.9-4.2-15.5s1.4-11.7,4.2-15.5
							c2.8-3.8,6.6-5.6,11.5-5.6c4.8,0,8.6,1.9,11.4,5.7c2.8,3.8,4.2,8.9,4.2,15.4c0,6.5-1.4,11.6-4.2,15.4
							C108.6,46.5,104.8,48.4,100,48.4z M100,56c7.8,0,13.9-2.5,18.4-7.6c4.5-5.1,6.7-12.1,6.7-21.1c0-8.9-2.2-16-6.7-21.1
							C114,1.1,107.8-1.4,100-1.4c-7.8,0-14,2.5-18.4,7.6c-4.4,5.1-6.7,12.1-6.7,21.1c0,9,2.2,16,6.7,21.1C86,53.5,92.2,56,100,56z"
							/>
					</g>
					<g>
						<path id="DejaVuSans-119" d="M134.8,54.7h9L155,12l11.2,42.7h10.6L188,12l11.2,42.7h9L193.9,0h-10.6l-11.8,44.8L159.7,0h-10.6
							L134.8,54.7z"/>
					</g>
					<g>
						<path id="DejaVuSans-32" d="M212.4,0"/>
					</g>
					<g>
						<path id="DejaVuSans-83" d="M297.7,70.5v-9.6c-3.7,1.8-7.3,3.1-10.6,4c-3.3,0.9-6.5,1.3-9.6,1.3c-5.4,0-9.5-1-12.4-3.1
							c-2.9-2.1-4.4-5-4.4-8.9c0-3.2,1-5.7,2.9-7.3c1.9-1.6,5.6-3,11-4l6-1.2c7.4-1.4,12.8-3.9,16.3-7.4s5.2-8.3,5.2-14.2
							c0-7.1-2.4-12.4-7.1-16.1c-4.7-3.6-11.7-5.5-20.8-5.5c-3.4,0-7.1,0.4-11,1.2c-3.9,0.8-7.9,1.9-12.1,3.5v10.2
							c4-2.2,7.9-3.9,11.8-5.1c3.8-1.1,7.6-1.7,11.3-1.7c5.6,0,10,1.1,13,3.3c3.1,2.2,4.6,5.4,4.6,9.5c0,3.6-1.1,6.4-3.3,8.4
							s-5.8,3.5-10.8,4.5l-6,1.2c-7.4,1.5-12.7,3.8-16,6.9c-3.3,3.1-4.9,7.5-4.9,13c0,6.4,2.3,11.5,6.8,15.2
							c4.5,3.7,10.8,5.6,18.8,5.6c3.4,0,6.9-0.3,10.5-0.9C290.4,72.7,294,71.7,297.7,70.5z"/>
					</g>
					<g>
						<path id="DejaVuSans-117" d="M316.2,21.6v33.1h9V21.9c0-5.2,1-9.1,3-11.7c2-2.6,5.1-3.9,9.1-3.9c4.8,0,8.7,1.5,11.5,4.6
							c2.8,3.1,4.2,7.3,4.2,12.7v31h9V0h-9v8.4c-2.2-3.3-4.7-5.8-7.6-7.4c-2.9-1.6-6.2-2.4-10-2.4c-6.3,0-11.1,2-14.3,5.9
							C317.8,8.3,316.2,14.1,316.2,21.6z"/>
					</g>
					<g>
						<path id="DejaVuSans-109" d="M423,44.2c2.2,4,4.9,7,8.1,8.9s6.8,2.9,11,2.9c5.7,0,10.1-2,13.2-6c3.1-4,4.6-9.6,4.6-17V0h-9
							v32.7c0,5.2-0.9,9.1-2.8,11.7c-1.9,2.5-4.7,3.8-8.5,3.8c-4.7,0-8.3-1.5-11-4.6c-2.7-3.1-4-7.3-4-12.6V0h-9v32.7
							c0,5.3-0.9,9.2-2.8,11.7s-4.7,3.8-8.6,3.8c-4.6,0-8.2-1.6-11-4.7c-2.7-3.1-4-7.3-4-12.6V0h-9v54.7h9v-8.5
							c2.1,3.4,4.5,5.8,7.4,7.4s6.3,2.4,10.2,2.4c4,0,7.4-1,10.1-3C419.6,51,421.7,48,423,44.2z"/>
					</g>
				</g>
			</g>
		</g>
		<g id="matplotlib.axis_2">
			<g id="ytick_1">
				<g id="line2d_6">
					<g>
						<g>
							<path id="m0929cb74ed" class="st31" d="M57.6,295.5h-3.5"/>
						</g>
					</g>
				</g>
				<g id="text_7">
					<g transform="translate(33 299.287219)scale(0.1 -0.1)">
						<g transform="translate(0 0.765625)">
							<path d="M12.4,9.1h16.1v55.6L11,61.2v9l17.4,3.5h9.9V9.1h16.1V0.8h-42V9.1z"/>
						</g>
						<g transform="translate(63.623047 0.765625)">
							<path d="M95.4,67.2c-5.1,0-8.9-2.5-11.5-7.5c-2.6-5-3.8-12.5-3.8-22.5c0-10,1.3-17.5,3.8-22.5c2.6-5,6.4-7.5,11.5-7.5
								c5.1,0,8.9,2.5,11.5,7.5c2.6,5,3.8,12.5,3.8,22.5c0,10-1.3,17.5-3.8,22.5C104.4,64.7,100.5,67.2,95.4,67.2z M95.4,75
								c8.2,0,14.4-3.2,18.7-9.7c4.3-6.5,6.5-15.8,6.5-28.1c0-12.3-2.2-21.6-6.5-28.1c-4.3-6.5-10.6-9.7-18.7-9.7
								C87.2-0.7,81,2.6,76.7,9c-4.3,6.5-6.5,15.8-6.5,28.1c0,12.3,2.2,21.7,6.5,28.1C81,71.7,87.2,75,95.4,75z"/>
						</g>
						<g transform="translate(128.203125 39.046875)scale(0.7)">
							<path d="M150.4,85.5c-3.6,0-6.2-1.8-8-5.2c-1.8-3.5-2.7-8.8-2.7-15.8c0-7,0.9-12.2,2.7-15.7c1.8-3.5,4.5-5.2,8-5.2
								c3.6,0,6.3,1.8,8.1,5.2c1.8,3.5,2.7,8.7,2.7,15.7c0,7-0.9,12.3-2.7,15.8C156.7,83.8,154,85.5,150.4,85.5z M150.4,91
								c5.7,0,10.1-2.3,13.1-6.8c3-4.5,4.5-11.1,4.5-19.7c0-8.6-1.5-15.1-4.5-19.7c-3-4.5-7.4-6.8-13.1-6.8
								c-5.7,0-10.1,2.3-13.1,6.8c-3,4.5-4.5,11.1-4.5,19.7c0,8.6,1.5,15.2,4.5,19.7C140.4,88.7,144.7,91,150.4,91z"/>
						</g>
					</g>
				</g>
			</g>
			<g id="ytick_2">
				<g id="line2d_7">
					<g>
						<g>
							<path class="st31" d="M57.6,219.9h-3.5"/>
						</g>
					</g>
				</g>
				<g id="text_8">
					<g transform="translate(33 223.674953)scale(0.1 -0.1)">
						<g transform="translate(0 0.684375)">
							<path d="M12.4,9h16.1v55.6L11,61.1v9l17.4,3.5h9.9V9h16.1V0.7h-42V9z"/>
						</g>
						<g transform="translate(63.623047 0.684375)">
							<path d="M95.4,67.1c-5.1,0-8.9-2.5-11.5-7.5c-2.6-5-3.8-12.5-3.8-22.5c0-10,1.3-17.5,3.8-22.5c2.6-5,6.4-7.5,11.5-7.5
								c5.1,0,8.9,2.5,11.5,7.5c2.6,5,3.8,12.5,3.8,22.5c0,10-1.3,17.5-3.8,22.5C104.4,64.6,100.5,67.1,95.4,67.1z M95.4,74.9
								c8.2,0,14.4-3.2,18.7-9.7c4.3-6.5,6.5-15.8,6.5-28.1c0-12.3-2.2-21.6-6.5-28.1c-4.3-6.5-10.6-9.7-18.7-9.7
								c-8.2,0-14.4,3.2-18.7,9.7c-4.3,6.5-6.5,15.8-6.5,28.1c0,12.3,2.2,21.7,6.5,28.1C81,71.7,87.2,74.9,95.4,74.9z"/>
						</g>
						<g transform="translate(128.203125 38.965625)scale(0.7)">
							<path d="M136.9,44.8h11.3v38.9l-12.3-2.5v6.3l12.2,2.5h6.9V44.8h11.3V39h-29.4V44.8z"/>
						</g>
					</g>
				</g>
			</g>
			<g id="ytick_3">
				<g id="line2d_8">
					<g>
						<g>
							<path class="st31" d="M57.6,144.3h-3.5"/>
						</g>
					</g>
				</g>
				<g id="text_9">
					<g transform="translate(33 148.062688)scale(0.1 -0.1)">
						<g transform="translate(0 0.765625)">
							<path d="M12.4,9.1h16.1v55.6L11,61.2v9l17.4,3.5h9.9V9.1h16.1V0.8h-42V9.1z"/>
						</g>
						<g transform="translate(63.623047 0.765625)">
							<path d="M95.4,67.2c-5.1,0-8.9-2.5-11.5-7.5c-2.6-5-3.8-12.5-3.8-22.5c0-10,1.3-17.5,3.8-22.5c2.6-5,6.4-7.5,11.5-7.5
								c5.1,0,8.9,2.5,11.5,7.5c2.6,5,3.8,12.5,3.8,22.5c0,10-1.3,17.5-3.8,22.5C104.4,64.7,100.5,67.2,95.4,67.2z M95.4,75
								c8.2,0,14.4-3.2,18.7-9.7c4.3-6.5,6.5-15.8,6.5-28.1c0-12.3-2.2-21.6-6.5-28.1c-4.3-6.5-10.6-9.7-18.7-9.7
								C87.2-0.7,81,2.6,76.7,9c-4.3,6.5-6.5,15.8-6.5,28.1c0,12.3,2.2,21.7,6.5,28.1C81,71.7,87.2,75,95.4,75z"/>
						</g>
						<g transform="translate(128.203125 39.046875)scale(0.7)">
							<path d="M141.6,44.9h24.1V39h-32.4v5.8c2.6,2.7,6.2,6.4,10.7,10.9c4.5,4.6,7.4,7.5,8.5,8.8c2.2,2.5,3.8,4.6,4.6,6.3
								c0.9,1.7,1.3,3.4,1.3,5.1c0,2.7-1,4.9-2.9,6.6c-1.9,1.7-4.4,2.6-7.4,2.6c-2.2,0-4.5-0.4-6.9-1.1c-2.4-0.8-5-1.9-7.7-3.4v7
								c2.8,1.1,5.4,2,7.8,2.5c2.4,0.6,4.6,0.9,6.6,0.9c5.3,0,9.5-1.3,12.6-4c3.1-2.6,4.7-6.2,4.7-10.6c0-2.1-0.4-4.1-1.2-6
								c-0.8-1.9-2.2-4.1-4.3-6.6c-0.6-0.7-2.4-2.6-5.4-5.7C151.5,54.9,147.2,50.5,141.6,44.9z"/>
						</g>
					</g>
				</g>
			</g>
			<g id="ytick_4">
				<g id="line2d_9">
					<g>
						<g>
							<path class="st31" d="M57.6,68.7h-3.5"/>
						</g>
					</g>
				</g>
				<g id="text_10">
					<g transform="translate(33 72.450423)scale(0.1 -0.1)">
						<g transform="translate(0 0.765625)">
							<path d="M12.4,9.1h16.1v55.6L11,61.2v9l17.4,3.5h9.9V9.1h16.1V0.8h-42V9.1z"/>
						</g>
						<g transform="translate(63.623047 0.765625)">
							<path d="M95.4,67.2c-5.1,0-8.9-2.5-11.5-7.5c-2.6-5-3.8-12.5-3.8-22.5c0-10,1.3-17.5,3.8-22.5c2.6-5,6.4-7.5,11.5-7.5
								c5.1,0,8.9,2.5,11.5,7.5c2.6,5,3.8,12.5,3.8,22.5c0,10-1.3,17.5-3.8,22.5C104.4,64.7,100.5,67.2,95.4,67.2z M95.4,75
								c8.2,0,14.4-3.2,18.7-9.7c4.3-6.5,6.5-15.8,6.5-28.1c0-12.3-2.2-21.6-6.5-28.1c-4.3-6.5-10.6-9.7-18.7-9.7
								C87.2-0.7,81,2.6,76.7,9c-4.3,6.5-6.5,15.8-6.5,28.1c0,12.3,2.2,21.7,6.5,28.1C81,71.7,87.2,75,95.4,75z"/>
						</g>
						<g transform="translate(128.203125 39.046875)scale(0.7)">
							<path d="M156.6,66.6c3.3-0.7,5.9-2.2,7.7-4.4c1.9-2.2,2.8-5,2.8-8.3c0-5-1.7-8.9-5.2-11.7c-3.5-2.8-8.4-4.1-14.8-4.1
								c-2.1,0-4.3,0.2-6.6,0.6c-2.3,0.4-4.6,1.1-7,1.9v6.7c1.9-1.1,4-2,6.3-2.5c2.3-0.6,4.7-0.9,7.2-0.9c4.3,0,7.6,0.9,9.9,2.6
								c2.3,1.7,3.4,4.2,3.4,7.4c0,3-1.1,5.4-3.2,7.1c-2.1,1.7-5,2.5-8.8,2.5h-6v5.7h6.2c3.4,0,6,0.7,7.8,2c1.8,1.4,2.7,3.3,2.7,5.9
								c0,2.6-0.9,4.6-2.8,6c-1.9,1.4-4.5,2.1-8,2.1c-1.9,0-3.9-0.2-6.1-0.6c-2.2-0.4-4.5-1-7.1-1.9v6.1c2.6,0.7,5.1,1.3,7.4,1.6
								s4.4,0.5,6.5,0.5c5.2,0,9.4-1.2,12.4-3.6c3.1-2.4,4.6-5.6,4.6-9.6c0-2.8-0.8-5.2-2.4-7.2C161.9,68.7,159.6,67.3,156.6,66.6z"
								/>
						</g>
					</g>
				</g>
			</g>
			<g id="ytick_5">
				<g id="line2d_10">
					<g>
						<g>
							<path id="mcfef88d2eb" class="st32" d="M57.6,307.2h-2"/>
						</g>
					</g>
				</g>
			</g>
			<g id="ytick_6">
				<g id="line2d_11">
					<g>
						<g>
							<path class="st32" d="M57.6,302.8h-2"/>
						</g>
					</g>
				</g>
			</g>
			<g id="ytick_7">
				<g id="line2d_12">
					<g>
						<g>
							<path class="st32" d="M57.6,298.9h-2"/>
						</g>
					</g>
				</g>
			</g>
			<g id="ytick_8">
				<g id="line2d_13">
					<g>
						<g>
							<path class="st32" d="M57.6,272.7h-2"/>
						</g>
					</g>
				</g>
			</g>
			<g id="ytick_9">
				<g id="line2d_14">
					<g>
						<g>
							<path class="st32" d="M57.6,259.4h-2"/>
						</g>
					</g>
				</g>
			</g>
			<g id="ytick_10">
				<g id="line2d_15">
					<g>
						<g>
							<path class="st32" d="M57.6,250h-2"/>
						</g>
					</g>
				</g>
			</g>
			<g id="ytick_11">
				<g id="line2d_16">
					<g>
						<g>
							<path class="st32" d="M57.6,242.6h-2"/>
						</g>
					</g>
				</g>
			</g>
			<g id="ytick_12">
				<g id="line2d_17">
					<g>
						<g>
							<path class="st32" d="M57.6,236.7h-2"/>
						</g>
					</g>
				</g>
			</g>
			<g id="ytick_13">
				<g id="line2d_18">
					<g>
						<g>
							<path class="st32" d="M57.6,231.6h-2"/>
						</g>
					</g>
				</g>
			</g>
			<g id="ytick_14">
				<g id="line2d_19">
					<g>
						<g>
							<path class="st32" d="M57.6,227.2h-2"/>
						</g>
					</g>
				</g>
			</g>
			<g id="ytick_15">
				<g id="line2d_20">
					<g>
						<g>
							<path class="st32" d="M57.6,223.3h-2"/>
						</g>
					</g>
				</g>
			</g>
			<g id="ytick_16">
				<g id="line2d_21">
					<g>
						<g>
							<path class="st32" d="M57.6,197.1h-2"/>
						</g>
					</g>
				</g>
			</g>
			<g id="ytick_17">
				<g id="line2d_22">
					<g>
						<g>
							<path class="st32" d="M57.6,183.8h-2"/>
						</g>
					</g>
				</g>
			</g>
			<g id="ytick_18">
				<g id="line2d_23">
					<g>
						<g>
							<path class="st32" d="M57.6,174.4h-2"/>
						</g>
					</g>
				</g>
			</g>
			<g id="ytick_19">
				<g id="line2d_24">
					<g>
						<g>
							<path class="st32" d="M57.6,167h-2"/>
						</g>
					</g>
				</g>
			</g>
			<g id="ytick_20">
				<g id="line2d_25">
					<g>
						<g>
							<path class="st32" d="M57.6,161h-2"/>
						</g>
					</g>
				</g>
			</g>
			<g id="ytick_21">
				<g id="line2d_26">
					<g>
						<g>
							<path class="st32" d="M57.6,156h-2"/>
						</g>
					</g>
				</g>
			</g>
			<g id="ytick_22">
				<g id="line2d_27">
					<g>
						<g>
							<path class="st32" d="M57.6,151.6h-2"/>
						</g>
					</g>
				</g>
			</g>
			<g id="ytick_23">
				<g id="line2d_28">
					<g>
						<g>
							<path class="st32" d="M57.6,147.7h-2"/>
						</g>
					</g>
				</g>
			</g>
			<g id="ytick_24">
				<g id="line2d_29">
					<g>
						<g>
							<path class="st32" d="M57.6,121.5h-2"/>
						</g>
					</g>
				</g>
			</g>
			<g id="ytick_25">
				<g id="line2d_30">
					<g>
						<g>
							<path class="st32" d="M57.6,108.2h-2"/>
						</g>
					</g>
				</g>
			</g>
			<g id="ytick_26">
				<g id="line2d_31">
					<g>
						<g>
							<path class="st32" d="M57.6,98.7h-2"/>
						</g>
					</g>
				</g>
			</g>
			<g id="ytick_27">
				<g id="line2d_32">
					<g>
						<g>
							<path class="st32" d="M57.6,91.4h-2"/>
						</g>
					</g>
				</g>
			</g>
			<g id="ytick_28">
				<g id="line2d_33">
					<g>
						<g>
							<path class="st32" d="M57.6,85.4h-2"/>
						</g>
					</g>
				</g>
			</g>
			<g id="ytick_29">
				<g id="line2d_34">
					<g>
						<g>
							<path class="st32" d="M57.6,80.4h-2"/>
						</g>
					</g>
				</g>
			</g>
			<g id="ytick_30">
				<g id="line2d_35">
					<g>
						<g>
							<path class="st32" d="M57.6,76h-2"/>
						</g>
					</g>
				</g>
			</g>
			<g id="ytick_31">
				<g id="line2d_36">
					<g>
						<g>
							<path class="st32" d="M57.6,72.1h-2"/>
						</g>
					</g>
				</g>
			</g>
			<g id="ytick_32">
				<g id="line2d_37">
					<g>
						<g>
							<path class="st32" d="M57.6,45.9h-2"/>
						</g>
					</g>
				</g>
			</g>
			<g id="text_11">
				<g transform="translate(26.920312 189.376437)rotate(-90)scale(0.1 -0.1)">
					<g>
						<path id="DejaVuSans-67" d="M64.4,67.3V56.9c-3.3,3.1-6.9,5.4-10.6,6.9c-3.8,1.5-7.8,2.3-12,2.3c-8.3,0-14.7-2.5-19.1-7.6
							S16,46,16,36.4c0-9.6,2.2-17,6.6-22s10.8-7.6,19.1-7.6c4.2,0,8.2,0.8,12,2.3s7.3,3.8,10.6,6.9V5.6c-3.4-2.3-7.1-4.1-11-5.3
							c-3.9-1.2-7.9-1.8-12.2-1.8c-11,0-19.7,3.4-26.1,10.1c-6.3,6.8-9.5,16-9.5,27.7c0,11.7,3.2,21,9.5,27.7
							c6.4,6.8,15.1,10.1,26.1,10.1c4.4,0,8.5-0.6,12.3-1.7C57.4,71.3,61,69.6,64.4,67.3z"/>
					</g>
					<g>
						<path d="M100.4,48.4c-4.8,0-8.6-1.9-11.4-5.6s-4.2-8.9-4.2-15.5s1.4-11.7,4.2-15.5c2.8-3.8,6.6-5.6,11.5-5.6
							c4.8,0,8.6,1.9,11.4,5.7c2.8,3.8,4.2,8.9,4.2,15.4c0,6.5-1.4,11.6-4.2,15.4C109,46.5,105.2,48.4,100.4,48.4z M100.4,56
							c7.8,0,13.9-2.5,18.4-7.6c4.5-5.1,6.7-12.1,6.7-21.1c0-8.9-2.2-16-6.7-21.1c-4.5-5.1-10.6-7.6-18.4-7.6
							c-7.8,0-14,2.5-18.4,7.6c-4.4,5.1-6.7,12.1-6.7,21.1c0,9,2.2,16,6.7,21.1C86.4,53.5,92.6,56,100.4,56z"/>
					</g>
					<g>
						<path d="M139.5,21.6v33.1h9V21.9c0-5.2,1-9.1,3-11.7c2-2.6,5.1-3.9,9.1-3.9c4.8,0,8.7,1.5,11.5,4.6c2.8,3.1,4.2,7.3,4.2,12.7
							v31h9V0h-9v8.4c-2.2-3.3-4.7-5.8-7.6-7.4c-2.9-1.6-6.2-2.4-10-2.4c-6.3,0-11.1,2-14.3,5.9C141.1,8.3,139.5,14.1,139.5,21.6z"
							/>
					</g>
					<g>
						<path id="DejaVuSans-110" d="M249.3,33V0h-9v32.7c0,5.2-1,9-3,11.6c-2,2.6-5,3.9-9.1,3.9c-4.9,0-8.7-1.5-11.5-4.6
							c-2.8-3.1-4.2-7.3-4.2-12.6V0h-9v54.7h9v-8.5c2.2,3.3,4.7,5.8,7.6,7.4c2.9,1.6,6.3,2.4,10.1,2.4c6.3,0,11-1.9,14.2-5.8
							C247.7,46.3,249.3,40.6,249.3,33z"/>
					</g>
					<g>
						<path id="DejaVuSans-116" d="M276.1,70.2V54.7h18.5v-7h-18.5V18c0-4.5,0.6-7.3,1.8-8.6s3.7-1.9,7.5-1.9h9.2V0h-9.2
							c-6.9,0-11.7,1.3-14.4,3.9c-2.6,2.6-4,7.3-4,14.1v29.7h-6.6v7h6.6v15.5H276.1z"/>
					</g>
				</g>
			</g>
		</g>
		<g id="patch_43">
			<path class="st33" d="M57.6,307.6V41.5"/>
		</g>
		<g id="patch_44">
			<path class="st33" d="M57.6,307.6h357.1"/>
		</g>
		<g id="text_12">
			<g transform="translate(98.758125 35.472)scale(0.12 -0.12)">
				<g>
					<path id="DejaVuSans-68" d="M19.7,64.8V8.1h11.9c10.1,0,17.4,2.3,22.1,6.8c4.7,4.6,7,11.8,7,21.6c0,9.8-2.3,16.9-7,21.5
						s-12,6.8-22.1,6.8H19.7z M9.8,72.9h20.3c14.1,0,24.5-2.9,31.1-8.8c6.6-5.9,9.9-15.1,9.9-27.6c0-12.6-3.3-21.8-10-27.7
						c-6.6-5.9-17-8.8-31-8.8H9.8V72.9z"/>
				</g>
				<g>
					<path id="DejaVuSans-105" d="M86.4,54.7h9V0h-9V54.7z M86.4,76h9V64.6h-9V76z"/>
				</g>
				<g>
					<path id="DejaVuSans-115" d="M149.1,53.1v-8.5c-2.5,1.3-5.2,2.3-7.9,2.9c-2.7,0.7-5.6,1-8.5,1c-4.5,0-7.8-0.7-10-2
						s-3.3-3.4-3.3-6.2c0-2.1,0.8-3.7,2.4-4.9s4.8-2.3,9.6-3.4l3.1-0.7c6.4-1.4,10.9-3.3,13.6-5.8s4-6,4-10.4c0-5.1-2-9.1-6-12.1
						c-4-3-9.5-4.4-16.6-4.4c-2.9,0-6,0.3-9.2,0.9s-6.5,1.4-10,2.6v9.3c3.3-1.7,6.6-3,9.8-3.9c3.2-0.9,6.4-1.3,9.6-1.3
						c4.2,0,7.5,0.7,9.8,2.2c2.3,1.4,3.4,3.5,3.4,6.1c0,2.4-0.8,4.3-2.5,5.6c-1.6,1.3-5.2,2.6-10.8,3.8l-3.1,0.7
						c-5.6,1.2-9.6,3-12.1,5.4c-2.5,2.4-3.7,5.8-3.7,10c0,5.1,1.8,9.1,5.5,11.9c3.6,2.8,8.8,4.2,15.5,4.2c3.3,0,6.4-0.2,9.4-0.7
						C143.9,54.8,146.6,54.1,149.1,53.1z"/>
				</g>
				<g>
					<path d="M175.2,70.2V54.7h18.5v-7h-18.5V18c0-4.5,0.6-7.3,1.8-8.6s3.7-1.9,7.5-1.9h9.2V0h-9.2c-6.9,0-11.7,1.3-14.4,3.9
						c-2.6,2.6-4,7.3-4,14.1v29.7h-6.6v7h6.6v15.5H175.2z"/>
				</g>
				<g>
					<path id="DejaVuSans-114" d="M237.2,46.3c-1,0.6-2.1,1-3.3,1.3c-1.2,0.3-2.5,0.4-3.9,0.4c-5.1,0-9-1.7-11.7-5s-4.1-8-4.1-14.2
						V0h-9v54.7h9v-8.5c1.9,3.3,4.4,5.8,7.4,7.4c3,1.6,6.7,2.4,11,2.4c0.6,0,1.3,0,2-0.1c0.8-0.1,1.6-0.2,2.5-0.4L237.2,46.3z"/>
				</g>
				<g>
					<path d="M246.6,54.7h9V0h-9V54.7z M246.6,76h9V64.6h-9V76z"/>
				</g>
				<g>
					<path id="DejaVuSans-98" d="M313.7,27.3c0,6.6-1.4,11.8-4.1,15.5s-6.5,5.6-11.2,5.6c-4.8,0-8.5-1.9-11.2-5.6s-4.1-8.9-4.1-15.5
						s1.4-11.8,4.1-15.5s6.5-5.6,11.2-5.6c4.8,0,8.5,1.9,11.2,5.6S313.7,20.7,313.7,27.3z M283.1,46.4c1.9,3.2,4.3,5.7,7.2,7.2
						c2.9,1.6,6.3,2.4,10.3,2.4c6.6,0,12-2.6,16.2-7.9c4.2-5.3,6.2-12.2,6.2-20.8s-2.1-15.5-6.2-20.8c-4.1-5.3-9.5-7.9-16.2-7.9
						c-4,0-7.4,0.8-10.3,2.4c-2.9,1.6-5.3,4-7.2,7.2V0h-9v76h9V46.4z"/>
				</g>
				<g>
					<path d="M337,21.6v33.1h9V21.9c0-5.2,1-9.1,3-11.7c2-2.6,5.1-3.9,9.1-3.9c4.8,0,8.7,1.5,11.5,4.6c2.8,3.1,4.2,7.3,4.2,12.7v31
						h9V0h-9v8.4c-2.2-3.3-4.7-5.8-7.6-7.4c-2.9-1.6-6.2-2.4-10-2.4c-6.3,0-11.1,2-14.3,5.9C338.6,8.3,337,14.1,337,21.6z"/>
				</g>
				<g>
					<path d="M410.2,70.2V54.7h18.5v-7h-18.5V18c0-4.5,0.6-7.3,1.8-8.6s3.7-1.9,7.5-1.9h9.2V0h-9.2c-6.9,0-11.7,1.3-14.4,3.9
						c-2.6,2.6-4,7.3-4,14.1v29.7h-6.6v7h6.6v15.5H410.2z"/>
				</g>
				<g>
					<path d="M440.5,54.7h9V0h-9V54.7z M440.5,76h9V64.6h-9V76z"/>
				</g>
				<g>
					<path d="M489.4,48.4c-4.8,0-8.6-1.9-11.4-5.6c-2.8-3.8-4.2-8.9-4.2-15.5s1.4-11.7,4.2-15.5c2.8-3.8,6.6-5.6,11.5-5.6
						c4.8,0,8.6,1.9,11.4,5.7c2.8,3.8,4.2,8.9,4.2,15.4c0,6.5-1.4,11.6-4.2,15.4C498,46.5,494.2,48.4,489.4,48.4z M489.4,56
						c7.8,0,13.9-2.5,18.4-7.6c4.5-5.1,6.7-12.1,6.7-21.1c0-8.9-2.2-16-6.7-21.1c-4.5-5.1-10.6-7.6-18.4-7.6c-7.8,0-14,2.5-18.4,7.6
						c-4.4,5.1-6.7,12.1-6.7,21.1c0,9,2.2,16,6.7,21.1C475.5,53.5,481.6,56,489.4,56z"/>
				</g>
				<g>
					<path d="M574.9,33V0h-9v32.7c0,5.2-1,9-3,11.6c-2,2.6-5,3.9-9.1,3.9c-4.9,0-8.7-1.5-11.5-4.6c-2.8-3.1-4.2-7.3-4.2-12.6V0h-9
						v54.7h9v-8.5c2.2,3.3,4.7,5.8,7.6,7.4c2.9,1.6,6.3,2.4,10.1,2.4c6.3,0,11-1.9,14.2-5.8C573.3,46.3,574.9,40.6,574.9,33z"/>
				</g>
				<g>
					<path d="M583.4,0"/>
				</g>
				<g>
					<path d="M645.8,48.4c-4.8,0-8.6-1.9-11.4-5.6c-2.8-3.8-4.2-8.9-4.2-15.5s1.4-11.7,4.2-15.5c2.8-3.8,6.6-5.6,11.5-5.6
						c4.8,0,8.6,1.9,11.4,5.7c2.8,3.8,4.2,8.9,4.2,15.4c0,6.5-1.4,11.6-4.2,15.4C654.4,46.5,650.6,48.4,645.8,48.4z M645.8,56
						c7.8,0,13.9-2.5,18.4-7.6c4.5-5.1,6.7-12.1,6.7-21.1c0-8.9-2.2-16-6.7-21.1c-4.5-5.1-10.6-7.6-18.4-7.6c-7.8,0-14,2.5-18.4,7.6
						c-4.4,5.1-6.7,12.1-6.7,21.1c0,9,2.2,16,6.7,21.1C631.8,53.5,638,56,645.8,56z"/>
				</g>
				<g>
					<path id="DejaVuSans-102" d="M713.5,76v-7.5h-8.6c-3.2,0-5.5-0.7-6.7-2c-1.2-1.3-1.9-3.6-1.9-7v-4.8h14.8v-7h-14.8V0h-9v47.7
						h-8.6v7h8.6v3.8c0,6.1,1.4,10.5,4.2,13.3c2.8,2.8,7.3,4.2,13.5,4.2H713.5z"/>
				</g>
				<g>
					<path d="M711.6,0"/>
				</g>
				<g>
					<path d="M787.8,34.2c2.1-0.7,4.2-2.2,6.2-4.6s4-5.6,6-9.7L810,0h-10.6L790,18.7c-2.4,4.9-4.8,8.1-7,9.7
						c-2.3,1.6-5.3,2.4-9.2,2.4H763V0h-9.9v72.9h22.3c8.3,0,14.6-1.7,18.7-5.2c4.1-3.5,6.2-8.7,6.2-15.8c0-4.6-1.1-8.4-3.2-11.4
						C794.9,37.4,791.8,35.4,787.8,34.2z M763,64.8V38.9h12.4c4.8,0,8.3,1.1,10.8,3.3c2.4,2.2,3.6,5.4,3.6,9.7s-1.2,7.5-3.6,9.6
						c-2.4,2.2-6,3.2-10.8,3.2H763z"/>
				</g>
				<g>
					<path d="M843.4,48.4c-4.8,0-8.6-1.9-11.4-5.6c-2.8-3.8-4.2-8.9-4.2-15.5s1.4-11.7,4.2-15.5c2.8-3.8,6.6-5.6,11.5-5.6
						c4.8,0,8.6,1.9,11.4,5.7c2.8,3.8,4.2,8.9,4.2,15.4c0,6.5-1.4,11.6-4.2,15.4C852,46.5,848.2,48.4,843.4,48.4z M843.4,56
						c7.8,0,13.9-2.5,18.4-7.6c4.5-5.1,6.7-12.1,6.7-21.1c0-8.9-2.2-16-6.7-21.1c-4.5-5.1-10.6-7.6-18.4-7.6c-7.8,0-14,2.5-18.4,7.6
						c-4.4,5.1-6.7,12.1-6.7,21.1c0,9,2.2,16,6.7,21.1C829.4,53.5,835.5,56,843.4,56z"/>
				</g>
				<g>
					<path d="M878.2,54.7h9L898.4,12l11.2,42.7h10.6L931.4,12l11.2,42.7h9L937.2,0h-10.6l-11.8,44.8L903.1,0h-10.6L878.2,54.7z"/>
				</g>
				<g>
					<path d="M955.7,0"/>
				</g>
				<g>
					<path d="M1041.1,70.5v-9.6c-3.7,1.8-7.3,3.1-10.6,4c-3.3,0.9-6.5,1.3-9.6,1.3c-5.4,0-9.5-1-12.4-3.1c-2.9-2.1-4.4-5-4.4-8.9
						c0-3.2,1-5.7,2.9-7.3c1.9-1.6,5.6-3,11-4l6-1.2c7.4-1.4,12.8-3.9,16.3-7.4s5.2-8.3,5.2-14.2c0-7.1-2.4-12.4-7.1-16.1
						c-4.7-3.6-11.7-5.5-20.8-5.5c-3.4,0-7.1,0.4-11,1.2c-3.9,0.8-7.9,1.9-12.1,3.5v10.2c4-2.2,7.9-3.9,11.8-5.1
						c3.8-1.1,7.6-1.7,11.3-1.7c5.6,0,10,1.1,13,3.3c3.1,2.2,4.6,5.4,4.6,9.5c0,3.6-1.1,6.4-3.3,8.4c-2.2,2-5.8,3.5-10.8,4.5l-6,1.2
						c-7.4,1.5-12.7,3.8-16,6.9c-3.3,3.1-4.9,7.5-4.9,13c0,6.4,2.3,11.5,6.8,15.2c4.5,3.7,10.8,5.6,18.8,5.6c3.4,0,6.9-0.3,10.5-0.9
						C1033.7,72.7,1037.3,71.7,1041.1,70.5z"/>
				</g>
				<g>
					<path d="M1059.5,21.6v33.1h9V21.9c0-5.2,1-9.1,3-11.7c2-2.6,5.1-3.9,9.1-3.9c4.8,0,8.7,1.5,11.5,4.6c2.8,3.1,4.2,7.3,4.2,12.7
						v31h9V0h-9v8.4c-2.2-3.3-4.7-5.8-7.6-7.4c-2.9-1.6-6.2-2.4-10-2.4c-6.3,0-11.1,2-14.3,5.9C1061.1,8.3,1059.5,14.1,1059.5,21.6z
						"/>
				</g>
				<g>
					<path d="M1166.4,44.2c2.2,4,4.9,7,8.1,8.9s6.8,2.9,11,2.9c5.7,0,10.1-2,13.2-6c3.1-4,4.6-9.6,4.6-17V0h-9v32.7
						c0,5.2-0.9,9.1-2.8,11.7c-1.9,2.5-4.7,3.8-8.5,3.8c-4.7,0-8.3-1.5-11-4.6c-2.7-3.1-4-7.3-4-12.6V0h-9v32.7
						c0,5.3-0.9,9.2-2.8,11.7c-1.9,2.5-4.7,3.8-8.6,3.8c-4.6,0-8.2-1.6-11-4.7c-2.7-3.1-4-7.3-4-12.6V0h-9v54.7h9v-8.5
						c2.1,3.4,4.5,5.8,7.4,7.4c2.9,1.6,6.3,2.4,10.2,2.4c4,0,7.4-1,10.1-3C1163,51,1165.1,48,1166.4,44.2z"/>
				</g>
				<g>
					<path d="M1256.1,53.1v-8.5c-2.5,1.3-5.2,2.3-7.9,2.9c-2.7,0.7-5.6,1-8.5,1c-4.5,0-7.8-0.7-10-2c-2.2-1.4-3.3-3.4-3.3-6.2
						c0-2.1,0.8-3.7,2.4-4.9s4.8-2.3,9.6-3.4l3.1-0.7c6.4-1.4,10.9-3.3,13.6-5.8s4-6,4-10.4c0-5.1-2-9.1-6-12.1
						c-4-3-9.5-4.4-16.6-4.4c-2.9,0-6,0.3-9.2,0.9c-3.2,0.6-6.5,1.4-10,2.6v9.3c3.3-1.7,6.6-3,9.8-3.9c3.2-0.9,6.4-1.3,9.6-1.3
						c4.2,0,7.5,0.7,9.8,2.2c2.3,1.4,3.4,3.5,3.4,6.1c0,2.4-0.8,4.3-2.5,5.6c-1.6,1.3-5.2,2.6-10.8,3.8l-3.1,0.7
						c-5.6,1.2-9.6,3-12.1,5.4c-2.5,2.4-3.7,5.8-3.7,10c0,5.1,1.8,9.1,5.5,11.9c3.6,2.8,8.8,4.2,15.5,4.2c3.3,0,6.4-0.2,9.4-0.7
						C1250.9,54.8,1253.6,54.1,1256.1,53.1z"/>
				</g>
				<g>
					<path d="M1263.9,0"/>
				</g>
				<g>
					<path d="M1332.8,76v-7.5h-8.6c-3.2,0-5.5-0.7-6.7-2c-1.2-1.3-1.9-3.6-1.9-7v-4.8h14.8v-7h-14.8V0h-9v47.7h-8.6v7h8.6v3.8
						c0,6.1,1.4,10.5,4.2,13.3c2.8,2.8,7.3,4.2,13.5,4.2H1332.8z"/>
				</g>
				<g>
					<path d="M1361.5,48.4c-4.8,0-8.6-1.9-11.4-5.6c-2.8-3.8-4.2-8.9-4.2-15.5s1.4-11.7,4.2-15.5c2.8-3.8,6.6-5.6,11.5-5.6
						c4.8,0,8.6,1.9,11.4,5.7c2.8,3.8,4.2,8.9,4.2,15.4c0,6.5-1.4,11.6-4.2,15.4C1370.1,46.5,1366.3,48.4,1361.5,48.4z M1361.5,56
						c7.8,0,13.9-2.5,18.4-7.6c4.5-5.1,6.7-12.1,6.7-21.1c0-8.9-2.2-16-6.7-21.1c-4.5-5.1-10.6-7.6-18.4-7.6c-7.8,0-14,2.5-18.4,7.6
						c-4.4,5.1-6.7,12.1-6.7,21.1c0,9,2.2,16,6.7,21.1C1347.5,53.5,1353.7,56,1361.5,56z"/>
				</g>
				<g>
					<path d="M1433.2,46.3c-1,0.6-2.1,1-3.3,1.3c-1.2,0.3-2.5,0.4-3.9,0.4c-5.1,0-9-1.7-11.7-5s-4.1-8-4.1-14.2V0h-9v54.7h9v-8.5
						c1.9,3.3,4.4,5.8,7.4,7.4c3,1.6,6.7,2.4,11,2.4c0.6,0,1.3,0,2-0.1c0.8-0.1,1.6-0.2,2.5-0.4L1433.2,46.3z"/>
				</g>
				<g>
					<path d="M1433.2,0"/>
				</g>
				<g>
					<path id="DejaVuSans-103" d="M1510.4,28c0,6.5-1.3,11.6-4,15.1c-2.7,3.6-6.4,5.4-11.3,5.4c-4.8,0-8.6-1.8-11.2-5.4
						c-2.7-3.6-4-8.6-4-15.1c0-6.5,1.3-11.5,4-15.1s6.4-5.4,11.2-5.4c4.9,0,8.6,1.8,11.3,5.4C1509,16.5,1510.4,21.5,1510.4,28z
						 M1519.4,6.8c0-9.3-2.1-16.2-6.2-20.8c-4.1-4.5-10.5-6.8-19-6.8c-3.2,0-6.1,0.2-8.9,0.7c-2.8,0.5-5.5,1.2-8.2,2.2v8.7
						c2.6-1.4,5.2-2.5,7.8-3.2c2.6-0.7,5.2-1,7.9-1c5.9,0,10.3,1.5,13.2,4.6c2.9,3.1,4.4,7.7,4.4,13.9v4.5c-1.9-3.2-4.2-5.6-7.1-7.2
						c-2.9-1.6-6.4-2.4-10.4-2.4c-6.7,0-12.1,2.6-16.2,7.7c-4.1,5.1-6.2,11.9-6.2,20.3c0,8.5,2.1,15.2,6.2,20.3
						c4.1,5.1,9.5,7.7,16.2,7.7c4,0,7.5-0.8,10.4-2.4c2.9-1.6,5.3-4,7.1-7.2v8.3h9V6.8z"/>
				</g>
				<g>
					<path id="DejaVuSans-97" d="M1562.7,27.5c-7.3,0-12.3-0.8-15.1-2.5c-2.8-1.7-4.2-4.5-4.2-8.5c0-3.2,1.1-5.7,3.2-7.6
						c2.1-1.9,5-2.8,8.6-2.8c5,0,9,1.8,12,5.3c3,3.5,4.5,8.2,4.5,14.1v2H1562.7z M1580.7,31.2V0h-9v8.3c-2.1-3.3-4.6-5.8-7.7-7.3
						s-6.8-2.4-11.2-2.4c-5.6,0-10,1.6-13.4,4.7c-3.3,3.1-5,7.4-5,12.6c0,6.1,2.1,10.8,6.2,13.9c4.1,3.1,10.3,4.7,18.4,4.7h12.6v0.9
						c0,4.1-1.4,7.3-4.1,9.6s-6.5,3.4-11.5,3.4c-3.1,0-6.2-0.4-9.1-1.1c-3-0.8-5.8-1.9-8.5-3.4v8.3c3.3,1.3,6.5,2.2,9.6,2.8
						c3.1,0.6,6.1,1,9,1c7.9,0,13.8-2.1,17.7-6.2C1578.7,45.7,1580.7,39.5,1580.7,31.2z"/>
				</g>
				<g>
					<path id="DejaVuSans-100" d="M1635.1,46.4V76h9V0h-9v8.2c-1.9-3.2-4.3-5.7-7.2-7.2c-2.9-1.6-6.3-2.4-10.4-2.4
						c-6.6,0-12,2.6-16.1,7.9c-4.1,5.3-6.2,12.2-6.2,20.8s2.1,15.5,6.2,20.8c4.2,5.3,9.5,7.9,16.1,7.9c4,0,7.5-0.8,10.4-2.4
						C1630.9,52.1,1633.3,49.6,1635.1,46.4z M1604.5,27.3c0-6.6,1.4-11.8,4.1-15.5s6.5-5.6,11.2-5.6s8.5,1.9,11.2,5.6
						c2.7,3.8,4.1,8.9,4.1,15.5s-1.4,11.8-4.1,15.5c-2.7,3.8-6.5,5.6-11.2,5.6s-8.5-1.9-11.2-5.6S1604.5,33.9,1604.5,27.3z"/>
				</g>
				<g>
					<path id="DejaVuSans-65" d="M1687.4,63.2L1674,26.9h26.8L1687.4,63.2z M1681.8,72.9h11.2L1720.8,0h-10.2l-6.6,18.7H1671
						L1664.4,0H1654L1681.8,72.9z"/>
				</g>
				<g>
					<path id="DejaVuSans-87" d="M1724.9,72.9h10l15.3-61.6l15.3,61.6h11.1l15.3-61.6l15.3,61.6h10L1798.8,0h-12.4l-15.4,63.3
						L1755.5,0h-12.4L1724.9,72.9z"/>
				</g>
				<g>
					<path id="DejaVuSans-88" d="M1826.7,72.9h10.6l18.1-27.1l18.2,27.1h10.6l-23.4-35l25-37.9h-10.6l-20.5,31L1834,0h-10.6l26,38.9
						L1826.7,72.9z"/>
				</g>
				<g>
					<path d="M1888.9,0"/>
				</g>
				<g>
					<path id="DejaVuSans-79" d="M1960.1,66.2c-7.2,0-12.9-2.7-17.1-8c-4.2-5.3-6.3-12.6-6.3-21.8c0-9.2,2.1-16.4,6.3-21.8
						c4.2-5.3,9.9-8,17.1-8c7.2,0,12.8,2.7,17,8c4.2,5.3,6.3,12.6,6.3,21.8c0,9.2-2.1,16.5-6.3,21.8
						C1972.9,63.5,1967.3,66.2,1960.1,66.2z M1960.1,74.2c10.2,0,18.4-3.4,24.5-10.3c6.1-6.9,9.2-16,9.2-27.6
						c0-11.5-3.1-20.7-9.2-27.5c-6.1-6.9-14.3-10.3-24.5-10.3c-10.2,0-18.4,3.4-24.6,10.2c-6.1,6.8-9.2,16-9.2,27.5
						s3.1,20.7,9.2,27.6C1941.7,70.8,1949.9,74.2,1960.1,74.2z"/>
				</g>
				<g>
					<path id="DejaVuSans-112" d="M2017.5,8.2v-29h-9v75.5h9v-8.3c1.9,3.2,4.3,5.7,7.2,7.2c2.9,1.6,6.3,2.4,10.3,2.4
						c6.6,0,12-2.6,16.2-7.9c4.2-5.3,6.2-12.2,6.2-20.8s-2.1-15.5-6.2-20.8c-4.1-5.3-9.5-7.9-16.2-7.9c-4,0-7.4,0.8-10.3,2.4
						C2021.8,2.5,2019.4,5,2017.5,8.2z M2048.1,27.3c0,6.6-1.4,11.8-4.1,15.5s-6.5,5.6-11.2,5.6c-4.8,0-8.5-1.9-11.2-5.6
						s-4.1-8.9-4.1-15.5s1.4-11.8,4.1-15.5s6.5-5.6,11.2-5.6c4.8,0,8.5,1.9,11.2,5.6S2048.1,20.7,2048.1,27.3z"/>
				</g>
				<g>
					<path id="DejaVuSans-101" d="M2119.1,29.6v-4.4h-41.3c0.4-6.2,2.3-10.9,5.6-14.1c3.3-3.2,8-4.9,13.9-4.9c3.4,0,6.8,0.4,10,1.3
						c3.2,0.8,6.5,2.1,9.7,3.8V2.8c-3.2-1.4-6.5-2.4-9.9-3.1c-3.4-0.7-6.8-1.1-10.3-1.1c-8.7,0-15.6,2.5-20.7,7.6
						c-5.1,5.1-7.6,12-7.6,20.6c0,8.9,2.4,16,7.2,21.3c4.8,5.3,11.4,7.9,19.6,7.9c7.4,0,13.2-2.4,17.5-7.1
						C2117,44.2,2119.1,37.7,2119.1,29.6z M2110.1,32.2c-0.1,4.9-1.4,8.8-4.1,11.8c-2.7,2.9-6.2,4.4-10.7,4.4c-5,0-9-1.4-12-4.2
						c-3-2.8-4.7-6.8-5.2-12L2110.1,32.2z"/>
				</g>
				<g>
					<path d="M2165.5,46.3c-1,0.6-2.1,1-3.3,1.3c-1.2,0.3-2.5,0.4-3.9,0.4c-5.1,0-9-1.7-11.7-5s-4.1-8-4.1-14.2V0h-9v54.7h9v-8.5
						c1.9,3.3,4.4,5.8,7.4,7.4c3,1.6,6.7,2.4,11,2.4c0.6,0,1.3,0,2-0.1c0.8-0.1,1.6-0.2,2.5-0.4L2165.5,46.3z"/>
				</g>
				<g>
					<path d="M2196.1,48.4c-4.8,0-8.6-1.9-11.4-5.6c-2.8-3.8-4.2-8.9-4.2-15.5s1.4-11.7,4.2-15.5c2.8-3.8,6.6-5.6,11.5-5.6
						c4.8,0,8.6,1.9,11.4,5.7c2.8,3.8,4.2,8.9,4.2,15.4c0,6.5-1.4,11.6-4.2,15.4C2204.7,46.5,2200.9,48.4,2196.1,48.4z M2196.1,56
						c7.8,0,13.9-2.5,18.4-7.6c4.5-5.1,6.7-12.1,6.7-21.1c0-8.9-2.2-16-6.7-21.1c-4.5-5.1-10.6-7.6-18.4-7.6c-7.8,0-14,2.5-18.4,7.6
						c-4.4,5.1-6.7,12.1-6.7,21.1c0,9,2.2,16,6.7,21.1C2182.1,53.5,2188.3,56,2196.1,56z"/>
				</g>
				<g>
					<path d="M2281.6,33V0h-9v32.7c0,5.2-1,9-3,11.6c-2,2.6-5,3.9-9.1,3.9c-4.9,0-8.7-1.5-11.5-4.6c-2.8-3.1-4.2-7.3-4.2-12.6V0h-9
						v54.7h9v-8.5c2.2,3.3,4.7,5.8,7.6,7.4c2.9,1.6,6.3,2.4,10.1,2.4c6.3,0,11-1.9,14.2-5.8C2280,46.3,2281.6,40.6,2281.6,33z"/>
				</g>
			</g>
		</g>
	</g>
</g>
<path class="st34" d="M284.4,306.8h8.1V272h-8.1V306.8z"/>
</svg>
