<?xml version="1.0" encoding="utf-8" standalone="no"?>
<!DOCTYPE svg PUBLIC "-//W3C//DTD SVG 1.1//EN"
  "http://www.w3.org/Graphics/SVG/1.1/DTD/svg11.dtd">
<!-- Created with matplotlib (https://matplotlib.org/) -->
<svg height="432pt" version="1.1" viewBox="0 0 864 432" width="864pt" xmlns="http://www.w3.org/2000/svg" xmlns:xlink="http://www.w3.org/1999/xlink">
 <defs>
  <style type="text/css">
*{stroke-linecap:butt;stroke-linejoin:round;}
  </style>
 </defs>
 <g id="figure_1">
  <g id="patch_1">
   <path d="M 0 432 
L 864 432 
L 864 0 
L 0 0 
z
" style="fill:#ffffff;"/>
  </g>
  <g id="axes_1">
   <g id="patch_2">
    <path d="M 108 384.48 
L 412.363636 384.48 
L 412.363636 51.84 
L 108 51.84 
z
" style="fill:#ffffff;"/>
   </g>
   <g id="patch_3">
    <path clip-path="url(#p6ce7d70ee6)" d="M 121.834711 384.48 
L 139.128099 384.48 
L 139.128099 383.077196 
L 121.834711 383.077196 
z
" style="fill:#0000ff;opacity:0.4;"/>
   </g>
   <g id="patch_4">
    <path clip-path="url(#p6ce7d70ee6)" d="M 139.128099 384.48 
L 156.421488 384.48 
L 156.421488 377.232177 
L 139.128099 377.232177 
z
" style="fill:#0000ff;opacity:0.4;"/>
   </g>
   <g id="patch_5">
    <path clip-path="url(#p6ce7d70ee6)" d="M 156.421488 384.48 
L 173.714876 384.48 
L 173.714876 373.491365 
L 156.421488 373.491365 
z
" style="fill:#0000ff;opacity:0.4;"/>
   </g>
   <g id="patch_6">
    <path clip-path="url(#p6ce7d70ee6)" d="M 173.714876 384.48 
L 191.008264 384.48 
L 191.008264 373.958967 
L 173.714876 373.958967 
z
" style="fill:#0000ff;opacity:0.4;"/>
   </g>
   <g id="patch_7">
    <path clip-path="url(#p6ce7d70ee6)" d="M 191.008264 384.48 
L 208.301653 384.48 
L 208.301653 339.122657 
L 191.008264 339.122657 
z
" style="fill:#0000ff;opacity:0.4;"/>
   </g>
   <g id="patch_8">
    <path clip-path="url(#p6ce7d70ee6)" d="M 208.301653 384.48 
L 225.595041 384.48 
L 225.595041 240.926347 
L 208.301653 240.926347 
z
" style="fill:#0000ff;opacity:0.4;"/>
   </g>
   <g id="patch_9">
    <path clip-path="url(#p6ce7d70ee6)" d="M 225.595041 384.48 
L 242.88843 384.48 
L 242.88843 343.097269 
L 225.595041 343.097269 
z
" style="fill:#0000ff;opacity:0.4;"/>
   </g>
   <g id="patch_10">
    <path clip-path="url(#p6ce7d70ee6)" d="M 242.88843 384.48 
L 260.181818 384.48 
L 260.181818 370.919557 
L 242.88843 370.919557 
z
" style="fill:#0000ff;opacity:0.4;"/>
   </g>
   <g id="patch_11">
    <path clip-path="url(#p6ce7d70ee6)" d="M 260.181818 384.48 
L 277.475207 384.48 
L 277.475207 383.310996 
L 260.181818 383.310996 
z
" style="fill:#0000ff;opacity:0.4;"/>
   </g>
   <g id="patch_12">
    <path clip-path="url(#p6ce7d70ee6)" d="M 277.475207 384.48 
L 294.768595 384.48 
L 294.768595 371.387159 
L 277.475207 371.387159 
z
" style="fill:#0000ff;opacity:0.4;"/>
   </g>
   <g id="patch_13">
    <path clip-path="url(#p6ce7d70ee6)" d="M 294.768595 384.48 
L 312.061983 384.48 
L 312.061983 371.85476 
L 294.768595 371.85476 
z
" style="fill:#0000ff;opacity:0.4;"/>
   </g>
   <g id="patch_14">
    <path clip-path="url(#p6ce7d70ee6)" d="M 312.061983 384.48 
L 329.355372 384.48 
L 329.355372 382.141993 
L 312.061983 382.141993 
z
" style="fill:#0000ff;opacity:0.4;"/>
   </g>
   <g id="patch_15">
    <path clip-path="url(#p6ce7d70ee6)" d="M 329.355372 384.48 
L 346.64876 384.48 
L 346.64876 67.68 
L 329.355372 67.68 
z
" style="fill:#0000ff;opacity:0.4;"/>
   </g>
   <g id="patch_16">
    <path clip-path="url(#p6ce7d70ee6)" d="M 346.64876 384.48 
L 363.942149 384.48 
L 363.942149 224.326494 
L 346.64876 224.326494 
z
" style="fill:#0000ff;opacity:0.4;"/>
   </g>
   <g id="patch_17">
    <path clip-path="url(#p6ce7d70ee6)" d="M 363.942149 384.48 
L 381.235537 384.48 
L 381.235537 342.395867 
L 363.942149 342.395867 
z
" style="fill:#0000ff;opacity:0.4;"/>
   </g>
   <g id="patch_18">
    <path clip-path="url(#p6ce7d70ee6)" d="M 381.235537 384.48 
L 398.528926 384.48 
L 398.528926 214.740664 
L 381.235537 214.740664 
z
" style="fill:#0000ff;opacity:0.4;"/>
   </g>
   <g id="matplotlib.axis_1">
    <g id="xtick_1">
     <g id="line2d_1">
      <defs>
       <path d="M 0 0 
L 0 3.5 
" id="mec8c0a66a3" style="stroke:#000000;stroke-width:0.8;"/>
      </defs>
      <g>
       <use style="stroke:#000000;stroke-width:0.8;" x="156.421488" xlink:href="#mec8c0a66a3" y="384.48"/>
      </g>
     </g>
     <g id="text_1">
      <!-- 5 -->
      <defs>
       <path d="M 10.796875 72.90625 
L 49.515625 72.90625 
L 49.515625 64.59375 
L 19.828125 64.59375 
L 19.828125 46.734375 
Q 21.96875 47.46875 24.109375 47.828125 
Q 26.265625 48.1875 28.421875 48.1875 
Q 40.625 48.1875 47.75 41.5 
Q 54.890625 34.8125 54.890625 23.390625 
Q 54.890625 11.625 47.5625 5.09375 
Q 40.234375 -1.421875 26.90625 -1.421875 
Q 22.3125 -1.421875 17.546875 -0.640625 
Q 12.796875 0.140625 7.71875 1.703125 
L 7.71875 11.625 
Q 12.109375 9.234375 16.796875 8.0625 
Q 21.484375 6.890625 26.703125 6.890625 
Q 35.15625 6.890625 40.078125 11.328125 
Q 45.015625 15.765625 45.015625 23.390625 
Q 45.015625 31 40.078125 35.4375 
Q 35.15625 39.890625 26.703125 39.890625 
Q 22.75 39.890625 18.8125 39.015625 
Q 14.890625 38.140625 10.796875 36.28125 
z
" id="DejaVuSans-53"/>
      </defs>
      <g transform="translate(148.786488 409.71625)scale(0.24 -0.24)">
       <use xlink:href="#DejaVuSans-53"/>
      </g>
     </g>
    </g>
    <g id="xtick_2">
     <g id="line2d_2">
      <g>
       <use style="stroke:#000000;stroke-width:0.8;" x="242.88843" xlink:href="#mec8c0a66a3" y="384.48"/>
      </g>
     </g>
     <g id="text_2">
      <!-- 10 -->
      <defs>
       <path d="M 12.40625 8.296875 
L 28.515625 8.296875 
L 28.515625 63.921875 
L 10.984375 60.40625 
L 10.984375 69.390625 
L 28.421875 72.90625 
L 38.28125 72.90625 
L 38.28125 8.296875 
L 54.390625 8.296875 
L 54.390625 0 
L 12.40625 0 
z
" id="DejaVuSans-49"/>
       <path d="M 31.78125 66.40625 
Q 24.171875 66.40625 20.328125 58.90625 
Q 16.5 51.421875 16.5 36.375 
Q 16.5 21.390625 20.328125 13.890625 
Q 24.171875 6.390625 31.78125 6.390625 
Q 39.453125 6.390625 43.28125 13.890625 
Q 47.125 21.390625 47.125 36.375 
Q 47.125 51.421875 43.28125 58.90625 
Q 39.453125 66.40625 31.78125 66.40625 
z
M 31.78125 74.21875 
Q 44.046875 74.21875 50.515625 64.515625 
Q 56.984375 54.828125 56.984375 36.375 
Q 56.984375 17.96875 50.515625 8.265625 
Q 44.046875 -1.421875 31.78125 -1.421875 
Q 19.53125 -1.421875 13.0625 8.265625 
Q 6.59375 17.96875 6.59375 36.375 
Q 6.59375 54.828125 13.0625 64.515625 
Q 19.53125 74.21875 31.78125 74.21875 
z
" id="DejaVuSans-48"/>
      </defs>
      <g transform="translate(227.61843 409.71625)scale(0.24 -0.24)">
       <use xlink:href="#DejaVuSans-49"/>
       <use x="63.623047" xlink:href="#DejaVuSans-48"/>
      </g>
     </g>
    </g>
    <g id="xtick_3">
     <g id="line2d_3">
      <g>
       <use style="stroke:#000000;stroke-width:0.8;" x="329.355372" xlink:href="#mec8c0a66a3" y="384.48"/>
      </g>
     </g>
     <g id="text_3">
      <!-- 15 -->
      <g transform="translate(314.085372 409.71625)scale(0.24 -0.24)">
       <use xlink:href="#DejaVuSans-49"/>
       <use x="63.623047" xlink:href="#DejaVuSans-53"/>
      </g>
     </g>
    </g>
    <g id="text_4">
     <!-- Column Bit Count -->
     <defs>
      <path d="M 64.40625 67.28125 
L 64.40625 56.890625 
Q 59.421875 61.53125 53.78125 63.8125 
Q 48.140625 66.109375 41.796875 66.109375 
Q 29.296875 66.109375 22.65625 58.46875 
Q 16.015625 50.828125 16.015625 36.375 
Q 16.015625 21.96875 22.65625 14.328125 
Q 29.296875 6.6875 41.796875 6.6875 
Q 48.140625 6.6875 53.78125 8.984375 
Q 59.421875 11.28125 64.40625 15.921875 
L 64.40625 5.609375 
Q 59.234375 2.09375 53.4375 0.328125 
Q 47.65625 -1.421875 41.21875 -1.421875 
Q 24.65625 -1.421875 15.125 8.703125 
Q 5.609375 18.84375 5.609375 36.375 
Q 5.609375 53.953125 15.125 64.078125 
Q 24.65625 74.21875 41.21875 74.21875 
Q 47.75 74.21875 53.53125 72.484375 
Q 59.328125 70.75 64.40625 67.28125 
z
" id="DejaVuSans-67"/>
      <path d="M 30.609375 48.390625 
Q 23.390625 48.390625 19.1875 42.75 
Q 14.984375 37.109375 14.984375 27.296875 
Q 14.984375 17.484375 19.15625 11.84375 
Q 23.34375 6.203125 30.609375 6.203125 
Q 37.796875 6.203125 41.984375 11.859375 
Q 46.1875 17.53125 46.1875 27.296875 
Q 46.1875 37.015625 41.984375 42.703125 
Q 37.796875 48.390625 30.609375 48.390625 
z
M 30.609375 56 
Q 42.328125 56 49.015625 48.375 
Q 55.71875 40.765625 55.71875 27.296875 
Q 55.71875 13.875 49.015625 6.21875 
Q 42.328125 -1.421875 30.609375 -1.421875 
Q 18.84375 -1.421875 12.171875 6.21875 
Q 5.515625 13.875 5.515625 27.296875 
Q 5.515625 40.765625 12.171875 48.375 
Q 18.84375 56 30.609375 56 
z
" id="DejaVuSans-111"/>
      <path d="M 9.421875 75.984375 
L 18.40625 75.984375 
L 18.40625 0 
L 9.421875 0 
z
" id="DejaVuSans-108"/>
      <path d="M 8.5 21.578125 
L 8.5 54.6875 
L 17.484375 54.6875 
L 17.484375 21.921875 
Q 17.484375 14.15625 20.5 10.265625 
Q 23.53125 6.390625 29.59375 6.390625 
Q 36.859375 6.390625 41.078125 11.03125 
Q 45.3125 15.671875 45.3125 23.6875 
L 45.3125 54.6875 
L 54.296875 54.6875 
L 54.296875 0 
L 45.3125 0 
L 45.3125 8.40625 
Q 42.046875 3.421875 37.71875 1 
Q 33.40625 -1.421875 27.6875 -1.421875 
Q 18.265625 -1.421875 13.375 4.4375 
Q 8.5 10.296875 8.5 21.578125 
z
M 31.109375 56 
z
" id="DejaVuSans-117"/>
      <path d="M 52 44.1875 
Q 55.375 50.25 60.0625 53.125 
Q 64.75 56 71.09375 56 
Q 79.640625 56 84.28125 50.015625 
Q 88.921875 44.046875 88.921875 33.015625 
L 88.921875 0 
L 79.890625 0 
L 79.890625 32.71875 
Q 79.890625 40.578125 77.09375 44.375 
Q 74.3125 48.1875 68.609375 48.1875 
Q 61.625 48.1875 57.5625 43.546875 
Q 53.515625 38.921875 53.515625 30.90625 
L 53.515625 0 
L 44.484375 0 
L 44.484375 32.71875 
Q 44.484375 40.625 41.703125 44.40625 
Q 38.921875 48.1875 33.109375 48.1875 
Q 26.21875 48.1875 22.15625 43.53125 
Q 18.109375 38.875 18.109375 30.90625 
L 18.109375 0 
L 9.078125 0 
L 9.078125 54.6875 
L 18.109375 54.6875 
L 18.109375 46.1875 
Q 21.1875 51.21875 25.484375 53.609375 
Q 29.78125 56 35.6875 56 
Q 41.65625 56 45.828125 52.96875 
Q 50 49.953125 52 44.1875 
z
" id="DejaVuSans-109"/>
      <path d="M 54.890625 33.015625 
L 54.890625 0 
L 45.90625 0 
L 45.90625 32.71875 
Q 45.90625 40.484375 42.875 44.328125 
Q 39.84375 48.1875 33.796875 48.1875 
Q 26.515625 48.1875 22.3125 43.546875 
Q 18.109375 38.921875 18.109375 30.90625 
L 18.109375 0 
L 9.078125 0 
L 9.078125 54.6875 
L 18.109375 54.6875 
L 18.109375 46.1875 
Q 21.34375 51.125 25.703125 53.5625 
Q 30.078125 56 35.796875 56 
Q 45.21875 56 50.046875 50.171875 
Q 54.890625 44.34375 54.890625 33.015625 
z
" id="DejaVuSans-110"/>
      <path id="DejaVuSans-32"/>
      <path d="M 19.671875 34.8125 
L 19.671875 8.109375 
L 35.5 8.109375 
Q 43.453125 8.109375 47.28125 11.40625 
Q 51.125 14.703125 51.125 21.484375 
Q 51.125 28.328125 47.28125 31.5625 
Q 43.453125 34.8125 35.5 34.8125 
z
M 19.671875 64.796875 
L 19.671875 42.828125 
L 34.28125 42.828125 
Q 41.5 42.828125 45.03125 45.53125 
Q 48.578125 48.25 48.578125 53.8125 
Q 48.578125 59.328125 45.03125 62.0625 
Q 41.5 64.796875 34.28125 64.796875 
z
M 9.8125 72.90625 
L 35.015625 72.90625 
Q 46.296875 72.90625 52.390625 68.21875 
Q 58.5 63.53125 58.5 54.890625 
Q 58.5 48.1875 55.375 44.234375 
Q 52.25 40.28125 46.1875 39.3125 
Q 53.46875 37.75 57.5 32.78125 
Q 61.53125 27.828125 61.53125 20.40625 
Q 61.53125 10.640625 54.890625 5.3125 
Q 48.25 0 35.984375 0 
L 9.8125 0 
z
" id="DejaVuSans-66"/>
      <path d="M 9.421875 54.6875 
L 18.40625 54.6875 
L 18.40625 0 
L 9.421875 0 
z
M 9.421875 75.984375 
L 18.40625 75.984375 
L 18.40625 64.59375 
L 9.421875 64.59375 
z
" id="DejaVuSans-105"/>
      <path d="M 18.3125 70.21875 
L 18.3125 54.6875 
L 36.8125 54.6875 
L 36.8125 47.703125 
L 18.3125 47.703125 
L 18.3125 18.015625 
Q 18.3125 11.328125 20.140625 9.421875 
Q 21.96875 7.515625 27.59375 7.515625 
L 36.8125 7.515625 
L 36.8125 0 
L 27.59375 0 
Q 17.1875 0 13.234375 3.875 
Q 9.28125 7.765625 9.28125 18.015625 
L 9.28125 47.703125 
L 2.6875 47.703125 
L 2.6875 54.6875 
L 9.28125 54.6875 
L 9.28125 70.21875 
z
" id="DejaVuSans-116"/>
     </defs>
     <g transform="translate(128.320099 441.502813)scale(0.3 -0.3)">
      <use xlink:href="#DejaVuSans-67"/>
      <use x="69.824219" xlink:href="#DejaVuSans-111"/>
      <use x="131.005859" xlink:href="#DejaVuSans-108"/>
      <use x="158.789062" xlink:href="#DejaVuSans-117"/>
      <use x="222.167969" xlink:href="#DejaVuSans-109"/>
      <use x="319.580078" xlink:href="#DejaVuSans-110"/>
      <use x="382.958984" xlink:href="#DejaVuSans-32"/>
      <use x="414.746094" xlink:href="#DejaVuSans-66"/>
      <use x="483.349609" xlink:href="#DejaVuSans-105"/>
      <use x="511.132812" xlink:href="#DejaVuSans-116"/>
      <use x="550.341797" xlink:href="#DejaVuSans-32"/>
      <use x="582.128906" xlink:href="#DejaVuSans-67"/>
      <use x="651.953125" xlink:href="#DejaVuSans-111"/>
      <use x="713.134766" xlink:href="#DejaVuSans-117"/>
      <use x="776.513672" xlink:href="#DejaVuSans-110"/>
      <use x="839.892578" xlink:href="#DejaVuSans-116"/>
     </g>
    </g>
   </g>
   <g id="matplotlib.axis_2">
    <g id="ytick_1">
     <g id="line2d_4">
      <defs>
       <path d="M 0 0 
L -3.5 0 
" id="m1e0b67f6c1" style="stroke:#000000;stroke-width:0.8;"/>
      </defs>
      <g>
       <use style="stroke:#000000;stroke-width:0.8;" x="108" xlink:href="#m1e0b67f6c1" y="384.48"/>
      </g>
     </g>
     <g id="text_5">
      <!-- 0 -->
      <g transform="translate(85.73 393.598125)scale(0.24 -0.24)">
       <use xlink:href="#DejaVuSans-48"/>
      </g>
     </g>
    </g>
    <g id="ytick_2">
     <g id="line2d_5">
      <g>
       <use style="stroke:#000000;stroke-width:0.8;" x="108" xlink:href="#m1e0b67f6c1" y="326.029815"/>
      </g>
     </g>
     <g id="text_6">
      <!-- 250 -->
      <defs>
       <path d="M 19.1875 8.296875 
L 53.609375 8.296875 
L 53.609375 0 
L 7.328125 0 
L 7.328125 8.296875 
Q 12.9375 14.109375 22.625 23.890625 
Q 32.328125 33.6875 34.8125 36.53125 
Q 39.546875 41.84375 41.421875 45.53125 
Q 43.3125 49.21875 43.3125 52.78125 
Q 43.3125 58.59375 39.234375 62.25 
Q 35.15625 65.921875 28.609375 65.921875 
Q 23.96875 65.921875 18.8125 64.3125 
Q 13.671875 62.703125 7.8125 59.421875 
L 7.8125 69.390625 
Q 13.765625 71.78125 18.9375 73 
Q 24.125 74.21875 28.421875 74.21875 
Q 39.75 74.21875 46.484375 68.546875 
Q 53.21875 62.890625 53.21875 53.421875 
Q 53.21875 48.921875 51.53125 44.890625 
Q 49.859375 40.875 45.40625 35.40625 
Q 44.1875 33.984375 37.640625 27.21875 
Q 31.109375 20.453125 19.1875 8.296875 
z
" id="DejaVuSans-50"/>
      </defs>
      <g transform="translate(55.19 335.14794)scale(0.24 -0.24)">
       <use xlink:href="#DejaVuSans-50"/>
       <use x="63.623047" xlink:href="#DejaVuSans-53"/>
       <use x="127.246094" xlink:href="#DejaVuSans-48"/>
      </g>
     </g>
    </g>
    <g id="ytick_3">
     <g id="line2d_6">
      <g>
       <use style="stroke:#000000;stroke-width:0.8;" x="108" xlink:href="#m1e0b67f6c1" y="267.579631"/>
      </g>
     </g>
     <g id="text_7">
      <!-- 500 -->
      <g transform="translate(55.19 276.697756)scale(0.24 -0.24)">
       <use xlink:href="#DejaVuSans-53"/>
       <use x="63.623047" xlink:href="#DejaVuSans-48"/>
       <use x="127.246094" xlink:href="#DejaVuSans-48"/>
      </g>
     </g>
    </g>
    <g id="ytick_4">
     <g id="line2d_7">
      <g>
       <use style="stroke:#000000;stroke-width:0.8;" x="108" xlink:href="#m1e0b67f6c1" y="209.129446"/>
      </g>
     </g>
     <g id="text_8">
      <!-- 750 -->
      <defs>
       <path d="M 8.203125 72.90625 
L 55.078125 72.90625 
L 55.078125 68.703125 
L 28.609375 0 
L 18.3125 0 
L 43.21875 64.59375 
L 8.203125 64.59375 
z
" id="DejaVuSans-55"/>
      </defs>
      <g transform="translate(55.19 218.247571)scale(0.24 -0.24)">
       <use xlink:href="#DejaVuSans-55"/>
       <use x="63.623047" xlink:href="#DejaVuSans-53"/>
       <use x="127.246094" xlink:href="#DejaVuSans-48"/>
      </g>
     </g>
    </g>
    <g id="ytick_5">
     <g id="line2d_8">
      <g>
       <use style="stroke:#000000;stroke-width:0.8;" x="108" xlink:href="#m1e0b67f6c1" y="150.679262"/>
      </g>
     </g>
     <g id="text_9">
      <!-- 1000 -->
      <g transform="translate(39.92 159.797387)scale(0.24 -0.24)">
       <use xlink:href="#DejaVuSans-49"/>
       <use x="63.623047" xlink:href="#DejaVuSans-48"/>
       <use x="127.246094" xlink:href="#DejaVuSans-48"/>
       <use x="190.869141" xlink:href="#DejaVuSans-48"/>
      </g>
     </g>
    </g>
    <g id="ytick_6">
     <g id="line2d_9">
      <g>
       <use style="stroke:#000000;stroke-width:0.8;" x="108" xlink:href="#m1e0b67f6c1" y="92.229077"/>
      </g>
     </g>
     <g id="text_10">
      <!-- 1250 -->
      <g transform="translate(39.92 101.347202)scale(0.24 -0.24)">
       <use xlink:href="#DejaVuSans-49"/>
       <use x="63.623047" xlink:href="#DejaVuSans-50"/>
       <use x="127.246094" xlink:href="#DejaVuSans-53"/>
       <use x="190.869141" xlink:href="#DejaVuSans-48"/>
      </g>
     </g>
    </g>
    <g id="text_11">
     <!-- # of Positions -->
     <defs>
      <path d="M 51.125 44 
L 36.921875 44 
L 32.8125 27.6875 
L 47.125 27.6875 
z
M 43.796875 71.78125 
L 38.71875 51.515625 
L 52.984375 51.515625 
L 58.109375 71.78125 
L 65.921875 71.78125 
L 60.890625 51.515625 
L 76.125 51.515625 
L 76.125 44 
L 58.984375 44 
L 54.984375 27.6875 
L 70.515625 27.6875 
L 70.515625 20.21875 
L 53.078125 20.21875 
L 48 0 
L 40.1875 0 
L 45.21875 20.21875 
L 30.90625 20.21875 
L 25.875 0 
L 18.015625 0 
L 23.09375 20.21875 
L 7.71875 20.21875 
L 7.71875 27.6875 
L 24.90625 27.6875 
L 29 44 
L 13.28125 44 
L 13.28125 51.515625 
L 30.90625 51.515625 
L 35.890625 71.78125 
z
" id="DejaVuSans-35"/>
      <path d="M 37.109375 75.984375 
L 37.109375 68.5 
L 28.515625 68.5 
Q 23.6875 68.5 21.796875 66.546875 
Q 19.921875 64.59375 19.921875 59.515625 
L 19.921875 54.6875 
L 34.71875 54.6875 
L 34.71875 47.703125 
L 19.921875 47.703125 
L 19.921875 0 
L 10.890625 0 
L 10.890625 47.703125 
L 2.296875 47.703125 
L 2.296875 54.6875 
L 10.890625 54.6875 
L 10.890625 58.5 
Q 10.890625 67.625 15.140625 71.796875 
Q 19.390625 75.984375 28.609375 75.984375 
z
" id="DejaVuSans-102"/>
      <path d="M 19.671875 64.796875 
L 19.671875 37.40625 
L 32.078125 37.40625 
Q 38.96875 37.40625 42.71875 40.96875 
Q 46.484375 44.53125 46.484375 51.125 
Q 46.484375 57.671875 42.71875 61.234375 
Q 38.96875 64.796875 32.078125 64.796875 
z
M 9.8125 72.90625 
L 32.078125 72.90625 
Q 44.34375 72.90625 50.609375 67.359375 
Q 56.890625 61.8125 56.890625 51.125 
Q 56.890625 40.328125 50.609375 34.8125 
Q 44.34375 29.296875 32.078125 29.296875 
L 19.671875 29.296875 
L 19.671875 0 
L 9.8125 0 
z
" id="DejaVuSans-80"/>
      <path d="M 44.28125 53.078125 
L 44.28125 44.578125 
Q 40.484375 46.53125 36.375 47.5 
Q 32.28125 48.484375 27.875 48.484375 
Q 21.1875 48.484375 17.84375 46.4375 
Q 14.5 44.390625 14.5 40.28125 
Q 14.5 37.15625 16.890625 35.375 
Q 19.28125 33.59375 26.515625 31.984375 
L 29.59375 31.296875 
Q 39.15625 29.25 43.1875 25.515625 
Q 47.21875 21.78125 47.21875 15.09375 
Q 47.21875 7.46875 41.1875 3.015625 
Q 35.15625 -1.421875 24.609375 -1.421875 
Q 20.21875 -1.421875 15.453125 -0.5625 
Q 10.6875 0.296875 5.421875 2 
L 5.421875 11.28125 
Q 10.40625 8.6875 15.234375 7.390625 
Q 20.0625 6.109375 24.8125 6.109375 
Q 31.15625 6.109375 34.5625 8.28125 
Q 37.984375 10.453125 37.984375 14.40625 
Q 37.984375 18.0625 35.515625 20.015625 
Q 33.0625 21.96875 24.703125 23.78125 
L 21.578125 24.515625 
Q 13.234375 26.265625 9.515625 29.90625 
Q 5.8125 33.546875 5.8125 39.890625 
Q 5.8125 47.609375 11.28125 51.796875 
Q 16.75 56 26.8125 56 
Q 31.78125 56 36.171875 55.265625 
Q 40.578125 54.546875 44.28125 53.078125 
z
" id="DejaVuSans-115"/>
     </defs>
     <g transform="translate(29.680937 320.92875)rotate(-90)scale(0.3 -0.3)">
      <use xlink:href="#DejaVuSans-35"/>
      <use x="83.789062" xlink:href="#DejaVuSans-32"/>
      <use x="115.576172" xlink:href="#DejaVuSans-111"/>
      <use x="176.757812" xlink:href="#DejaVuSans-102"/>
      <use x="211.962891" xlink:href="#DejaVuSans-32"/>
      <use x="243.75" xlink:href="#DejaVuSans-80"/>
      <use x="300.427734" xlink:href="#DejaVuSans-111"/>
      <use x="361.609375" xlink:href="#DejaVuSans-115"/>
      <use x="413.708984" xlink:href="#DejaVuSans-105"/>
      <use x="441.492188" xlink:href="#DejaVuSans-116"/>
      <use x="480.701172" xlink:href="#DejaVuSans-105"/>
      <use x="508.484375" xlink:href="#DejaVuSans-111"/>
      <use x="569.666016" xlink:href="#DejaVuSans-110"/>
      <use x="633.044922" xlink:href="#DejaVuSans-115"/>
     </g>
    </g>
   </g>
   <g id="patch_19">
    <path d="M 108 384.48 
L 108 51.84 
" style="fill:none;stroke:#000000;stroke-linecap:square;stroke-linejoin:miter;stroke-width:0.8;"/>
   </g>
   <g id="patch_20">
    <path d="M 108 384.48 
L 412.363636 384.48 
" style="fill:none;stroke:#000000;stroke-linecap:square;stroke-linejoin:miter;stroke-width:0.8;"/>
   </g>
  </g>
  <g id="axes_2">
   <g id="patch_21">
    <path d="M 473.236364 384.48 
L 777.6 384.48 
L 777.6 51.84 
L 473.236364 51.84 
z
" style="fill:#ffffff;"/>
   </g>
   <g id="patch_22">
    <path clip-path="url(#p79b040ab4e)" d="M 567.523634 384.48 
L 567.58883 384.48 
L 567.58883 285.107178 
L 567.523634 285.107178 
z
" style="fill:#0000ff;"/>
   </g>
   <g id="patch_23">
    <path clip-path="url(#p79b040ab4e)" d="M 561.590746 384.48 
L 561.655943 384.48 
L 561.655943 285.107178 
L 561.590746 285.107178 
z
" style="fill:#0000ff;"/>
   </g>
   <g id="patch_24">
    <path clip-path="url(#p79b040ab4e)" d="M 549.333792 384.48 
L 549.398989 384.48 
L 549.398989 285.107178 
L 549.333792 285.107178 
z
" style="fill:#0000ff;"/>
   </g>
   <g id="patch_25">
    <path clip-path="url(#p79b040ab4e)" d="M 546.465144 384.48 
L 546.53034 384.48 
L 546.53034 285.107178 
L 546.465144 285.107178 
z
" style="fill:#0000ff;"/>
   </g>
   <g id="patch_26">
    <path clip-path="url(#p79b040ab4e)" d="M 487.071074 384.48 
L 487.136271 384.48 
L 487.136271 67.68 
L 487.071074 67.68 
z
" style="fill:#0000ff;"/>
   </g>
   <g id="patch_27">
    <path clip-path="url(#p79b040ab4e)" d="M 632.198624 384.48 
L 632.263821 384.48 
L 632.263821 308.099884 
L 632.198624 308.099884 
z
" style="fill:#0000ff;"/>
   </g>
   <g id="patch_28">
    <path clip-path="url(#p79b040ab4e)" d="M 534.599369 384.48 
L 534.664566 384.48 
L 534.664566 271.657307 
L 534.599369 271.657307 
z
" style="fill:#0000ff;"/>
   </g>
   <g id="patch_29">
    <path clip-path="url(#p79b040ab4e)" d="M 493.916714 384.48 
L 493.98191 384.48 
L 493.98191 285.107178 
L 493.916714 285.107178 
z
" style="fill:#0000ff;"/>
   </g>
   <g id="patch_30">
    <path clip-path="url(#p79b040ab4e)" d="M 578.41146 384.48 
L 578.476656 384.48 
L 578.476656 308.099884 
L 578.41146 308.099884 
z
" style="fill:#0000ff;"/>
   </g>
   <g id="patch_31">
    <path clip-path="url(#p79b040ab4e)" d="M 540.858239 384.48 
L 540.923436 384.48 
L 540.923436 308.099884 
L 540.858239 308.099884 
z
" style="fill:#0000ff;"/>
   </g>
   <g id="patch_32">
    <path clip-path="url(#p79b040ab4e)" d="M 491.569637 384.48 
L 491.634834 384.48 
L 491.634834 254.712473 
L 491.569637 254.712473 
z
" style="fill:#0000ff;"/>
   </g>
   <g id="patch_33">
    <path clip-path="url(#p79b040ab4e)" d="M 487.462254 384.48 
L 487.52745 384.48 
L 487.52745 228.558189 
L 487.462254 228.558189 
z
" style="fill:#0000ff;"/>
   </g>
   <g id="patch_34">
    <path clip-path="url(#p79b040ab4e)" d="M 490.591689 384.48 
L 490.656885 384.48 
L 490.656885 285.107178 
L 490.591689 285.107178 
z
" style="fill:#0000ff;"/>
   </g>
   <g id="patch_35">
    <path clip-path="url(#p79b040ab4e)" d="M 487.266664 384.48 
L 487.331861 384.48 
L 487.331861 220.558491 
L 487.266664 220.558491 
z
" style="fill:#0000ff;"/>
   </g>
   <g id="patch_36">
    <path clip-path="url(#p79b040ab4e)" d="M 488.049023 384.48 
L 488.114219 384.48 
L 488.114219 231.719767 
L 488.049023 231.719767 
z
" style="fill:#0000ff;"/>
   </g>
   <g id="patch_37">
    <path clip-path="url(#p79b040ab4e)" d="M 487.853433 384.48 
L 487.91863 384.48 
L 487.91863 235.21473 
L 487.853433 235.21473 
z
" style="fill:#0000ff;"/>
   </g>
   <g id="patch_38">
    <path clip-path="url(#p79b040ab4e)" d="M 488.244613 384.48 
L 488.309809 384.48 
L 488.309809 231.719767 
L 488.244613 231.719767 
z
" style="fill:#0000ff;"/>
   </g>
   <g id="patch_39">
    <path clip-path="url(#p79b040ab4e)" d="M 488.635792 384.48 
L 488.700988 384.48 
L 488.700988 231.719767 
L 488.635792 231.719767 
z
" style="fill:#0000ff;"/>
   </g>
   <g id="patch_40">
    <path clip-path="url(#p79b040ab4e)" d="M 487.657843 384.48 
L 487.72304 384.48 
L 487.72304 214.118052 
L 487.657843 214.118052 
z
" style="fill:#0000ff;"/>
   </g>
   <g id="patch_41">
    <path clip-path="url(#p79b040ab4e)" d="M 489.80933 384.48 
L 489.874527 384.48 
L 489.874527 308.099884 
L 489.80933 308.099884 
z
" style="fill:#0000ff;"/>
   </g>
   <g id="patch_42">
    <path clip-path="url(#p79b040ab4e)" d="M 490.200509 384.48 
L 490.265706 384.48 
L 490.265706 243.551197 
L 490.200509 243.551197 
z
" style="fill:#0000ff;"/>
   </g>
   <g id="patch_43">
    <path clip-path="url(#p79b040ab4e)" d="M 488.831382 384.48 
L 488.896578 384.48 
L 488.896578 239.121765 
L 488.831382 239.121765 
z
" style="fill:#0000ff;"/>
   </g>
   <g id="patch_44">
    <path clip-path="url(#p79b040ab4e)" d="M 490.787278 384.48 
L 490.852475 384.48 
L 490.852475 271.657307 
L 490.787278 271.657307 
z
" style="fill:#0000ff;"/>
   </g>
   <g id="patch_45">
    <path clip-path="url(#p79b040ab4e)" d="M 491.178458 384.48 
L 491.243654 384.48 
L 491.243654 271.657307 
L 491.178458 271.657307 
z
" style="fill:#0000ff;"/>
   </g>
   <g id="patch_46">
    <path clip-path="url(#p79b040ab4e)" d="M 491.374048 384.48 
L 491.439244 384.48 
L 491.439244 285.107178 
L 491.374048 285.107178 
z
" style="fill:#0000ff;"/>
   </g>
   <g id="patch_47">
    <path clip-path="url(#p79b040ab4e)" d="M 489.026971 384.48 
L 489.092168 384.48 
L 489.092168 239.121765 
L 489.026971 239.121765 
z
" style="fill:#0000ff;"/>
   </g>
   <g id="patch_48">
    <path clip-path="url(#p79b040ab4e)" d="M 489.222561 384.48 
L 489.287758 384.48 
L 489.287758 239.121765 
L 489.222561 239.121765 
z
" style="fill:#0000ff;"/>
   </g>
   <g id="patch_49">
    <path clip-path="url(#p79b040ab4e)" d="M 492.743175 384.48 
L 492.808372 384.48 
L 492.808372 271.657307 
L 492.743175 271.657307 
z
" style="fill:#0000ff;"/>
   </g>
   <g id="patch_50">
    <path clip-path="url(#p79b040ab4e)" d="M 488.440202 384.48 
L 488.505399 384.48 
L 488.505399 231.719767 
L 488.440202 231.719767 
z
" style="fill:#0000ff;"/>
   </g>
   <g id="patch_51">
    <path clip-path="url(#p79b040ab4e)" d="M 492.351996 384.48 
L 492.417193 384.48 
L 492.417193 285.107178 
L 492.351996 285.107178 
z
" style="fill:#0000ff;"/>
   </g>
   <g id="patch_52">
    <path clip-path="url(#p79b040ab4e)" d="M 490.396099 384.48 
L 490.461296 384.48 
L 490.461296 308.099884 
L 490.396099 308.099884 
z
" style="fill:#0000ff;"/>
   </g>
   <g id="patch_53">
    <path clip-path="url(#p79b040ab4e)" d="M 493.329944 384.48 
L 493.395141 384.48 
L 493.395141 271.657307 
L 493.329944 271.657307 
z
" style="fill:#0000ff;"/>
   </g>
   <g id="patch_54">
    <path clip-path="url(#p79b040ab4e)" d="M 490.982868 384.48 
L 491.048065 384.48 
L 491.048065 285.107178 
L 490.982868 285.107178 
z
" style="fill:#0000ff;"/>
   </g>
   <g id="patch_55">
    <path clip-path="url(#p79b040ab4e)" d="M 490.00492 384.48 
L 490.070116 384.48 
L 490.070116 308.099884 
L 490.00492 308.099884 
z
" style="fill:#0000ff;"/>
   </g>
   <g id="patch_56">
    <path clip-path="url(#p79b040ab4e)" d="M 489.418151 384.48 
L 489.483347 384.48 
L 489.483347 239.121765 
L 489.418151 239.121765 
z
" style="fill:#0000ff;"/>
   </g>
   <g id="patch_57">
    <path clip-path="url(#p79b040ab4e)" d="M 631.807445 384.48 
L 631.872642 384.48 
L 631.872642 308.099884 
L 631.807445 308.099884 
z
" style="fill:#0000ff;"/>
   </g>
   <g id="patch_58">
    <path clip-path="url(#p79b040ab4e)" d="M 534.403779 384.48 
L 534.468976 384.48 
L 534.468976 308.099884 
L 534.403779 308.099884 
z
" style="fill:#0000ff;"/>
   </g>
   <g id="patch_59">
    <path clip-path="url(#p79b040ab4e)" d="M 499.002045 384.48 
L 499.067242 384.48 
L 499.067242 308.099884 
L 499.002045 308.099884 
z
" style="fill:#0000ff;"/>
   </g>
   <g id="patch_60">
    <path clip-path="url(#p79b040ab4e)" d="M 495.677021 384.48 
L 495.742217 384.48 
L 495.742217 285.107178 
L 495.677021 285.107178 
z
" style="fill:#0000ff;"/>
   </g>
   <g id="patch_61">
    <path clip-path="url(#p79b040ab4e)" d="M 495.87261 384.48 
L 495.937807 384.48 
L 495.937807 308.099884 
L 495.87261 308.099884 
z
" style="fill:#0000ff;"/>
   </g>
   <g id="patch_62">
    <path clip-path="url(#p79b040ab4e)" d="M 494.307893 384.48 
L 494.373089 384.48 
L 494.373089 308.099884 
L 494.307893 308.099884 
z
" style="fill:#0000ff;"/>
   </g>
   <g id="patch_63">
    <path clip-path="url(#p79b040ab4e)" d="M 489.61374 384.48 
L 489.678937 384.48 
L 489.678937 308.099884 
L 489.61374 308.099884 
z
" style="fill:#0000ff;"/>
   </g>
   <g id="patch_64">
    <path clip-path="url(#p79b040ab4e)" d="M 496.0682 384.48 
L 496.133397 384.48 
L 496.133397 308.099884 
L 496.0682 308.099884 
z
" style="fill:#0000ff;"/>
   </g>
   <g id="patch_65">
    <path clip-path="url(#p79b040ab4e)" d="M 495.285841 384.48 
L 495.351038 384.48 
L 495.351038 308.099884 
L 495.285841 308.099884 
z
" style="fill:#0000ff;"/>
   </g>
   <g id="patch_66">
    <path clip-path="url(#p79b040ab4e)" d="M 501.935891 384.48 
L 502.001087 384.48 
L 502.001087 285.107178 
L 501.935891 285.107178 
z
" style="fill:#0000ff;"/>
   </g>
   <g id="patch_67">
    <path clip-path="url(#p79b040ab4e)" d="M 493.134355 384.48 
L 493.199551 384.48 
L 493.199551 271.657307 
L 493.134355 271.657307 
z
" style="fill:#0000ff;"/>
   </g>
   <g id="patch_68">
    <path clip-path="url(#p79b040ab4e)" d="M 496.26379 384.48 
L 496.328986 384.48 
L 496.328986 308.099884 
L 496.26379 308.099884 
z
" style="fill:#0000ff;"/>
   </g>
   <g id="patch_69">
    <path clip-path="url(#p79b040ab4e)" d="M 495.090252 384.48 
L 495.155448 384.48 
L 495.155448 308.099884 
L 495.090252 308.099884 
z
" style="fill:#0000ff;"/>
   </g>
   <g id="patch_70">
    <path clip-path="url(#p79b040ab4e)" d="M 492.547586 384.48 
L 492.612782 384.48 
L 492.612782 308.099884 
L 492.547586 308.099884 
z
" style="fill:#0000ff;"/>
   </g>
   <g id="patch_71">
    <path clip-path="url(#p79b040ab4e)" d="M 546.139161 384.48 
L 546.204357 384.48 
L 546.204357 308.099884 
L 546.139161 308.099884 
z
" style="fill:#0000ff;"/>
   </g>
   <g id="patch_72">
    <path clip-path="url(#p79b040ab4e)" d="M 510.541837 384.48 
L 510.607034 384.48 
L 510.607034 308.099884 
L 510.541837 308.099884 
z
" style="fill:#0000ff;"/>
   </g>
   <g id="patch_73">
    <path clip-path="url(#p79b040ab4e)" d="M 572.739359 384.48 
L 572.804555 384.48 
L 572.804555 308.099884 
L 572.739359 308.099884 
z
" style="fill:#0000ff;"/>
   </g>
   <g id="patch_74">
    <path clip-path="url(#p79b040ab4e)" d="M 510.933017 384.48 
L 510.998213 384.48 
L 510.998213 308.099884 
L 510.933017 308.099884 
z
" style="fill:#0000ff;"/>
   </g>
   <g id="patch_75">
    <path clip-path="url(#p79b040ab4e)" d="M 506.238864 384.48 
L 506.304061 384.48 
L 506.304061 308.099884 
L 506.238864 308.099884 
z
" style="fill:#0000ff;"/>
   </g>
   <g id="patch_76">
    <path clip-path="url(#p79b040ab4e)" d="M 540.662649 384.48 
L 540.727846 384.48 
L 540.727846 308.099884 
L 540.662649 308.099884 
z
" style="fill:#0000ff;"/>
   </g>
   <g id="patch_77">
    <path clip-path="url(#p79b040ab4e)" d="M 509.563889 384.48 
L 509.629085 384.48 
L 509.629085 308.099884 
L 509.563889 308.099884 
z
" style="fill:#0000ff;"/>
   </g>
   <g id="patch_78">
    <path clip-path="url(#p79b040ab4e)" d="M 493.721124 384.48 
L 493.78632 384.48 
L 493.78632 308.099884 
L 493.721124 308.099884 
z
" style="fill:#0000ff;"/>
   </g>
   <g id="patch_79">
    <path clip-path="url(#p79b040ab4e)" d="M 500.175584 384.48 
L 500.24078 384.48 
L 500.24078 308.099884 
L 500.175584 308.099884 
z
" style="fill:#0000ff;"/>
   </g>
   <g id="patch_80">
    <path clip-path="url(#p79b040ab4e)" d="M 523.450757 384.48 
L 523.515953 384.48 
L 523.515953 308.099884 
L 523.450757 308.099884 
z
" style="fill:#0000ff;"/>
   </g>
   <g id="patch_81">
    <path clip-path="url(#p79b040ab4e)" d="M 496.850559 384.48 
L 496.915755 384.48 
L 496.915755 308.099884 
L 496.850559 308.099884 
z
" style="fill:#0000ff;"/>
   </g>
   <g id="patch_82">
    <path clip-path="url(#p79b040ab4e)" d="M 493.98191 384.48 
L 494.047107 384.48 
L 494.047107 285.107178 
L 493.98191 285.107178 
z
" style="fill:#0000ff;"/>
   </g>
   <g id="patch_83">
    <path clip-path="url(#p79b040ab4e)" d="M 752.225498 384.48 
L 752.290694 384.48 
L 752.290694 285.107178 
L 752.225498 285.107178 
z
" style="fill:#0000ff;"/>
   </g>
   <g id="patch_84">
    <path clip-path="url(#p79b040ab4e)" d="M 497.828507 384.48 
L 497.893704 384.48 
L 497.893704 308.099884 
L 497.828507 308.099884 
z
" style="fill:#0000ff;"/>
   </g>
   <g id="patch_85">
    <path clip-path="url(#p79b040ab4e)" d="M 763.700093 384.48 
L 763.765289 384.48 
L 763.765289 308.099884 
L 763.700093 308.099884 
z
" style="fill:#0000ff;"/>
   </g>
   <g id="patch_86">
    <path clip-path="url(#p79b040ab4e)" d="M 508.194761 384.48 
L 508.259957 384.48 
L 508.259957 308.099884 
L 508.194761 308.099884 
z
" style="fill:#0000ff;"/>
   </g>
   <g id="patch_87">
    <path clip-path="url(#p79b040ab4e)" d="M 488.309809 384.48 
L 488.375006 384.48 
L 488.375006 308.099884 
L 488.309809 308.099884 
z
" style="fill:#0000ff;"/>
   </g>
   <g id="patch_88">
    <path clip-path="url(#p79b040ab4e)" d="M 490.461296 384.48 
L 490.526492 384.48 
L 490.526492 308.099884 
L 490.461296 308.099884 
z
" style="fill:#0000ff;"/>
   </g>
   <g id="patch_89">
    <path clip-path="url(#p79b040ab4e)" d="M 487.788237 384.48 
L 487.853433 384.48 
L 487.853433 308.099884 
L 487.788237 308.099884 
z
" style="fill:#0000ff;"/>
   </g>
   <g id="patch_90">
    <path clip-path="url(#p79b040ab4e)" d="M 489.157364 384.48 
L 489.222561 384.48 
L 489.222561 308.099884 
L 489.157364 308.099884 
z
" style="fill:#0000ff;"/>
   </g>
   <g id="patch_91">
    <path clip-path="url(#p79b040ab4e)" d="M 662.645419 384.48 
L 662.710616 384.48 
L 662.710616 285.107178 
L 662.645419 285.107178 
z
" style="fill:#0000ff;"/>
   </g>
   <g id="patch_92">
    <path clip-path="url(#p79b040ab4e)" d="M 625.939754 384.48 
L 626.004951 384.48 
L 626.004951 308.099884 
L 625.939754 308.099884 
z
" style="fill:#0000ff;"/>
   </g>
   <g id="patch_93">
    <path clip-path="url(#p79b040ab4e)" d="M 588.386534 384.48 
L 588.45173 384.48 
L 588.45173 308.099884 
L 588.386534 308.099884 
z
" style="fill:#0000ff;"/>
   </g>
   <g id="patch_94">
    <path clip-path="url(#p79b040ab4e)" d="M 636.957974 384.48 
L 637.02317 384.48 
L 637.02317 308.099884 
L 636.957974 308.099884 
z
" style="fill:#0000ff;"/>
   </g>
   <g id="patch_95">
    <path clip-path="url(#p79b040ab4e)" d="M 559.504456 384.48 
L 559.569653 384.48 
L 559.569653 308.099884 
L 559.504456 308.099884 
z
" style="fill:#0000ff;"/>
   </g>
   <g id="patch_96">
    <path clip-path="url(#p79b040ab4e)" d="M 567.98001 384.48 
L 568.045206 384.48 
L 568.045206 308.099884 
L 567.98001 308.099884 
z
" style="fill:#0000ff;"/>
   </g>
   <g id="patch_97">
    <path clip-path="url(#p79b040ab4e)" d="M 487.136271 384.48 
L 487.201468 384.48 
L 487.201468 285.107178 
L 487.136271 285.107178 
z
" style="fill:#0000ff;"/>
   </g>
   <g id="patch_98">
    <path clip-path="url(#p79b040ab4e)" d="M 487.331861 384.48 
L 487.397057 384.48 
L 487.397057 308.099884 
L 487.331861 308.099884 
z
" style="fill:#0000ff;"/>
   </g>
   <g id="patch_99">
    <path clip-path="url(#p79b040ab4e)" d="M 487.201468 384.48 
L 487.266664 384.48 
L 487.266664 308.099884 
L 487.201468 308.099884 
z
" style="fill:#0000ff;"/>
   </g>
   <g id="patch_100">
    <path clip-path="url(#p79b040ab4e)" d="M 492.286799 384.48 
L 492.351996 384.48 
L 492.351996 308.099884 
L 492.286799 308.099884 
z
" style="fill:#0000ff;"/>
   </g>
   <g id="patch_101">
    <path clip-path="url(#p79b040ab4e)" d="M 488.896578 384.48 
L 488.961775 384.48 
L 488.961775 308.099884 
L 488.896578 308.099884 
z
" style="fill:#0000ff;"/>
   </g>
   <g id="patch_102">
    <path clip-path="url(#p79b040ab4e)" d="M 488.505399 384.48 
L 488.570595 384.48 
L 488.570595 285.107178 
L 488.505399 285.107178 
z
" style="fill:#0000ff;"/>
   </g>
   <g id="patch_103">
    <path clip-path="url(#p79b040ab4e)" d="M 487.983826 384.48 
L 488.049023 384.48 
L 488.049023 308.099884 
L 487.983826 308.099884 
z
" style="fill:#0000ff;"/>
   </g>
   <g id="patch_104">
    <path clip-path="url(#p79b040ab4e)" d="M 500.110387 384.48 
L 500.175584 384.48 
L 500.175584 308.099884 
L 500.110387 308.099884 
z
" style="fill:#0000ff;"/>
   </g>
   <g id="patch_105">
    <path clip-path="url(#p79b040ab4e)" d="M 494.894662 384.48 
L 494.959859 384.48 
L 494.959859 308.099884 
L 494.894662 308.099884 
z
" style="fill:#0000ff;"/>
   </g>
   <g id="patch_106">
    <path clip-path="url(#p79b040ab4e)" d="M 488.179416 384.48 
L 488.244613 384.48 
L 488.244613 308.099884 
L 488.179416 308.099884 
z
" style="fill:#0000ff;"/>
   </g>
   <g id="patch_107">
    <path clip-path="url(#p79b040ab4e)" d="M 488.375006 384.48 
L 488.440202 384.48 
L 488.440202 308.099884 
L 488.375006 308.099884 
z
" style="fill:#0000ff;"/>
   </g>
   <g id="patch_108">
    <path clip-path="url(#p79b040ab4e)" d="M 524.233115 384.48 
L 524.298312 384.48 
L 524.298312 308.099884 
L 524.233115 308.099884 
z
" style="fill:#0000ff;"/>
   </g>
   <g id="matplotlib.axis_3">
    <g id="xtick_4">
     <g id="line2d_10">
      <g>
       <use style="stroke:#000000;stroke-width:0.8;" x="487.103673" xlink:href="#mec8c0a66a3" y="384.48"/>
      </g>
     </g>
     <g id="text_12">
      <!-- 0 -->
      <g transform="translate(479.468673 409.71625)scale(0.24 -0.24)">
       <use xlink:href="#DejaVuSans-48"/>
      </g>
     </g>
    </g>
    <g id="xtick_5">
     <g id="line2d_11">
      <g>
       <use style="stroke:#000000;stroke-width:0.8;" x="617.496799" xlink:href="#mec8c0a66a3" y="384.48"/>
      </g>
     </g>
     <g id="text_13">
      <!-- 2000 -->
      <g transform="translate(586.956799 409.71625)scale(0.24 -0.24)">
       <use xlink:href="#DejaVuSans-50"/>
       <use x="63.623047" xlink:href="#DejaVuSans-48"/>
       <use x="127.246094" xlink:href="#DejaVuSans-48"/>
       <use x="190.869141" xlink:href="#DejaVuSans-48"/>
      </g>
     </g>
    </g>
    <g id="xtick_6">
     <g id="line2d_12">
      <g>
       <use style="stroke:#000000;stroke-width:0.8;" x="747.889926" xlink:href="#mec8c0a66a3" y="384.48"/>
      </g>
     </g>
     <g id="text_14">
      <!-- 4000 -->
      <defs>
       <path d="M 37.796875 64.3125 
L 12.890625 25.390625 
L 37.796875 25.390625 
z
M 35.203125 72.90625 
L 47.609375 72.90625 
L 47.609375 25.390625 
L 58.015625 25.390625 
L 58.015625 17.1875 
L 47.609375 17.1875 
L 47.609375 0 
L 37.796875 0 
L 37.796875 17.1875 
L 4.890625 17.1875 
L 4.890625 26.703125 
z
" id="DejaVuSans-52"/>
      </defs>
      <g transform="translate(717.349926 409.71625)scale(0.24 -0.24)">
       <use xlink:href="#DejaVuSans-52"/>
       <use x="63.623047" xlink:href="#DejaVuSans-48"/>
       <use x="127.246094" xlink:href="#DejaVuSans-48"/>
       <use x="190.869141" xlink:href="#DejaVuSans-48"/>
      </g>
     </g>
    </g>
    <g id="text_15">
     <!-- Row Bit Count -->
     <defs>
      <path d="M 44.390625 34.1875 
Q 47.5625 33.109375 50.5625 29.59375 
Q 53.5625 26.078125 56.59375 19.921875 
L 66.609375 0 
L 56 0 
L 46.6875 18.703125 
Q 43.0625 26.03125 39.671875 28.421875 
Q 36.28125 30.8125 30.421875 30.8125 
L 19.671875 30.8125 
L 19.671875 0 
L 9.8125 0 
L 9.8125 72.90625 
L 32.078125 72.90625 
Q 44.578125 72.90625 50.734375 67.671875 
Q 56.890625 62.453125 56.890625 51.90625 
Q 56.890625 45.015625 53.6875 40.46875 
Q 50.484375 35.9375 44.390625 34.1875 
z
M 19.671875 64.796875 
L 19.671875 38.921875 
L 32.078125 38.921875 
Q 39.203125 38.921875 42.84375 42.21875 
Q 46.484375 45.515625 46.484375 51.90625 
Q 46.484375 58.296875 42.84375 61.546875 
Q 39.203125 64.796875 32.078125 64.796875 
z
" id="DejaVuSans-82"/>
      <path d="M 4.203125 54.6875 
L 13.1875 54.6875 
L 24.421875 12.015625 
L 35.59375 54.6875 
L 46.1875 54.6875 
L 57.421875 12.015625 
L 68.609375 54.6875 
L 77.59375 54.6875 
L 63.28125 0 
L 52.6875 0 
L 40.921875 44.828125 
L 29.109375 0 
L 18.5 0 
z
" id="DejaVuSans-119"/>
     </defs>
     <g transform="translate(519.806463 441.502813)scale(0.3 -0.3)">
      <use xlink:href="#DejaVuSans-82"/>
      <use x="64.982422" xlink:href="#DejaVuSans-111"/>
      <use x="126.164062" xlink:href="#DejaVuSans-119"/>
      <use x="207.951172" xlink:href="#DejaVuSans-32"/>
      <use x="239.738281" xlink:href="#DejaVuSans-66"/>
      <use x="308.341797" xlink:href="#DejaVuSans-105"/>
      <use x="336.125" xlink:href="#DejaVuSans-116"/>
      <use x="375.333984" xlink:href="#DejaVuSans-32"/>
      <use x="407.121094" xlink:href="#DejaVuSans-67"/>
      <use x="476.945312" xlink:href="#DejaVuSans-111"/>
      <use x="538.126953" xlink:href="#DejaVuSans-117"/>
      <use x="601.505859" xlink:href="#DejaVuSans-110"/>
      <use x="664.884766" xlink:href="#DejaVuSans-116"/>
     </g>
    </g>
   </g>
   <g id="matplotlib.axis_4">
    <g id="ytick_7">
     <g id="line2d_13">
      <g>
       <use style="stroke:#000000;stroke-width:0.8;" x="473.236364" xlink:href="#m1e0b67f6c1" y="308.099884"/>
      </g>
     </g>
     <g id="text_16">
      <!-- $10^0$ -->
      <g transform="translate(423.996364 317.218009)scale(0.24 -0.24)">
       <use transform="translate(0 0.765625)" xlink:href="#DejaVuSans-49"/>
       <use transform="translate(63.623047 0.765625)" xlink:href="#DejaVuSans-48"/>
       <use transform="translate(128.203125 39.046875)scale(0.7)" xlink:href="#DejaVuSans-48"/>
      </g>
     </g>
    </g>
    <g id="ytick_8">
     <g id="line2d_14">
      <g>
       <use style="stroke:#000000;stroke-width:0.8;" x="473.236364" xlink:href="#m1e0b67f6c1" y="231.719767"/>
      </g>
     </g>
     <g id="text_17">
      <!-- $10^1$ -->
      <g transform="translate(423.996364 240.837892)scale(0.24 -0.24)">
       <use transform="translate(0 0.684375)" xlink:href="#DejaVuSans-49"/>
       <use transform="translate(63.623047 0.684375)" xlink:href="#DejaVuSans-48"/>
       <use transform="translate(128.203125 38.965625)scale(0.7)" xlink:href="#DejaVuSans-49"/>
      </g>
     </g>
    </g>
    <g id="ytick_9">
     <g id="line2d_15">
      <g>
       <use style="stroke:#000000;stroke-width:0.8;" x="473.236364" xlink:href="#m1e0b67f6c1" y="155.339651"/>
      </g>
     </g>
     <g id="text_18">
      <!-- $10^2$ -->
      <g transform="translate(423.996364 164.457776)scale(0.24 -0.24)">
       <use transform="translate(0 0.765625)" xlink:href="#DejaVuSans-49"/>
       <use transform="translate(63.623047 0.765625)" xlink:href="#DejaVuSans-48"/>
       <use transform="translate(128.203125 39.046875)scale(0.7)" xlink:href="#DejaVuSans-50"/>
      </g>
     </g>
    </g>
    <g id="ytick_10">
     <g id="line2d_16">
      <g>
       <use style="stroke:#000000;stroke-width:0.8;" x="473.236364" xlink:href="#m1e0b67f6c1" y="78.959535"/>
      </g>
     </g>
     <g id="text_19">
      <!-- $10^3$ -->
      <defs>
       <path d="M 40.578125 39.3125 
Q 47.65625 37.796875 51.625 33 
Q 55.609375 28.21875 55.609375 21.1875 
Q 55.609375 10.40625 48.1875 4.484375 
Q 40.765625 -1.421875 27.09375 -1.421875 
Q 22.515625 -1.421875 17.65625 -0.515625 
Q 12.796875 0.390625 7.625 2.203125 
L 7.625 11.71875 
Q 11.71875 9.328125 16.59375 8.109375 
Q 21.484375 6.890625 26.8125 6.890625 
Q 36.078125 6.890625 40.9375 10.546875 
Q 45.796875 14.203125 45.796875 21.1875 
Q 45.796875 27.640625 41.28125 31.265625 
Q 36.765625 34.90625 28.71875 34.90625 
L 20.21875 34.90625 
L 20.21875 43.015625 
L 29.109375 43.015625 
Q 36.375 43.015625 40.234375 45.921875 
Q 44.09375 48.828125 44.09375 54.296875 
Q 44.09375 59.90625 40.109375 62.90625 
Q 36.140625 65.921875 28.71875 65.921875 
Q 24.65625 65.921875 20.015625 65.03125 
Q 15.375 64.15625 9.8125 62.3125 
L 9.8125 71.09375 
Q 15.4375 72.65625 20.34375 73.4375 
Q 25.25 74.21875 29.59375 74.21875 
Q 40.828125 74.21875 47.359375 69.109375 
Q 53.90625 64.015625 53.90625 55.328125 
Q 53.90625 49.265625 50.4375 45.09375 
Q 46.96875 40.921875 40.578125 39.3125 
z
" id="DejaVuSans-51"/>
      </defs>
      <g transform="translate(423.996364 88.07766)scale(0.24 -0.24)">
       <use transform="translate(0 0.765625)" xlink:href="#DejaVuSans-49"/>
       <use transform="translate(63.623047 0.765625)" xlink:href="#DejaVuSans-48"/>
       <use transform="translate(128.203125 39.046875)scale(0.7)" xlink:href="#DejaVuSans-51"/>
      </g>
     </g>
    </g>
   </g>
   <g id="patch_109">
    <path d="M 473.236364 384.48 
L 473.236364 51.84 
" style="fill:none;stroke:#000000;stroke-linecap:square;stroke-linejoin:miter;stroke-width:0.8;"/>
   </g>
   <g id="patch_110">
    <path d="M 473.236364 384.48 
L 777.6 384.48 
" style="fill:none;stroke:#000000;stroke-linecap:square;stroke-linejoin:miter;stroke-width:0.8;"/>
   </g>
  </g>
 </g>
 <defs>
  <clipPath id="p6ce7d70ee6">
   <rect height="332.64" width="304.363636" x="108" y="51.84"/>
  </clipPath>
  <clipPath id="p79b040ab4e">
   <rect height="332.64" width="304.363636" x="473.236364" y="51.84"/>
  </clipPath>
 </defs>
</svg>
