<?xml version="1.0" encoding="utf-8" standalone="no"?>
<!DOCTYPE svg PUBLIC "-//W3C//DTD SVG 1.1//EN"
  "http://www.w3.org/Graphics/SVG/1.1/DTD/svg11.dtd">
<!-- Created with matplotlib (https://matplotlib.org/) -->
<svg height="576pt" version="1.1" viewBox="0 0 1440 576" width="1440pt" xmlns="http://www.w3.org/2000/svg" xmlns:xlink="http://www.w3.org/1999/xlink">
 <defs>
  <style type="text/css">
*{stroke-linecap:butt;stroke-linejoin:round;}
  </style>
 </defs>
 <g id="figure_1">
  <g id="patch_1">
   <path d="M 0 576 
L 1440 576 
L 1440 0 
L 0 0 
z
" style="fill:#ffffff;"/>
  </g>
  <g id="axes_1">
   <g id="patch_2">
    <path d="M 114.2975 541.4 
L 432.298125 541.4 
L 432.298125 34.08 
L 114.2975 34.08 
z
" style="fill:#ffffff;"/>
   </g>
   <g id="patch_3">
    <path clip-path="url(#p7693c4d0f9)" d="M 128.752074 541.4 
L 139.870977 541.4 
L 139.870977 162.617766 
L 128.752074 162.617766 
z
" style="fill:#2ca02c;"/>
   </g>
   <g id="patch_4">
    <path clip-path="url(#p7693c4d0f9)" d="M 142.650703 541.4 
L 153.769606 541.4 
L 153.769606 41.887239 
L 142.650703 41.887239 
z
" style="fill:#1f77b4;"/>
   </g>
   <g id="patch_5">
    <path clip-path="url(#p7693c4d0f9)" d="M 156.549331 541.4 
L 167.668234 541.4 
L 167.668234 55.61863 
L 156.549331 55.61863 
z
" style="fill:#1f77b4;"/>
   </g>
   <g id="patch_6">
    <path clip-path="url(#p7693c4d0f9)" d="M 170.44796 541.4 
L 181.566863 541.4 
L 181.566863 110.065216 
L 170.44796 110.065216 
z
" style="fill:#7f7f7f;"/>
   </g>
   <g id="patch_7">
    <path clip-path="url(#p7693c4d0f9)" d="M 184.346589 541.4 
L 195.465492 541.4 
L 195.465492 112.240708 
L 184.346589 112.240708 
z
" style="fill:#7f7f7f;"/>
   </g>
   <g id="patch_8">
    <path clip-path="url(#p7693c4d0f9)" d="M 198.245217 541.4 
L 209.36412 541.4 
L 209.36412 113.770256 
L 198.245217 113.770256 
z
" style="fill:#7f7f7f;"/>
   </g>
   <g id="patch_9">
    <path clip-path="url(#p7693c4d0f9)" d="M 212.143846 541.4 
L 223.262749 541.4 
L 223.262749 120.302549 
L 212.143846 120.302549 
z
" style="fill:#d62728;"/>
   </g>
   <g id="patch_10">
    <path clip-path="url(#p7693c4d0f9)" d="M 226.042475 541.4 
L 237.161378 541.4 
L 237.161378 132.52416 
L 226.042475 132.52416 
z
" style="fill:#1f77b4;"/>
   </g>
   <g id="patch_11">
    <path clip-path="url(#p7693c4d0f9)" d="M 239.941104 541.4 
L 251.060007 541.4 
L 251.060007 176.005419 
L 239.941104 176.005419 
z
" style="fill:#d62728;"/>
   </g>
   <g id="patch_12">
    <path clip-path="url(#p7693c4d0f9)" d="M 253.839732 541.4 
L 264.958635 541.4 
L 264.958635 179.206335 
L 253.839732 179.206335 
z
" style="fill:#1f77b4;"/>
   </g>
   <g id="patch_13">
    <path clip-path="url(#p7693c4d0f9)" d="M 267.738361 541.4 
L 278.857264 541.4 
L 278.857264 192.012284 
L 267.738361 192.012284 
z
" style="fill:#7f7f7f;"/>
   </g>
   <g id="patch_14">
    <path clip-path="url(#p7693c4d0f9)" d="M 281.63699 541.4 
L 292.755893 541.4 
L 292.755893 200.853766 
L 281.63699 200.853766 
z
" style="fill:#d62728;"/>
   </g>
   <g id="patch_15">
    <path clip-path="url(#p7693c4d0f9)" d="M 295.535618 541.4 
L 306.654521 541.4 
L 306.654521 227.565707 
L 295.535618 227.565707 
z
" style="fill:#7f7f7f;"/>
   </g>
   <g id="patch_16">
    <path clip-path="url(#p7693c4d0f9)" d="M 309.434247 541.4 
L 320.55315 541.4 
L 320.55315 232.059715 
L 309.434247 232.059715 
z
" style="fill:#d62728;"/>
   </g>
   <g id="patch_17">
    <path clip-path="url(#p7693c4d0f9)" d="M 323.332876 541.4 
L 334.451779 541.4 
L 334.451779 266.854462 
L 323.332876 266.854462 
z
" style="fill:#7f7f7f;"/>
   </g>
   <g id="patch_18">
    <path clip-path="url(#p7693c4d0f9)" d="M 337.231505 541.4 
L 348.350408 541.4 
L 348.350408 273.810679 
L 337.231505 273.810679 
z
" style="fill:#1f77b4;"/>
   </g>
   <g id="patch_19">
    <path clip-path="url(#p7693c4d0f9)" d="M 351.130133 541.4 
L 362.249036 541.4 
L 362.249036 291.590397 
L 351.130133 291.590397 
z
" style="fill:#7f7f7f;"/>
   </g>
   <g id="patch_20">
    <path clip-path="url(#p7693c4d0f9)" d="M 365.028762 541.4 
L 376.147665 541.4 
L 376.147665 299.260041 
L 365.028762 299.260041 
z
" style="fill:#1f77b4;"/>
   </g>
   <g id="patch_21">
    <path clip-path="url(#p7693c4d0f9)" d="M 378.927391 541.4 
L 390.046294 541.4 
L 390.046294 313.149663 
L 378.927391 313.149663 
z
" style="fill:#7f7f7f;"/>
   </g>
   <g id="patch_22">
    <path clip-path="url(#p7693c4d0f9)" d="M 392.826019 541.4 
L 403.944922 541.4 
L 403.944922 318.767835 
L 392.826019 318.767835 
z
" style="fill:#d62728;"/>
   </g>
   <g id="patch_23">
    <path clip-path="url(#p7693c4d0f9)" d="M 406.724648 541.4 
L 417.843551 541.4 
L 417.843551 362.472318 
L 406.724648 362.472318 
z
" style="fill:#7f7f7f;"/>
   </g>
   <g id="matplotlib.axis_1">
    <g id="xtick_1">
     <g id="line2d_1">
      <defs>
       <path d="M 0 0 
L 0 3.5 
" id="m6b587b2595" style="stroke:#000000;stroke-width:0.8;"/>
      </defs>
      <g>
       <use style="stroke:#000000;stroke-width:0.8;" x="134.311525" xlink:href="#m6b587b2595" y="541.4"/>
      </g>
     </g>
    </g>
    <g id="xtick_2">
     <g id="line2d_2">
      <g>
       <use style="stroke:#000000;stroke-width:0.8;" x="148.210154" xlink:href="#m6b587b2595" y="541.4"/>
      </g>
     </g>
     <g id="text_1">
      <!-- T -->
      <defs>
       <path d="M 59.8125 71.734375 
L 59.8125 63.1875 
L 35.640625 63.1875 
L 35.640625 0 
L 25.78125 0 
L 25.78125 63.1875 
L 1.609375 63.1875 
L 1.609375 71.734375 
z
" id="Helvetica-84"/>
      </defs>
      <g transform="translate(142.713123 561.312187)scale(0.18 -0.18)">
       <use xlink:href="#Helvetica-84"/>
      </g>
     </g>
    </g>
    <g id="xtick_3">
     <g id="line2d_3">
      <g>
       <use style="stroke:#000000;stroke-width:0.8;" x="162.108783" xlink:href="#m6b587b2595" y="541.4"/>
      </g>
     </g>
     <g id="text_2">
      <!-- C -->
      <defs>
       <path d="M 37.84375 73.6875 
Q 51.46875 73.6875 58.984375 66.5 
Q 66.5 59.328125 67.328125 50.203125 
L 57.859375 50.203125 
Q 56.25 57.125 51.4375 61.171875 
Q 46.625 65.234375 37.9375 65.234375 
Q 27.34375 65.234375 20.828125 57.78125 
Q 14.3125 50.34375 14.3125 34.96875 
Q 14.3125 22.359375 20.1875 14.515625 
Q 26.078125 6.6875 37.75 6.6875 
Q 48.484375 6.6875 54.109375 14.9375 
Q 57.078125 19.28125 58.546875 26.375 
L 68.015625 26.375 
Q 66.75 15.046875 59.625 7.375 
Q 51.078125 -1.859375 36.578125 -1.859375 
Q 24.078125 -1.859375 15.578125 5.71875 
Q 4.390625 15.71875 4.390625 36.625 
Q 4.390625 52.484375 12.796875 62.640625 
Q 21.875 73.6875 37.84375 73.6875 
z
M 35.890625 73.6875 
z
" id="Helvetica-67"/>
      </defs>
      <g transform="translate(155.609095 561.312187)scale(0.18 -0.18)">
       <use xlink:href="#Helvetica-67"/>
      </g>
     </g>
    </g>
    <g id="xtick_4">
     <g id="line2d_4">
      <g>
       <use style="stroke:#000000;stroke-width:0.8;" x="176.007411" xlink:href="#m6b587b2595" y="541.4"/>
      </g>
     </g>
     <g id="text_3">
      <!-- G -->
      <defs>
       <path d="M 38.625 73.578125 
Q 48.734375 73.578125 56.109375 69.671875 
Q 66.796875 64.0625 69.1875 50 
L 59.578125 50 
Q 57.8125 57.859375 52.296875 61.453125 
Q 46.78125 65.046875 38.375 65.046875 
Q 28.421875 65.046875 21.609375 57.5625 
Q 14.796875 50.09375 14.796875 35.296875 
Q 14.796875 22.515625 20.40625 14.484375 
Q 26.03125 6.453125 38.71875 6.453125 
Q 48.4375 6.453125 54.8125 12.078125 
Q 61.1875 17.71875 61.328125 30.328125 
L 38.875 30.328125 
L 38.875 38.375 
L 70.359375 38.375 
L 70.359375 0 
L 64.109375 0 
L 61.765625 9.234375 
Q 56.84375 3.8125 53.03125 1.703125 
Q 46.625 -1.90625 36.765625 -1.90625 
Q 24.03125 -1.90625 14.84375 6.34375 
Q 4.828125 16.703125 4.828125 34.765625 
Q 4.828125 52.78125 14.59375 63.421875 
Q 23.875 73.578125 38.625 73.578125 
z
M 37.015625 73.6875 
z
" id="Helvetica-71"/>
      </defs>
      <g transform="translate(169.007099 561.312187)scale(0.18 -0.18)">
       <use xlink:href="#Helvetica-71"/>
      </g>
     </g>
    </g>
    <g id="xtick_5">
     <g id="line2d_5">
      <g>
       <use style="stroke:#000000;stroke-width:0.8;" x="189.90604" xlink:href="#m6b587b2595" y="541.4"/>
      </g>
     </g>
     <g id="text_4">
      <!-- A -->
      <defs>
       <path d="M 44.4375 29.390625 
L 33.546875 61.078125 
L 21.96875 29.390625 
z
M 28.46875 71.734375 
L 39.453125 71.734375 
L 65.484375 0 
L 54.828125 0 
L 47.5625 21.484375 
L 19.1875 21.484375 
L 11.421875 0 
L 1.46875 0 
z
" id="Helvetica-65"/>
      </defs>
      <g transform="translate(183.902759 561.312187)scale(0.18 -0.18)">
       <use xlink:href="#Helvetica-65"/>
      </g>
     </g>
    </g>
    <g id="xtick_6">
     <g id="line2d_6">
      <g>
       <use style="stroke:#000000;stroke-width:0.8;" x="203.804669" xlink:href="#m6b587b2595" y="541.4"/>
      </g>
     </g>
     <g id="text_5">
      <!-- V -->
      <defs>
       <path d="M 13.28125 71.734375 
L 33.890625 10.640625 
L 54.25 71.734375 
L 65.140625 71.734375 
L 38.96875 0 
L 28.65625 0 
L 2.546875 71.734375 
z
" id="Helvetica-86"/>
      </defs>
      <g transform="translate(197.801388 561.312187)scale(0.18 -0.18)">
       <use xlink:href="#Helvetica-86"/>
      </g>
     </g>
    </g>
    <g id="xtick_7">
     <g id="line2d_7">
      <g>
       <use style="stroke:#000000;stroke-width:0.8;" x="217.703298" xlink:href="#m6b587b2595" y="541.4"/>
      </g>
     </g>
     <g id="text_6">
      <!-- R -->
      <defs>
       <path d="M 40.96875 38.875 
Q 47.796875 38.875 51.78125 41.609375 
Q 55.765625 44.34375 55.765625 51.46875 
Q 55.765625 59.125 50.203125 61.921875 
Q 47.21875 63.375 42.234375 63.375 
L 18.5 63.375 
L 18.5 38.875 
z
M 8.796875 71.734375 
L 42 71.734375 
Q 50.203125 71.734375 55.515625 69.34375 
Q 65.625 64.75 65.625 52.390625 
Q 65.625 45.953125 62.953125 41.84375 
Q 60.296875 37.75 55.515625 35.25 
Q 59.71875 33.546875 61.84375 30.765625 
Q 63.96875 27.984375 64.203125 21.734375 
L 64.546875 12.109375 
Q 64.703125 8.015625 65.234375 6 
Q 66.109375 2.59375 68.359375 1.609375 
L 68.359375 0 
L 56.453125 0 
Q 55.953125 0.921875 55.65625 2.390625 
Q 55.375 3.859375 55.171875 8.0625 
L 54.59375 20.015625 
Q 54.25 27.046875 49.359375 29.4375 
Q 46.578125 30.765625 40.625 30.765625 
L 18.5 30.765625 
L 18.5 0 
L 8.796875 0 
z
" id="Helvetica-82"/>
      </defs>
      <g transform="translate(211.20361 561.312187)scale(0.18 -0.18)">
       <use xlink:href="#Helvetica-82"/>
      </g>
     </g>
    </g>
    <g id="xtick_8">
     <g id="line2d_8">
      <g>
       <use style="stroke:#000000;stroke-width:0.8;" x="231.601926" xlink:href="#m6b587b2595" y="541.4"/>
      </g>
     </g>
     <g id="text_7">
      <!-- Y -->
      <defs>
       <path d="M 2.046875 71.734375 
L 13.375 71.734375 
L 33.984375 37.25 
L 54.59375 71.734375 
L 65.96875 71.734375 
L 38.875 28.90625 
L 38.875 0 
L 29.15625 0 
L 29.15625 28.90625 
z
M 34.125 71.734375 
z
" id="Helvetica-89"/>
      </defs>
      <g transform="translate(225.598645 561.312187)scale(0.18 -0.18)">
       <use xlink:href="#Helvetica-89"/>
      </g>
     </g>
    </g>
    <g id="xtick_9">
     <g id="line2d_9">
      <g>
       <use style="stroke:#000000;stroke-width:0.8;" x="245.500555" xlink:href="#m6b587b2595" y="541.4"/>
      </g>
     </g>
     <g id="text_8">
      <!-- D -->
      <defs>
       <path d="M 35.15625 8.296875 
Q 40.09375 8.296875 43.265625 9.328125 
Q 48.921875 11.234375 52.546875 16.65625 
Q 55.421875 21 56.6875 27.78125 
Q 57.421875 31.84375 57.421875 35.296875 
Q 57.421875 48.640625 52.125 56 
Q 46.828125 63.375 35.0625 63.375 
L 17.828125 63.375 
L 17.828125 8.296875 
z
M 8.0625 71.734375 
L 37.109375 71.734375 
Q 51.90625 71.734375 60.0625 61.234375 
Q 67.328125 51.765625 67.328125 36.96875 
Q 67.328125 25.53125 63.03125 16.3125 
Q 55.46875 0 37.015625 0 
L 8.0625 0 
z
" id="Helvetica-68"/>
      </defs>
      <g transform="translate(239.000868 561.312187)scale(0.18 -0.18)">
       <use xlink:href="#Helvetica-68"/>
      </g>
     </g>
    </g>
    <g id="xtick_10">
     <g id="line2d_10">
      <g>
       <use style="stroke:#000000;stroke-width:0.8;" x="259.399184" xlink:href="#m6b587b2595" y="541.4"/>
      </g>
     </g>
     <g id="text_9">
      <!-- S -->
      <defs>
       <path d="M 13.96875 23.140625 
Q 14.3125 17.046875 16.84375 13.234375 
Q 21.6875 6.109375 33.890625 6.109375 
Q 39.359375 6.109375 43.84375 7.671875 
Q 52.546875 10.6875 52.546875 18.5 
Q 52.546875 24.359375 48.875 26.859375 
Q 45.171875 29.296875 37.25 31.109375 
L 27.546875 33.296875 
Q 18.015625 35.453125 14.0625 38.03125 
Q 7.234375 42.53125 7.234375 51.46875 
Q 7.234375 61.140625 13.921875 67.328125 
Q 20.609375 73.53125 32.859375 73.53125 
Q 44.140625 73.53125 52.015625 68.078125 
Q 59.90625 62.640625 59.90625 50.6875 
L 50.78125 50.6875 
Q 50.046875 56.453125 47.65625 59.515625 
Q 43.21875 65.140625 32.5625 65.140625 
Q 23.96875 65.140625 20.203125 61.515625 
Q 16.453125 57.90625 16.453125 53.125 
Q 16.453125 47.859375 20.84375 45.40625 
Q 23.734375 43.84375 33.890625 41.5 
L 43.953125 39.203125 
Q 51.21875 37.546875 55.171875 34.671875 
Q 62.015625 29.640625 62.015625 20.0625 
Q 62.015625 8.15625 53.34375 3.03125 
Q 44.671875 -2.09375 33.203125 -2.09375 
Q 19.828125 -2.09375 12.25 4.734375 
Q 4.6875 11.53125 4.828125 23.140625 
z
M 33.59375 73.6875 
z
" id="Helvetica-83"/>
      </defs>
      <g transform="translate(253.395903 561.312187)scale(0.18 -0.18)">
       <use xlink:href="#Helvetica-83"/>
      </g>
     </g>
    </g>
    <g id="xtick_11">
     <g id="line2d_11">
      <g>
       <use style="stroke:#000000;stroke-width:0.8;" x="273.297812" xlink:href="#m6b587b2595" y="541.4"/>
      </g>
     </g>
     <g id="text_10">
      <!-- W -->
      <defs>
       <path d="M 12.359375 71.734375 
L 25.875 13.375 
L 42.09375 71.734375 
L 52.640625 71.734375 
L 68.84375 13.375 
L 82.375 71.734375 
L 93.015625 71.734375 
L 74.171875 0 
L 63.96875 0 
L 47.40625 59.46875 
L 30.765625 0 
L 20.5625 0 
L 1.8125 71.734375 
z
" id="Helvetica-87"/>
      </defs>
      <g transform="translate(264.802656 561.312187)scale(0.18 -0.18)">
       <use xlink:href="#Helvetica-87"/>
      </g>
     </g>
    </g>
    <g id="xtick_12">
     <g id="line2d_12">
      <g>
       <use style="stroke:#000000;stroke-width:0.8;" x="287.196441" xlink:href="#m6b587b2595" y="541.4"/>
      </g>
     </g>
     <g id="text_11">
      <!-- E -->
      <defs>
       <path d="M 8.546875 71.734375 
L 60.84375 71.734375 
L 60.84375 62.9375 
L 18.015625 62.9375 
L 18.015625 41.15625 
L 57.625 41.15625 
L 57.625 32.859375 
L 18.015625 32.859375 
L 18.015625 8.546875 
L 61.578125 8.546875 
L 61.578125 0 
L 8.546875 0 
z
M 35.0625 71.734375 
z
" id="Helvetica-69"/>
      </defs>
      <g transform="translate(281.19316 561.312187)scale(0.18 -0.18)">
       <use xlink:href="#Helvetica-69"/>
      </g>
     </g>
    </g>
    <g id="xtick_13">
     <g id="line2d_13">
      <g>
       <use style="stroke:#000000;stroke-width:0.8;" x="301.09507" xlink:href="#m6b587b2595" y="541.4"/>
      </g>
     </g>
     <g id="text_12">
      <!-- P -->
      <defs>
       <path d="M 8.546875 71.734375 
L 40.828125 71.734375 
Q 50.390625 71.734375 56.25 66.328125 
Q 62.109375 60.9375 62.109375 51.171875 
Q 62.109375 42.78125 56.875 36.546875 
Q 51.65625 30.328125 40.828125 30.328125 
L 18.265625 30.328125 
L 18.265625 0 
L 8.546875 0 
z
M 52.296875 51.125 
Q 52.296875 59.03125 46.4375 61.859375 
Q 43.21875 63.375 37.59375 63.375 
L 18.265625 63.375 
L 18.265625 38.53125 
L 37.59375 38.53125 
Q 44.140625 38.53125 48.21875 41.3125 
Q 52.296875 44.09375 52.296875 51.125 
z
" id="Helvetica-80"/>
      </defs>
      <g transform="translate(295.091789 561.312187)scale(0.18 -0.18)">
       <use xlink:href="#Helvetica-80"/>
      </g>
     </g>
    </g>
    <g id="xtick_14">
     <g id="line2d_14">
      <g>
       <use style="stroke:#000000;stroke-width:0.8;" x="314.993699" xlink:href="#m6b587b2595" y="541.4"/>
      </g>
     </g>
     <g id="text_13">
      <!-- H -->
      <defs>
       <path d="M 7.859375 71.734375 
L 17.671875 71.734375 
L 17.671875 42.09375 
L 54.984375 42.09375 
L 54.984375 71.734375 
L 64.796875 71.734375 
L 64.796875 0 
L 54.984375 0 
L 54.984375 33.546875 
L 17.671875 33.546875 
L 17.671875 0 
L 7.859375 0 
z
" id="Helvetica-72"/>
      </defs>
      <g transform="translate(308.494011 561.312187)scale(0.18 -0.18)">
       <use xlink:href="#Helvetica-72"/>
      </g>
     </g>
    </g>
    <g id="xtick_15">
     <g id="line2d_15">
      <g>
       <use style="stroke:#000000;stroke-width:0.8;" x="328.892327" xlink:href="#m6b587b2595" y="541.4"/>
      </g>
     </g>
     <g id="text_14">
      <!-- L -->
      <defs>
       <path d="M 7.625 71.734375 
L 17.328125 71.734375 
L 17.328125 8.546875 
L 53.65625 8.546875 
L 53.65625 0 
L 7.625 0 
z
" id="Helvetica-76"/>
      </defs>
      <g transform="translate(323.887484 561.312187)scale(0.18 -0.18)">
       <use xlink:href="#Helvetica-76"/>
      </g>
     </g>
    </g>
    <g id="xtick_16">
     <g id="line2d_16">
      <g>
       <use style="stroke:#000000;stroke-width:0.8;" x="342.790956" xlink:href="#m6b587b2595" y="541.4"/>
      </g>
     </g>
     <g id="text_15">
      <!-- N -->
      <defs>
       <path d="M 7.625 71.734375 
L 19.09375 71.734375 
L 55.328125 13.625 
L 55.328125 71.734375 
L 64.546875 71.734375 
L 64.546875 0 
L 53.65625 0 
L 16.890625 58.0625 
L 16.890625 0 
L 7.625 0 
z
M 35.453125 71.734375 
z
" id="Helvetica-78"/>
      </defs>
      <g transform="translate(336.291269 561.312187)scale(0.18 -0.18)">
       <use xlink:href="#Helvetica-78"/>
      </g>
     </g>
    </g>
    <g id="xtick_17">
     <g id="line2d_17">
      <g>
       <use style="stroke:#000000;stroke-width:0.8;" x="356.689585" xlink:href="#m6b587b2595" y="541.4"/>
      </g>
     </g>
     <g id="text_16">
      <!-- F -->
      <defs>
       <path d="M 8.546875 71.734375 
L 58.296875 71.734375 
L 58.296875 62.9375 
L 18.265625 62.9375 
L 18.265625 41.15625 
L 53.46875 41.15625 
L 53.46875 32.625 
L 18.265625 32.625 
L 18.265625 0 
L 8.546875 0 
z
" id="Helvetica-70"/>
      </defs>
      <g transform="translate(351.192554 561.312187)scale(0.18 -0.18)">
       <use xlink:href="#Helvetica-70"/>
      </g>
     </g>
    </g>
    <g id="xtick_18">
     <g id="line2d_18">
      <g>
       <use style="stroke:#000000;stroke-width:0.8;" x="370.588214" xlink:href="#m6b587b2595" y="541.4"/>
      </g>
     </g>
     <g id="text_17">
      <!-- Q -->
      <defs>
       <path d="M 73.25 0.203125 
L 68.359375 -5.71875 
L 57.28125 2.734375 
Q 53.265625 0.53125 48.609375 -0.78125 
Q 43.953125 -2.09375 38.421875 -2.09375 
Q 21.734375 -2.09375 12.25 8.84375 
Q 3.90625 19.484375 3.90625 35.5 
Q 3.90625 50.046875 11.140625 60.40625 
Q 20.40625 73.6875 38.578125 73.6875 
Q 57.5625 73.6875 66.703125 61.46875 
Q 73.828125 51.953125 73.828125 37.109375 
Q 73.828125 30.171875 72.125 23.78125 
Q 69.53125 14.015625 63.375 7.859375 
z
M 39.59375 6.59375 
Q 42.625 6.59375 45.265625 7 
Q 47.90625 7.421875 49.859375 8.640625 
L 42 14.796875 
L 46.875 20.796875 
L 56.25 13.53125 
Q 60.6875 18.609375 62.28125 24.90625 
Q 63.875 31.203125 63.875 36.96875 
Q 63.875 49.609375 57.25 57.328125 
Q 50.640625 65.046875 39.15625 65.046875 
Q 27.546875 65.046875 20.75 57.640625 
Q 13.96875 50.25 13.96875 34.859375 
Q 13.96875 21.921875 20.484375 14.25 
Q 27 6.59375 39.59375 6.59375 
z
" id="Helvetica-81"/>
      </defs>
      <g transform="translate(363.587901 561.312187)scale(0.18 -0.18)">
       <use xlink:href="#Helvetica-81"/>
      </g>
     </g>
    </g>
    <g id="xtick_19">
     <g id="line2d_19">
      <g>
       <use style="stroke:#000000;stroke-width:0.8;" x="384.486842" xlink:href="#m6b587b2595" y="541.4"/>
      </g>
     </g>
     <g id="text_18">
      <!-- I -->
      <defs>
       <path d="M 9.8125 71.734375 
L 19.625 71.734375 
L 19.625 0 
L 9.8125 0 
z
" id="Helvetica-73"/>
      </defs>
      <g transform="translate(381.98653 561.312187)scale(0.18 -0.18)">
       <use xlink:href="#Helvetica-73"/>
      </g>
     </g>
    </g>
    <g id="xtick_20">
     <g id="line2d_20">
      <g>
       <use style="stroke:#000000;stroke-width:0.8;" x="398.385471" xlink:href="#m6b587b2595" y="541.4"/>
      </g>
     </g>
     <g id="text_19">
      <!-- K -->
      <defs>
       <path d="M 7.625 71.734375 
L 17.09375 71.734375 
L 17.09375 36.765625 
L 52.046875 71.734375 
L 65.484375 71.734375 
L 35.640625 42.828125 
L 66.3125 0 
L 53.65625 0 
L 28.5625 35.984375 
L 17.09375 25 
L 17.09375 0 
L 7.625 0 
z
" id="Helvetica-75"/>
      </defs>
      <g transform="translate(392.38219 561.312187)scale(0.18 -0.18)">
       <use xlink:href="#Helvetica-75"/>
      </g>
     </g>
    </g>
    <g id="xtick_21">
     <g id="line2d_21">
      <g>
       <use style="stroke:#000000;stroke-width:0.8;" x="412.2841" xlink:href="#m6b587b2595" y="541.4"/>
      </g>
     </g>
     <g id="text_20">
      <!-- M -->
      <defs>
       <path d="M 7.375 71.734375 
L 21.296875 71.734375 
L 41.890625 11.078125 
L 62.359375 71.734375 
L 76.125 71.734375 
L 76.125 0 
L 66.890625 0 
L 66.890625 42.328125 
Q 66.890625 44.53125 66.984375 49.609375 
Q 67.09375 54.6875 67.09375 60.5 
L 46.625 0 
L 37.015625 0 
L 16.40625 60.5 
L 16.40625 58.296875 
Q 16.40625 55.671875 16.53125 50.265625 
Q 16.65625 44.875 16.65625 42.328125 
L 16.65625 0 
L 7.375 0 
z
" id="Helvetica-77"/>
      </defs>
      <g transform="translate(404.787381 561.312187)scale(0.18 -0.18)">
       <use xlink:href="#Helvetica-77"/>
      </g>
     </g>
    </g>
   </g>
   <g id="matplotlib.axis_2">
    <g id="ytick_1">
     <g id="line2d_22">
      <defs>
       <path d="M 0 0 
L -3.5 0 
" id="m0af96cb866" style="stroke:#000000;stroke-width:0.8;"/>
      </defs>
      <g>
       <use style="stroke:#000000;stroke-width:0.8;" x="114.2975" xlink:href="#m0af96cb866" y="452.396491"/>
      </g>
     </g>
     <g id="text_21">
      <!-- 5.00e-04 -->
      <defs>
       <path d="M 12.359375 17.828125 
Q 13.234375 10.296875 19.34375 7.421875 
Q 22.46875 5.953125 26.5625 5.953125 
Q 34.375 5.953125 38.125 10.9375 
Q 41.890625 15.921875 41.890625 21.96875 
Q 41.890625 29.296875 37.421875 33.296875 
Q 32.953125 37.3125 26.703125 37.3125 
Q 22.171875 37.3125 18.921875 35.546875 
Q 15.671875 33.796875 13.375 30.671875 
L 5.765625 31.109375 
L 11.078125 68.75 
L 47.40625 68.75 
L 47.40625 60.25 
L 17.671875 60.25 
L 14.703125 40.828125 
Q 17.140625 42.671875 19.34375 43.609375 
Q 23.25 45.21875 28.375 45.21875 
Q 37.984375 45.21875 44.671875 39.015625 
Q 51.375 32.8125 51.375 23.296875 
Q 51.375 13.375 45.234375 5.796875 
Q 39.109375 -1.765625 25.6875 -1.765625 
Q 17.140625 -1.765625 10.5625 3.046875 
Q 4 7.859375 3.21875 17.828125 
z
" id="Helvetica-53"/>
       <path d="M 8.546875 10.640625 
L 18.75 10.640625 
L 18.75 0 
L 8.546875 0 
z
" id="Helvetica-46"/>
       <path d="M 27.046875 69.921875 
Q 40.625 69.921875 46.6875 58.734375 
Q 51.375 50.09375 51.375 35.0625 
Q 51.375 20.796875 47.125 11.46875 
Q 40.96875 -1.90625 27 -1.90625 
Q 14.40625 -1.90625 8.25 9.03125 
Q 3.125 18.171875 3.125 33.546875 
Q 3.125 45.453125 6.203125 54 
Q 11.96875 69.921875 27.046875 69.921875 
z
M 26.953125 6.109375 
Q 33.796875 6.109375 37.84375 12.15625 
Q 41.890625 18.21875 41.890625 34.71875 
Q 41.890625 46.625 38.953125 54.3125 
Q 36.03125 62.015625 27.59375 62.015625 
Q 19.828125 62.015625 16.234375 54.703125 
Q 12.640625 47.40625 12.640625 33.203125 
Q 12.640625 22.515625 14.9375 16.015625 
Q 18.453125 6.109375 26.953125 6.109375 
z
" id="Helvetica-48"/>
       <path d="M 28.21875 53.46875 
Q 33.796875 53.46875 39.015625 50.859375 
Q 44.234375 48.25 46.96875 44.09375 
Q 49.609375 40.140625 50.484375 34.859375 
Q 51.265625 31.25 51.265625 23.34375 
L 12.9375 23.34375 
Q 13.1875 15.375 16.703125 10.5625 
Q 20.21875 5.765625 27.59375 5.765625 
Q 34.46875 5.765625 38.578125 10.296875 
Q 40.921875 12.9375 41.890625 16.40625 
L 50.53125 16.40625 
Q 50.203125 13.53125 48.265625 9.984375 
Q 46.34375 6.453125 43.953125 4.203125 
Q 39.9375 0.296875 34.03125 -1.078125 
Q 30.859375 -1.859375 26.859375 -1.859375 
Q 17.09375 -1.859375 10.296875 5.25 
Q 3.515625 12.359375 3.515625 25.140625 
Q 3.515625 37.75 10.34375 45.609375 
Q 17.1875 53.46875 28.21875 53.46875 
z
M 42.234375 30.328125 
Q 41.703125 36.03125 39.75 39.453125 
Q 36.140625 45.796875 27.6875 45.796875 
Q 21.625 45.796875 17.515625 41.421875 
Q 13.421875 37.0625 13.1875 30.328125 
z
M 27.390625 53.5625 
z
" id="Helvetica-101"/>
       <path d="M 4.15625 32.375 
L 28.65625 32.375 
L 28.65625 23.34375 
L 4.15625 23.34375 
z
" id="Helvetica-45"/>
       <path d="M 33.0625 24.75 
L 33.0625 56.453125 
L 10.640625 24.75 
z
M 33.203125 0 
L 33.203125 17.09375 
L 2.546875 17.09375 
L 2.546875 25.6875 
L 34.578125 70.125 
L 42 70.125 
L 42 24.75 
L 52.296875 24.75 
L 52.296875 17.09375 
L 42 17.09375 
L 42 0 
z
" id="Helvetica-52"/>
      </defs>
      <g transform="translate(36.245312 458.852585)scale(0.18 -0.18)">
       <use xlink:href="#Helvetica-53"/>
       <use x="55.615234" xlink:href="#Helvetica-46"/>
       <use x="83.398438" xlink:href="#Helvetica-48"/>
       <use x="139.013672" xlink:href="#Helvetica-48"/>
       <use x="194.628906" xlink:href="#Helvetica-101"/>
       <use x="250.244141" xlink:href="#Helvetica-45"/>
       <use x="283.544922" xlink:href="#Helvetica-48"/>
       <use x="339.160156" xlink:href="#Helvetica-52"/>
      </g>
     </g>
    </g>
    <g id="ytick_2">
     <g id="line2d_23">
      <g>
       <use style="stroke:#000000;stroke-width:0.8;" x="114.2975" xlink:href="#m0af96cb866" y="363.392982"/>
      </g>
     </g>
     <g id="text_22">
      <!-- 1.00e-03 -->
      <defs>
       <path d="M 9.578125 49.515625 
L 9.578125 56.25 
Q 19.09375 57.171875 22.84375 59.34375 
Q 26.609375 61.53125 28.46875 69.625 
L 35.40625 69.625 
L 35.40625 0 
L 26.03125 0 
L 26.03125 49.515625 
z
" id="Helvetica-49"/>
       <path d="M 25.984375 -1.90625 
Q 13.578125 -1.90625 7.984375 4.90625 
Q 2.390625 11.71875 2.390625 21.484375 
L 11.578125 21.484375 
Q 12.15625 14.703125 14.109375 11.625 
Q 17.53125 6.109375 26.46875 6.109375 
Q 33.40625 6.109375 37.59375 9.8125 
Q 41.796875 13.53125 41.796875 19.390625 
Q 41.796875 26.609375 37.375 29.484375 
Q 32.953125 32.375 25.09375 32.375 
Q 24.21875 32.375 23.3125 32.34375 
Q 22.40625 32.328125 21.484375 32.28125 
L 21.484375 40.046875 
Q 22.859375 39.890625 23.78125 39.84375 
Q 24.703125 39.796875 25.78125 39.796875 
Q 30.71875 39.796875 33.890625 41.359375 
Q 39.453125 44.09375 39.453125 51.125 
Q 39.453125 56.34375 35.734375 59.171875 
Q 32.03125 62.015625 27.09375 62.015625 
Q 18.3125 62.015625 14.9375 56.15625 
Q 13.09375 52.9375 12.84375 46.96875 
L 4.15625 46.96875 
Q 4.15625 54.78125 7.28125 60.25 
Q 12.640625 70.015625 26.171875 70.015625 
Q 36.859375 70.015625 42.71875 65.25 
Q 48.578125 60.5 48.578125 51.46875 
Q 48.578125 45.015625 45.125 41.015625 
Q 42.96875 38.53125 39.546875 37.109375 
Q 45.0625 35.59375 48.15625 31.265625 
Q 51.265625 26.953125 51.265625 20.703125 
Q 51.265625 10.6875 44.671875 4.390625 
Q 38.09375 -1.90625 25.984375 -1.90625 
z
" id="Helvetica-51"/>
      </defs>
      <g transform="translate(36.245312 369.849076)scale(0.18 -0.18)">
       <use xlink:href="#Helvetica-49"/>
       <use x="55.615234" xlink:href="#Helvetica-46"/>
       <use x="83.398438" xlink:href="#Helvetica-48"/>
       <use x="139.013672" xlink:href="#Helvetica-48"/>
       <use x="194.628906" xlink:href="#Helvetica-101"/>
       <use x="250.244141" xlink:href="#Helvetica-45"/>
       <use x="283.544922" xlink:href="#Helvetica-48"/>
       <use x="339.160156" xlink:href="#Helvetica-51"/>
      </g>
     </g>
    </g>
    <g id="ytick_3">
     <g id="line2d_24">
      <g>
       <use style="stroke:#000000;stroke-width:0.8;" x="114.2975" xlink:href="#m0af96cb866" y="274.389474"/>
      </g>
     </g>
     <g id="text_23">
      <!-- 1.50e-03 -->
      <g transform="translate(36.245312 280.845567)scale(0.18 -0.18)">
       <use xlink:href="#Helvetica-49"/>
       <use x="55.615234" xlink:href="#Helvetica-46"/>
       <use x="83.398438" xlink:href="#Helvetica-53"/>
       <use x="139.013672" xlink:href="#Helvetica-48"/>
       <use x="194.628906" xlink:href="#Helvetica-101"/>
       <use x="250.244141" xlink:href="#Helvetica-45"/>
       <use x="283.544922" xlink:href="#Helvetica-48"/>
       <use x="339.160156" xlink:href="#Helvetica-51"/>
      </g>
     </g>
    </g>
    <g id="ytick_4">
     <g id="line2d_25">
      <g>
       <use style="stroke:#000000;stroke-width:0.8;" x="114.2975" xlink:href="#m0af96cb866" y="185.385965"/>
      </g>
     </g>
     <g id="text_24">
      <!-- 2.00e-03 -->
      <defs>
       <path d="M 3.125 0 
Q 3.609375 9.03125 6.859375 15.71875 
Q 10.109375 22.40625 19.53125 27.875 
L 28.90625 33.296875 
Q 35.203125 36.96875 37.75 39.546875 
Q 41.75 43.609375 41.75 48.828125 
Q 41.75 54.9375 38.078125 58.515625 
Q 34.421875 62.109375 28.328125 62.109375 
Q 19.28125 62.109375 15.828125 55.28125 
Q 13.96875 51.609375 13.765625 45.125 
L 4.828125 45.125 
Q 4.984375 54.25 8.203125 60.015625 
Q 13.921875 70.171875 28.375 70.171875 
Q 40.375 70.171875 45.921875 63.671875 
Q 51.46875 57.171875 51.46875 49.21875 
Q 51.46875 40.828125 45.5625 34.859375 
Q 42.140625 31.390625 33.296875 26.46875 
L 26.609375 22.75 
Q 21.828125 20.125 19.09375 17.71875 
Q 14.203125 13.484375 12.9375 8.296875 
L 51.125 8.296875 
L 51.125 0 
L 3.125 0 
z
" id="Helvetica-50"/>
      </defs>
      <g transform="translate(36.245312 191.842059)scale(0.18 -0.18)">
       <use xlink:href="#Helvetica-50"/>
       <use x="55.615234" xlink:href="#Helvetica-46"/>
       <use x="83.398438" xlink:href="#Helvetica-48"/>
       <use x="139.013672" xlink:href="#Helvetica-48"/>
       <use x="194.628906" xlink:href="#Helvetica-101"/>
       <use x="250.244141" xlink:href="#Helvetica-45"/>
       <use x="283.544922" xlink:href="#Helvetica-48"/>
       <use x="339.160156" xlink:href="#Helvetica-51"/>
      </g>
     </g>
    </g>
    <g id="ytick_5">
     <g id="line2d_26">
      <g>
       <use style="stroke:#000000;stroke-width:0.8;" x="114.2975" xlink:href="#m0af96cb866" y="96.382456"/>
      </g>
     </g>
     <g id="text_25">
      <!-- 2.50e-03 -->
      <g transform="translate(36.245312 102.83855)scale(0.18 -0.18)">
       <use xlink:href="#Helvetica-50"/>
       <use x="55.615234" xlink:href="#Helvetica-46"/>
       <use x="83.398438" xlink:href="#Helvetica-53"/>
       <use x="139.013672" xlink:href="#Helvetica-48"/>
       <use x="194.628906" xlink:href="#Helvetica-101"/>
       <use x="250.244141" xlink:href="#Helvetica-45"/>
       <use x="283.544922" xlink:href="#Helvetica-48"/>
       <use x="339.160156" xlink:href="#Helvetica-51"/>
      </g>
     </g>
    </g>
    <g id="text_26">
     <!-- SNPs per bp -->
     <defs>
      <path d="M 11.671875 16.40625 
Q 12.0625 12.015625 13.875 9.671875 
Q 17.1875 5.421875 25.390625 5.421875 
Q 30.28125 5.421875 33.984375 7.546875 
Q 37.703125 9.671875 37.703125 14.109375 
Q 37.703125 17.484375 34.71875 19.234375 
Q 32.8125 20.3125 27.203125 21.734375 
L 20.21875 23.484375 
Q 13.53125 25.140625 10.359375 27.203125 
Q 4.6875 30.765625 4.6875 37.0625 
Q 4.6875 44.484375 10.03125 49.0625 
Q 15.375 53.65625 24.421875 53.65625 
Q 36.234375 53.65625 41.453125 46.734375 
Q 44.734375 42.328125 44.625 37.25 
L 36.328125 37.25 
Q 36.078125 40.234375 34.234375 42.671875 
Q 31.203125 46.140625 23.734375 46.140625 
Q 18.75 46.140625 16.1875 44.234375 
Q 13.625 42.328125 13.625 39.203125 
Q 13.625 35.796875 17 33.734375 
Q 18.953125 32.515625 22.75 31.59375 
L 28.5625 30.171875 
Q 38.03125 27.875 41.265625 25.734375 
Q 46.390625 22.359375 46.390625 15.140625 
Q 46.390625 8.15625 41.09375 3.078125 
Q 35.796875 -2 24.953125 -2 
Q 13.28125 -2 8.421875 3.296875 
Q 3.5625 8.59375 3.21875 16.40625 
z
M 24.65625 53.5625 
z
" id="Helvetica-115"/>
      <path id="Helvetica-32"/>
      <path d="M 28.515625 5.90625 
Q 34.671875 5.90625 38.75 11.0625 
Q 42.828125 16.21875 42.828125 26.46875 
Q 42.828125 32.71875 41.015625 37.203125 
Q 37.59375 45.84375 28.515625 45.84375 
Q 19.390625 45.84375 16.015625 36.71875 
Q 14.203125 31.84375 14.203125 24.3125 
Q 14.203125 18.265625 16.015625 14.015625 
Q 19.4375 5.90625 28.515625 5.90625 
z
M 5.765625 52.046875 
L 14.3125 52.046875 
L 14.3125 45.125 
Q 16.9375 48.6875 20.0625 50.640625 
Q 24.515625 53.5625 30.515625 53.5625 
Q 39.40625 53.5625 45.609375 46.75 
Q 51.8125 39.9375 51.8125 27.296875 
Q 51.8125 10.203125 42.875 2.875 
Q 37.203125 -1.765625 29.6875 -1.765625 
Q 23.78125 -1.765625 19.78125 0.828125 
Q 17.4375 2.296875 14.546875 5.859375 
L 14.546875 -20.84375 
L 5.765625 -20.84375 
z
" id="Helvetica-112"/>
      <path d="M 6.6875 52.296875 
L 15.046875 52.296875 
L 15.046875 43.265625 
Q 16.0625 45.90625 20.0625 49.6875 
Q 24.078125 53.46875 29.296875 53.46875 
Q 29.546875 53.46875 30.125 53.421875 
Q 30.71875 53.375 32.125 53.21875 
L 32.125 43.953125 
Q 31.34375 44.09375 30.6875 44.140625 
Q 30.03125 44.1875 29.25 44.1875 
Q 22.609375 44.1875 19.046875 39.90625 
Q 15.484375 35.640625 15.484375 30.078125 
L 15.484375 0 
L 6.6875 0 
z
" id="Helvetica-114"/>
      <path d="M 5.765625 71.96875 
L 14.3125 71.96875 
L 14.3125 45.953125 
Q 17.1875 49.703125 21.1875 51.671875 
Q 25.203125 53.65625 29.890625 53.65625 
Q 39.65625 53.65625 45.734375 46.9375 
Q 51.8125 40.234375 51.8125 27.15625 
Q 51.8125 14.75 45.796875 6.546875 
Q 39.796875 -1.65625 29.15625 -1.65625 
Q 23.1875 -1.65625 19.09375 1.21875 
Q 16.65625 2.9375 13.875 6.6875 
L 13.875 0 
L 5.765625 0 
z
M 28.609375 6.109375 
Q 35.75 6.109375 39.28125 11.765625 
Q 42.828125 17.4375 42.828125 26.703125 
Q 42.828125 34.96875 39.28125 40.375 
Q 35.75 45.796875 28.859375 45.796875 
Q 22.859375 45.796875 18.328125 41.359375 
Q 13.8125 36.921875 13.8125 26.703125 
Q 13.8125 19.34375 15.671875 14.75 
Q 19.140625 6.109375 28.609375 6.109375 
z
" id="Helvetica-98"/>
     </defs>
     <g transform="translate(27.659687 350.101406)rotate(-90)scale(0.22 -0.22)">
      <use xlink:href="#Helvetica-83"/>
      <use x="66.699219" xlink:href="#Helvetica-78"/>
      <use x="138.916016" xlink:href="#Helvetica-80"/>
      <use x="205.615234" xlink:href="#Helvetica-115"/>
      <use x="255.615234" xlink:href="#Helvetica-32"/>
      <use x="283.398438" xlink:href="#Helvetica-112"/>
      <use x="339.013672" xlink:href="#Helvetica-101"/>
      <use x="394.628906" xlink:href="#Helvetica-114"/>
      <use x="427.929688" xlink:href="#Helvetica-32"/>
      <use x="455.712891" xlink:href="#Helvetica-98"/>
      <use x="511.328125" xlink:href="#Helvetica-112"/>
     </g>
    </g>
   </g>
   <g id="patch_24">
    <path d="M 114.2975 541.4 
L 114.2975 34.08 
" style="fill:none;stroke:#000000;stroke-linecap:square;stroke-linejoin:miter;stroke-width:0.8;"/>
   </g>
   <g id="patch_25">
    <path d="M 432.298125 541.4 
L 432.298125 34.08 
" style="fill:none;stroke:#000000;stroke-linecap:square;stroke-linejoin:miter;stroke-width:0.8;"/>
   </g>
   <g id="patch_26">
    <path d="M 114.2975 541.4 
L 432.298125 541.4 
" style="fill:none;stroke:#000000;stroke-linecap:square;stroke-linejoin:miter;stroke-width:0.8;"/>
   </g>
   <g id="patch_27">
    <path d="M 114.2975 34.08 
L 432.298125 34.08 
" style="fill:none;stroke:#000000;stroke-linecap:square;stroke-linejoin:miter;stroke-width:0.8;"/>
   </g>
   <g id="text_27">
    <!-- all (9877) -->
    <defs>
     <path d="M 13.1875 13.921875 
Q 13.1875 10.109375 15.96875 7.90625 
Q 18.75 5.71875 22.5625 5.71875 
Q 27.203125 5.71875 31.546875 7.859375 
Q 38.875 11.421875 38.875 19.53125 
L 38.875 26.609375 
Q 37.25 25.59375 34.703125 24.90625 
Q 32.171875 24.21875 29.734375 23.921875 
L 24.421875 23.25 
Q 19.625 22.609375 17.234375 21.234375 
Q 13.1875 18.953125 13.1875 13.921875 
z
M 34.46875 31.6875 
Q 37.5 32.078125 38.53125 34.234375 
Q 39.109375 35.40625 39.109375 37.59375 
Q 39.109375 42.09375 35.90625 44.109375 
Q 32.71875 46.140625 26.765625 46.140625 
Q 19.875 46.140625 17 42.4375 
Q 15.375 40.375 14.890625 36.328125 
L 6.6875 36.328125 
Q 6.9375 46 12.96875 49.78125 
Q 19 53.5625 26.953125 53.5625 
Q 36.1875 53.5625 41.9375 50.046875 
Q 47.65625 46.53125 47.65625 39.109375 
L 47.65625 8.984375 
Q 47.65625 7.625 48.21875 6.78125 
Q 48.78125 5.953125 50.59375 5.953125 
Q 51.171875 5.953125 51.90625 6.03125 
Q 52.640625 6.109375 53.46875 6.25 
L 53.46875 -0.25 
Q 51.421875 -0.828125 50.34375 -0.96875 
Q 49.265625 -1.125 47.40625 -1.125 
Q 42.875 -1.125 40.828125 2.09375 
Q 39.75 3.8125 39.3125 6.9375 
Q 36.625 3.421875 31.59375 0.828125 
Q 26.5625 -1.765625 20.515625 -1.765625 
Q 13.234375 -1.765625 8.609375 2.65625 
Q 4 7.078125 4 13.71875 
Q 4 21 8.546875 25 
Q 13.09375 29 20.453125 29.9375 
z
M 27.203125 53.5625 
z
" id="Helvetica-97"/>
     <path d="M 6.6875 71.734375 
L 15.484375 71.734375 
L 15.484375 0 
L 6.6875 0 
z
" id="Helvetica-108"/>
     <path d="M 29.59375 72.90625 
Q 21.921875 58.015625 19.625 50.984375 
Q 16.15625 40.28125 16.15625 26.265625 
Q 16.15625 12.109375 20.125 0.390625 
Q 22.5625 -6.84375 29.734375 -20.40625 
L 23.828125 -20.40625 
Q 16.703125 -9.28125 14.984375 -6.203125 
Q 13.28125 -3.125 11.28125 2.15625 
Q 8.546875 9.375 7.46875 17.578125 
Q 6.9375 21.828125 6.9375 25.6875 
Q 6.9375 40.140625 11.46875 51.421875 
Q 14.359375 58.59375 23.484375 72.90625 
z
" id="Helvetica-40"/>
     <path d="M 13.28125 16.890625 
Q 13.671875 9.625 18.890625 6.84375 
Q 21.578125 5.375 24.953125 5.375 
Q 31.25 5.375 35.6875 10.625 
Q 40.140625 15.875 42 31.9375 
Q 39.0625 27.296875 34.734375 25.40625 
Q 30.421875 23.53125 25.4375 23.53125 
Q 15.328125 23.53125 9.4375 29.828125 
Q 3.5625 36.140625 3.5625 46.046875 
Q 3.5625 55.5625 9.375 62.78125 
Q 15.1875 70.015625 26.515625 70.015625 
Q 41.796875 70.015625 47.609375 56.25 
Q 50.828125 48.6875 50.828125 37.3125 
Q 50.828125 24.46875 46.96875 14.546875 
Q 40.578125 -1.953125 25.296875 -1.953125 
Q 15.046875 -1.953125 9.71875 3.421875 
Q 4.390625 8.796875 4.390625 16.890625 
z
M 26.609375 31.25 
Q 31.84375 31.25 36.15625 34.6875 
Q 40.484375 38.140625 40.484375 46.734375 
Q 40.484375 54.4375 36.59375 58.21875 
Q 32.71875 62.015625 26.703125 62.015625 
Q 20.265625 62.015625 16.484375 57.6875 
Q 12.703125 53.375 12.703125 46.140625 
Q 12.703125 39.3125 16.015625 35.28125 
Q 19.34375 31.25 26.609375 31.25 
z
" id="Helvetica-57"/>
     <path d="M 27.203125 40.625 
Q 33.015625 40.625 36.28125 43.875 
Q 39.546875 47.125 39.546875 51.609375 
Q 39.546875 55.515625 36.421875 58.78125 
Q 33.296875 62.0625 26.90625 62.0625 
Q 20.5625 62.0625 17.71875 58.78125 
Q 14.890625 55.515625 14.890625 51.125 
Q 14.890625 46.1875 18.546875 43.40625 
Q 22.21875 40.625 27.203125 40.625 
z
M 27.734375 6 
Q 33.84375 6 37.859375 9.296875 
Q 41.890625 12.59375 41.890625 19.140625 
Q 41.890625 25.921875 37.734375 29.4375 
Q 33.59375 32.953125 27.09375 32.953125 
Q 20.796875 32.953125 16.8125 29.359375 
Q 12.84375 25.78125 12.84375 19.4375 
Q 12.84375 13.96875 16.484375 9.984375 
Q 20.125 6 27.734375 6 
z
M 15.234375 37.25 
Q 11.578125 38.8125 9.515625 40.921875 
Q 5.671875 44.828125 5.671875 51.078125 
Q 5.671875 58.890625 11.328125 64.5 
Q 17 70.125 27.390625 70.125 
Q 37.453125 70.125 43.15625 64.8125 
Q 48.875 59.515625 48.875 52.4375 
Q 48.875 45.90625 45.5625 41.84375 
Q 43.703125 39.546875 39.796875 37.359375 
Q 44.140625 35.359375 46.625 32.765625 
Q 51.265625 27.875 51.265625 20.0625 
Q 51.265625 10.84375 45.0625 4.421875 
Q 38.875 -2 27.546875 -2 
Q 17.328125 -2 10.265625 3.53125 
Q 3.21875 9.078125 3.21875 19.625 
Q 3.21875 25.828125 6.25 30.34375 
Q 9.28125 34.859375 15.234375 37.25 
z
" id="Helvetica-56"/>
     <path d="M 52.296875 68.75 
L 52.296875 61.078125 
Q 48.921875 57.8125 43.328125 49.703125 
Q 37.75 41.609375 33.453125 32.234375 
Q 29.203125 23.09375 27 15.578125 
Q 25.59375 10.75 23.34375 0 
L 13.625 0 
Q 16.9375 20.015625 28.265625 39.84375 
Q 34.96875 51.46875 42.328125 59.90625 
L 3.65625 59.90625 
L 3.65625 68.75 
z
" id="Helvetica-55"/>
     <path d="M 3.46875 -20.40625 
Q 11.234375 -5.28125 13.484375 1.65625 
Q 16.890625 12.15625 16.890625 26.265625 
Q 16.890625 40.375 12.9375 52.09375 
Q 10.5 59.328125 3.328125 72.90625 
L 9.234375 72.90625 
Q 16.75 60.890625 18.328125 58.078125 
Q 19.921875 55.28125 21.78125 50.34375 
Q 24.125 44.234375 25.125 38.28125 
Q 26.125 32.328125 26.125 26.8125 
Q 26.125 12.359375 21.53125 1.03125 
Q 18.65625 -6.25 9.578125 -20.40625 
z
" id="Helvetica-41"/>
    </defs>
    <g transform="translate(332.251875 28.08)scale(0.24 -0.24)">
     <use xlink:href="#Helvetica-97"/>
     <use x="55.615234" xlink:href="#Helvetica-108"/>
     <use x="77.832031" xlink:href="#Helvetica-108"/>
     <use x="100.048828" xlink:href="#Helvetica-32"/>
     <use x="127.832031" xlink:href="#Helvetica-40"/>
     <use x="161.132812" xlink:href="#Helvetica-57"/>
     <use x="216.748047" xlink:href="#Helvetica-56"/>
     <use x="272.363281" xlink:href="#Helvetica-55"/>
     <use x="327.978516" xlink:href="#Helvetica-55"/>
     <use x="383.59375" xlink:href="#Helvetica-41"/>
    </g>
   </g>
  </g>
  <g id="axes_2">
   <g id="patch_28">
    <path d="M 446.598125 541.4 
L 764.59875 541.4 
L 764.59875 34.08 
L 446.598125 34.08 
z
" style="fill:#ffffff;"/>
   </g>
   <g id="patch_29">
    <path clip-path="url(#pb02070ea9c)" d="M 461.052699 541.4 
L 472.171602 541.4 
L 472.171602 162.617766 
L 461.052699 162.617766 
z
" style="fill:#2ca02c;"/>
   </g>
   <g id="patch_30">
    <path clip-path="url(#pb02070ea9c)" d="M 474.951328 541.4 
L 486.070231 541.4 
L 486.070231 296.521174 
L 474.951328 296.521174 
z
" style="fill:#7f7f7f;"/>
   </g>
   <g id="patch_31">
    <path clip-path="url(#pb02070ea9c)" d="M 488.849956 541.4 
L 499.968859 541.4 
L 499.968859 362.218347 
L 488.849956 362.218347 
z
" style="fill:#1f77b4;"/>
   </g>
   <g id="patch_32">
    <path clip-path="url(#pb02070ea9c)" d="M 502.748585 541.4 
L 513.867488 541.4 
L 513.867488 373.128454 
L 502.748585 373.128454 
z
" style="fill:#d62728;"/>
   </g>
   <g id="patch_33">
    <path clip-path="url(#pb02070ea9c)" d="M 516.647214 541.4 
L 527.766117 541.4 
L 527.766117 397.386815 
L 516.647214 397.386815 
z
" style="fill:#7f7f7f;"/>
   </g>
   <g id="patch_34">
    <path clip-path="url(#pb02070ea9c)" d="M 530.545842 541.4 
L 541.664745 541.4 
L 541.664745 419.339139 
L 530.545842 419.339139 
z
" style="fill:#1f77b4;"/>
   </g>
   <g id="patch_35">
    <path clip-path="url(#pb02070ea9c)" d="M 544.444471 541.4 
L 555.563374 541.4 
L 555.563374 426.028028 
L 544.444471 426.028028 
z
" style="fill:#d62728;"/>
   </g>
   <g id="patch_36">
    <path clip-path="url(#pb02070ea9c)" d="M 558.3431 541.4 
L 569.462003 541.4 
L 569.462003 436.892806 
L 558.3431 436.892806 
z
" style="fill:#7f7f7f;"/>
   </g>
   <g id="patch_37">
    <path clip-path="url(#pb02070ea9c)" d="M 572.241729 541.4 
L 583.360632 541.4 
L 583.360632 439.615722 
L 572.241729 439.615722 
z
" style="fill:#1f77b4;"/>
   </g>
   <g id="patch_38">
    <path clip-path="url(#pb02070ea9c)" d="M 586.140357 541.4 
L 597.25926 541.4 
L 597.25926 448.488532 
L 586.140357 448.488532 
z
" style="fill:#7f7f7f;"/>
   </g>
   <g id="patch_39">
    <path clip-path="url(#pb02070ea9c)" d="M 600.038986 541.4 
L 611.157889 541.4 
L 611.157889 451.854128 
L 600.038986 451.854128 
z
" style="fill:#d62728;"/>
   </g>
   <g id="patch_40">
    <path clip-path="url(#pb02070ea9c)" d="M 613.937615 541.4 
L 625.056518 541.4 
L 625.056518 462.592102 
L 613.937615 462.592102 
z
" style="fill:#7f7f7f;"/>
   </g>
   <g id="patch_41">
    <path clip-path="url(#pb02070ea9c)" d="M 627.836243 541.4 
L 638.955146 541.4 
L 638.955146 476.290593 
L 627.836243 476.290593 
z
" style="fill:#d62728;"/>
   </g>
   <g id="patch_42">
    <path clip-path="url(#pb02070ea9c)" d="M 641.734872 541.4 
L 652.853775 541.4 
L 652.853775 490.477039 
L 641.734872 490.477039 
z
" style="fill:#d62728;"/>
   </g>
   <g id="patch_43">
    <path clip-path="url(#pb02070ea9c)" d="M 655.633501 541.4 
L 666.752404 541.4 
L 666.752404 500.008554 
L 655.633501 500.008554 
z
" style="fill:#1f77b4;"/>
   </g>
   <g id="patch_44">
    <path clip-path="url(#pb02070ea9c)" d="M 669.53213 541.4 
L 680.651033 541.4 
L 680.651033 500.177531 
L 669.53213 500.177531 
z
" style="fill:#7f7f7f;"/>
   </g>
   <g id="patch_45">
    <path clip-path="url(#pb02070ea9c)" d="M 683.430758 541.4 
L 694.549661 541.4 
L 694.549661 513.119668 
L 683.430758 513.119668 
z
" style="fill:#7f7f7f;"/>
   </g>
   <g id="patch_46">
    <path clip-path="url(#pb02070ea9c)" d="M 697.329387 541.4 
L 708.44829 541.4 
L 708.44829 514.287426 
L 697.329387 514.287426 
z
" style="fill:#1f77b4;"/>
   </g>
   <g id="patch_47">
    <path clip-path="url(#pb02070ea9c)" d="M 711.228016 541.4 
L 722.346919 541.4 
L 722.346919 515.374155 
L 711.228016 515.374155 
z
" style="fill:#7f7f7f;"/>
   </g>
   <g id="patch_48">
    <path clip-path="url(#pb02070ea9c)" d="M 725.126644 541.4 
L 736.245547 541.4 
L 736.245547 518.684676 
L 725.126644 518.684676 
z
" style="fill:#1f77b4;"/>
   </g>
   <g id="patch_49">
    <path clip-path="url(#pb02070ea9c)" d="M 739.025273 541.4 
L 750.144176 541.4 
L 750.144176 541.4 
L 739.025273 541.4 
z
" style="fill:#7f7f7f;"/>
   </g>
   <g id="matplotlib.axis_3">
    <g id="xtick_22">
     <g id="line2d_27">
      <g>
       <use style="stroke:#000000;stroke-width:0.8;" x="466.61215" xlink:href="#m6b587b2595" y="541.4"/>
      </g>
     </g>
    </g>
    <g id="xtick_23">
     <g id="line2d_28">
      <g>
       <use style="stroke:#000000;stroke-width:0.8;" x="480.510779" xlink:href="#m6b587b2595" y="541.4"/>
      </g>
     </g>
     <g id="text_28">
      <!-- G -->
      <g transform="translate(473.510467 561.312187)scale(0.18 -0.18)">
       <use xlink:href="#Helvetica-71"/>
      </g>
     </g>
    </g>
    <g id="xtick_24">
     <g id="line2d_29">
      <g>
       <use style="stroke:#000000;stroke-width:0.8;" x="494.409408" xlink:href="#m6b587b2595" y="541.4"/>
      </g>
     </g>
     <g id="text_29">
      <!-- C -->
      <g transform="translate(487.90972 561.312187)scale(0.18 -0.18)">
       <use xlink:href="#Helvetica-67"/>
      </g>
     </g>
    </g>
    <g id="xtick_25">
     <g id="line2d_30">
      <g>
       <use style="stroke:#000000;stroke-width:0.8;" x="508.308036" xlink:href="#m6b587b2595" y="541.4"/>
      </g>
     </g>
     <g id="text_30">
      <!-- R -->
      <g transform="translate(501.808349 561.312187)scale(0.18 -0.18)">
       <use xlink:href="#Helvetica-82"/>
      </g>
     </g>
    </g>
    <g id="xtick_26">
     <g id="line2d_31">
      <g>
       <use style="stroke:#000000;stroke-width:0.8;" x="522.206665" xlink:href="#m6b587b2595" y="541.4"/>
      </g>
     </g>
     <g id="text_31">
      <!-- A -->
      <g transform="translate(516.203384 561.312187)scale(0.18 -0.18)">
       <use xlink:href="#Helvetica-65"/>
      </g>
     </g>
    </g>
    <g id="xtick_27">
     <g id="line2d_32">
      <g>
       <use style="stroke:#000000;stroke-width:0.8;" x="536.105294" xlink:href="#m6b587b2595" y="541.4"/>
      </g>
     </g>
     <g id="text_32">
      <!-- S -->
      <g transform="translate(530.102013 561.312187)scale(0.18 -0.18)">
       <use xlink:href="#Helvetica-83"/>
      </g>
     </g>
    </g>
    <g id="xtick_28">
     <g id="line2d_33">
      <g>
       <use style="stroke:#000000;stroke-width:0.8;" x="550.003923" xlink:href="#m6b587b2595" y="541.4"/>
      </g>
     </g>
     <g id="text_33">
      <!-- E -->
      <g transform="translate(544.000641 561.312187)scale(0.18 -0.18)">
       <use xlink:href="#Helvetica-69"/>
      </g>
     </g>
    </g>
    <g id="xtick_29">
     <g id="line2d_34">
      <g>
       <use style="stroke:#000000;stroke-width:0.8;" x="563.902551" xlink:href="#m6b587b2595" y="541.4"/>
      </g>
     </g>
     <g id="text_34">
      <!-- L -->
      <g transform="translate(558.897708 561.312187)scale(0.18 -0.18)">
       <use xlink:href="#Helvetica-76"/>
      </g>
     </g>
    </g>
    <g id="xtick_30">
     <g id="line2d_35">
      <g>
       <use style="stroke:#000000;stroke-width:0.8;" x="577.80118" xlink:href="#m6b587b2595" y="541.4"/>
      </g>
     </g>
     <g id="text_35">
      <!-- T -->
      <g transform="translate(572.304149 561.312187)scale(0.18 -0.18)">
       <use xlink:href="#Helvetica-84"/>
      </g>
     </g>
    </g>
    <g id="xtick_31">
     <g id="line2d_36">
      <g>
       <use style="stroke:#000000;stroke-width:0.8;" x="591.699809" xlink:href="#m6b587b2595" y="541.4"/>
      </g>
     </g>
     <g id="text_36">
      <!-- P -->
      <g transform="translate(585.696528 561.312187)scale(0.18 -0.18)">
       <use xlink:href="#Helvetica-80"/>
      </g>
     </g>
    </g>
    <g id="xtick_32">
     <g id="line2d_37">
      <g>
       <use style="stroke:#000000;stroke-width:0.8;" x="605.598438" xlink:href="#m6b587b2595" y="541.4"/>
      </g>
     </g>
     <g id="text_37">
      <!-- H -->
      <g transform="translate(599.09875 561.312187)scale(0.18 -0.18)">
       <use xlink:href="#Helvetica-72"/>
      </g>
     </g>
    </g>
    <g id="xtick_33">
     <g id="line2d_38">
      <g>
       <use style="stroke:#000000;stroke-width:0.8;" x="619.497066" xlink:href="#m6b587b2595" y="541.4"/>
      </g>
     </g>
     <g id="text_38">
      <!-- V -->
      <g transform="translate(613.493785 561.312187)scale(0.18 -0.18)">
       <use xlink:href="#Helvetica-86"/>
      </g>
     </g>
    </g>
    <g id="xtick_34">
     <g id="line2d_39">
      <g>
       <use style="stroke:#000000;stroke-width:0.8;" x="633.395695" xlink:href="#m6b587b2595" y="541.4"/>
      </g>
     </g>
     <g id="text_39">
      <!-- K -->
      <g transform="translate(627.392414 561.312187)scale(0.18 -0.18)">
       <use xlink:href="#Helvetica-75"/>
      </g>
     </g>
    </g>
    <g id="xtick_35">
     <g id="line2d_40">
      <g>
       <use style="stroke:#000000;stroke-width:0.8;" x="647.294324" xlink:href="#m6b587b2595" y="541.4"/>
      </g>
     </g>
     <g id="text_40">
      <!-- D -->
      <g transform="translate(640.794636 561.312187)scale(0.18 -0.18)">
       <use xlink:href="#Helvetica-68"/>
      </g>
     </g>
    </g>
    <g id="xtick_36">
     <g id="line2d_41">
      <g>
       <use style="stroke:#000000;stroke-width:0.8;" x="661.192952" xlink:href="#m6b587b2595" y="541.4"/>
      </g>
     </g>
     <g id="text_41">
      <!-- Q -->
      <g transform="translate(654.19264 561.312187)scale(0.18 -0.18)">
       <use xlink:href="#Helvetica-81"/>
      </g>
     </g>
    </g>
    <g id="xtick_37">
     <g id="line2d_42">
      <g>
       <use style="stroke:#000000;stroke-width:0.8;" x="675.091581" xlink:href="#m6b587b2595" y="541.4"/>
      </g>
     </g>
     <g id="text_42">
      <!-- I -->
      <g transform="translate(672.591269 561.312187)scale(0.18 -0.18)">
       <use xlink:href="#Helvetica-73"/>
      </g>
     </g>
    </g>
    <g id="xtick_38">
     <g id="line2d_43">
      <g>
       <use style="stroke:#000000;stroke-width:0.8;" x="688.99021" xlink:href="#m6b587b2595" y="541.4"/>
      </g>
     </g>
     <g id="text_43">
      <!-- F -->
      <g transform="translate(683.493179 561.312187)scale(0.18 -0.18)">
       <use xlink:href="#Helvetica-70"/>
      </g>
     </g>
    </g>
    <g id="xtick_39">
     <g id="line2d_44">
      <g>
       <use style="stroke:#000000;stroke-width:0.8;" x="702.888839" xlink:href="#m6b587b2595" y="541.4"/>
      </g>
     </g>
     <g id="text_44">
      <!-- N -->
      <g transform="translate(696.389151 561.312187)scale(0.18 -0.18)">
       <use xlink:href="#Helvetica-78"/>
      </g>
     </g>
    </g>
    <g id="xtick_40">
     <g id="line2d_45">
      <g>
       <use style="stroke:#000000;stroke-width:0.8;" x="716.787467" xlink:href="#m6b587b2595" y="541.4"/>
      </g>
     </g>
     <g id="text_45">
      <!-- M -->
      <g transform="translate(709.290748 561.312187)scale(0.18 -0.18)">
       <use xlink:href="#Helvetica-77"/>
      </g>
     </g>
    </g>
    <g id="xtick_41">
     <g id="line2d_46">
      <g>
       <use style="stroke:#000000;stroke-width:0.8;" x="730.686096" xlink:href="#m6b587b2595" y="541.4"/>
      </g>
     </g>
     <g id="text_46">
      <!-- Y -->
      <g transform="translate(724.682815 561.312187)scale(0.18 -0.18)">
       <use xlink:href="#Helvetica-89"/>
      </g>
     </g>
    </g>
    <g id="xtick_42">
     <g id="line2d_47">
      <g>
       <use style="stroke:#000000;stroke-width:0.8;" x="744.584725" xlink:href="#m6b587b2595" y="541.4"/>
      </g>
     </g>
     <g id="text_47">
      <!-- W -->
      <g transform="translate(736.089568 561.312187)scale(0.18 -0.18)">
       <use xlink:href="#Helvetica-87"/>
      </g>
     </g>
    </g>
   </g>
   <g id="matplotlib.axis_4">
    <g id="ytick_6">
     <g id="line2d_48">
      <g>
       <use style="stroke:#000000;stroke-width:0.8;" x="446.598125" xlink:href="#m0af96cb866" y="452.396491"/>
      </g>
     </g>
    </g>
    <g id="ytick_7">
     <g id="line2d_49">
      <g>
       <use style="stroke:#000000;stroke-width:0.8;" x="446.598125" xlink:href="#m0af96cb866" y="363.392982"/>
      </g>
     </g>
    </g>
    <g id="ytick_8">
     <g id="line2d_50">
      <g>
       <use style="stroke:#000000;stroke-width:0.8;" x="446.598125" xlink:href="#m0af96cb866" y="274.389474"/>
      </g>
     </g>
    </g>
    <g id="ytick_9">
     <g id="line2d_51">
      <g>
       <use style="stroke:#000000;stroke-width:0.8;" x="446.598125" xlink:href="#m0af96cb866" y="185.385965"/>
      </g>
     </g>
    </g>
    <g id="ytick_10">
     <g id="line2d_52">
      <g>
       <use style="stroke:#000000;stroke-width:0.8;" x="446.598125" xlink:href="#m0af96cb866" y="96.382456"/>
      </g>
     </g>
    </g>
   </g>
   <g id="patch_50">
    <path d="M 446.598125 541.4 
L 446.598125 34.08 
" style="fill:none;stroke:#000000;stroke-linecap:square;stroke-linejoin:miter;stroke-width:0.8;"/>
   </g>
   <g id="patch_51">
    <path d="M 764.59875 541.4 
L 764.59875 34.08 
" style="fill:none;stroke:#000000;stroke-linecap:square;stroke-linejoin:miter;stroke-width:0.8;"/>
   </g>
   <g id="patch_52">
    <path d="M 446.598125 541.4 
L 764.59875 541.4 
" style="fill:none;stroke:#000000;stroke-linecap:square;stroke-linejoin:miter;stroke-width:0.8;"/>
   </g>
   <g id="patch_53">
    <path d="M 446.598125 34.08 
L 764.59875 34.08 
" style="fill:none;stroke:#000000;stroke-linecap:square;stroke-linejoin:miter;stroke-width:0.8;"/>
   </g>
   <g id="text_48">
    <!-- synonymous (2932) -->
    <defs>
     <path d="M 39.109375 52.296875 
L 48.828125 52.296875 
Q 46.96875 47.265625 40.578125 29.34375 
Q 35.796875 15.875 32.5625 7.375 
Q 24.953125 -12.640625 21.828125 -17.03125 
Q 18.703125 -21.4375 11.078125 -21.4375 
Q 9.234375 -21.4375 8.234375 -21.28125 
Q 7.234375 -21.140625 5.765625 -20.75 
L 5.765625 -12.75 
Q 8.0625 -13.375 9.078125 -13.515625 
Q 10.109375 -13.671875 10.890625 -13.671875 
Q 13.328125 -13.671875 14.46875 -12.859375 
Q 15.625 -12.0625 16.40625 -10.890625 
Q 16.65625 -10.5 18.15625 -6.875 
Q 19.671875 -3.265625 20.359375 -1.515625 
L 1.03125 52.296875 
L 10.984375 52.296875 
L 25 9.71875 
z
M 24.953125 53.5625 
z
" id="Helvetica-121"/>
     <path d="M 6.453125 52.296875 
L 14.796875 52.296875 
L 14.796875 44.875 
Q 18.5 49.46875 22.65625 51.46875 
Q 26.8125 53.46875 31.890625 53.46875 
Q 43.015625 53.46875 46.921875 45.703125 
Q 49.078125 41.453125 49.078125 33.546875 
L 49.078125 0 
L 40.140625 0 
L 40.140625 32.953125 
Q 40.140625 37.75 38.71875 40.671875 
Q 36.375 45.5625 30.21875 45.5625 
Q 27.09375 45.5625 25.09375 44.921875 
Q 21.484375 43.84375 18.75 40.625 
Q 16.546875 38.03125 15.890625 35.265625 
Q 15.234375 32.515625 15.234375 27.390625 
L 15.234375 0 
L 6.453125 0 
z
M 27.09375 53.5625 
z
" id="Helvetica-110"/>
     <path d="M 27.203125 5.671875 
Q 35.9375 5.671875 39.1875 12.28125 
Q 42.4375 18.890625 42.4375 27 
Q 42.4375 34.328125 40.09375 38.921875 
Q 36.375 46.140625 27.296875 46.140625 
Q 19.234375 46.140625 15.578125 39.984375 
Q 11.921875 33.84375 11.921875 25.140625 
Q 11.921875 16.796875 15.578125 11.234375 
Q 19.234375 5.671875 27.203125 5.671875 
z
M 27.546875 53.8125 
Q 37.640625 53.8125 44.625 47.0625 
Q 51.609375 40.328125 51.609375 27.25 
Q 51.609375 14.59375 45.453125 6.34375 
Q 39.3125 -1.90625 26.375 -1.90625 
Q 15.578125 -1.90625 9.21875 5.390625 
Q 2.875 12.703125 2.875 25 
Q 2.875 38.1875 9.5625 46 
Q 16.265625 53.8125 27.546875 53.8125 
z
M 27.25 53.5625 
z
" id="Helvetica-111"/>
     <path d="M 6.453125 52.296875 
L 15.140625 52.296875 
L 15.140625 44.875 
Q 18.265625 48.734375 20.796875 50.484375 
Q 25.140625 53.46875 30.671875 53.46875 
Q 36.921875 53.46875 40.71875 50.390625 
Q 42.875 48.640625 44.625 45.21875 
Q 47.5625 49.421875 51.515625 51.4375 
Q 55.46875 53.46875 60.40625 53.46875 
Q 70.953125 53.46875 74.75 45.84375 
Q 76.8125 41.75 76.8125 34.8125 
L 76.8125 0 
L 67.671875 0 
L 67.671875 36.328125 
Q 67.671875 41.546875 65.0625 43.5 
Q 62.453125 45.453125 58.6875 45.453125 
Q 53.515625 45.453125 49.78125 41.984375 
Q 46.046875 38.53125 46.046875 30.421875 
L 46.046875 0 
L 37.109375 0 
L 37.109375 34.125 
Q 37.109375 39.453125 35.84375 41.890625 
Q 33.84375 45.5625 28.375 45.5625 
Q 23.390625 45.5625 19.3125 41.703125 
Q 15.234375 37.84375 15.234375 27.734375 
L 15.234375 0 
L 6.453125 0 
z
" id="Helvetica-109"/>
     <path d="M 15.234375 52.296875 
L 15.234375 17.578125 
Q 15.234375 13.578125 16.5 11.03125 
Q 18.84375 6.34375 25.25 6.34375 
Q 34.421875 6.34375 37.75 14.546875 
Q 39.546875 18.953125 39.546875 26.609375 
L 39.546875 52.296875 
L 48.34375 52.296875 
L 48.34375 0 
L 40.046875 0 
L 40.140625 7.71875 
Q 38.421875 4.734375 35.890625 2.6875 
Q 30.859375 -1.421875 23.6875 -1.421875 
Q 12.5 -1.421875 8.453125 6.0625 
Q 6.25 10.0625 6.25 16.75 
L 6.25 52.296875 
z
M 27.296875 53.5625 
z
" id="Helvetica-117"/>
    </defs>
    <g transform="translate(553.84125 28.08)scale(0.24 -0.24)">
     <use xlink:href="#Helvetica-115"/>
     <use x="50" xlink:href="#Helvetica-121"/>
     <use x="100" xlink:href="#Helvetica-110"/>
     <use x="155.615234" xlink:href="#Helvetica-111"/>
     <use x="211.230469" xlink:href="#Helvetica-110"/>
     <use x="266.845703" xlink:href="#Helvetica-121"/>
     <use x="316.845703" xlink:href="#Helvetica-109"/>
     <use x="400.146484" xlink:href="#Helvetica-111"/>
     <use x="455.761719" xlink:href="#Helvetica-117"/>
     <use x="511.376953" xlink:href="#Helvetica-115"/>
     <use x="561.376953" xlink:href="#Helvetica-32"/>
     <use x="589.160156" xlink:href="#Helvetica-40"/>
     <use x="622.460938" xlink:href="#Helvetica-50"/>
     <use x="678.076172" xlink:href="#Helvetica-57"/>
     <use x="733.691406" xlink:href="#Helvetica-51"/>
     <use x="789.306641" xlink:href="#Helvetica-50"/>
     <use x="844.921875" xlink:href="#Helvetica-41"/>
    </g>
   </g>
  </g>
  <g id="axes_3">
   <g id="patch_54">
    <path d="M 778.89875 541.4 
L 1096.899375 541.4 
L 1096.899375 34.08 
L 778.89875 34.08 
z
" style="fill:#ffffff;"/>
   </g>
   <g id="patch_55">
    <path clip-path="url(#pf690f602e7)" d="M 793.353324 541.4 
L 804.472227 541.4 
L 804.472227 162.617766 
L 793.353324 162.617766 
z
" style="fill:#2ca02c;"/>
   </g>
   <g id="patch_56">
    <path clip-path="url(#pf690f602e7)" d="M 807.251953 541.4 
L 818.370856 541.4 
L 818.370856 363.694179 
L 807.251953 363.694179 
z
" style="fill:#7f7f7f;"/>
   </g>
   <g id="patch_57">
    <path clip-path="url(#pf690f602e7)" d="M 821.150581 541.4 
L 832.269484 541.4 
L 832.269484 457.582322 
L 821.150581 457.582322 
z
" style="fill:#1f77b4;"/>
   </g>
   <g id="patch_58">
    <path clip-path="url(#pf690f602e7)" d="M 835.04921 541.4 
L 846.168113 541.4 
L 846.168113 527.873631 
L 835.04921 527.873631 
z
" style="fill:#d62728;"/>
   </g>
   <g id="patch_59">
    <path clip-path="url(#pf690f602e7)" d="M 848.947839 541.4 
L 860.066742 541.4 
L 860.066742 530.692296 
L 848.947839 530.692296 
z
" style="fill:#7f7f7f;"/>
   </g>
   <g id="patch_60">
    <path clip-path="url(#pf690f602e7)" d="M 862.846467 541.4 
L 873.96537 541.4 
L 873.96537 533.287384 
L 862.846467 533.287384 
z
" style="fill:#1f77b4;"/>
   </g>
   <g id="patch_61">
    <path clip-path="url(#pf690f602e7)" d="M 876.745096 541.4 
L 887.863999 541.4 
L 887.863999 533.436371 
L 876.745096 533.436371 
z
" style="fill:#1f77b4;"/>
   </g>
   <g id="patch_62">
    <path clip-path="url(#pf690f602e7)" d="M 890.643725 541.4 
L 901.762628 541.4 
L 901.762628 534.702625 
L 890.643725 534.702625 
z
" style="fill:#d62728;"/>
   </g>
   <g id="patch_63">
    <path clip-path="url(#pf690f602e7)" d="M 904.542354 541.4 
L 915.661257 541.4 
L 915.661257 537.411083 
L 904.542354 537.411083 
z
" style="fill:#1f77b4;"/>
   </g>
   <g id="patch_64">
    <path clip-path="url(#pf690f602e7)" d="M 918.440982 541.4 
L 929.559885 541.4 
L 929.559885 538.292401 
L 918.440982 538.292401 
z
" style="fill:#7f7f7f;"/>
   </g>
   <g id="patch_65">
    <path clip-path="url(#pf690f602e7)" d="M 932.339611 541.4 
L 943.458514 541.4 
L 943.458514 540.349848 
L 932.339611 540.349848 
z
" style="fill:#d62728;"/>
   </g>
   <g id="patch_66">
    <path clip-path="url(#pf690f602e7)" d="M 946.23824 541.4 
L 957.357143 541.4 
L 957.357143 541.4 
L 946.23824 541.4 
z
" style="fill:#7f7f7f;"/>
   </g>
   <g id="patch_67">
    <path clip-path="url(#pf690f602e7)" d="M 960.136868 541.4 
L 971.255771 541.4 
L 971.255771 541.4 
L 960.136868 541.4 
z
" style="fill:#d62728;"/>
   </g>
   <g id="patch_68">
    <path clip-path="url(#pf690f602e7)" d="M 974.035497 541.4 
L 985.1544 541.4 
L 985.1544 541.4 
L 974.035497 541.4 
z
" style="fill:#7f7f7f;"/>
   </g>
   <g id="patch_69">
    <path clip-path="url(#pf690f602e7)" d="M 987.934126 541.4 
L 999.053029 541.4 
L 999.053029 541.4 
L 987.934126 541.4 
z
" style="fill:#d62728;"/>
   </g>
   <g id="patch_70">
    <path clip-path="url(#pf690f602e7)" d="M 1001.832755 541.4 
L 1012.951658 541.4 
L 1012.951658 541.4 
L 1001.832755 541.4 
z
" style="fill:#7f7f7f;"/>
   </g>
   <g id="patch_71">
    <path clip-path="url(#pf690f602e7)" d="M 1015.731383 541.4 
L 1026.850286 541.4 
L 1026.850286 541.4 
L 1015.731383 541.4 
z
" style="fill:#7f7f7f;"/>
   </g>
   <g id="patch_72">
    <path clip-path="url(#pf690f602e7)" d="M 1029.630012 541.4 
L 1040.748915 541.4 
L 1040.748915 541.4 
L 1029.630012 541.4 
z
" style="fill:#1f77b4;"/>
   </g>
   <g id="patch_73">
    <path clip-path="url(#pf690f602e7)" d="M 1043.528641 541.4 
L 1054.647544 541.4 
L 1054.647544 541.4 
L 1043.528641 541.4 
z
" style="fill:#7f7f7f;"/>
   </g>
   <g id="patch_74">
    <path clip-path="url(#pf690f602e7)" d="M 1057.427269 541.4 
L 1068.546172 541.4 
L 1068.546172 541.4 
L 1057.427269 541.4 
z
" style="fill:#1f77b4;"/>
   </g>
   <g id="patch_75">
    <path clip-path="url(#pf690f602e7)" d="M 1071.325898 541.4 
L 1082.444801 541.4 
L 1082.444801 541.4 
L 1071.325898 541.4 
z
" style="fill:#7f7f7f;"/>
   </g>
   <g id="matplotlib.axis_5">
    <g id="xtick_43">
     <g id="line2d_53">
      <g>
       <use style="stroke:#000000;stroke-width:0.8;" x="798.912775" xlink:href="#m6b587b2595" y="541.4"/>
      </g>
     </g>
    </g>
    <g id="xtick_44">
     <g id="line2d_54">
      <g>
       <use style="stroke:#000000;stroke-width:0.8;" x="812.811404" xlink:href="#m6b587b2595" y="541.4"/>
      </g>
     </g>
     <g id="text_49">
      <!-- W -->
      <g transform="translate(804.316248 561.312187)scale(0.18 -0.18)">
       <use xlink:href="#Helvetica-87"/>
      </g>
     </g>
    </g>
    <g id="xtick_45">
     <g id="line2d_55">
      <g>
       <use style="stroke:#000000;stroke-width:0.8;" x="826.710033" xlink:href="#m6b587b2595" y="541.4"/>
      </g>
     </g>
     <g id="text_50">
      <!-- Q -->
      <g transform="translate(819.70972 561.312187)scale(0.18 -0.18)">
       <use xlink:href="#Helvetica-81"/>
      </g>
     </g>
    </g>
    <g id="xtick_46">
     <g id="line2d_56">
      <g>
       <use style="stroke:#000000;stroke-width:0.8;" x="840.608661" xlink:href="#m6b587b2595" y="541.4"/>
      </g>
     </g>
     <g id="text_51">
      <!-- E -->
      <g transform="translate(834.60538 561.312187)scale(0.18 -0.18)">
       <use xlink:href="#Helvetica-69"/>
      </g>
     </g>
    </g>
    <g id="xtick_47">
     <g id="line2d_57">
      <g>
       <use style="stroke:#000000;stroke-width:0.8;" x="854.50729" xlink:href="#m6b587b2595" y="541.4"/>
      </g>
     </g>
     <g id="text_52">
      <!-- L -->
      <g transform="translate(849.502446 561.312187)scale(0.18 -0.18)">
       <use xlink:href="#Helvetica-76"/>
      </g>
     </g>
    </g>
    <g id="xtick_48">
     <g id="line2d_58">
      <g>
       <use style="stroke:#000000;stroke-width:0.8;" x="868.405919" xlink:href="#m6b587b2595" y="541.4"/>
      </g>
     </g>
     <g id="text_53">
      <!-- Y -->
      <g transform="translate(862.402638 561.312187)scale(0.18 -0.18)">
       <use xlink:href="#Helvetica-89"/>
      </g>
     </g>
    </g>
    <g id="xtick_49">
     <g id="line2d_59">
      <g>
       <use style="stroke:#000000;stroke-width:0.8;" x="882.304548" xlink:href="#m6b587b2595" y="541.4"/>
      </g>
     </g>
     <g id="text_54">
      <!-- C -->
      <g transform="translate(875.80486 561.312187)scale(0.18 -0.18)">
       <use xlink:href="#Helvetica-67"/>
      </g>
     </g>
    </g>
    <g id="xtick_50">
     <g id="line2d_60">
      <g>
       <use style="stroke:#000000;stroke-width:0.8;" x="896.203176" xlink:href="#m6b587b2595" y="541.4"/>
      </g>
     </g>
     <g id="text_55">
      <!-- R -->
      <g transform="translate(889.703489 561.312187)scale(0.18 -0.18)">
       <use xlink:href="#Helvetica-82"/>
      </g>
     </g>
    </g>
    <g id="xtick_51">
     <g id="line2d_61">
      <g>
       <use style="stroke:#000000;stroke-width:0.8;" x="910.101805" xlink:href="#m6b587b2595" y="541.4"/>
      </g>
     </g>
     <g id="text_56">
      <!-- S -->
      <g transform="translate(904.098524 561.312187)scale(0.18 -0.18)">
       <use xlink:href="#Helvetica-83"/>
      </g>
     </g>
    </g>
    <g id="xtick_52">
     <g id="line2d_62">
      <g>
       <use style="stroke:#000000;stroke-width:0.8;" x="924.000434" xlink:href="#m6b587b2595" y="541.4"/>
      </g>
     </g>
     <g id="text_57">
      <!-- G -->
      <g transform="translate(917.000121 561.312187)scale(0.18 -0.18)">
       <use xlink:href="#Helvetica-71"/>
      </g>
     </g>
    </g>
    <g id="xtick_53">
     <g id="line2d_63">
      <g>
       <use style="stroke:#000000;stroke-width:0.8;" x="937.899063" xlink:href="#m6b587b2595" y="541.4"/>
      </g>
     </g>
     <g id="text_58">
      <!-- K -->
      <g transform="translate(931.895781 561.312187)scale(0.18 -0.18)">
       <use xlink:href="#Helvetica-75"/>
      </g>
     </g>
    </g>
    <g id="xtick_54">
     <g id="line2d_64">
      <g>
       <use style="stroke:#000000;stroke-width:0.8;" x="951.797691" xlink:href="#m6b587b2595" y="541.4"/>
      </g>
     </g>
     <g id="text_59">
      <!-- A -->
      <g transform="translate(945.79441 561.312187)scale(0.18 -0.18)">
       <use xlink:href="#Helvetica-65"/>
      </g>
     </g>
    </g>
    <g id="xtick_55">
     <g id="line2d_65">
      <g>
       <use style="stroke:#000000;stroke-width:0.8;" x="965.69632" xlink:href="#m6b587b2595" y="541.4"/>
      </g>
     </g>
     <g id="text_60">
      <!-- D -->
      <g transform="translate(959.196632 561.312187)scale(0.18 -0.18)">
       <use xlink:href="#Helvetica-68"/>
      </g>
     </g>
    </g>
    <g id="xtick_56">
     <g id="line2d_66">
      <g>
       <use style="stroke:#000000;stroke-width:0.8;" x="979.594949" xlink:href="#m6b587b2595" y="541.4"/>
      </g>
     </g>
     <g id="text_61">
      <!-- F -->
      <g transform="translate(974.097917 561.312187)scale(0.18 -0.18)">
       <use xlink:href="#Helvetica-70"/>
      </g>
     </g>
    </g>
    <g id="xtick_57">
     <g id="line2d_67">
      <g>
       <use style="stroke:#000000;stroke-width:0.8;" x="993.493577" xlink:href="#m6b587b2595" y="541.4"/>
      </g>
     </g>
     <g id="text_62">
      <!-- H -->
      <g transform="translate(986.99389 561.312187)scale(0.18 -0.18)">
       <use xlink:href="#Helvetica-72"/>
      </g>
     </g>
    </g>
    <g id="xtick_58">
     <g id="line2d_68">
      <g>
       <use style="stroke:#000000;stroke-width:0.8;" x="1007.392206" xlink:href="#m6b587b2595" y="541.4"/>
      </g>
     </g>
     <g id="text_63">
      <!-- I -->
      <g transform="translate(1004.891894 561.312187)scale(0.18 -0.18)">
       <use xlink:href="#Helvetica-73"/>
      </g>
     </g>
    </g>
    <g id="xtick_59">
     <g id="line2d_69">
      <g>
       <use style="stroke:#000000;stroke-width:0.8;" x="1021.290835" xlink:href="#m6b587b2595" y="541.4"/>
      </g>
     </g>
     <g id="text_64">
      <!-- M -->
      <g transform="translate(1013.794116 561.312187)scale(0.18 -0.18)">
       <use xlink:href="#Helvetica-77"/>
      </g>
     </g>
    </g>
    <g id="xtick_60">
     <g id="line2d_70">
      <g>
       <use style="stroke:#000000;stroke-width:0.8;" x="1035.189464" xlink:href="#m6b587b2595" y="541.4"/>
      </g>
     </g>
     <g id="text_65">
      <!-- N -->
      <g transform="translate(1028.689776 561.312187)scale(0.18 -0.18)">
       <use xlink:href="#Helvetica-78"/>
      </g>
     </g>
    </g>
    <g id="xtick_61">
     <g id="line2d_71">
      <g>
       <use style="stroke:#000000;stroke-width:0.8;" x="1049.088092" xlink:href="#m6b587b2595" y="541.4"/>
      </g>
     </g>
     <g id="text_66">
      <!-- P -->
      <g transform="translate(1043.084811 561.312187)scale(0.18 -0.18)">
       <use xlink:href="#Helvetica-80"/>
      </g>
     </g>
    </g>
    <g id="xtick_62">
     <g id="line2d_72">
      <g>
       <use style="stroke:#000000;stroke-width:0.8;" x="1062.986721" xlink:href="#m6b587b2595" y="541.4"/>
      </g>
     </g>
     <g id="text_67">
      <!-- T -->
      <g transform="translate(1057.48969 561.312187)scale(0.18 -0.18)">
       <use xlink:href="#Helvetica-84"/>
      </g>
     </g>
    </g>
    <g id="xtick_63">
     <g id="line2d_73">
      <g>
       <use style="stroke:#000000;stroke-width:0.8;" x="1076.88535" xlink:href="#m6b587b2595" y="541.4"/>
      </g>
     </g>
     <g id="text_68">
      <!-- V -->
      <g transform="translate(1070.882068 561.312187)scale(0.18 -0.18)">
       <use xlink:href="#Helvetica-86"/>
      </g>
     </g>
    </g>
   </g>
   <g id="matplotlib.axis_6">
    <g id="ytick_11">
     <g id="line2d_74">
      <g>
       <use style="stroke:#000000;stroke-width:0.8;" x="778.89875" xlink:href="#m0af96cb866" y="452.396491"/>
      </g>
     </g>
    </g>
    <g id="ytick_12">
     <g id="line2d_75">
      <g>
       <use style="stroke:#000000;stroke-width:0.8;" x="778.89875" xlink:href="#m0af96cb866" y="363.392982"/>
      </g>
     </g>
    </g>
    <g id="ytick_13">
     <g id="line2d_76">
      <g>
       <use style="stroke:#000000;stroke-width:0.8;" x="778.89875" xlink:href="#m0af96cb866" y="274.389474"/>
      </g>
     </g>
    </g>
    <g id="ytick_14">
     <g id="line2d_77">
      <g>
       <use style="stroke:#000000;stroke-width:0.8;" x="778.89875" xlink:href="#m0af96cb866" y="185.385965"/>
      </g>
     </g>
    </g>
    <g id="ytick_15">
     <g id="line2d_78">
      <g>
       <use style="stroke:#000000;stroke-width:0.8;" x="778.89875" xlink:href="#m0af96cb866" y="96.382456"/>
      </g>
     </g>
    </g>
   </g>
   <g id="patch_76">
    <path d="M 778.89875 541.4 
L 778.89875 34.08 
" style="fill:none;stroke:#000000;stroke-linecap:square;stroke-linejoin:miter;stroke-width:0.8;"/>
   </g>
   <g id="patch_77">
    <path d="M 1096.899375 541.4 
L 1096.899375 34.08 
" style="fill:none;stroke:#000000;stroke-linecap:square;stroke-linejoin:miter;stroke-width:0.8;"/>
   </g>
   <g id="patch_78">
    <path d="M 778.89875 541.4 
L 1096.899375 541.4 
" style="fill:none;stroke:#000000;stroke-linecap:square;stroke-linejoin:miter;stroke-width:0.8;"/>
   </g>
   <g id="patch_79">
    <path d="M 778.89875 34.08 
L 1096.899375 34.08 
" style="fill:none;stroke:#000000;stroke-linecap:square;stroke-linejoin:miter;stroke-width:0.8;"/>
   </g>
   <g id="text_69">
    <!-- nonsense (208) -->
    <g transform="translate(930.133125 28.08)scale(0.24 -0.24)">
     <use xlink:href="#Helvetica-110"/>
     <use x="55.615234" xlink:href="#Helvetica-111"/>
     <use x="111.230469" xlink:href="#Helvetica-110"/>
     <use x="166.845703" xlink:href="#Helvetica-115"/>
     <use x="216.845703" xlink:href="#Helvetica-101"/>
     <use x="272.460938" xlink:href="#Helvetica-110"/>
     <use x="328.076172" xlink:href="#Helvetica-115"/>
     <use x="378.076172" xlink:href="#Helvetica-101"/>
     <use x="433.691406" xlink:href="#Helvetica-32"/>
     <use x="461.474609" xlink:href="#Helvetica-40"/>
     <use x="494.775391" xlink:href="#Helvetica-50"/>
     <use x="550.390625" xlink:href="#Helvetica-48"/>
     <use x="606.005859" xlink:href="#Helvetica-56"/>
     <use x="661.621094" xlink:href="#Helvetica-41"/>
    </g>
   </g>
  </g>
  <g id="axes_4">
   <g id="patch_80">
    <path d="M 1111.199375 541.4 
L 1429.2 541.4 
L 1429.2 34.08 
L 1111.199375 34.08 
z
" style="fill:#ffffff;"/>
   </g>
   <g id="patch_81">
    <path clip-path="url(#pbff979ffc3)" d="M 1125.653949 541.4 
L 1136.772852 541.4 
L 1136.772852 162.617766 
L 1125.653949 162.617766 
z
" style="fill:#2ca02c;"/>
   </g>
   <g id="patch_82">
    <path clip-path="url(#pbff979ffc3)" d="M 1139.552578 541.4 
L 1150.671481 541.4 
L 1150.671481 143.671517 
L 1139.552578 143.671517 
z
" style="fill:#1f77b4;"/>
   </g>
   <g id="patch_83">
    <path clip-path="url(#pbff979ffc3)" d="M 1153.451206 541.4 
L 1164.570109 541.4 
L 1164.570109 163.3521 
L 1153.451206 163.3521 
z
" style="fill:#1f77b4;"/>
   </g>
   <g id="patch_84">
    <path clip-path="url(#pbff979ffc3)" d="M 1167.349835 541.4 
L 1178.468738 541.4 
L 1178.468738 192.578155 
L 1167.349835 192.578155 
z
" style="fill:#7f7f7f;"/>
   </g>
   <g id="patch_85">
    <path clip-path="url(#pbff979ffc3)" d="M 1181.248464 541.4 
L 1192.367367 541.4 
L 1192.367367 226.928381 
L 1181.248464 226.928381 
z
" style="fill:#d62728;"/>
   </g>
   <g id="patch_86">
    <path clip-path="url(#pbff979ffc3)" d="M 1195.147092 541.4 
L 1206.265995 541.4 
L 1206.265995 242.763912 
L 1195.147092 242.763912 
z
" style="fill:#1f77b4;"/>
   </g>
   <g id="patch_87">
    <path clip-path="url(#pbff979ffc3)" d="M 1209.045721 541.4 
L 1220.164624 541.4 
L 1220.164624 256.253893 
L 1209.045721 256.253893 
z
" style="fill:#7f7f7f;"/>
   </g>
   <g id="patch_88">
    <path clip-path="url(#pbff979ffc3)" d="M 1222.94435 541.4 
L 1234.063253 541.4 
L 1234.063253 295.27147 
L 1222.94435 295.27147 
z
" style="fill:#d62728;"/>
   </g>
   <g id="patch_89">
    <path clip-path="url(#pbff979ffc3)" d="M 1236.842979 541.4 
L 1247.961882 541.4 
L 1247.961882 300.923254 
L 1236.842979 300.923254 
z
" style="fill:#1f77b4;"/>
   </g>
   <g id="patch_90">
    <path clip-path="url(#pbff979ffc3)" d="M 1250.741607 541.4 
L 1261.86051 541.4 
L 1261.86051 305.256112 
L 1250.741607 305.256112 
z
" style="fill:#1f77b4;"/>
   </g>
   <g id="patch_91">
    <path clip-path="url(#pbff979ffc3)" d="M 1264.640236 541.4 
L 1275.759139 541.4 
L 1275.759139 319.870729 
L 1264.640236 319.870729 
z
" style="fill:#7f7f7f;"/>
   </g>
   <g id="patch_92">
    <path clip-path="url(#pbff979ffc3)" d="M 1278.538865 541.4 
L 1289.657768 541.4 
L 1289.657768 320.477175 
L 1278.538865 320.477175 
z
" style="fill:#7f7f7f;"/>
   </g>
   <g id="patch_93">
    <path clip-path="url(#pbff979ffc3)" d="M 1292.437493 541.4 
L 1303.556396 541.4 
L 1303.556396 321.605587 
L 1292.437493 321.605587 
z
" style="fill:#d62728;"/>
   </g>
   <g id="patch_94">
    <path clip-path="url(#pbff979ffc3)" d="M 1306.336122 541.4 
L 1317.455025 541.4 
L 1317.455025 329.752107 
L 1306.336122 329.752107 
z
" style="fill:#d62728;"/>
   </g>
   <g id="patch_95">
    <path clip-path="url(#pbff979ffc3)" d="M 1320.234751 541.4 
L 1331.353654 541.4 
L 1331.353654 354.372132 
L 1320.234751 354.372132 
z
" style="fill:#7f7f7f;"/>
   </g>
   <g id="patch_96">
    <path clip-path="url(#pbff979ffc3)" d="M 1334.13338 541.4 
L 1345.252283 541.4 
L 1345.252283 358.051641 
L 1334.13338 358.051641 
z
" style="fill:#7f7f7f;"/>
   </g>
   <g id="patch_97">
    <path clip-path="url(#pbff979ffc3)" d="M 1348.032008 541.4 
L 1359.150911 541.4 
L 1359.150911 369.718105 
L 1348.032008 369.718105 
z
" style="fill:#7f7f7f;"/>
   </g>
   <g id="patch_98">
    <path clip-path="url(#pbff979ffc3)" d="M 1361.930637 541.4 
L 1373.04954 541.4 
L 1373.04954 382.06936 
L 1361.930637 382.06936 
z
" style="fill:#7f7f7f;"/>
   </g>
   <g id="patch_99">
    <path clip-path="url(#pbff979ffc3)" d="M 1375.829266 541.4 
L 1386.948169 541.4 
L 1386.948169 384.927394 
L 1375.829266 384.927394 
z
" style="fill:#d62728;"/>
   </g>
   <g id="patch_100">
    <path clip-path="url(#pbff979ffc3)" d="M 1389.727894 541.4 
L 1400.846797 541.4 
L 1400.846797 388.498163 
L 1389.727894 388.498163 
z
" style="fill:#7f7f7f;"/>
   </g>
   <g id="patch_101">
    <path clip-path="url(#pbff979ffc3)" d="M 1403.626523 541.4 
L 1414.745426 541.4 
L 1414.745426 424.469165 
L 1403.626523 424.469165 
z
" style="fill:#1f77b4;"/>
   </g>
   <g id="matplotlib.axis_7">
    <g id="xtick_64">
     <g id="line2d_79">
      <g>
       <use style="stroke:#000000;stroke-width:0.8;" x="1131.2134" xlink:href="#m6b587b2595" y="541.4"/>
      </g>
     </g>
    </g>
    <g id="xtick_65">
     <g id="line2d_80">
      <g>
       <use style="stroke:#000000;stroke-width:0.8;" x="1145.112029" xlink:href="#m6b587b2595" y="541.4"/>
      </g>
     </g>
     <g id="text_70">
      <!-- T -->
      <g transform="translate(1139.614998 561.312187)scale(0.18 -0.18)">
       <use xlink:href="#Helvetica-84"/>
      </g>
     </g>
    </g>
    <g id="xtick_66">
     <g id="line2d_81">
      <g>
       <use style="stroke:#000000;stroke-width:0.8;" x="1159.010658" xlink:href="#m6b587b2595" y="541.4"/>
      </g>
     </g>
     <g id="text_71">
      <!-- Y -->
      <g transform="translate(1153.007377 561.312187)scale(0.18 -0.18)">
       <use xlink:href="#Helvetica-89"/>
      </g>
     </g>
    </g>
    <g id="xtick_67">
     <g id="line2d_82">
      <g>
       <use style="stroke:#000000;stroke-width:0.8;" x="1172.909286" xlink:href="#m6b587b2595" y="541.4"/>
      </g>
     </g>
     <g id="text_72">
      <!-- V -->
      <g transform="translate(1166.906005 561.312187)scale(0.18 -0.18)">
       <use xlink:href="#Helvetica-86"/>
      </g>
     </g>
    </g>
    <g id="xtick_68">
     <g id="line2d_83">
      <g>
       <use style="stroke:#000000;stroke-width:0.8;" x="1186.807915" xlink:href="#m6b587b2595" y="541.4"/>
      </g>
     </g>
     <g id="text_73">
      <!-- D -->
      <g transform="translate(1180.308228 561.312187)scale(0.18 -0.18)">
       <use xlink:href="#Helvetica-68"/>
      </g>
     </g>
    </g>
    <g id="xtick_69">
     <g id="line2d_84">
      <g>
       <use style="stroke:#000000;stroke-width:0.8;" x="1200.706544" xlink:href="#m6b587b2595" y="541.4"/>
      </g>
     </g>
     <g id="text_74">
      <!-- C -->
      <g transform="translate(1194.206856 561.312187)scale(0.18 -0.18)">
       <use xlink:href="#Helvetica-67"/>
      </g>
     </g>
    </g>
    <g id="xtick_70">
     <g id="line2d_85">
      <g>
       <use style="stroke:#000000;stroke-width:0.8;" x="1214.605173" xlink:href="#m6b587b2595" y="541.4"/>
      </g>
     </g>
     <g id="text_75">
      <!-- A -->
      <g transform="translate(1208.601891 561.312187)scale(0.18 -0.18)">
       <use xlink:href="#Helvetica-65"/>
      </g>
     </g>
    </g>
    <g id="xtick_71">
     <g id="line2d_86">
      <g>
       <use style="stroke:#000000;stroke-width:0.8;" x="1228.503801" xlink:href="#m6b587b2595" y="541.4"/>
      </g>
     </g>
     <g id="text_76">
      <!-- R -->
      <g transform="translate(1222.004114 561.312187)scale(0.18 -0.18)">
       <use xlink:href="#Helvetica-82"/>
      </g>
     </g>
    </g>
    <g id="xtick_72">
     <g id="line2d_87">
      <g>
       <use style="stroke:#000000;stroke-width:0.8;" x="1242.40243" xlink:href="#m6b587b2595" y="541.4"/>
      </g>
     </g>
     <g id="text_77">
      <!-- N -->
      <g transform="translate(1235.902743 561.312187)scale(0.18 -0.18)">
       <use xlink:href="#Helvetica-78"/>
      </g>
     </g>
    </g>
    <g id="xtick_73">
     <g id="line2d_88">
      <g>
       <use style="stroke:#000000;stroke-width:0.8;" x="1256.301059" xlink:href="#m6b587b2595" y="541.4"/>
      </g>
     </g>
     <g id="text_78">
      <!-- S -->
      <g transform="translate(1250.297778 561.312187)scale(0.18 -0.18)">
       <use xlink:href="#Helvetica-83"/>
      </g>
     </g>
    </g>
    <g id="xtick_74">
     <g id="line2d_89">
      <g>
       <use style="stroke:#000000;stroke-width:0.8;" x="1270.199688" xlink:href="#m6b587b2595" y="541.4"/>
      </g>
     </g>
     <g id="text_79">
      <!-- F -->
      <g transform="translate(1264.702656 561.312187)scale(0.18 -0.18)">
       <use xlink:href="#Helvetica-70"/>
      </g>
     </g>
    </g>
    <g id="xtick_75">
     <g id="line2d_90">
      <g>
       <use style="stroke:#000000;stroke-width:0.8;" x="1284.098316" xlink:href="#m6b587b2595" y="541.4"/>
      </g>
     </g>
     <g id="text_80">
      <!-- P -->
      <g transform="translate(1278.095035 561.312187)scale(0.18 -0.18)">
       <use xlink:href="#Helvetica-80"/>
      </g>
     </g>
    </g>
    <g id="xtick_76">
     <g id="line2d_91">
      <g>
       <use style="stroke:#000000;stroke-width:0.8;" x="1297.996945" xlink:href="#m6b587b2595" y="541.4"/>
      </g>
     </g>
     <g id="text_81">
      <!-- H -->
      <g transform="translate(1291.497257 561.312187)scale(0.18 -0.18)">
       <use xlink:href="#Helvetica-72"/>
      </g>
     </g>
    </g>
    <g id="xtick_77">
     <g id="line2d_92">
      <g>
       <use style="stroke:#000000;stroke-width:0.8;" x="1311.895574" xlink:href="#m6b587b2595" y="541.4"/>
      </g>
     </g>
     <g id="text_82">
      <!-- E -->
      <g transform="translate(1305.892292 561.312187)scale(0.18 -0.18)">
       <use xlink:href="#Helvetica-69"/>
      </g>
     </g>
    </g>
    <g id="xtick_78">
     <g id="line2d_93">
      <g>
       <use style="stroke:#000000;stroke-width:0.8;" x="1325.794202" xlink:href="#m6b587b2595" y="541.4"/>
      </g>
     </g>
     <g id="text_83">
      <!-- I -->
      <g transform="translate(1323.29389 561.312187)scale(0.18 -0.18)">
       <use xlink:href="#Helvetica-73"/>
      </g>
     </g>
    </g>
    <g id="xtick_79">
     <g id="line2d_94">
      <g>
       <use style="stroke:#000000;stroke-width:0.8;" x="1339.692831" xlink:href="#m6b587b2595" y="541.4"/>
      </g>
     </g>
     <g id="text_84">
      <!-- G -->
      <g transform="translate(1332.692519 561.312187)scale(0.18 -0.18)">
       <use xlink:href="#Helvetica-71"/>
      </g>
     </g>
    </g>
    <g id="xtick_80">
     <g id="line2d_95">
      <g>
       <use style="stroke:#000000;stroke-width:0.8;" x="1353.59146" xlink:href="#m6b587b2595" y="541.4"/>
      </g>
     </g>
     <g id="text_85">
      <!-- W -->
      <g transform="translate(1345.096304 561.312187)scale(0.18 -0.18)">
       <use xlink:href="#Helvetica-87"/>
      </g>
     </g>
    </g>
    <g id="xtick_81">
     <g id="line2d_96">
      <g>
       <use style="stroke:#000000;stroke-width:0.8;" x="1367.490089" xlink:href="#m6b587b2595" y="541.4"/>
      </g>
     </g>
     <g id="text_86">
      <!-- L -->
      <g transform="translate(1362.485245 561.312187)scale(0.18 -0.18)">
       <use xlink:href="#Helvetica-76"/>
      </g>
     </g>
    </g>
    <g id="xtick_82">
     <g id="line2d_97">
      <g>
       <use style="stroke:#000000;stroke-width:0.8;" x="1381.388717" xlink:href="#m6b587b2595" y="541.4"/>
      </g>
     </g>
     <g id="text_87">
      <!-- K -->
      <g transform="translate(1375.385436 561.312187)scale(0.18 -0.18)">
       <use xlink:href="#Helvetica-75"/>
      </g>
     </g>
    </g>
    <g id="xtick_83">
     <g id="line2d_98">
      <g>
       <use style="stroke:#000000;stroke-width:0.8;" x="1395.287346" xlink:href="#m6b587b2595" y="541.4"/>
      </g>
     </g>
     <g id="text_88">
      <!-- M -->
      <g transform="translate(1387.790627 561.312187)scale(0.18 -0.18)">
       <use xlink:href="#Helvetica-77"/>
      </g>
     </g>
    </g>
    <g id="xtick_84">
     <g id="line2d_99">
      <g>
       <use style="stroke:#000000;stroke-width:0.8;" x="1409.185975" xlink:href="#m6b587b2595" y="541.4"/>
      </g>
     </g>
     <g id="text_89">
      <!-- Q -->
      <g transform="translate(1402.185662 561.312187)scale(0.18 -0.18)">
       <use xlink:href="#Helvetica-81"/>
      </g>
     </g>
    </g>
   </g>
   <g id="matplotlib.axis_8">
    <g id="ytick_16">
     <g id="line2d_100">
      <g>
       <use style="stroke:#000000;stroke-width:0.8;" x="1111.199375" xlink:href="#m0af96cb866" y="452.396491"/>
      </g>
     </g>
    </g>
    <g id="ytick_17">
     <g id="line2d_101">
      <g>
       <use style="stroke:#000000;stroke-width:0.8;" x="1111.199375" xlink:href="#m0af96cb866" y="363.392982"/>
      </g>
     </g>
    </g>
    <g id="ytick_18">
     <g id="line2d_102">
      <g>
       <use style="stroke:#000000;stroke-width:0.8;" x="1111.199375" xlink:href="#m0af96cb866" y="274.389474"/>
      </g>
     </g>
    </g>
    <g id="ytick_19">
     <g id="line2d_103">
      <g>
       <use style="stroke:#000000;stroke-width:0.8;" x="1111.199375" xlink:href="#m0af96cb866" y="185.385965"/>
      </g>
     </g>
    </g>
    <g id="ytick_20">
     <g id="line2d_104">
      <g>
       <use style="stroke:#000000;stroke-width:0.8;" x="1111.199375" xlink:href="#m0af96cb866" y="96.382456"/>
      </g>
     </g>
    </g>
   </g>
   <g id="patch_102">
    <path d="M 1111.199375 541.4 
L 1111.199375 34.08 
" style="fill:none;stroke:#000000;stroke-linecap:square;stroke-linejoin:miter;stroke-width:0.8;"/>
   </g>
   <g id="patch_103">
    <path d="M 1429.2 541.4 
L 1429.2 34.08 
" style="fill:none;stroke:#000000;stroke-linecap:square;stroke-linejoin:miter;stroke-width:0.8;"/>
   </g>
   <g id="patch_104">
    <path d="M 1111.199375 541.4 
L 1429.2 541.4 
" style="fill:none;stroke:#000000;stroke-linecap:square;stroke-linejoin:miter;stroke-width:0.8;"/>
   </g>
   <g id="patch_105">
    <path d="M 1111.199375 34.08 
L 1429.2 34.08 
" style="fill:none;stroke:#000000;stroke-linecap:square;stroke-linejoin:miter;stroke-width:0.8;"/>
   </g>
   <g id="text_90">
    <!-- missense (5173) -->
    <defs>
     <path d="M 6.453125 52.046875 
L 15.375 52.046875 
L 15.375 0 
L 6.453125 0 
z
M 6.453125 71.734375 
L 15.375 71.734375 
L 15.375 61.765625 
L 6.453125 61.765625 
z
" id="Helvetica-105"/>
    </defs>
    <g transform="translate(1251.8025 28.08)scale(0.24 -0.24)">
     <use xlink:href="#Helvetica-109"/>
     <use x="83.300781" xlink:href="#Helvetica-105"/>
     <use x="105.517578" xlink:href="#Helvetica-115"/>
     <use x="155.517578" xlink:href="#Helvetica-115"/>
     <use x="205.517578" xlink:href="#Helvetica-101"/>
     <use x="261.132812" xlink:href="#Helvetica-110"/>
     <use x="316.748047" xlink:href="#Helvetica-115"/>
     <use x="366.748047" xlink:href="#Helvetica-101"/>
     <use x="422.363281" xlink:href="#Helvetica-32"/>
     <use x="450.146484" xlink:href="#Helvetica-40"/>
     <use x="483.447266" xlink:href="#Helvetica-53"/>
     <use x="539.0625" xlink:href="#Helvetica-49"/>
     <use x="594.677734" xlink:href="#Helvetica-55"/>
     <use x="650.292969" xlink:href="#Helvetica-51"/>
     <use x="705.908203" xlink:href="#Helvetica-41"/>
    </g>
   </g>
  </g>
 </g>
 <defs>
  <clipPath id="p7693c4d0f9">
   <rect height="507.32" width="318.000625" x="114.2975" y="34.08"/>
  </clipPath>
  <clipPath id="pb02070ea9c">
   <rect height="507.32" width="318.000625" x="446.598125" y="34.08"/>
  </clipPath>
  <clipPath id="pf690f602e7">
   <rect height="507.32" width="318.000625" x="778.89875" y="34.08"/>
  </clipPath>
  <clipPath id="pbff979ffc3">
   <rect height="507.32" width="318.000625" x="1111.199375" y="34.08"/>
  </clipPath>
 </defs>
</svg>
