<?xml version="1.0" encoding="utf-8" standalone="no"?>
<!DOCTYPE svg PUBLIC "-//W3C//DTD SVG 1.1//EN"
  "http://www.w3.org/Graphics/SVG/1.1/DTD/svg11.dtd">
<!-- Created with matplotlib (https://matplotlib.org/) -->
<svg height="360pt" version="1.1" viewBox="0 0 720 360" width="720pt" xmlns="http://www.w3.org/2000/svg" xmlns:xlink="http://www.w3.org/1999/xlink">
 <defs>
  <style type="text/css">
*{stroke-linecap:butt;stroke-linejoin:round;}
  </style>
 </defs>
 <g id="figure_1">
  <g id="patch_1">
   <path d="M 0 360 
L 720 360 
L 720 0 
L 0 0 
z
" style="fill:#ffffff;"/>
  </g>
  <g id="axes_1">
   <g id="patch_2">
    <path d="M 90 320.4 
L 648 320.4 
L 648 43.2 
L 90 43.2 
z
" style="fill:#ffffff;"/>
   </g>
   <g id="patch_3">
    <path clip-path="url(#pe66b2ad2a3)" d="M 96.975 320.4 
L 100.4625 320.4 
L 100.4625 56.4 
L 96.975 56.4 
z
" style="fill:#1f77b4;"/>
   </g>
   <g id="patch_4">
    <path clip-path="url(#pe66b2ad2a3)" d="M 124.875 320.4 
L 128.3625 320.4 
L 128.3625 65.324923 
L 124.875 65.324923 
z
" style="fill:#1f77b4;"/>
   </g>
   <g id="patch_5">
    <path clip-path="url(#pe66b2ad2a3)" d="M 152.775 320.4 
L 156.2625 320.4 
L 156.2625 92.042061 
L 152.775 92.042061 
z
" style="fill:#1f77b4;"/>
   </g>
   <g id="patch_6">
    <path clip-path="url(#pe66b2ad2a3)" d="M 180.675 320.4 
L 184.1625 320.4 
L 184.1625 93.956251 
L 180.675 93.956251 
z
" style="fill:#1f77b4;"/>
   </g>
   <g id="patch_7">
    <path clip-path="url(#pe66b2ad2a3)" d="M 208.575 320.4 
L 212.0625 320.4 
L 212.0625 94.345578 
L 208.575 94.345578 
z
" style="fill:#1f77b4;"/>
   </g>
   <g id="patch_8">
    <path clip-path="url(#pe66b2ad2a3)" d="M 236.475 320.4 
L 239.9625 320.4 
L 239.9625 98.34836 
L 236.475 98.34836 
z
" style="fill:#1f77b4;"/>
   </g>
   <g id="patch_9">
    <path clip-path="url(#pe66b2ad2a3)" d="M 264.375 320.4 
L 267.8625 320.4 
L 267.8625 103.932311 
L 264.375 103.932311 
z
" style="fill:#1f77b4;"/>
   </g>
   <g id="patch_10">
    <path clip-path="url(#pe66b2ad2a3)" d="M 292.275 320.4 
L 295.7625 320.4 
L 295.7625 127.425205 
L 292.275 127.425205 
z
" style="fill:#1f77b4;"/>
   </g>
   <g id="patch_11">
    <path clip-path="url(#pe66b2ad2a3)" d="M 320.175 320.4 
L 323.6625 320.4 
L 323.6625 129.913952 
L 320.175 129.913952 
z
" style="fill:#1f77b4;"/>
   </g>
   <g id="patch_12">
    <path clip-path="url(#pe66b2ad2a3)" d="M 348.075 320.4 
L 351.5625 320.4 
L 351.5625 137.021205 
L 348.075 137.021205 
z
" style="fill:#1f77b4;"/>
   </g>
   <g id="patch_13">
    <path clip-path="url(#pe66b2ad2a3)" d="M 375.975 320.4 
L 379.4625 320.4 
L 379.4625 140.107478 
L 375.975 140.107478 
z
" style="fill:#1f77b4;"/>
   </g>
   <g id="patch_14">
    <path clip-path="url(#pe66b2ad2a3)" d="M 403.875 320.4 
L 407.3625 320.4 
L 407.3625 154.795904 
L 403.875 154.795904 
z
" style="fill:#1f77b4;"/>
   </g>
   <g id="patch_15">
    <path clip-path="url(#pe66b2ad2a3)" d="M 431.775 320.4 
L 435.2625 320.4 
L 435.2625 156.628581 
L 431.775 156.628581 
z
" style="fill:#1f77b4;"/>
   </g>
   <g id="patch_16">
    <path clip-path="url(#pe66b2ad2a3)" d="M 459.675 320.4 
L 463.1625 320.4 
L 463.1625 175.503181 
L 459.675 175.503181 
z
" style="fill:#1f77b4;"/>
   </g>
   <g id="patch_17">
    <path clip-path="url(#pe66b2ad2a3)" d="M 487.575 320.4 
L 491.0625 320.4 
L 491.0625 178.732442 
L 487.575 178.732442 
z
" style="fill:#1f77b4;"/>
   </g>
   <g id="patch_18">
    <path clip-path="url(#pe66b2ad2a3)" d="M 515.475 320.4 
L 518.9625 320.4 
L 518.9625 188.145408 
L 515.475 188.145408 
z
" style="fill:#1f77b4;"/>
   </g>
   <g id="patch_19">
    <path clip-path="url(#pe66b2ad2a3)" d="M 543.375 320.4 
L 546.8625 320.4 
L 546.8625 192.205883 
L 543.375 192.205883 
z
" style="fill:#1f77b4;"/>
   </g>
   <g id="patch_20">
    <path clip-path="url(#pe66b2ad2a3)" d="M 571.275 320.4 
L 574.7625 320.4 
L 574.7625 199.963498 
L 571.275 199.963498 
z
" style="fill:#1f77b4;"/>
   </g>
   <g id="patch_21">
    <path clip-path="url(#pe66b2ad2a3)" d="M 599.175 320.4 
L 602.6625 320.4 
L 602.6625 202.53373 
L 599.175 202.53373 
z
" style="fill:#1f77b4;"/>
   </g>
   <g id="patch_22">
    <path clip-path="url(#pe66b2ad2a3)" d="M 627.075 320.4 
L 630.5625 320.4 
L 630.5625 225.671826 
L 627.075 225.671826 
z
" style="fill:#1f77b4;"/>
   </g>
   <g id="patch_23">
    <path clip-path="url(#pe66b2ad2a3)" d="M 100.4625 320.4 
L 103.95 320.4 
L 103.95 266.966038 
L 100.4625 266.966038 
z
" style="fill:#ff7f0e;"/>
   </g>
   <g id="patch_24">
    <path clip-path="url(#pe66b2ad2a3)" d="M 128.3625 320.4 
L 131.85 320.4 
L 131.85 225.537368 
L 128.3625 225.537368 
z
" style="fill:#ff7f0e;"/>
   </g>
   <g id="patch_25">
    <path clip-path="url(#pe66b2ad2a3)" d="M 156.2625 320.4 
L 159.75 320.4 
L 159.75 190.755868 
L 156.2625 190.755868 
z
" style="fill:#ff7f0e;"/>
   </g>
   <g id="patch_26">
    <path clip-path="url(#pe66b2ad2a3)" d="M 184.1625 320.4 
L 187.65 320.4 
L 187.65 244.410459 
L 184.1625 244.410459 
z
" style="fill:#ff7f0e;"/>
   </g>
   <g id="patch_27">
    <path clip-path="url(#pe66b2ad2a3)" d="M 212.0625 320.4 
L 215.55 320.4 
L 215.55 279.019387 
L 212.0625 279.019387 
z
" style="fill:#ff7f0e;"/>
   </g>
   <g id="patch_28">
    <path clip-path="url(#pe66b2ad2a3)" d="M 239.9625 320.4 
L 243.45 320.4 
L 243.45 231.313414 
L 239.9625 231.313414 
z
" style="fill:#ff7f0e;"/>
   </g>
   <g id="patch_29">
    <path clip-path="url(#pe66b2ad2a3)" d="M 267.8625 320.4 
L 271.35 320.4 
L 271.35 308.374017 
L 267.8625 308.374017 
z
" style="fill:#ff7f0e;"/>
   </g>
   <g id="patch_30">
    <path clip-path="url(#pe66b2ad2a3)" d="M 295.7625 320.4 
L 299.25 320.4 
L 299.25 293.913263 
L 295.7625 293.913263 
z
" style="fill:#ff7f0e;"/>
   </g>
   <g id="patch_31">
    <path clip-path="url(#pe66b2ad2a3)" d="M 323.6625 320.4 
L 327.15 320.4 
L 327.15 256.200711 
L 323.6625 256.200711 
z
" style="fill:#ff7f0e;"/>
   </g>
   <g id="patch_32">
    <path clip-path="url(#pe66b2ad2a3)" d="M 351.5625 320.4 
L 355.05 320.4 
L 355.05 320.4 
L 351.5625 320.4 
z
" style="fill:#ff7f0e;"/>
   </g>
   <g id="patch_33">
    <path clip-path="url(#pe66b2ad2a3)" d="M 379.4625 320.4 
L 382.95 320.4 
L 382.95 259.31959 
L 379.4625 259.31959 
z
" style="fill:#ff7f0e;"/>
   </g>
   <g id="patch_34">
    <path clip-path="url(#pe66b2ad2a3)" d="M 407.3625 320.4 
L 410.85 320.4 
L 410.85 271.757213 
L 407.3625 271.757213 
z
" style="fill:#ff7f0e;"/>
   </g>
   <g id="patch_35">
    <path clip-path="url(#pe66b2ad2a3)" d="M 435.2625 320.4 
L 438.75 320.4 
L 438.75 272.992484 
L 435.2625 272.992484 
z
" style="fill:#ff7f0e;"/>
   </g>
   <g id="patch_36">
    <path clip-path="url(#pe66b2ad2a3)" d="M 463.1625 320.4 
L 466.65 320.4 
L 466.65 265.525149 
L 463.1625 265.525149 
z
" style="fill:#ff7f0e;"/>
   </g>
   <g id="patch_37">
    <path clip-path="url(#pe66b2ad2a3)" d="M 491.0625 320.4 
L 494.55 320.4 
L 494.55 306.046018 
L 491.0625 306.046018 
z
" style="fill:#ff7f0e;"/>
   </g>
   <g id="patch_38">
    <path clip-path="url(#pe66b2ad2a3)" d="M 518.9625 320.4 
L 522.45 320.4 
L 522.45 305.427782 
L 518.9625 305.427782 
z
" style="fill:#ff7f0e;"/>
   </g>
   <g id="patch_39">
    <path clip-path="url(#pe66b2ad2a3)" d="M 546.8625 320.4 
L 550.35 320.4 
L 550.35 298.486476 
L 546.8625 298.486476 
z
" style="fill:#ff7f0e;"/>
   </g>
   <g id="patch_40">
    <path clip-path="url(#pe66b2ad2a3)" d="M 574.7625 320.4 
L 578.25 320.4 
L 578.25 298.575936 
L 574.7625 298.575936 
z
" style="fill:#ff7f0e;"/>
   </g>
   <g id="patch_41">
    <path clip-path="url(#pe66b2ad2a3)" d="M 602.6625 320.4 
L 606.15 320.4 
L 606.15 285.929676 
L 602.6625 285.929676 
z
" style="fill:#ff7f0e;"/>
   </g>
   <g id="patch_42">
    <path clip-path="url(#pe66b2ad2a3)" d="M 630.5625 320.4 
L 634.05 320.4 
L 634.05 306.621356 
L 630.5625 306.621356 
z
" style="fill:#ff7f0e;"/>
   </g>
   <g id="patch_43">
    <path clip-path="url(#pe66b2ad2a3)" d="M 103.95 320.4 
L 107.4375 320.4 
L 107.4375 109.833962 
L 103.95 109.833962 
z
" style="fill:#2ca02c;"/>
   </g>
   <g id="patch_44">
    <path clip-path="url(#pe66b2ad2a3)" d="M 131.85 320.4 
L 135.3375 320.4 
L 135.3375 164.403672 
L 131.85 164.403672 
z
" style="fill:#2ca02c;"/>
   </g>
   <g id="patch_45">
    <path clip-path="url(#pe66b2ad2a3)" d="M 159.75 320.4 
L 163.2375 320.4 
L 163.2375 223.331424 
L 159.75 223.331424 
z
" style="fill:#2ca02c;"/>
   </g>
   <g id="patch_46">
    <path clip-path="url(#pe66b2ad2a3)" d="M 187.65 320.4 
L 191.1375 320.4 
L 191.1375 169.945792 
L 187.65 169.945792 
z
" style="fill:#2ca02c;"/>
   </g>
   <g id="patch_47">
    <path clip-path="url(#pe66b2ad2a3)" d="M 215.55 320.4 
L 219.0375 320.4 
L 219.0375 135.726191 
L 215.55 135.726191 
z
" style="fill:#2ca02c;"/>
   </g>
   <g id="patch_48">
    <path clip-path="url(#pe66b2ad2a3)" d="M 243.45 320.4 
L 246.9375 320.4 
L 246.9375 190.980681 
L 243.45 190.980681 
z
" style="fill:#2ca02c;"/>
   </g>
   <g id="patch_49">
    <path clip-path="url(#pe66b2ad2a3)" d="M 271.35 320.4 
L 274.8375 320.4 
L 274.8375 120.253287 
L 271.35 120.253287 
z
" style="fill:#2ca02c;"/>
   </g>
   <g id="patch_50">
    <path clip-path="url(#pe66b2ad2a3)" d="M 299.25 320.4 
L 302.7375 320.4 
L 302.7375 153.911941 
L 299.25 153.911941 
z
" style="fill:#2ca02c;"/>
   </g>
   <g id="patch_51">
    <path clip-path="url(#pe66b2ad2a3)" d="M 327.15 320.4 
L 330.6375 320.4 
L 330.6375 196.22506 
L 327.15 196.22506 
z
" style="fill:#2ca02c;"/>
   </g>
   <g id="patch_52">
    <path clip-path="url(#pe66b2ad2a3)" d="M 355.05 320.4 
L 358.5375 320.4 
L 358.5375 229.507902 
L 355.05 229.507902 
z
" style="fill:#2ca02c;"/>
   </g>
   <g id="patch_53">
    <path clip-path="url(#pe66b2ad2a3)" d="M 382.95 320.4 
L 386.4375 320.4 
L 386.4375 208.34904 
L 382.95 208.34904 
z
" style="fill:#2ca02c;"/>
   </g>
   <g id="patch_54">
    <path clip-path="url(#pe66b2ad2a3)" d="M 410.85 320.4 
L 414.3375 320.4 
L 414.3375 203.438691 
L 410.85 203.438691 
z
" style="fill:#2ca02c;"/>
   </g>
   <g id="patch_55">
    <path clip-path="url(#pe66b2ad2a3)" d="M 438.75 320.4 
L 442.2375 320.4 
L 442.2375 204.036097 
L 438.75 204.036097 
z
" style="fill:#2ca02c;"/>
   </g>
   <g id="patch_56">
    <path clip-path="url(#pe66b2ad2a3)" d="M 466.65 320.4 
L 470.1375 320.4 
L 470.1375 236.046923 
L 466.65 236.046923 
z
" style="fill:#2ca02c;"/>
   </g>
   <g id="patch_57">
    <path clip-path="url(#pe66b2ad2a3)" d="M 494.55 320.4 
L 498.0375 320.4 
L 498.0375 193.086423 
L 494.55 193.086423 
z
" style="fill:#2ca02c;"/>
   </g>
   <g id="patch_58">
    <path clip-path="url(#pe66b2ad2a3)" d="M 522.45 320.4 
L 525.9375 320.4 
L 525.9375 203.117626 
L 522.45 203.117626 
z
" style="fill:#2ca02c;"/>
   </g>
   <g id="patch_59">
    <path clip-path="url(#pe66b2ad2a3)" d="M 550.35 320.4 
L 553.8375 320.4 
L 553.8375 258.494294 
L 550.35 258.494294 
z
" style="fill:#2ca02c;"/>
   </g>
   <g id="patch_60">
    <path clip-path="url(#pe66b2ad2a3)" d="M 578.25 320.4 
L 581.7375 320.4 
L 581.7375 221.787562 
L 578.25 221.787562 
z
" style="fill:#2ca02c;"/>
   </g>
   <g id="patch_61">
    <path clip-path="url(#pe66b2ad2a3)" d="M 606.15 320.4 
L 609.6375 320.4 
L 609.6375 237.560027 
L 606.15 237.560027 
z
" style="fill:#2ca02c;"/>
   </g>
   <g id="patch_62">
    <path clip-path="url(#pe66b2ad2a3)" d="M 634.05 320.4 
L 637.5375 320.4 
L 637.5375 239.450469 
L 634.05 239.450469 
z
" style="fill:#2ca02c;"/>
   </g>
   <g id="patch_63">
    <path clip-path="url(#pe66b2ad2a3)" d="M 107.4375 320.4 
L 110.925 320.4 
L 110.925 320.4 
L 107.4375 320.4 
z
" style="fill:#d62728;"/>
   </g>
   <g id="patch_64">
    <path clip-path="url(#pe66b2ad2a3)" d="M 135.3375 320.4 
L 138.825 320.4 
L 138.825 316.183883 
L 135.3375 316.183883 
z
" style="fill:#d62728;"/>
   </g>
   <g id="patch_65">
    <path clip-path="url(#pe66b2ad2a3)" d="M 163.2375 320.4 
L 166.725 320.4 
L 166.725 318.75477 
L 163.2375 318.75477 
z
" style="fill:#d62728;"/>
   </g>
   <g id="patch_66">
    <path clip-path="url(#pe66b2ad2a3)" d="M 191.1375 320.4 
L 194.625 320.4 
L 194.625 320.4 
L 191.1375 320.4 
z
" style="fill:#d62728;"/>
   </g>
   <g id="patch_67">
    <path clip-path="url(#pe66b2ad2a3)" d="M 219.0375 320.4 
L 222.525 320.4 
L 222.525 320.4 
L 219.0375 320.4 
z
" style="fill:#d62728;"/>
   </g>
   <g id="patch_68">
    <path clip-path="url(#pe66b2ad2a3)" d="M 246.9375 320.4 
L 250.425 320.4 
L 250.425 316.854265 
L 246.9375 316.854265 
z
" style="fill:#d62728;"/>
   </g>
   <g id="patch_69">
    <path clip-path="url(#pe66b2ad2a3)" d="M 274.8375 320.4 
L 278.325 320.4 
L 278.325 316.105006 
L 274.8375 316.105006 
z
" style="fill:#d62728;"/>
   </g>
   <g id="patch_70">
    <path clip-path="url(#pe66b2ad2a3)" d="M 302.7375 320.4 
L 306.225 320.4 
L 306.225 320.4 
L 302.7375 320.4 
z
" style="fill:#d62728;"/>
   </g>
   <g id="patch_71">
    <path clip-path="url(#pe66b2ad2a3)" d="M 330.6375 320.4 
L 334.125 320.4 
L 334.125 318.288181 
L 330.6375 318.288181 
z
" style="fill:#d62728;"/>
   </g>
   <g id="patch_72">
    <path clip-path="url(#pe66b2ad2a3)" d="M 358.5375 320.4 
L 362.025 320.4 
L 362.025 227.913303 
L 358.5375 227.913303 
z
" style="fill:#d62728;"/>
   </g>
   <g id="patch_73">
    <path clip-path="url(#pe66b2ad2a3)" d="M 386.4375 320.4 
L 389.925 320.4 
L 389.925 313.238848 
L 386.4375 313.238848 
z
" style="fill:#d62728;"/>
   </g>
   <g id="patch_74">
    <path clip-path="url(#pe66b2ad2a3)" d="M 414.3375 320.4 
L 417.825 320.4 
L 417.825 320.4 
L 414.3375 320.4 
z
" style="fill:#d62728;"/>
   </g>
   <g id="patch_75">
    <path clip-path="url(#pe66b2ad2a3)" d="M 442.2375 320.4 
L 445.725 320.4 
L 445.725 320.4 
L 442.2375 320.4 
z
" style="fill:#d62728;"/>
   </g>
   <g id="patch_76">
    <path clip-path="url(#pe66b2ad2a3)" d="M 470.1375 320.4 
L 473.625 320.4 
L 473.625 314.73111 
L 470.1375 314.73111 
z
" style="fill:#d62728;"/>
   </g>
   <g id="patch_77">
    <path clip-path="url(#pe66b2ad2a3)" d="M 498.0375 320.4 
L 501.525 320.4 
L 501.525 320.4 
L 498.0375 320.4 
z
" style="fill:#d62728;"/>
   </g>
   <g id="patch_78">
    <path clip-path="url(#pe66b2ad2a3)" d="M 525.9375 320.4 
L 529.425 320.4 
L 529.425 320.4 
L 525.9375 320.4 
z
" style="fill:#d62728;"/>
   </g>
   <g id="patch_79">
    <path clip-path="url(#pe66b2ad2a3)" d="M 553.8375 320.4 
L 557.325 320.4 
L 557.325 276.025113 
L 553.8375 276.025113 
z
" style="fill:#d62728;"/>
   </g>
   <g id="patch_80">
    <path clip-path="url(#pe66b2ad2a3)" d="M 581.7375 320.4 
L 585.225 320.4 
L 585.225 320.4 
L 581.7375 320.4 
z
" style="fill:#d62728;"/>
   </g>
   <g id="patch_81">
    <path clip-path="url(#pe66b2ad2a3)" d="M 609.6375 320.4 
L 613.125 320.4 
L 613.125 319.844027 
L 609.6375 319.844027 
z
" style="fill:#d62728;"/>
   </g>
   <g id="patch_82">
    <path clip-path="url(#pe66b2ad2a3)" d="M 637.5375 320.4 
L 641.025 320.4 
L 641.025 320.4 
L 637.5375 320.4 
z
" style="fill:#d62728;"/>
   </g>
   <g id="matplotlib.axis_1">
    <g id="xtick_1">
     <g id="line2d_1">
      <defs>
       <path d="M 0 0 
L 0 3.5 
" id="m70e2ed3926" style="stroke:#000000;stroke-width:0.8;"/>
      </defs>
      <g>
       <use style="stroke:#000000;stroke-width:0.8;" x="103.95" xlink:href="#m70e2ed3926" y="320.4"/>
      </g>
     </g>
     <g id="text_1">
      <!-- T -->
      <defs>
       <path d="M 59.8125 71.734375 
L 59.8125 63.1875 
L 35.640625 63.1875 
L 35.640625 0 
L 25.78125 0 
L 25.78125 63.1875 
L 1.609375 63.1875 
L 1.609375 71.734375 
z
" id="Helvetica-84"/>
      </defs>
      <g transform="translate(99.06375 338.8775)scale(0.16 -0.16)">
       <use xlink:href="#Helvetica-84"/>
      </g>
     </g>
    </g>
    <g id="xtick_2">
     <g id="line2d_2">
      <g>
       <use style="stroke:#000000;stroke-width:0.8;" x="131.85" xlink:href="#m70e2ed3926" y="320.4"/>
      </g>
     </g>
     <g id="text_2">
      <!-- C -->
      <defs>
       <path d="M 37.84375 73.6875 
Q 51.46875 73.6875 58.984375 66.5 
Q 66.5 59.328125 67.328125 50.203125 
L 57.859375 50.203125 
Q 56.25 57.125 51.4375 61.171875 
Q 46.625 65.234375 37.9375 65.234375 
Q 27.34375 65.234375 20.828125 57.78125 
Q 14.3125 50.34375 14.3125 34.96875 
Q 14.3125 22.359375 20.1875 14.515625 
Q 26.078125 6.6875 37.75 6.6875 
Q 48.484375 6.6875 54.109375 14.9375 
Q 57.078125 19.28125 58.546875 26.375 
L 68.015625 26.375 
Q 66.75 15.046875 59.625 7.375 
Q 51.078125 -1.859375 36.578125 -1.859375 
Q 24.078125 -1.859375 15.578125 5.71875 
Q 4.390625 15.71875 4.390625 36.625 
Q 4.390625 52.484375 12.796875 62.640625 
Q 21.875 73.6875 37.84375 73.6875 
z
M 35.890625 73.6875 
z
" id="Helvetica-67"/>
      </defs>
      <g transform="translate(126.0725 338.8775)scale(0.16 -0.16)">
       <use xlink:href="#Helvetica-67"/>
      </g>
     </g>
    </g>
    <g id="xtick_3">
     <g id="line2d_3">
      <g>
       <use style="stroke:#000000;stroke-width:0.8;" x="159.75" xlink:href="#m70e2ed3926" y="320.4"/>
      </g>
     </g>
     <g id="text_3">
      <!-- G -->
      <defs>
       <path d="M 38.625 73.578125 
Q 48.734375 73.578125 56.109375 69.671875 
Q 66.796875 64.0625 69.1875 50 
L 59.578125 50 
Q 57.8125 57.859375 52.296875 61.453125 
Q 46.78125 65.046875 38.375 65.046875 
Q 28.421875 65.046875 21.609375 57.5625 
Q 14.796875 50.09375 14.796875 35.296875 
Q 14.796875 22.515625 20.40625 14.484375 
Q 26.03125 6.453125 38.71875 6.453125 
Q 48.4375 6.453125 54.8125 12.078125 
Q 61.1875 17.71875 61.328125 30.328125 
L 38.875 30.328125 
L 38.875 38.375 
L 70.359375 38.375 
L 70.359375 0 
L 64.109375 0 
L 61.765625 9.234375 
Q 56.84375 3.8125 53.03125 1.703125 
Q 46.625 -1.90625 36.765625 -1.90625 
Q 24.03125 -1.90625 14.84375 6.34375 
Q 4.828125 16.703125 4.828125 34.765625 
Q 4.828125 52.78125 14.59375 63.421875 
Q 23.875 73.578125 38.625 73.578125 
z
M 37.015625 73.6875 
z
" id="Helvetica-71"/>
      </defs>
      <g transform="translate(153.5275 338.8775)scale(0.16 -0.16)">
       <use xlink:href="#Helvetica-71"/>
      </g>
     </g>
    </g>
    <g id="xtick_4">
     <g id="line2d_4">
      <g>
       <use style="stroke:#000000;stroke-width:0.8;" x="187.65" xlink:href="#m70e2ed3926" y="320.4"/>
      </g>
     </g>
     <g id="text_4">
      <!-- A -->
      <defs>
       <path d="M 44.4375 29.390625 
L 33.546875 61.078125 
L 21.96875 29.390625 
z
M 28.46875 71.734375 
L 39.453125 71.734375 
L 65.484375 0 
L 54.828125 0 
L 47.5625 21.484375 
L 19.1875 21.484375 
L 11.421875 0 
L 1.46875 0 
z
" id="Helvetica-65"/>
      </defs>
      <g transform="translate(182.31375 338.8775)scale(0.16 -0.16)">
       <use xlink:href="#Helvetica-65"/>
      </g>
     </g>
    </g>
    <g id="xtick_5">
     <g id="line2d_5">
      <g>
       <use style="stroke:#000000;stroke-width:0.8;" x="215.55" xlink:href="#m70e2ed3926" y="320.4"/>
      </g>
     </g>
     <g id="text_5">
      <!-- V -->
      <defs>
       <path d="M 13.28125 71.734375 
L 33.890625 10.640625 
L 54.25 71.734375 
L 65.140625 71.734375 
L 38.96875 0 
L 28.65625 0 
L 2.546875 71.734375 
z
" id="Helvetica-86"/>
      </defs>
      <g transform="translate(210.21375 338.8775)scale(0.16 -0.16)">
       <use xlink:href="#Helvetica-86"/>
      </g>
     </g>
    </g>
    <g id="xtick_6">
     <g id="line2d_6">
      <g>
       <use style="stroke:#000000;stroke-width:0.8;" x="243.45" xlink:href="#m70e2ed3926" y="320.4"/>
      </g>
     </g>
     <g id="text_6">
      <!-- R -->
      <defs>
       <path d="M 40.96875 38.875 
Q 47.796875 38.875 51.78125 41.609375 
Q 55.765625 44.34375 55.765625 51.46875 
Q 55.765625 59.125 50.203125 61.921875 
Q 47.21875 63.375 42.234375 63.375 
L 18.5 63.375 
L 18.5 38.875 
z
M 8.796875 71.734375 
L 42 71.734375 
Q 50.203125 71.734375 55.515625 69.34375 
Q 65.625 64.75 65.625 52.390625 
Q 65.625 45.953125 62.953125 41.84375 
Q 60.296875 37.75 55.515625 35.25 
Q 59.71875 33.546875 61.84375 30.765625 
Q 63.96875 27.984375 64.203125 21.734375 
L 64.546875 12.109375 
Q 64.703125 8.015625 65.234375 6 
Q 66.109375 2.59375 68.359375 1.609375 
L 68.359375 0 
L 56.453125 0 
Q 55.953125 0.921875 55.65625 2.390625 
Q 55.375 3.859375 55.171875 8.0625 
L 54.59375 20.015625 
Q 54.25 27.046875 49.359375 29.4375 
Q 46.578125 30.765625 40.625 30.765625 
L 18.5 30.765625 
L 18.5 0 
L 8.796875 0 
z
" id="Helvetica-82"/>
      </defs>
      <g transform="translate(237.6725 338.8775)scale(0.16 -0.16)">
       <use xlink:href="#Helvetica-82"/>
      </g>
     </g>
    </g>
    <g id="xtick_7">
     <g id="line2d_7">
      <g>
       <use style="stroke:#000000;stroke-width:0.8;" x="271.35" xlink:href="#m70e2ed3926" y="320.4"/>
      </g>
     </g>
     <g id="text_7">
      <!-- Y -->
      <defs>
       <path d="M 2.046875 71.734375 
L 13.375 71.734375 
L 33.984375 37.25 
L 54.59375 71.734375 
L 65.96875 71.734375 
L 38.875 28.90625 
L 38.875 0 
L 29.15625 0 
L 29.15625 28.90625 
z
M 34.125 71.734375 
z
" id="Helvetica-89"/>
      </defs>
      <g transform="translate(266.01375 338.8775)scale(0.16 -0.16)">
       <use xlink:href="#Helvetica-89"/>
      </g>
     </g>
    </g>
    <g id="xtick_8">
     <g id="line2d_8">
      <g>
       <use style="stroke:#000000;stroke-width:0.8;" x="299.25" xlink:href="#m70e2ed3926" y="320.4"/>
      </g>
     </g>
     <g id="text_8">
      <!-- D -->
      <defs>
       <path d="M 35.15625 8.296875 
Q 40.09375 8.296875 43.265625 9.328125 
Q 48.921875 11.234375 52.546875 16.65625 
Q 55.421875 21 56.6875 27.78125 
Q 57.421875 31.84375 57.421875 35.296875 
Q 57.421875 48.640625 52.125 56 
Q 46.828125 63.375 35.0625 63.375 
L 17.828125 63.375 
L 17.828125 8.296875 
z
M 8.0625 71.734375 
L 37.109375 71.734375 
Q 51.90625 71.734375 60.0625 61.234375 
Q 67.328125 51.765625 67.328125 36.96875 
Q 67.328125 25.53125 63.03125 16.3125 
Q 55.46875 0 37.015625 0 
L 8.0625 0 
z
" id="Helvetica-68"/>
      </defs>
      <g transform="translate(293.4725 338.8775)scale(0.16 -0.16)">
       <use xlink:href="#Helvetica-68"/>
      </g>
     </g>
    </g>
    <g id="xtick_9">
     <g id="line2d_9">
      <g>
       <use style="stroke:#000000;stroke-width:0.8;" x="327.15" xlink:href="#m70e2ed3926" y="320.4"/>
      </g>
     </g>
     <g id="text_9">
      <!-- S -->
      <defs>
       <path d="M 13.96875 23.140625 
Q 14.3125 17.046875 16.84375 13.234375 
Q 21.6875 6.109375 33.890625 6.109375 
Q 39.359375 6.109375 43.84375 7.671875 
Q 52.546875 10.6875 52.546875 18.5 
Q 52.546875 24.359375 48.875 26.859375 
Q 45.171875 29.296875 37.25 31.109375 
L 27.546875 33.296875 
Q 18.015625 35.453125 14.0625 38.03125 
Q 7.234375 42.53125 7.234375 51.46875 
Q 7.234375 61.140625 13.921875 67.328125 
Q 20.609375 73.53125 32.859375 73.53125 
Q 44.140625 73.53125 52.015625 68.078125 
Q 59.90625 62.640625 59.90625 50.6875 
L 50.78125 50.6875 
Q 50.046875 56.453125 47.65625 59.515625 
Q 43.21875 65.140625 32.5625 65.140625 
Q 23.96875 65.140625 20.203125 61.515625 
Q 16.453125 57.90625 16.453125 53.125 
Q 16.453125 47.859375 20.84375 45.40625 
Q 23.734375 43.84375 33.890625 41.5 
L 43.953125 39.203125 
Q 51.21875 37.546875 55.171875 34.671875 
Q 62.015625 29.640625 62.015625 20.0625 
Q 62.015625 8.15625 53.34375 3.03125 
Q 44.671875 -2.09375 33.203125 -2.09375 
Q 19.828125 -2.09375 12.25 4.734375 
Q 4.6875 11.53125 4.828125 23.140625 
z
M 33.59375 73.6875 
z
" id="Helvetica-83"/>
      </defs>
      <g transform="translate(321.81375 338.8775)scale(0.16 -0.16)">
       <use xlink:href="#Helvetica-83"/>
      </g>
     </g>
    </g>
    <g id="xtick_10">
     <g id="line2d_10">
      <g>
       <use style="stroke:#000000;stroke-width:0.8;" x="355.05" xlink:href="#m70e2ed3926" y="320.4"/>
      </g>
     </g>
     <g id="text_10">
      <!-- W -->
      <defs>
       <path d="M 12.359375 71.734375 
L 25.875 13.375 
L 42.09375 71.734375 
L 52.640625 71.734375 
L 68.84375 13.375 
L 82.375 71.734375 
L 93.015625 71.734375 
L 74.171875 0 
L 63.96875 0 
L 47.40625 59.46875 
L 30.765625 0 
L 20.5625 0 
L 1.8125 71.734375 
z
" id="Helvetica-87"/>
      </defs>
      <g transform="translate(347.49875 338.8775)scale(0.16 -0.16)">
       <use xlink:href="#Helvetica-87"/>
      </g>
     </g>
    </g>
    <g id="xtick_11">
     <g id="line2d_11">
      <g>
       <use style="stroke:#000000;stroke-width:0.8;" x="382.95" xlink:href="#m70e2ed3926" y="320.4"/>
      </g>
     </g>
     <g id="text_11">
      <!-- E -->
      <defs>
       <path d="M 8.546875 71.734375 
L 60.84375 71.734375 
L 60.84375 62.9375 
L 18.015625 62.9375 
L 18.015625 41.15625 
L 57.625 41.15625 
L 57.625 32.859375 
L 18.015625 32.859375 
L 18.015625 8.546875 
L 61.578125 8.546875 
L 61.578125 0 
L 8.546875 0 
z
M 35.0625 71.734375 
z
" id="Helvetica-69"/>
      </defs>
      <g transform="translate(377.61375 338.8775)scale(0.16 -0.16)">
       <use xlink:href="#Helvetica-69"/>
      </g>
     </g>
    </g>
    <g id="xtick_12">
     <g id="line2d_12">
      <g>
       <use style="stroke:#000000;stroke-width:0.8;" x="410.85" xlink:href="#m70e2ed3926" y="320.4"/>
      </g>
     </g>
     <g id="text_12">
      <!-- P -->
      <defs>
       <path d="M 8.546875 71.734375 
L 40.828125 71.734375 
Q 50.390625 71.734375 56.25 66.328125 
Q 62.109375 60.9375 62.109375 51.171875 
Q 62.109375 42.78125 56.875 36.546875 
Q 51.65625 30.328125 40.828125 30.328125 
L 18.265625 30.328125 
L 18.265625 0 
L 8.546875 0 
z
M 52.296875 51.125 
Q 52.296875 59.03125 46.4375 61.859375 
Q 43.21875 63.375 37.59375 63.375 
L 18.265625 63.375 
L 18.265625 38.53125 
L 37.59375 38.53125 
Q 44.140625 38.53125 48.21875 41.3125 
Q 52.296875 44.09375 52.296875 51.125 
z
" id="Helvetica-80"/>
      </defs>
      <g transform="translate(405.51375 338.8775)scale(0.16 -0.16)">
       <use xlink:href="#Helvetica-80"/>
      </g>
     </g>
    </g>
    <g id="xtick_13">
     <g id="line2d_13">
      <g>
       <use style="stroke:#000000;stroke-width:0.8;" x="438.75" xlink:href="#m70e2ed3926" y="320.4"/>
      </g>
     </g>
     <g id="text_13">
      <!-- H -->
      <defs>
       <path d="M 7.859375 71.734375 
L 17.671875 71.734375 
L 17.671875 42.09375 
L 54.984375 42.09375 
L 54.984375 71.734375 
L 64.796875 71.734375 
L 64.796875 0 
L 54.984375 0 
L 54.984375 33.546875 
L 17.671875 33.546875 
L 17.671875 0 
L 7.859375 0 
z
" id="Helvetica-72"/>
      </defs>
      <g transform="translate(432.9725 338.8775)scale(0.16 -0.16)">
       <use xlink:href="#Helvetica-72"/>
      </g>
     </g>
    </g>
    <g id="xtick_14">
     <g id="line2d_14">
      <g>
       <use style="stroke:#000000;stroke-width:0.8;" x="466.65" xlink:href="#m70e2ed3926" y="320.4"/>
      </g>
     </g>
     <g id="text_14">
      <!-- L -->
      <defs>
       <path d="M 7.625 71.734375 
L 17.328125 71.734375 
L 17.328125 8.546875 
L 53.65625 8.546875 
L 53.65625 0 
L 7.625 0 
z
" id="Helvetica-76"/>
      </defs>
      <g transform="translate(462.20125 338.8775)scale(0.16 -0.16)">
       <use xlink:href="#Helvetica-76"/>
      </g>
     </g>
    </g>
    <g id="xtick_15">
     <g id="line2d_15">
      <g>
       <use style="stroke:#000000;stroke-width:0.8;" x="494.55" xlink:href="#m70e2ed3926" y="320.4"/>
      </g>
     </g>
     <g id="text_15">
      <!-- N -->
      <defs>
       <path d="M 7.625 71.734375 
L 19.09375 71.734375 
L 55.328125 13.625 
L 55.328125 71.734375 
L 64.546875 71.734375 
L 64.546875 0 
L 53.65625 0 
L 16.890625 58.0625 
L 16.890625 0 
L 7.625 0 
z
M 35.453125 71.734375 
z
" id="Helvetica-78"/>
      </defs>
      <g transform="translate(488.7725 338.8775)scale(0.16 -0.16)">
       <use xlink:href="#Helvetica-78"/>
      </g>
     </g>
    </g>
    <g id="xtick_16">
     <g id="line2d_16">
      <g>
       <use style="stroke:#000000;stroke-width:0.8;" x="522.45" xlink:href="#m70e2ed3926" y="320.4"/>
      </g>
     </g>
     <g id="text_16">
      <!-- F -->
      <defs>
       <path d="M 8.546875 71.734375 
L 58.296875 71.734375 
L 58.296875 62.9375 
L 18.265625 62.9375 
L 18.265625 41.15625 
L 53.46875 41.15625 
L 53.46875 32.625 
L 18.265625 32.625 
L 18.265625 0 
L 8.546875 0 
z
" id="Helvetica-70"/>
      </defs>
      <g transform="translate(517.56375 338.8775)scale(0.16 -0.16)">
       <use xlink:href="#Helvetica-70"/>
      </g>
     </g>
    </g>
    <g id="xtick_17">
     <g id="line2d_17">
      <g>
       <use style="stroke:#000000;stroke-width:0.8;" x="550.35" xlink:href="#m70e2ed3926" y="320.4"/>
      </g>
     </g>
     <g id="text_17">
      <!-- Q -->
      <defs>
       <path d="M 73.25 0.203125 
L 68.359375 -5.71875 
L 57.28125 2.734375 
Q 53.265625 0.53125 48.609375 -0.78125 
Q 43.953125 -2.09375 38.421875 -2.09375 
Q 21.734375 -2.09375 12.25 8.84375 
Q 3.90625 19.484375 3.90625 35.5 
Q 3.90625 50.046875 11.140625 60.40625 
Q 20.40625 73.6875 38.578125 73.6875 
Q 57.5625 73.6875 66.703125 61.46875 
Q 73.828125 51.953125 73.828125 37.109375 
Q 73.828125 30.171875 72.125 23.78125 
Q 69.53125 14.015625 63.375 7.859375 
z
M 39.59375 6.59375 
Q 42.625 6.59375 45.265625 7 
Q 47.90625 7.421875 49.859375 8.640625 
L 42 14.796875 
L 46.875 20.796875 
L 56.25 13.53125 
Q 60.6875 18.609375 62.28125 24.90625 
Q 63.875 31.203125 63.875 36.96875 
Q 63.875 49.609375 57.25 57.328125 
Q 50.640625 65.046875 39.15625 65.046875 
Q 27.546875 65.046875 20.75 57.640625 
Q 13.96875 50.25 13.96875 34.859375 
Q 13.96875 21.921875 20.484375 14.25 
Q 27 6.59375 39.59375 6.59375 
z
" id="Helvetica-81"/>
      </defs>
      <g transform="translate(544.1275 338.8775)scale(0.16 -0.16)">
       <use xlink:href="#Helvetica-81"/>
      </g>
     </g>
    </g>
    <g id="xtick_18">
     <g id="line2d_18">
      <g>
       <use style="stroke:#000000;stroke-width:0.8;" x="578.25" xlink:href="#m70e2ed3926" y="320.4"/>
      </g>
     </g>
     <g id="text_18">
      <!-- I -->
      <defs>
       <path d="M 9.8125 71.734375 
L 19.625 71.734375 
L 19.625 0 
L 9.8125 0 
z
" id="Helvetica-73"/>
      </defs>
      <g transform="translate(576.0275 338.8775)scale(0.16 -0.16)">
       <use xlink:href="#Helvetica-73"/>
      </g>
     </g>
    </g>
    <g id="xtick_19">
     <g id="line2d_19">
      <g>
       <use style="stroke:#000000;stroke-width:0.8;" x="606.15" xlink:href="#m70e2ed3926" y="320.4"/>
      </g>
     </g>
     <g id="text_19">
      <!-- K -->
      <defs>
       <path d="M 7.625 71.734375 
L 17.09375 71.734375 
L 17.09375 36.765625 
L 52.046875 71.734375 
L 65.484375 71.734375 
L 35.640625 42.828125 
L 66.3125 0 
L 53.65625 0 
L 28.5625 35.984375 
L 17.09375 25 
L 17.09375 0 
L 7.625 0 
z
" id="Helvetica-75"/>
      </defs>
      <g transform="translate(600.81375 338.8775)scale(0.16 -0.16)">
       <use xlink:href="#Helvetica-75"/>
      </g>
     </g>
    </g>
    <g id="xtick_20">
     <g id="line2d_20">
      <g>
       <use style="stroke:#000000;stroke-width:0.8;" x="634.05" xlink:href="#m70e2ed3926" y="320.4"/>
      </g>
     </g>
     <g id="text_20">
      <!-- M -->
      <defs>
       <path d="M 7.375 71.734375 
L 21.296875 71.734375 
L 41.890625 11.078125 
L 62.359375 71.734375 
L 76.125 71.734375 
L 76.125 0 
L 66.890625 0 
L 66.890625 42.328125 
Q 66.890625 44.53125 66.984375 49.609375 
Q 67.09375 54.6875 67.09375 60.5 
L 46.625 0 
L 37.015625 0 
L 16.40625 60.5 
L 16.40625 58.296875 
Q 16.40625 55.671875 16.53125 50.265625 
Q 16.65625 44.875 16.65625 42.328125 
L 16.65625 0 
L 7.375 0 
z
" id="Helvetica-77"/>
      </defs>
      <g transform="translate(627.38625 338.8775)scale(0.16 -0.16)">
       <use xlink:href="#Helvetica-77"/>
      </g>
     </g>
    </g>
    <g id="text_21">
     <!-- Amino Acid -->
     <defs>
      <path d="M 6.453125 52.296875 
L 15.140625 52.296875 
L 15.140625 44.875 
Q 18.265625 48.734375 20.796875 50.484375 
Q 25.140625 53.46875 30.671875 53.46875 
Q 36.921875 53.46875 40.71875 50.390625 
Q 42.875 48.640625 44.625 45.21875 
Q 47.5625 49.421875 51.515625 51.4375 
Q 55.46875 53.46875 60.40625 53.46875 
Q 70.953125 53.46875 74.75 45.84375 
Q 76.8125 41.75 76.8125 34.8125 
L 76.8125 0 
L 67.671875 0 
L 67.671875 36.328125 
Q 67.671875 41.546875 65.0625 43.5 
Q 62.453125 45.453125 58.6875 45.453125 
Q 53.515625 45.453125 49.78125 41.984375 
Q 46.046875 38.53125 46.046875 30.421875 
L 46.046875 0 
L 37.109375 0 
L 37.109375 34.125 
Q 37.109375 39.453125 35.84375 41.890625 
Q 33.84375 45.5625 28.375 45.5625 
Q 23.390625 45.5625 19.3125 41.703125 
Q 15.234375 37.84375 15.234375 27.734375 
L 15.234375 0 
L 6.453125 0 
z
" id="Helvetica-109"/>
      <path d="M 6.453125 52.046875 
L 15.375 52.046875 
L 15.375 0 
L 6.453125 0 
z
M 6.453125 71.734375 
L 15.375 71.734375 
L 15.375 61.765625 
L 6.453125 61.765625 
z
" id="Helvetica-105"/>
      <path d="M 6.453125 52.296875 
L 14.796875 52.296875 
L 14.796875 44.875 
Q 18.5 49.46875 22.65625 51.46875 
Q 26.8125 53.46875 31.890625 53.46875 
Q 43.015625 53.46875 46.921875 45.703125 
Q 49.078125 41.453125 49.078125 33.546875 
L 49.078125 0 
L 40.140625 0 
L 40.140625 32.953125 
Q 40.140625 37.75 38.71875 40.671875 
Q 36.375 45.5625 30.21875 45.5625 
Q 27.09375 45.5625 25.09375 44.921875 
Q 21.484375 43.84375 18.75 40.625 
Q 16.546875 38.03125 15.890625 35.265625 
Q 15.234375 32.515625 15.234375 27.390625 
L 15.234375 0 
L 6.453125 0 
z
M 27.09375 53.5625 
z
" id="Helvetica-110"/>
      <path d="M 27.203125 5.671875 
Q 35.9375 5.671875 39.1875 12.28125 
Q 42.4375 18.890625 42.4375 27 
Q 42.4375 34.328125 40.09375 38.921875 
Q 36.375 46.140625 27.296875 46.140625 
Q 19.234375 46.140625 15.578125 39.984375 
Q 11.921875 33.84375 11.921875 25.140625 
Q 11.921875 16.796875 15.578125 11.234375 
Q 19.234375 5.671875 27.203125 5.671875 
z
M 27.546875 53.8125 
Q 37.640625 53.8125 44.625 47.0625 
Q 51.609375 40.328125 51.609375 27.25 
Q 51.609375 14.59375 45.453125 6.34375 
Q 39.3125 -1.90625 26.375 -1.90625 
Q 15.578125 -1.90625 9.21875 5.390625 
Q 2.875 12.703125 2.875 25 
Q 2.875 38.1875 9.5625 46 
Q 16.265625 53.8125 27.546875 53.8125 
z
M 27.25 53.5625 
z
" id="Helvetica-111"/>
      <path id="Helvetica-32"/>
      <path d="M 26.609375 53.8125 
Q 35.453125 53.8125 40.984375 49.515625 
Q 46.53125 45.21875 47.65625 34.71875 
L 39.109375 34.71875 
Q 38.328125 39.546875 35.546875 42.75 
Q 32.765625 45.953125 26.609375 45.953125 
Q 18.21875 45.953125 14.59375 37.75 
Q 12.25 32.421875 12.25 24.609375 
Q 12.25 16.75 15.5625 11.375 
Q 18.890625 6 26.03125 6 
Q 31.5 6 34.6875 9.34375 
Q 37.890625 12.703125 39.109375 18.5 
L 47.65625 18.5 
Q 46.1875 8.109375 40.328125 3.296875 
Q 34.46875 -1.515625 25.34375 -1.515625 
Q 15.09375 -1.515625 8.984375 5.984375 
Q 2.875 13.484375 2.875 24.703125 
Q 2.875 38.484375 9.5625 46.140625 
Q 16.265625 53.8125 26.609375 53.8125 
z
M 25.25 53.5625 
z
" id="Helvetica-99"/>
      <path d="M 12.015625 25.53125 
Q 12.015625 17.140625 15.578125 11.46875 
Q 19.140625 5.8125 27 5.8125 
Q 33.109375 5.8125 37.03125 11.0625 
Q 40.96875 16.3125 40.96875 26.125 
Q 40.96875 36.03125 36.90625 40.796875 
Q 32.859375 45.5625 26.90625 45.5625 
Q 20.265625 45.5625 16.140625 40.484375 
Q 12.015625 35.40625 12.015625 25.53125 
z
M 25.25 53.21875 
Q 31.25 53.21875 35.296875 50.6875 
Q 37.640625 49.21875 40.625 45.5625 
L 40.625 71.96875 
L 49.078125 71.96875 
L 49.078125 0 
L 41.15625 0 
L 41.15625 7.28125 
Q 38.09375 2.4375 33.890625 0.28125 
Q 29.6875 -1.859375 24.265625 -1.859375 
Q 15.53125 -1.859375 9.125 5.484375 
Q 2.734375 12.84375 2.734375 25.046875 
Q 2.734375 36.46875 8.5625 44.84375 
Q 14.40625 53.21875 25.25 53.21875 
z
" id="Helvetica-100"/>
     </defs>
     <g transform="translate(318.425 360.559375)scale(0.2 -0.2)">
      <use xlink:href="#Helvetica-65"/>
      <use x="66.699219" xlink:href="#Helvetica-109"/>
      <use x="150" xlink:href="#Helvetica-105"/>
      <use x="172.216797" xlink:href="#Helvetica-110"/>
      <use x="227.832031" xlink:href="#Helvetica-111"/>
      <use x="283.447266" xlink:href="#Helvetica-32"/>
      <use x="311.230469" xlink:href="#Helvetica-65"/>
      <use x="377.929688" xlink:href="#Helvetica-99"/>
      <use x="427.929688" xlink:href="#Helvetica-105"/>
      <use x="450.146484" xlink:href="#Helvetica-100"/>
     </g>
    </g>
   </g>
   <g id="matplotlib.axis_2">
    <g id="ytick_1">
     <g id="line2d_21">
      <defs>
       <path d="M 0 0 
L -3.5 0 
" id="ma5e505534b" style="stroke:#000000;stroke-width:0.8;"/>
      </defs>
      <g>
       <use style="stroke:#000000;stroke-width:0.8;" x="90" xlink:href="#ma5e505534b" y="320.4"/>
      </g>
     </g>
     <g id="text_22">
      <!-- 0.00e+00 -->
      <defs>
       <path d="M 27.046875 69.921875 
Q 40.625 69.921875 46.6875 58.734375 
Q 51.375 50.09375 51.375 35.0625 
Q 51.375 20.796875 47.125 11.46875 
Q 40.96875 -1.90625 27 -1.90625 
Q 14.40625 -1.90625 8.25 9.03125 
Q 3.125 18.171875 3.125 33.546875 
Q 3.125 45.453125 6.203125 54 
Q 11.96875 69.921875 27.046875 69.921875 
z
M 26.953125 6.109375 
Q 33.796875 6.109375 37.84375 12.15625 
Q 41.890625 18.21875 41.890625 34.71875 
Q 41.890625 46.625 38.953125 54.3125 
Q 36.03125 62.015625 27.59375 62.015625 
Q 19.828125 62.015625 16.234375 54.703125 
Q 12.640625 47.40625 12.640625 33.203125 
Q 12.640625 22.515625 14.9375 16.015625 
Q 18.453125 6.109375 26.953125 6.109375 
z
" id="Helvetica-48"/>
       <path d="M 8.546875 10.640625 
L 18.75 10.640625 
L 18.75 0 
L 8.546875 0 
z
" id="Helvetica-46"/>
       <path d="M 28.21875 53.46875 
Q 33.796875 53.46875 39.015625 50.859375 
Q 44.234375 48.25 46.96875 44.09375 
Q 49.609375 40.140625 50.484375 34.859375 
Q 51.265625 31.25 51.265625 23.34375 
L 12.9375 23.34375 
Q 13.1875 15.375 16.703125 10.5625 
Q 20.21875 5.765625 27.59375 5.765625 
Q 34.46875 5.765625 38.578125 10.296875 
Q 40.921875 12.9375 41.890625 16.40625 
L 50.53125 16.40625 
Q 50.203125 13.53125 48.265625 9.984375 
Q 46.34375 6.453125 43.953125 4.203125 
Q 39.9375 0.296875 34.03125 -1.078125 
Q 30.859375 -1.859375 26.859375 -1.859375 
Q 17.09375 -1.859375 10.296875 5.25 
Q 3.515625 12.359375 3.515625 25.140625 
Q 3.515625 37.75 10.34375 45.609375 
Q 17.1875 53.46875 28.21875 53.46875 
z
M 42.234375 30.328125 
Q 41.703125 36.03125 39.75 39.453125 
Q 36.140625 45.796875 27.6875 45.796875 
Q 21.625 45.796875 17.515625 41.421875 
Q 13.421875 37.0625 13.1875 30.328125 
z
M 27.390625 53.5625 
z
" id="Helvetica-101"/>
       <path d="M 4.5 21.390625 
L 4.5 29.59375 
L 25.78125 29.59375 
L 25.78125 51.03125 
L 34.125 51.03125 
L 34.125 29.59375 
L 55.421875 29.59375 
L 55.421875 21.390625 
L 34.125 21.390625 
L 34.125 0 
L 25.78125 0 
L 25.78125 21.390625 
z
" id="Helvetica-43"/>
      </defs>
      <g transform="translate(15.825 326.13875)scale(0.16 -0.16)">
       <use xlink:href="#Helvetica-48"/>
       <use x="55.615234" xlink:href="#Helvetica-46"/>
       <use x="83.398438" xlink:href="#Helvetica-48"/>
       <use x="139.013672" xlink:href="#Helvetica-48"/>
       <use x="194.628906" xlink:href="#Helvetica-101"/>
       <use x="250.244141" xlink:href="#Helvetica-43"/>
       <use x="308.642578" xlink:href="#Helvetica-48"/>
       <use x="364.257812" xlink:href="#Helvetica-48"/>
      </g>
     </g>
    </g>
    <g id="ytick_2">
     <g id="line2d_22">
      <g>
       <use style="stroke:#000000;stroke-width:0.8;" x="90" xlink:href="#ma5e505534b" y="273.279623"/>
      </g>
     </g>
     <g id="text_23">
      <!-- 5.00e-04 -->
      <defs>
       <path d="M 12.359375 17.828125 
Q 13.234375 10.296875 19.34375 7.421875 
Q 22.46875 5.953125 26.5625 5.953125 
Q 34.375 5.953125 38.125 10.9375 
Q 41.890625 15.921875 41.890625 21.96875 
Q 41.890625 29.296875 37.421875 33.296875 
Q 32.953125 37.3125 26.703125 37.3125 
Q 22.171875 37.3125 18.921875 35.546875 
Q 15.671875 33.796875 13.375 30.671875 
L 5.765625 31.109375 
L 11.078125 68.75 
L 47.40625 68.75 
L 47.40625 60.25 
L 17.671875 60.25 
L 14.703125 40.828125 
Q 17.140625 42.671875 19.34375 43.609375 
Q 23.25 45.21875 28.375 45.21875 
Q 37.984375 45.21875 44.671875 39.015625 
Q 51.375 32.8125 51.375 23.296875 
Q 51.375 13.375 45.234375 5.796875 
Q 39.109375 -1.765625 25.6875 -1.765625 
Q 17.140625 -1.765625 10.5625 3.046875 
Q 4 7.859375 3.21875 17.828125 
z
" id="Helvetica-53"/>
       <path d="M 4.15625 32.375 
L 28.65625 32.375 
L 28.65625 23.34375 
L 4.15625 23.34375 
z
" id="Helvetica-45"/>
       <path d="M 33.0625 24.75 
L 33.0625 56.453125 
L 10.640625 24.75 
z
M 33.203125 0 
L 33.203125 17.09375 
L 2.546875 17.09375 
L 2.546875 25.6875 
L 34.578125 70.125 
L 42 70.125 
L 42 24.75 
L 52.296875 24.75 
L 52.296875 17.09375 
L 42 17.09375 
L 42 0 
z
" id="Helvetica-52"/>
      </defs>
      <g transform="translate(19.8425 279.018373)scale(0.16 -0.16)">
       <use xlink:href="#Helvetica-53"/>
       <use x="55.615234" xlink:href="#Helvetica-46"/>
       <use x="83.398438" xlink:href="#Helvetica-48"/>
       <use x="139.013672" xlink:href="#Helvetica-48"/>
       <use x="194.628906" xlink:href="#Helvetica-101"/>
       <use x="250.244141" xlink:href="#Helvetica-45"/>
       <use x="283.544922" xlink:href="#Helvetica-48"/>
       <use x="339.160156" xlink:href="#Helvetica-52"/>
      </g>
     </g>
    </g>
    <g id="ytick_3">
     <g id="line2d_23">
      <g>
       <use style="stroke:#000000;stroke-width:0.8;" x="90" xlink:href="#ma5e505534b" y="226.159245"/>
      </g>
     </g>
     <g id="text_24">
      <!-- 1.00e-03 -->
      <defs>
       <path d="M 9.578125 49.515625 
L 9.578125 56.25 
Q 19.09375 57.171875 22.84375 59.34375 
Q 26.609375 61.53125 28.46875 69.625 
L 35.40625 69.625 
L 35.40625 0 
L 26.03125 0 
L 26.03125 49.515625 
z
" id="Helvetica-49"/>
       <path d="M 25.984375 -1.90625 
Q 13.578125 -1.90625 7.984375 4.90625 
Q 2.390625 11.71875 2.390625 21.484375 
L 11.578125 21.484375 
Q 12.15625 14.703125 14.109375 11.625 
Q 17.53125 6.109375 26.46875 6.109375 
Q 33.40625 6.109375 37.59375 9.8125 
Q 41.796875 13.53125 41.796875 19.390625 
Q 41.796875 26.609375 37.375 29.484375 
Q 32.953125 32.375 25.09375 32.375 
Q 24.21875 32.375 23.3125 32.34375 
Q 22.40625 32.328125 21.484375 32.28125 
L 21.484375 40.046875 
Q 22.859375 39.890625 23.78125 39.84375 
Q 24.703125 39.796875 25.78125 39.796875 
Q 30.71875 39.796875 33.890625 41.359375 
Q 39.453125 44.09375 39.453125 51.125 
Q 39.453125 56.34375 35.734375 59.171875 
Q 32.03125 62.015625 27.09375 62.015625 
Q 18.3125 62.015625 14.9375 56.15625 
Q 13.09375 52.9375 12.84375 46.96875 
L 4.15625 46.96875 
Q 4.15625 54.78125 7.28125 60.25 
Q 12.640625 70.015625 26.171875 70.015625 
Q 36.859375 70.015625 42.71875 65.25 
Q 48.578125 60.5 48.578125 51.46875 
Q 48.578125 45.015625 45.125 41.015625 
Q 42.96875 38.53125 39.546875 37.109375 
Q 45.0625 35.59375 48.15625 31.265625 
Q 51.265625 26.953125 51.265625 20.703125 
Q 51.265625 10.6875 44.671875 4.390625 
Q 38.09375 -1.90625 25.984375 -1.90625 
z
" id="Helvetica-51"/>
      </defs>
      <g transform="translate(19.8425 231.897995)scale(0.16 -0.16)">
       <use xlink:href="#Helvetica-49"/>
       <use x="55.615234" xlink:href="#Helvetica-46"/>
       <use x="83.398438" xlink:href="#Helvetica-48"/>
       <use x="139.013672" xlink:href="#Helvetica-48"/>
       <use x="194.628906" xlink:href="#Helvetica-101"/>
       <use x="250.244141" xlink:href="#Helvetica-45"/>
       <use x="283.544922" xlink:href="#Helvetica-48"/>
       <use x="339.160156" xlink:href="#Helvetica-51"/>
      </g>
     </g>
    </g>
    <g id="ytick_4">
     <g id="line2d_24">
      <g>
       <use style="stroke:#000000;stroke-width:0.8;" x="90" xlink:href="#ma5e505534b" y="179.038868"/>
      </g>
     </g>
     <g id="text_25">
      <!-- 1.50e-03 -->
      <g transform="translate(19.8425 184.777618)scale(0.16 -0.16)">
       <use xlink:href="#Helvetica-49"/>
       <use x="55.615234" xlink:href="#Helvetica-46"/>
       <use x="83.398438" xlink:href="#Helvetica-53"/>
       <use x="139.013672" xlink:href="#Helvetica-48"/>
       <use x="194.628906" xlink:href="#Helvetica-101"/>
       <use x="250.244141" xlink:href="#Helvetica-45"/>
       <use x="283.544922" xlink:href="#Helvetica-48"/>
       <use x="339.160156" xlink:href="#Helvetica-51"/>
      </g>
     </g>
    </g>
    <g id="ytick_5">
     <g id="line2d_25">
      <g>
       <use style="stroke:#000000;stroke-width:0.8;" x="90" xlink:href="#ma5e505534b" y="131.918491"/>
      </g>
     </g>
     <g id="text_26">
      <!-- 2.00e-03 -->
      <defs>
       <path d="M 3.125 0 
Q 3.609375 9.03125 6.859375 15.71875 
Q 10.109375 22.40625 19.53125 27.875 
L 28.90625 33.296875 
Q 35.203125 36.96875 37.75 39.546875 
Q 41.75 43.609375 41.75 48.828125 
Q 41.75 54.9375 38.078125 58.515625 
Q 34.421875 62.109375 28.328125 62.109375 
Q 19.28125 62.109375 15.828125 55.28125 
Q 13.96875 51.609375 13.765625 45.125 
L 4.828125 45.125 
Q 4.984375 54.25 8.203125 60.015625 
Q 13.921875 70.171875 28.375 70.171875 
Q 40.375 70.171875 45.921875 63.671875 
Q 51.46875 57.171875 51.46875 49.21875 
Q 51.46875 40.828125 45.5625 34.859375 
Q 42.140625 31.390625 33.296875 26.46875 
L 26.609375 22.75 
Q 21.828125 20.125 19.09375 17.71875 
Q 14.203125 13.484375 12.9375 8.296875 
L 51.125 8.296875 
L 51.125 0 
L 3.125 0 
z
" id="Helvetica-50"/>
      </defs>
      <g transform="translate(19.8425 137.657241)scale(0.16 -0.16)">
       <use xlink:href="#Helvetica-50"/>
       <use x="55.615234" xlink:href="#Helvetica-46"/>
       <use x="83.398438" xlink:href="#Helvetica-48"/>
       <use x="139.013672" xlink:href="#Helvetica-48"/>
       <use x="194.628906" xlink:href="#Helvetica-101"/>
       <use x="250.244141" xlink:href="#Helvetica-45"/>
       <use x="283.544922" xlink:href="#Helvetica-48"/>
       <use x="339.160156" xlink:href="#Helvetica-51"/>
      </g>
     </g>
    </g>
    <g id="ytick_6">
     <g id="line2d_26">
      <g>
       <use style="stroke:#000000;stroke-width:0.8;" x="90" xlink:href="#ma5e505534b" y="84.798113"/>
      </g>
     </g>
     <g id="text_27">
      <!-- 2.50e-03 -->
      <g transform="translate(19.8425 90.536863)scale(0.16 -0.16)">
       <use xlink:href="#Helvetica-50"/>
       <use x="55.615234" xlink:href="#Helvetica-46"/>
       <use x="83.398438" xlink:href="#Helvetica-53"/>
       <use x="139.013672" xlink:href="#Helvetica-48"/>
       <use x="194.628906" xlink:href="#Helvetica-101"/>
       <use x="250.244141" xlink:href="#Helvetica-45"/>
       <use x="283.544922" xlink:href="#Helvetica-48"/>
       <use x="339.160156" xlink:href="#Helvetica-51"/>
      </g>
     </g>
    </g>
    <g id="text_28">
     <!-- SNPs per bp -->
     <defs>
      <path d="M 11.671875 16.40625 
Q 12.0625 12.015625 13.875 9.671875 
Q 17.1875 5.421875 25.390625 5.421875 
Q 30.28125 5.421875 33.984375 7.546875 
Q 37.703125 9.671875 37.703125 14.109375 
Q 37.703125 17.484375 34.71875 19.234375 
Q 32.8125 20.3125 27.203125 21.734375 
L 20.21875 23.484375 
Q 13.53125 25.140625 10.359375 27.203125 
Q 4.6875 30.765625 4.6875 37.0625 
Q 4.6875 44.484375 10.03125 49.0625 
Q 15.375 53.65625 24.421875 53.65625 
Q 36.234375 53.65625 41.453125 46.734375 
Q 44.734375 42.328125 44.625 37.25 
L 36.328125 37.25 
Q 36.078125 40.234375 34.234375 42.671875 
Q 31.203125 46.140625 23.734375 46.140625 
Q 18.75 46.140625 16.1875 44.234375 
Q 13.625 42.328125 13.625 39.203125 
Q 13.625 35.796875 17 33.734375 
Q 18.953125 32.515625 22.75 31.59375 
L 28.5625 30.171875 
Q 38.03125 27.875 41.265625 25.734375 
Q 46.390625 22.359375 46.390625 15.140625 
Q 46.390625 8.15625 41.09375 3.078125 
Q 35.796875 -2 24.953125 -2 
Q 13.28125 -2 8.421875 3.296875 
Q 3.5625 8.59375 3.21875 16.40625 
z
M 24.65625 53.5625 
z
" id="Helvetica-115"/>
      <path d="M 28.515625 5.90625 
Q 34.671875 5.90625 38.75 11.0625 
Q 42.828125 16.21875 42.828125 26.46875 
Q 42.828125 32.71875 41.015625 37.203125 
Q 37.59375 45.84375 28.515625 45.84375 
Q 19.390625 45.84375 16.015625 36.71875 
Q 14.203125 31.84375 14.203125 24.3125 
Q 14.203125 18.265625 16.015625 14.015625 
Q 19.4375 5.90625 28.515625 5.90625 
z
M 5.765625 52.046875 
L 14.3125 52.046875 
L 14.3125 45.125 
Q 16.9375 48.6875 20.0625 50.640625 
Q 24.515625 53.5625 30.515625 53.5625 
Q 39.40625 53.5625 45.609375 46.75 
Q 51.8125 39.9375 51.8125 27.296875 
Q 51.8125 10.203125 42.875 2.875 
Q 37.203125 -1.765625 29.6875 -1.765625 
Q 23.78125 -1.765625 19.78125 0.828125 
Q 17.4375 2.296875 14.546875 5.859375 
L 14.546875 -20.84375 
L 5.765625 -20.84375 
z
" id="Helvetica-112"/>
      <path d="M 6.6875 52.296875 
L 15.046875 52.296875 
L 15.046875 43.265625 
Q 16.0625 45.90625 20.0625 49.6875 
Q 24.078125 53.46875 29.296875 53.46875 
Q 29.546875 53.46875 30.125 53.421875 
Q 30.71875 53.375 32.125 53.21875 
L 32.125 43.953125 
Q 31.34375 44.09375 30.6875 44.140625 
Q 30.03125 44.1875 29.25 44.1875 
Q 22.609375 44.1875 19.046875 39.90625 
Q 15.484375 35.640625 15.484375 30.078125 
L 15.484375 0 
L 6.6875 0 
z
" id="Helvetica-114"/>
      <path d="M 5.765625 71.96875 
L 14.3125 71.96875 
L 14.3125 45.953125 
Q 17.1875 49.703125 21.1875 51.671875 
Q 25.203125 53.65625 29.890625 53.65625 
Q 39.65625 53.65625 45.734375 46.9375 
Q 51.8125 40.234375 51.8125 27.15625 
Q 51.8125 14.75 45.796875 6.546875 
Q 39.796875 -1.65625 29.15625 -1.65625 
Q 23.1875 -1.65625 19.09375 1.21875 
Q 16.65625 2.9375 13.875 6.6875 
L 13.875 0 
L 5.765625 0 
z
M 28.609375 6.109375 
Q 35.75 6.109375 39.28125 11.765625 
Q 42.828125 17.4375 42.828125 26.703125 
Q 42.828125 34.96875 39.28125 40.375 
Q 35.75 45.796875 28.859375 45.796875 
Q 22.859375 45.796875 18.328125 41.359375 
Q 13.8125 36.921875 13.8125 26.703125 
Q 13.8125 19.34375 15.671875 14.75 
Q 19.140625 6.109375 28.609375 6.109375 
z
" id="Helvetica-98"/>
     </defs>
     <g transform="translate(7.65625 238.492188)rotate(-90)scale(0.2 -0.2)">
      <use xlink:href="#Helvetica-83"/>
      <use x="66.699219" xlink:href="#Helvetica-78"/>
      <use x="138.916016" xlink:href="#Helvetica-80"/>
      <use x="205.615234" xlink:href="#Helvetica-115"/>
      <use x="255.615234" xlink:href="#Helvetica-32"/>
      <use x="283.398438" xlink:href="#Helvetica-112"/>
      <use x="339.013672" xlink:href="#Helvetica-101"/>
      <use x="394.628906" xlink:href="#Helvetica-114"/>
      <use x="427.929688" xlink:href="#Helvetica-32"/>
      <use x="455.712891" xlink:href="#Helvetica-98"/>
      <use x="511.328125" xlink:href="#Helvetica-112"/>
     </g>
    </g>
   </g>
   <g id="line2d_27">
    <path clip-path="url(#pe66b2ad2a3)" d="M 90 151.943696 
L 648 151.943696 
" style="fill:none;stroke:#808080;stroke-dasharray:5.55,2.4;stroke-dashoffset:0;stroke-width:1.5;"/>
   </g>
   <g id="patch_83">
    <path d="M 90 320.4 
L 90 43.2 
" style="fill:none;stroke:#000000;stroke-linecap:square;stroke-linejoin:miter;stroke-width:0.8;"/>
   </g>
   <g id="patch_84">
    <path d="M 648 320.4 
L 648 43.2 
" style="fill:none;stroke:#000000;stroke-linecap:square;stroke-linejoin:miter;stroke-width:0.8;"/>
   </g>
   <g id="patch_85">
    <path d="M 90 320.4 
L 648 320.4 
" style="fill:none;stroke:#000000;stroke-linecap:square;stroke-linejoin:miter;stroke-width:0.8;"/>
   </g>
   <g id="patch_86">
    <path d="M 90 43.2 
L 648 43.2 
" style="fill:none;stroke:#000000;stroke-linecap:square;stroke-linejoin:miter;stroke-width:0.8;"/>
   </g>
   <g id="legend_1">
    <g id="patch_87">
     <path d="M 495.785 147.345 
L 636.8 147.345 
Q 640 147.345 640 144.145 
L 640 54.4 
Q 640 51.2 636.8 51.2 
L 495.785 51.2 
Q 492.585 51.2 492.585 54.4 
L 492.585 144.145 
Q 492.585 147.345 495.785 147.345 
z
" style="fill:#ffffff;opacity:0.8;stroke:#cccccc;stroke-linejoin:miter;"/>
    </g>
    <g id="patch_88">
     <path d="M 498.985 69.0775 
L 530.985 69.0775 
L 530.985 57.8775 
L 498.985 57.8775 
z
" style="fill:#1f77b4;"/>
    </g>
    <g id="text_29">
     <!-- all -->
     <defs>
      <path d="M 13.1875 13.921875 
Q 13.1875 10.109375 15.96875 7.90625 
Q 18.75 5.71875 22.5625 5.71875 
Q 27.203125 5.71875 31.546875 7.859375 
Q 38.875 11.421875 38.875 19.53125 
L 38.875 26.609375 
Q 37.25 25.59375 34.703125 24.90625 
Q 32.171875 24.21875 29.734375 23.921875 
L 24.421875 23.25 
Q 19.625 22.609375 17.234375 21.234375 
Q 13.1875 18.953125 13.1875 13.921875 
z
M 34.46875 31.6875 
Q 37.5 32.078125 38.53125 34.234375 
Q 39.109375 35.40625 39.109375 37.59375 
Q 39.109375 42.09375 35.90625 44.109375 
Q 32.71875 46.140625 26.765625 46.140625 
Q 19.875 46.140625 17 42.4375 
Q 15.375 40.375 14.890625 36.328125 
L 6.6875 36.328125 
Q 6.9375 46 12.96875 49.78125 
Q 19 53.5625 26.953125 53.5625 
Q 36.1875 53.5625 41.9375 50.046875 
Q 47.65625 46.53125 47.65625 39.109375 
L 47.65625 8.984375 
Q 47.65625 7.625 48.21875 6.78125 
Q 48.78125 5.953125 50.59375 5.953125 
Q 51.171875 5.953125 51.90625 6.03125 
Q 52.640625 6.109375 53.46875 6.25 
L 53.46875 -0.25 
Q 51.421875 -0.828125 50.34375 -0.96875 
Q 49.265625 -1.125 47.40625 -1.125 
Q 42.875 -1.125 40.828125 2.09375 
Q 39.75 3.8125 39.3125 6.9375 
Q 36.625 3.421875 31.59375 0.828125 
Q 26.5625 -1.765625 20.515625 -1.765625 
Q 13.234375 -1.765625 8.609375 2.65625 
Q 4 7.078125 4 13.71875 
Q 4 21 8.546875 25 
Q 13.09375 29 20.453125 29.9375 
z
M 27.203125 53.5625 
z
" id="Helvetica-97"/>
      <path d="M 6.6875 71.734375 
L 15.484375 71.734375 
L 15.484375 0 
L 6.6875 0 
z
" id="Helvetica-108"/>
     </defs>
     <g transform="translate(543.785 69.0775)scale(0.16 -0.16)">
      <use xlink:href="#Helvetica-97"/>
      <use x="55.615234" xlink:href="#Helvetica-108"/>
      <use x="77.832031" xlink:href="#Helvetica-108"/>
     </g>
    </g>
    <g id="patch_89">
     <path d="M 498.985 91.89 
L 530.985 91.89 
L 530.985 80.69 
L 498.985 80.69 
z
" style="fill:#ff7f0e;"/>
    </g>
    <g id="text_30">
     <!-- synonymous -->
     <defs>
      <path d="M 39.109375 52.296875 
L 48.828125 52.296875 
Q 46.96875 47.265625 40.578125 29.34375 
Q 35.796875 15.875 32.5625 7.375 
Q 24.953125 -12.640625 21.828125 -17.03125 
Q 18.703125 -21.4375 11.078125 -21.4375 
Q 9.234375 -21.4375 8.234375 -21.28125 
Q 7.234375 -21.140625 5.765625 -20.75 
L 5.765625 -12.75 
Q 8.0625 -13.375 9.078125 -13.515625 
Q 10.109375 -13.671875 10.890625 -13.671875 
Q 13.328125 -13.671875 14.46875 -12.859375 
Q 15.625 -12.0625 16.40625 -10.890625 
Q 16.65625 -10.5 18.15625 -6.875 
Q 19.671875 -3.265625 20.359375 -1.515625 
L 1.03125 52.296875 
L 10.984375 52.296875 
L 25 9.71875 
z
M 24.953125 53.5625 
z
" id="Helvetica-121"/>
      <path d="M 15.234375 52.296875 
L 15.234375 17.578125 
Q 15.234375 13.578125 16.5 11.03125 
Q 18.84375 6.34375 25.25 6.34375 
Q 34.421875 6.34375 37.75 14.546875 
Q 39.546875 18.953125 39.546875 26.609375 
L 39.546875 52.296875 
L 48.34375 52.296875 
L 48.34375 0 
L 40.046875 0 
L 40.140625 7.71875 
Q 38.421875 4.734375 35.890625 2.6875 
Q 30.859375 -1.421875 23.6875 -1.421875 
Q 12.5 -1.421875 8.453125 6.0625 
Q 6.25 10.0625 6.25 16.75 
L 6.25 52.296875 
z
M 27.296875 53.5625 
z
" id="Helvetica-117"/>
     </defs>
     <g transform="translate(543.785 91.89)scale(0.16 -0.16)">
      <use xlink:href="#Helvetica-115"/>
      <use x="50" xlink:href="#Helvetica-121"/>
      <use x="100" xlink:href="#Helvetica-110"/>
      <use x="155.615234" xlink:href="#Helvetica-111"/>
      <use x="211.230469" xlink:href="#Helvetica-110"/>
      <use x="266.845703" xlink:href="#Helvetica-121"/>
      <use x="316.845703" xlink:href="#Helvetica-109"/>
      <use x="400.146484" xlink:href="#Helvetica-111"/>
      <use x="455.761719" xlink:href="#Helvetica-117"/>
      <use x="511.376953" xlink:href="#Helvetica-115"/>
     </g>
    </g>
    <g id="patch_90">
     <path d="M 498.985 114.7975 
L 530.985 114.7975 
L 530.985 103.5975 
L 498.985 103.5975 
z
" style="fill:#2ca02c;"/>
    </g>
    <g id="text_31">
     <!-- missense -->
     <g transform="translate(543.785 114.7975)scale(0.16 -0.16)">
      <use xlink:href="#Helvetica-109"/>
      <use x="83.300781" xlink:href="#Helvetica-105"/>
      <use x="105.517578" xlink:href="#Helvetica-115"/>
      <use x="155.517578" xlink:href="#Helvetica-115"/>
      <use x="205.517578" xlink:href="#Helvetica-101"/>
      <use x="261.132812" xlink:href="#Helvetica-110"/>
      <use x="316.748047" xlink:href="#Helvetica-115"/>
      <use x="366.748047" xlink:href="#Helvetica-101"/>
     </g>
    </g>
    <g id="patch_91">
     <path d="M 498.985 137.61 
L 530.985 137.61 
L 530.985 126.41 
L 498.985 126.41 
z
" style="fill:#d62728;"/>
    </g>
    <g id="text_32">
     <!-- nonsense -->
     <g transform="translate(543.785 137.61)scale(0.16 -0.16)">
      <use xlink:href="#Helvetica-110"/>
      <use x="55.615234" xlink:href="#Helvetica-111"/>
      <use x="111.230469" xlink:href="#Helvetica-110"/>
      <use x="166.845703" xlink:href="#Helvetica-115"/>
      <use x="216.845703" xlink:href="#Helvetica-101"/>
      <use x="272.460938" xlink:href="#Helvetica-110"/>
      <use x="328.076172" xlink:href="#Helvetica-115"/>
      <use x="378.076172" xlink:href="#Helvetica-101"/>
     </g>
    </g>
   </g>
  </g>
 </g>
 <defs>
  <clipPath id="pe66b2ad2a3">
   <rect height="277.2" width="558" x="90" y="43.2"/>
  </clipPath>
 </defs>
</svg>
