<?xml version="1.0" encoding="utf-8" standalone="no"?>
<!DOCTYPE svg PUBLIC "-//W3C//DTD SVG 1.1//EN"
  "http://www.w3.org/Graphics/SVG/1.1/DTD/svg11.dtd">
<!-- Created with matplotlib (https://matplotlib.org/) -->
<svg height="288pt" version="1.1" viewBox="0 0 432 288" width="432pt" xmlns="http://www.w3.org/2000/svg" xmlns:xlink="http://www.w3.org/1999/xlink">
 <defs>
  <style type="text/css">
*{stroke-linecap:butt;stroke-linejoin:round;}
  </style>
 </defs>
 <g id="figure_1">
  <g id="patch_1">
   <path d="M 0 288 
L 432 288 
L 432 0 
L 0 0 
z
" style="fill:#ffffff;"/>
  </g>
  <g id="axes_1">
   <g id="patch_2">
    <path d="M 54 252 
L 388.8 252 
L 388.8 34.56 
L 54 34.56 
z
" style="fill:#ffffff;"/>
   </g>
   <g id="PathCollection_1">
    <defs>
     <path d="M 0 3.383948 
C 0.897434 3.383948 1.758231 3.027394 2.392813 2.392813 
C 3.027394 1.758231 3.383948 0.897434 3.383948 0 
C 3.383948 -0.897434 3.027394 -1.758231 2.392813 -2.392813 
C 1.758231 -3.027394 0.897434 -3.383948 0 -3.383948 
C -0.897434 -3.383948 -1.758231 -3.027394 -2.392813 -2.392813 
C -3.027394 -1.758231 -3.383948 -0.897434 -3.383948 0 
C -3.383948 0.897434 -3.027394 1.758231 -2.392813 2.392813 
C -1.758231 3.027394 -0.897434 3.383948 0 3.383948 
z
" id="mcc3a18bdf9" style="stroke:#1f77b4;stroke-width:2.025;"/>
    </defs>
    <g clip-path="url(#p8e563b2bdc)">
     <use style="fill:#1f77b4;stroke:#1f77b4;stroke-width:2.025;" x="107.556322" xlink:href="#mcc3a18bdf9" y="42.504923"/>
     <use style="fill:#1f77b4;stroke:#1f77b4;stroke-width:2.025;" x="103.978095" xlink:href="#mcc3a18bdf9" y="59.231077"/>
     <use style="fill:#1f77b4;stroke:#1f77b4;stroke-width:2.025;" x="87.737457" xlink:href="#mcc3a18bdf9" y="75.957231"/>
     <use style="fill:#1f77b4;stroke:#1f77b4;stroke-width:2.025;" x="101.422219" xlink:href="#mcc3a18bdf9" y="92.683385"/>
     <use style="fill:#1f77b4;stroke:#1f77b4;stroke-width:2.025;" x="92.987829" xlink:href="#mcc3a18bdf9" y="109.409538"/>
     <use style="fill:#1f77b4;stroke:#1f77b4;stroke-width:2.025;" x="353.806796" xlink:href="#mcc3a18bdf9" y="126.135692"/>
     <use style="fill:#1f77b4;stroke:#1f77b4;stroke-width:2.025;" x="294.155717" xlink:href="#mcc3a18bdf9" y="142.861846"/>
     <use style="fill:#1f77b4;stroke:#1f77b4;stroke-width:2.025;" x="366.144685" xlink:href="#mcc3a18bdf9" y="159.588"/>
     <use style="fill:#1f77b4;stroke:#1f77b4;stroke-width:2.025;" x="100.911044" xlink:href="#mcc3a18bdf9" y="176.314154"/>
     <use style="fill:#1f77b4;stroke:#1f77b4;stroke-width:2.025;" x="294.155717" xlink:href="#mcc3a18bdf9" y="193.040308"/>
     <use style="fill:#1f77b4;stroke:#1f77b4;stroke-width:2.025;" x="69.218182" xlink:href="#mcc3a18bdf9" y="209.766462"/>
     <use style="fill:#1f77b4;stroke:#1f77b4;stroke-width:2.025;" x="366.144685" xlink:href="#mcc3a18bdf9" y="226.492615"/>
     <use style="fill:#1f77b4;stroke:#1f77b4;stroke-width:2.025;" x="102.188982" xlink:href="#mcc3a18bdf9" y="243.218769"/>
    </g>
   </g>
   <g id="line2d_1">
    <path clip-path="url(#p8e563b2bdc)" d="M 97.588405 42.504923 
L 117.543407 42.504923 
" style="fill:none;stroke:#1f77b4;stroke-linecap:square;stroke-width:2.7;"/>
   </g>
   <g id="line2d_2">
    <path clip-path="url(#p8e563b2bdc)" d="M 94.776942 59.231077 
L 114.201599 59.231077 
" style="fill:none;stroke:#1f77b4;stroke-linecap:square;stroke-width:2.7;"/>
   </g>
   <g id="line2d_3">
    <path clip-path="url(#p8e563b2bdc)" d="M 82.979878 75.957231 
L 93.258433 75.957231 
" style="fill:none;stroke:#1f77b4;stroke-linecap:square;stroke-width:2.7;"/>
   </g>
   <g id="line2d_4">
    <path clip-path="url(#p8e563b2bdc)" d="M 92.221066 92.683385 
L 110.623373 92.683385 
" style="fill:none;stroke:#1f77b4;stroke-linecap:square;stroke-width:2.7;"/>
   </g>
   <g id="line2d_5">
    <path clip-path="url(#p8e563b2bdc)" d="M 85.320201 109.409538 
L 101.422219 109.409538 
" style="fill:none;stroke:#1f77b4;stroke-linecap:square;stroke-width:2.7;"/>
   </g>
   <g id="line2d_6">
    <path clip-path="url(#p8e563b2bdc)" d="M 346.081069 126.135692 
L 361.669094 126.135692 
" style="fill:none;stroke:#1f77b4;stroke-linecap:square;stroke-width:2.7;"/>
   </g>
   <g id="line2d_7">
    <path clip-path="url(#p8e563b2bdc)" d="M 288.781553 142.861846 
L 299.621768 142.861846 
" style="fill:none;stroke:#1f77b4;stroke-linecap:square;stroke-width:2.7;"/>
   </g>
   <g id="line2d_8">
    <path clip-path="url(#p8e563b2bdc)" d="M 359.266248 159.588 
L 373.537451 159.588 
" style="fill:none;stroke:#1f77b4;stroke-linecap:square;stroke-width:2.7;"/>
   </g>
   <g id="line2d_9">
    <path clip-path="url(#p8e563b2bdc)" d="M 91.454303 176.314154 
L 110.623373 176.314154 
" style="fill:none;stroke:#1f77b4;stroke-linecap:square;stroke-width:2.7;"/>
   </g>
   <g id="line2d_10">
    <path clip-path="url(#p8e563b2bdc)" d="M 288.724218 193.040308 
L 299.594049 193.040308 
" style="fill:none;stroke:#1f77b4;stroke-linecap:square;stroke-width:2.7;"/>
   </g>
   <g id="line2d_11">
    <path clip-path="url(#p8e563b2bdc)" d="M 69.218182 209.766462 
L 69.218182 209.766462 
" style="fill:none;stroke:#1f77b4;stroke-linecap:square;stroke-width:2.7;"/>
   </g>
   <g id="line2d_12">
    <path clip-path="url(#p8e563b2bdc)" d="M 358.854623 226.492615 
L 373.581818 226.492615 
" style="fill:none;stroke:#1f77b4;stroke-linecap:square;stroke-width:2.7;"/>
   </g>
   <g id="line2d_13">
    <path clip-path="url(#p8e563b2bdc)" d="M 92.987829 243.218769 
L 112.156899 243.218769 
" style="fill:none;stroke:#1f77b4;stroke-linecap:square;stroke-width:2.7;"/>
   </g>
   <g id="matplotlib.axis_1">
    <g id="xtick_1">
     <g id="line2d_14">
      <defs>
       <path d="M 0 0 
L 0 3.5 
" id="m0e26b475d1" style="stroke:#000000;stroke-width:0.8;"/>
      </defs>
      <g>
       <use style="stroke:#000000;stroke-width:0.8;" x="69.218182" xlink:href="#m0e26b475d1" y="252"/>
      </g>
     </g>
     <g id="text_1">
      <!-- 0.00 -->
      <defs>
       <path d="M 27.046875 69.921875 
Q 40.625 69.921875 46.6875 58.734375 
Q 51.375 50.09375 51.375 35.0625 
Q 51.375 20.796875 47.125 11.46875 
Q 40.96875 -1.90625 27 -1.90625 
Q 14.40625 -1.90625 8.25 9.03125 
Q 3.125 18.171875 3.125 33.546875 
Q 3.125 45.453125 6.203125 54 
Q 11.96875 69.921875 27.046875 69.921875 
z
M 26.953125 6.109375 
Q 33.796875 6.109375 37.84375 12.15625 
Q 41.890625 18.21875 41.890625 34.71875 
Q 41.890625 46.625 38.953125 54.3125 
Q 36.03125 62.015625 27.59375 62.015625 
Q 19.828125 62.015625 16.234375 54.703125 
Q 12.640625 47.40625 12.640625 33.203125 
Q 12.640625 22.515625 14.9375 16.015625 
Q 18.453125 6.109375 26.953125 6.109375 
z
" id="Helvetica-48"/>
       <path d="M 8.546875 10.640625 
L 18.75 10.640625 
L 18.75 0 
L 8.546875 0 
z
" id="Helvetica-46"/>
      </defs>
      <g transform="translate(55.595526 269.042813)scale(0.14 -0.14)">
       <use xlink:href="#Helvetica-48"/>
       <use x="55.615234" xlink:href="#Helvetica-46"/>
       <use x="83.398438" xlink:href="#Helvetica-48"/>
       <use x="139.013672" xlink:href="#Helvetica-48"/>
      </g>
     </g>
    </g>
    <g id="xtick_2">
     <g id="line2d_15">
      <g>
       <use style="stroke:#000000;stroke-width:0.8;" x="158.891091" xlink:href="#m0e26b475d1" y="252"/>
      </g>
     </g>
     <g id="text_2">
      <!-- 0.05 -->
      <defs>
       <path d="M 12.359375 17.828125 
Q 13.234375 10.296875 19.34375 7.421875 
Q 22.46875 5.953125 26.5625 5.953125 
Q 34.375 5.953125 38.125 10.9375 
Q 41.890625 15.921875 41.890625 21.96875 
Q 41.890625 29.296875 37.421875 33.296875 
Q 32.953125 37.3125 26.703125 37.3125 
Q 22.171875 37.3125 18.921875 35.546875 
Q 15.671875 33.796875 13.375 30.671875 
L 5.765625 31.109375 
L 11.078125 68.75 
L 47.40625 68.75 
L 47.40625 60.25 
L 17.671875 60.25 
L 14.703125 40.828125 
Q 17.140625 42.671875 19.34375 43.609375 
Q 23.25 45.21875 28.375 45.21875 
Q 37.984375 45.21875 44.671875 39.015625 
Q 51.375 32.8125 51.375 23.296875 
Q 51.375 13.375 45.234375 5.796875 
Q 39.109375 -1.765625 25.6875 -1.765625 
Q 17.140625 -1.765625 10.5625 3.046875 
Q 4 7.859375 3.21875 17.828125 
z
" id="Helvetica-53"/>
      </defs>
      <g transform="translate(145.268435 269.042813)scale(0.14 -0.14)">
       <use xlink:href="#Helvetica-48"/>
       <use x="55.615234" xlink:href="#Helvetica-46"/>
       <use x="83.398438" xlink:href="#Helvetica-48"/>
       <use x="139.013672" xlink:href="#Helvetica-53"/>
      </g>
     </g>
    </g>
    <g id="xtick_3">
     <g id="line2d_16">
      <g>
       <use style="stroke:#000000;stroke-width:0.8;" x="248.564001" xlink:href="#m0e26b475d1" y="252"/>
      </g>
     </g>
     <g id="text_3">
      <!-- 0.10 -->
      <defs>
       <path d="M 9.578125 49.515625 
L 9.578125 56.25 
Q 19.09375 57.171875 22.84375 59.34375 
Q 26.609375 61.53125 28.46875 69.625 
L 35.40625 69.625 
L 35.40625 0 
L 26.03125 0 
L 26.03125 49.515625 
z
" id="Helvetica-49"/>
      </defs>
      <g transform="translate(234.941344 269.042813)scale(0.14 -0.14)">
       <use xlink:href="#Helvetica-48"/>
       <use x="55.615234" xlink:href="#Helvetica-46"/>
       <use x="83.398438" xlink:href="#Helvetica-49"/>
       <use x="139.013672" xlink:href="#Helvetica-48"/>
      </g>
     </g>
    </g>
    <g id="xtick_4">
     <g id="line2d_17">
      <g>
       <use style="stroke:#000000;stroke-width:0.8;" x="338.23691" xlink:href="#m0e26b475d1" y="252"/>
      </g>
     </g>
     <g id="text_4">
      <!-- 0.15 -->
      <g transform="translate(324.614254 269.042813)scale(0.14 -0.14)">
       <use xlink:href="#Helvetica-48"/>
       <use x="55.615234" xlink:href="#Helvetica-46"/>
       <use x="83.398438" xlink:href="#Helvetica-49"/>
       <use x="139.013672" xlink:href="#Helvetica-53"/>
      </g>
     </g>
    </g>
    <g id="text_5">
     <!-- Feature Value -->
     <defs>
      <path d="M 8.546875 71.734375 
L 58.296875 71.734375 
L 58.296875 62.9375 
L 18.265625 62.9375 
L 18.265625 41.15625 
L 53.46875 41.15625 
L 53.46875 32.625 
L 18.265625 32.625 
L 18.265625 0 
L 8.546875 0 
z
" id="Helvetica-70"/>
      <path d="M 28.21875 53.46875 
Q 33.796875 53.46875 39.015625 50.859375 
Q 44.234375 48.25 46.96875 44.09375 
Q 49.609375 40.140625 50.484375 34.859375 
Q 51.265625 31.25 51.265625 23.34375 
L 12.9375 23.34375 
Q 13.1875 15.375 16.703125 10.5625 
Q 20.21875 5.765625 27.59375 5.765625 
Q 34.46875 5.765625 38.578125 10.296875 
Q 40.921875 12.9375 41.890625 16.40625 
L 50.53125 16.40625 
Q 50.203125 13.53125 48.265625 9.984375 
Q 46.34375 6.453125 43.953125 4.203125 
Q 39.9375 0.296875 34.03125 -1.078125 
Q 30.859375 -1.859375 26.859375 -1.859375 
Q 17.09375 -1.859375 10.296875 5.25 
Q 3.515625 12.359375 3.515625 25.140625 
Q 3.515625 37.75 10.34375 45.609375 
Q 17.1875 53.46875 28.21875 53.46875 
z
M 42.234375 30.328125 
Q 41.703125 36.03125 39.75 39.453125 
Q 36.140625 45.796875 27.6875 45.796875 
Q 21.625 45.796875 17.515625 41.421875 
Q 13.421875 37.0625 13.1875 30.328125 
z
M 27.390625 53.5625 
z
" id="Helvetica-101"/>
      <path d="M 13.1875 13.921875 
Q 13.1875 10.109375 15.96875 7.90625 
Q 18.75 5.71875 22.5625 5.71875 
Q 27.203125 5.71875 31.546875 7.859375 
Q 38.875 11.421875 38.875 19.53125 
L 38.875 26.609375 
Q 37.25 25.59375 34.703125 24.90625 
Q 32.171875 24.21875 29.734375 23.921875 
L 24.421875 23.25 
Q 19.625 22.609375 17.234375 21.234375 
Q 13.1875 18.953125 13.1875 13.921875 
z
M 34.46875 31.6875 
Q 37.5 32.078125 38.53125 34.234375 
Q 39.109375 35.40625 39.109375 37.59375 
Q 39.109375 42.09375 35.90625 44.109375 
Q 32.71875 46.140625 26.765625 46.140625 
Q 19.875 46.140625 17 42.4375 
Q 15.375 40.375 14.890625 36.328125 
L 6.6875 36.328125 
Q 6.9375 46 12.96875 49.78125 
Q 19 53.5625 26.953125 53.5625 
Q 36.1875 53.5625 41.9375 50.046875 
Q 47.65625 46.53125 47.65625 39.109375 
L 47.65625 8.984375 
Q 47.65625 7.625 48.21875 6.78125 
Q 48.78125 5.953125 50.59375 5.953125 
Q 51.171875 5.953125 51.90625 6.03125 
Q 52.640625 6.109375 53.46875 6.25 
L 53.46875 -0.25 
Q 51.421875 -0.828125 50.34375 -0.96875 
Q 49.265625 -1.125 47.40625 -1.125 
Q 42.875 -1.125 40.828125 2.09375 
Q 39.75 3.8125 39.3125 6.9375 
Q 36.625 3.421875 31.59375 0.828125 
Q 26.5625 -1.765625 20.515625 -1.765625 
Q 13.234375 -1.765625 8.609375 2.65625 
Q 4 7.078125 4 13.71875 
Q 4 21 8.546875 25 
Q 13.09375 29 20.453125 29.9375 
z
M 27.203125 53.5625 
z
" id="Helvetica-97"/>
      <path d="M 8.203125 66.890625 
L 17.09375 66.890625 
L 17.09375 52.296875 
L 25.4375 52.296875 
L 25.4375 45.125 
L 17.09375 45.125 
L 17.09375 10.984375 
Q 17.09375 8.25 18.953125 7.328125 
Q 19.96875 6.78125 22.359375 6.78125 
Q 23 6.78125 23.734375 6.8125 
Q 24.46875 6.84375 25.4375 6.9375 
L 25.4375 0 
Q 23.921875 -0.4375 22.28125 -0.625 
Q 20.65625 -0.828125 18.75 -0.828125 
Q 12.59375 -0.828125 10.390625 2.3125 
Q 8.203125 5.46875 8.203125 10.5 
L 8.203125 45.125 
L 1.125 45.125 
L 1.125 52.296875 
L 8.203125 52.296875 
z
" id="Helvetica-116"/>
      <path d="M 15.234375 52.296875 
L 15.234375 17.578125 
Q 15.234375 13.578125 16.5 11.03125 
Q 18.84375 6.34375 25.25 6.34375 
Q 34.421875 6.34375 37.75 14.546875 
Q 39.546875 18.953125 39.546875 26.609375 
L 39.546875 52.296875 
L 48.34375 52.296875 
L 48.34375 0 
L 40.046875 0 
L 40.140625 7.71875 
Q 38.421875 4.734375 35.890625 2.6875 
Q 30.859375 -1.421875 23.6875 -1.421875 
Q 12.5 -1.421875 8.453125 6.0625 
Q 6.25 10.0625 6.25 16.75 
L 6.25 52.296875 
z
M 27.296875 53.5625 
z
" id="Helvetica-117"/>
      <path d="M 6.6875 52.296875 
L 15.046875 52.296875 
L 15.046875 43.265625 
Q 16.0625 45.90625 20.0625 49.6875 
Q 24.078125 53.46875 29.296875 53.46875 
Q 29.546875 53.46875 30.125 53.421875 
Q 30.71875 53.375 32.125 53.21875 
L 32.125 43.953125 
Q 31.34375 44.09375 30.6875 44.140625 
Q 30.03125 44.1875 29.25 44.1875 
Q 22.609375 44.1875 19.046875 39.90625 
Q 15.484375 35.640625 15.484375 30.078125 
L 15.484375 0 
L 6.6875 0 
z
" id="Helvetica-114"/>
      <path id="Helvetica-32"/>
      <path d="M 13.28125 71.734375 
L 33.890625 10.640625 
L 54.25 71.734375 
L 65.140625 71.734375 
L 38.96875 0 
L 28.65625 0 
L 2.546875 71.734375 
z
" id="Helvetica-86"/>
      <path d="M 6.6875 71.734375 
L 15.484375 71.734375 
L 15.484375 0 
L 6.6875 0 
z
" id="Helvetica-108"/>
     </defs>
     <g transform="translate(174.290625 286.721094)scale(0.15 -0.15)">
      <use xlink:href="#Helvetica-70"/>
      <use x="61.083984" xlink:href="#Helvetica-101"/>
      <use x="116.699219" xlink:href="#Helvetica-97"/>
      <use x="172.314453" xlink:href="#Helvetica-116"/>
      <use x="200.097656" xlink:href="#Helvetica-117"/>
      <use x="255.712891" xlink:href="#Helvetica-114"/>
      <use x="289.013672" xlink:href="#Helvetica-101"/>
      <use x="344.628906" xlink:href="#Helvetica-32"/>
      <use x="372.412109" xlink:href="#Helvetica-86"/>
      <use x="439.111328" xlink:href="#Helvetica-97"/>
      <use x="494.726562" xlink:href="#Helvetica-108"/>
      <use x="516.943359" xlink:href="#Helvetica-117"/>
      <use x="572.558594" xlink:href="#Helvetica-101"/>
     </g>
    </g>
   </g>
   <g id="matplotlib.axis_2">
    <g id="ytick_1">
     <g id="line2d_18">
      <defs>
       <path d="M 0 0 
L -3.5 0 
" id="m23c9d0c8c8" style="stroke:#000000;stroke-width:0.8;"/>
      </defs>
      <g>
       <use style="stroke:#000000;stroke-width:0.8;" x="54" xlink:href="#m23c9d0c8c8" y="42.923077"/>
      </g>
     </g>
     <g id="text_6">
      <!-- codon_TAG_(+3) -->
      <defs>
       <path d="M 26.609375 53.8125 
Q 35.453125 53.8125 40.984375 49.515625 
Q 46.53125 45.21875 47.65625 34.71875 
L 39.109375 34.71875 
Q 38.328125 39.546875 35.546875 42.75 
Q 32.765625 45.953125 26.609375 45.953125 
Q 18.21875 45.953125 14.59375 37.75 
Q 12.25 32.421875 12.25 24.609375 
Q 12.25 16.75 15.5625 11.375 
Q 18.890625 6 26.03125 6 
Q 31.5 6 34.6875 9.34375 
Q 37.890625 12.703125 39.109375 18.5 
L 47.65625 18.5 
Q 46.1875 8.109375 40.328125 3.296875 
Q 34.46875 -1.515625 25.34375 -1.515625 
Q 15.09375 -1.515625 8.984375 5.984375 
Q 2.875 13.484375 2.875 24.703125 
Q 2.875 38.484375 9.5625 46.140625 
Q 16.265625 53.8125 26.609375 53.8125 
z
M 25.25 53.5625 
z
" id="Helvetica-99"/>
       <path d="M 27.203125 5.671875 
Q 35.9375 5.671875 39.1875 12.28125 
Q 42.4375 18.890625 42.4375 27 
Q 42.4375 34.328125 40.09375 38.921875 
Q 36.375 46.140625 27.296875 46.140625 
Q 19.234375 46.140625 15.578125 39.984375 
Q 11.921875 33.84375 11.921875 25.140625 
Q 11.921875 16.796875 15.578125 11.234375 
Q 19.234375 5.671875 27.203125 5.671875 
z
M 27.546875 53.8125 
Q 37.640625 53.8125 44.625 47.0625 
Q 51.609375 40.328125 51.609375 27.25 
Q 51.609375 14.59375 45.453125 6.34375 
Q 39.3125 -1.90625 26.375 -1.90625 
Q 15.578125 -1.90625 9.21875 5.390625 
Q 2.875 12.703125 2.875 25 
Q 2.875 38.1875 9.5625 46 
Q 16.265625 53.8125 27.546875 53.8125 
z
M 27.25 53.5625 
z
" id="Helvetica-111"/>
       <path d="M 12.015625 25.53125 
Q 12.015625 17.140625 15.578125 11.46875 
Q 19.140625 5.8125 27 5.8125 
Q 33.109375 5.8125 37.03125 11.0625 
Q 40.96875 16.3125 40.96875 26.125 
Q 40.96875 36.03125 36.90625 40.796875 
Q 32.859375 45.5625 26.90625 45.5625 
Q 20.265625 45.5625 16.140625 40.484375 
Q 12.015625 35.40625 12.015625 25.53125 
z
M 25.25 53.21875 
Q 31.25 53.21875 35.296875 50.6875 
Q 37.640625 49.21875 40.625 45.5625 
L 40.625 71.96875 
L 49.078125 71.96875 
L 49.078125 0 
L 41.15625 0 
L 41.15625 7.28125 
Q 38.09375 2.4375 33.890625 0.28125 
Q 29.6875 -1.859375 24.265625 -1.859375 
Q 15.53125 -1.859375 9.125 5.484375 
Q 2.734375 12.84375 2.734375 25.046875 
Q 2.734375 36.46875 8.5625 44.84375 
Q 14.40625 53.21875 25.25 53.21875 
z
" id="Helvetica-100"/>
       <path d="M 6.453125 52.296875 
L 14.796875 52.296875 
L 14.796875 44.875 
Q 18.5 49.46875 22.65625 51.46875 
Q 26.8125 53.46875 31.890625 53.46875 
Q 43.015625 53.46875 46.921875 45.703125 
Q 49.078125 41.453125 49.078125 33.546875 
L 49.078125 0 
L 40.140625 0 
L 40.140625 32.953125 
Q 40.140625 37.75 38.71875 40.671875 
Q 36.375 45.5625 30.21875 45.5625 
Q 27.09375 45.5625 25.09375 44.921875 
Q 21.484375 43.84375 18.75 40.625 
Q 16.546875 38.03125 15.890625 35.265625 
Q 15.234375 32.515625 15.234375 27.390625 
L 15.234375 0 
L 6.453125 0 
z
M 27.09375 53.5625 
z
" id="Helvetica-110"/>
       <path d="M 0 -12.5 
L 0 -7.5625 
L 55.609375 -7.5625 
L 55.609375 -12.5 
z
" id="Helvetica-95"/>
       <path d="M 59.8125 71.734375 
L 59.8125 63.1875 
L 35.640625 63.1875 
L 35.640625 0 
L 25.78125 0 
L 25.78125 63.1875 
L 1.609375 63.1875 
L 1.609375 71.734375 
z
" id="Helvetica-84"/>
       <path d="M 44.4375 29.390625 
L 33.546875 61.078125 
L 21.96875 29.390625 
z
M 28.46875 71.734375 
L 39.453125 71.734375 
L 65.484375 0 
L 54.828125 0 
L 47.5625 21.484375 
L 19.1875 21.484375 
L 11.421875 0 
L 1.46875 0 
z
" id="Helvetica-65"/>
       <path d="M 38.625 73.578125 
Q 48.734375 73.578125 56.109375 69.671875 
Q 66.796875 64.0625 69.1875 50 
L 59.578125 50 
Q 57.8125 57.859375 52.296875 61.453125 
Q 46.78125 65.046875 38.375 65.046875 
Q 28.421875 65.046875 21.609375 57.5625 
Q 14.796875 50.09375 14.796875 35.296875 
Q 14.796875 22.515625 20.40625 14.484375 
Q 26.03125 6.453125 38.71875 6.453125 
Q 48.4375 6.453125 54.8125 12.078125 
Q 61.1875 17.71875 61.328125 30.328125 
L 38.875 30.328125 
L 38.875 38.375 
L 70.359375 38.375 
L 70.359375 0 
L 64.109375 0 
L 61.765625 9.234375 
Q 56.84375 3.8125 53.03125 1.703125 
Q 46.625 -1.90625 36.765625 -1.90625 
Q 24.03125 -1.90625 14.84375 6.34375 
Q 4.828125 16.703125 4.828125 34.765625 
Q 4.828125 52.78125 14.59375 63.421875 
Q 23.875 73.578125 38.625 73.578125 
z
M 37.015625 73.6875 
z
" id="Helvetica-71"/>
       <path d="M 29.59375 72.90625 
Q 21.921875 58.015625 19.625 50.984375 
Q 16.15625 40.28125 16.15625 26.265625 
Q 16.15625 12.109375 20.125 0.390625 
Q 22.5625 -6.84375 29.734375 -20.40625 
L 23.828125 -20.40625 
Q 16.703125 -9.28125 14.984375 -6.203125 
Q 13.28125 -3.125 11.28125 2.15625 
Q 8.546875 9.375 7.46875 17.578125 
Q 6.9375 21.828125 6.9375 25.6875 
Q 6.9375 40.140625 11.46875 51.421875 
Q 14.359375 58.59375 23.484375 72.90625 
z
" id="Helvetica-40"/>
       <path d="M 4.5 21.390625 
L 4.5 29.59375 
L 25.78125 29.59375 
L 25.78125 51.03125 
L 34.125 51.03125 
L 34.125 29.59375 
L 55.421875 29.59375 
L 55.421875 21.390625 
L 34.125 21.390625 
L 34.125 0 
L 25.78125 0 
L 25.78125 21.390625 
z
" id="Helvetica-43"/>
       <path d="M 25.984375 -1.90625 
Q 13.578125 -1.90625 7.984375 4.90625 
Q 2.390625 11.71875 2.390625 21.484375 
L 11.578125 21.484375 
Q 12.15625 14.703125 14.109375 11.625 
Q 17.53125 6.109375 26.46875 6.109375 
Q 33.40625 6.109375 37.59375 9.8125 
Q 41.796875 13.53125 41.796875 19.390625 
Q 41.796875 26.609375 37.375 29.484375 
Q 32.953125 32.375 25.09375 32.375 
Q 24.21875 32.375 23.3125 32.34375 
Q 22.40625 32.328125 21.484375 32.28125 
L 21.484375 40.046875 
Q 22.859375 39.890625 23.78125 39.84375 
Q 24.703125 39.796875 25.78125 39.796875 
Q 30.71875 39.796875 33.890625 41.359375 
Q 39.453125 44.09375 39.453125 51.125 
Q 39.453125 56.34375 35.734375 59.171875 
Q 32.03125 62.015625 27.09375 62.015625 
Q 18.3125 62.015625 14.9375 56.15625 
Q 13.09375 52.9375 12.84375 46.96875 
L 4.15625 46.96875 
Q 4.15625 54.78125 7.28125 60.25 
Q 12.640625 70.015625 26.171875 70.015625 
Q 36.859375 70.015625 42.71875 65.25 
Q 48.578125 60.5 48.578125 51.46875 
Q 48.578125 45.015625 45.125 41.015625 
Q 42.96875 38.53125 39.546875 37.109375 
Q 45.0625 35.59375 48.15625 31.265625 
Q 51.265625 26.953125 51.265625 20.703125 
Q 51.265625 10.6875 44.671875 4.390625 
Q 38.09375 -1.90625 25.984375 -1.90625 
z
" id="Helvetica-51"/>
       <path d="M 3.46875 -20.40625 
Q 11.234375 -5.28125 13.484375 1.65625 
Q 16.890625 12.15625 16.890625 26.265625 
Q 16.890625 40.375 12.9375 52.09375 
Q 10.5 59.328125 3.328125 72.90625 
L 9.234375 72.90625 
Q 16.75 60.890625 18.328125 58.078125 
Q 19.921875 55.28125 21.78125 50.34375 
Q 24.125 44.234375 25.125 38.28125 
Q 26.125 32.328125 26.125 26.8125 
Q 26.125 12.359375 21.53125 1.03125 
Q 18.65625 -6.25 9.578125 -20.40625 
z
" id="Helvetica-41"/>
      </defs>
      <g transform="translate(-60.775938 48.050577)scale(0.14 -0.14)">
       <use xlink:href="#Helvetica-99"/>
       <use x="50" xlink:href="#Helvetica-111"/>
       <use x="105.615234" xlink:href="#Helvetica-100"/>
       <use x="161.230469" xlink:href="#Helvetica-111"/>
       <use x="216.845703" xlink:href="#Helvetica-110"/>
       <use x="272.460938" xlink:href="#Helvetica-95"/>
       <use x="328.076172" xlink:href="#Helvetica-84"/>
       <use x="389.160156" xlink:href="#Helvetica-65"/>
       <use x="455.859375" xlink:href="#Helvetica-71"/>
       <use x="533.642578" xlink:href="#Helvetica-95"/>
       <use x="589.257812" xlink:href="#Helvetica-40"/>
       <use x="622.558594" xlink:href="#Helvetica-43"/>
       <use x="680.957031" xlink:href="#Helvetica-51"/>
       <use x="736.572266" xlink:href="#Helvetica-41"/>
      </g>
     </g>
    </g>
    <g id="ytick_2">
     <g id="line2d_19">
      <g>
       <use style="stroke:#000000;stroke-width:0.8;" x="54" xlink:href="#m23c9d0c8c8" y="59.649231"/>
      </g>
     </g>
     <g id="text_7">
      <!-- codon_TAG_(-2) -->
      <defs>
       <path d="M 4.15625 32.375 
L 28.65625 32.375 
L 28.65625 23.34375 
L 4.15625 23.34375 
z
" id="Helvetica-45"/>
       <path d="M 3.125 0 
Q 3.609375 9.03125 6.859375 15.71875 
Q 10.109375 22.40625 19.53125 27.875 
L 28.90625 33.296875 
Q 35.203125 36.96875 37.75 39.546875 
Q 41.75 43.609375 41.75 48.828125 
Q 41.75 54.9375 38.078125 58.515625 
Q 34.421875 62.109375 28.328125 62.109375 
Q 19.28125 62.109375 15.828125 55.28125 
Q 13.96875 51.609375 13.765625 45.125 
L 4.828125 45.125 
Q 4.984375 54.25 8.203125 60.015625 
Q 13.921875 70.171875 28.375 70.171875 
Q 40.375 70.171875 45.921875 63.671875 
Q 51.46875 57.171875 51.46875 49.21875 
Q 51.46875 40.828125 45.5625 34.859375 
Q 42.140625 31.390625 33.296875 26.46875 
L 26.609375 22.75 
Q 21.828125 20.125 19.09375 17.71875 
Q 14.203125 13.484375 12.9375 8.296875 
L 51.125 8.296875 
L 51.125 0 
L 3.125 0 
z
" id="Helvetica-50"/>
      </defs>
      <g transform="translate(-57.260625 64.776731)scale(0.14 -0.14)">
       <use xlink:href="#Helvetica-99"/>
       <use x="50" xlink:href="#Helvetica-111"/>
       <use x="105.615234" xlink:href="#Helvetica-100"/>
       <use x="161.230469" xlink:href="#Helvetica-111"/>
       <use x="216.845703" xlink:href="#Helvetica-110"/>
       <use x="272.460938" xlink:href="#Helvetica-95"/>
       <use x="328.076172" xlink:href="#Helvetica-84"/>
       <use x="389.160156" xlink:href="#Helvetica-65"/>
       <use x="455.859375" xlink:href="#Helvetica-71"/>
       <use x="533.642578" xlink:href="#Helvetica-95"/>
       <use x="589.257812" xlink:href="#Helvetica-40"/>
       <use x="622.558594" xlink:href="#Helvetica-45"/>
       <use x="655.859375" xlink:href="#Helvetica-50"/>
       <use x="711.474609" xlink:href="#Helvetica-41"/>
      </g>
     </g>
    </g>
    <g id="ytick_3">
     <g id="line2d_20">
      <g>
       <use style="stroke:#000000;stroke-width:0.8;" x="54" xlink:href="#m23c9d0c8c8" y="76.375385"/>
      </g>
     </g>
     <g id="text_8">
      <!-- sigmulon_Sigma32 -->
      <defs>
       <path d="M 11.671875 16.40625 
Q 12.0625 12.015625 13.875 9.671875 
Q 17.1875 5.421875 25.390625 5.421875 
Q 30.28125 5.421875 33.984375 7.546875 
Q 37.703125 9.671875 37.703125 14.109375 
Q 37.703125 17.484375 34.71875 19.234375 
Q 32.8125 20.3125 27.203125 21.734375 
L 20.21875 23.484375 
Q 13.53125 25.140625 10.359375 27.203125 
Q 4.6875 30.765625 4.6875 37.0625 
Q 4.6875 44.484375 10.03125 49.0625 
Q 15.375 53.65625 24.421875 53.65625 
Q 36.234375 53.65625 41.453125 46.734375 
Q 44.734375 42.328125 44.625 37.25 
L 36.328125 37.25 
Q 36.078125 40.234375 34.234375 42.671875 
Q 31.203125 46.140625 23.734375 46.140625 
Q 18.75 46.140625 16.1875 44.234375 
Q 13.625 42.328125 13.625 39.203125 
Q 13.625 35.796875 17 33.734375 
Q 18.953125 32.515625 22.75 31.59375 
L 28.5625 30.171875 
Q 38.03125 27.875 41.265625 25.734375 
Q 46.390625 22.359375 46.390625 15.140625 
Q 46.390625 8.15625 41.09375 3.078125 
Q 35.796875 -2 24.953125 -2 
Q 13.28125 -2 8.421875 3.296875 
Q 3.5625 8.59375 3.21875 16.40625 
z
M 24.65625 53.5625 
z
" id="Helvetica-115"/>
       <path d="M 6.453125 52.046875 
L 15.375 52.046875 
L 15.375 0 
L 6.453125 0 
z
M 6.453125 71.734375 
L 15.375 71.734375 
L 15.375 61.765625 
L 6.453125 61.765625 
z
" id="Helvetica-105"/>
       <path d="M 24.90625 53.21875 
Q 31.0625 53.21875 35.640625 50.203125 
Q 38.140625 48.484375 40.71875 45.21875 
L 40.71875 51.8125 
L 48.828125 51.8125 
L 48.828125 4.25 
Q 48.828125 -5.71875 45.90625 -11.46875 
Q 40.4375 -22.125 25.25 -22.125 
Q 16.796875 -22.125 11.03125 -18.328125 
Q 5.28125 -14.546875 4.59375 -6.5 
L 13.53125 -6.5 
Q 14.15625 -10.015625 16.0625 -11.921875 
Q 19.046875 -14.84375 25.4375 -14.84375 
Q 35.546875 -14.84375 38.671875 -7.71875 
Q 40.53125 -3.515625 40.375 7.28125 
Q 37.75 3.265625 34.03125 1.3125 
Q 30.328125 -0.640625 24.21875 -0.640625 
Q 15.71875 -0.640625 9.34375 5.390625 
Q 2.984375 11.421875 2.984375 25.34375 
Q 2.984375 38.484375 9.40625 45.84375 
Q 15.828125 53.21875 24.90625 53.21875 
z
M 40.71875 26.375 
Q 40.71875 36.078125 36.71875 40.765625 
Q 32.71875 45.453125 26.515625 45.453125 
Q 17.234375 45.453125 13.8125 36.765625 
Q 12.015625 32.125 12.015625 24.609375 
Q 12.015625 15.765625 15.59375 11.15625 
Q 19.1875 6.546875 25.25 6.546875 
Q 34.71875 6.546875 38.578125 15.09375 
Q 40.71875 19.921875 40.71875 26.375 
z
M 25.921875 53.5625 
z
" id="Helvetica-103"/>
       <path d="M 6.453125 52.296875 
L 15.140625 52.296875 
L 15.140625 44.875 
Q 18.265625 48.734375 20.796875 50.484375 
Q 25.140625 53.46875 30.671875 53.46875 
Q 36.921875 53.46875 40.71875 50.390625 
Q 42.875 48.640625 44.625 45.21875 
Q 47.5625 49.421875 51.515625 51.4375 
Q 55.46875 53.46875 60.40625 53.46875 
Q 70.953125 53.46875 74.75 45.84375 
Q 76.8125 41.75 76.8125 34.8125 
L 76.8125 0 
L 67.671875 0 
L 67.671875 36.328125 
Q 67.671875 41.546875 65.0625 43.5 
Q 62.453125 45.453125 58.6875 45.453125 
Q 53.515625 45.453125 49.78125 41.984375 
Q 46.046875 38.53125 46.046875 30.421875 
L 46.046875 0 
L 37.109375 0 
L 37.109375 34.125 
Q 37.109375 39.453125 35.84375 41.890625 
Q 33.84375 45.5625 28.375 45.5625 
Q 23.390625 45.5625 19.3125 41.703125 
Q 15.234375 37.84375 15.234375 27.734375 
L 15.234375 0 
L 6.453125 0 
z
" id="Helvetica-109"/>
       <path d="M 13.96875 23.140625 
Q 14.3125 17.046875 16.84375 13.234375 
Q 21.6875 6.109375 33.890625 6.109375 
Q 39.359375 6.109375 43.84375 7.671875 
Q 52.546875 10.6875 52.546875 18.5 
Q 52.546875 24.359375 48.875 26.859375 
Q 45.171875 29.296875 37.25 31.109375 
L 27.546875 33.296875 
Q 18.015625 35.453125 14.0625 38.03125 
Q 7.234375 42.53125 7.234375 51.46875 
Q 7.234375 61.140625 13.921875 67.328125 
Q 20.609375 73.53125 32.859375 73.53125 
Q 44.140625 73.53125 52.015625 68.078125 
Q 59.90625 62.640625 59.90625 50.6875 
L 50.78125 50.6875 
Q 50.046875 56.453125 47.65625 59.515625 
Q 43.21875 65.140625 32.5625 65.140625 
Q 23.96875 65.140625 20.203125 61.515625 
Q 16.453125 57.90625 16.453125 53.125 
Q 16.453125 47.859375 20.84375 45.40625 
Q 23.734375 43.84375 33.890625 41.5 
L 43.953125 39.203125 
Q 51.21875 37.546875 55.171875 34.671875 
Q 62.015625 29.640625 62.015625 20.0625 
Q 62.015625 8.15625 53.34375 3.03125 
Q 44.671875 -2.09375 33.203125 -2.09375 
Q 19.828125 -2.09375 12.25 4.734375 
Q 4.6875 11.53125 4.828125 23.140625 
z
M 33.59375 73.6875 
z
" id="Helvetica-83"/>
      </defs>
      <g transform="translate(-72.06125 81.53351)scale(0.14 -0.14)">
       <use xlink:href="#Helvetica-115"/>
       <use x="50" xlink:href="#Helvetica-105"/>
       <use x="72.216797" xlink:href="#Helvetica-103"/>
       <use x="127.832031" xlink:href="#Helvetica-109"/>
       <use x="211.132812" xlink:href="#Helvetica-117"/>
       <use x="266.748047" xlink:href="#Helvetica-108"/>
       <use x="288.964844" xlink:href="#Helvetica-111"/>
       <use x="344.580078" xlink:href="#Helvetica-110"/>
       <use x="400.195312" xlink:href="#Helvetica-95"/>
       <use x="455.810547" xlink:href="#Helvetica-83"/>
       <use x="522.509766" xlink:href="#Helvetica-105"/>
       <use x="544.726562" xlink:href="#Helvetica-103"/>
       <use x="600.341797" xlink:href="#Helvetica-109"/>
       <use x="683.642578" xlink:href="#Helvetica-97"/>
       <use x="739.257812" xlink:href="#Helvetica-51"/>
       <use x="794.873047" xlink:href="#Helvetica-50"/>
      </g>
     </g>
    </g>
    <g id="ytick_4">
     <g id="line2d_21">
      <g>
       <use style="stroke:#000000;stroke-width:0.8;" x="54" xlink:href="#m23c9d0c8c8" y="93.101538"/>
      </g>
     </g>
     <g id="text_9">
      <!-- codon_TAG_(+2) -->
      <g transform="translate(-60.775938 98.229038)scale(0.14 -0.14)">
       <use xlink:href="#Helvetica-99"/>
       <use x="50" xlink:href="#Helvetica-111"/>
       <use x="105.615234" xlink:href="#Helvetica-100"/>
       <use x="161.230469" xlink:href="#Helvetica-111"/>
       <use x="216.845703" xlink:href="#Helvetica-110"/>
       <use x="272.460938" xlink:href="#Helvetica-95"/>
       <use x="328.076172" xlink:href="#Helvetica-84"/>
       <use x="389.160156" xlink:href="#Helvetica-65"/>
       <use x="455.859375" xlink:href="#Helvetica-71"/>
       <use x="533.642578" xlink:href="#Helvetica-95"/>
       <use x="589.257812" xlink:href="#Helvetica-40"/>
       <use x="622.558594" xlink:href="#Helvetica-43"/>
       <use x="680.957031" xlink:href="#Helvetica-50"/>
       <use x="736.572266" xlink:href="#Helvetica-41"/>
      </g>
     </g>
    </g>
    <g id="ytick_5">
     <g id="line2d_22">
      <g>
       <use style="stroke:#000000;stroke-width:0.8;" x="54" xlink:href="#m23c9d0c8c8" y="109.827692"/>
      </g>
     </g>
     <g id="text_10">
      <!-- codon_TAG_(-3) -->
      <g transform="translate(-57.260625 114.955192)scale(0.14 -0.14)">
       <use xlink:href="#Helvetica-99"/>
       <use x="50" xlink:href="#Helvetica-111"/>
       <use x="105.615234" xlink:href="#Helvetica-100"/>
       <use x="161.230469" xlink:href="#Helvetica-111"/>
       <use x="216.845703" xlink:href="#Helvetica-110"/>
       <use x="272.460938" xlink:href="#Helvetica-95"/>
       <use x="328.076172" xlink:href="#Helvetica-84"/>
       <use x="389.160156" xlink:href="#Helvetica-65"/>
       <use x="455.859375" xlink:href="#Helvetica-71"/>
       <use x="533.642578" xlink:href="#Helvetica-95"/>
       <use x="589.257812" xlink:href="#Helvetica-40"/>
       <use x="622.558594" xlink:href="#Helvetica-45"/>
       <use x="655.859375" xlink:href="#Helvetica-51"/>
       <use x="711.474609" xlink:href="#Helvetica-41"/>
      </g>
     </g>
    </g>
    <g id="ytick_6">
     <g id="line2d_23">
      <g>
       <use style="stroke:#000000;stroke-width:0.8;" x="54" xlink:href="#m23c9d0c8c8" y="126.553846"/>
      </g>
     </g>
     <g id="text_11">
      <!-- base_G_(-1) -->
      <defs>
       <path d="M 5.765625 71.96875 
L 14.3125 71.96875 
L 14.3125 45.953125 
Q 17.1875 49.703125 21.1875 51.671875 
Q 25.203125 53.65625 29.890625 53.65625 
Q 39.65625 53.65625 45.734375 46.9375 
Q 51.8125 40.234375 51.8125 27.15625 
Q 51.8125 14.75 45.796875 6.546875 
Q 39.796875 -1.65625 29.15625 -1.65625 
Q 23.1875 -1.65625 19.09375 1.21875 
Q 16.65625 2.9375 13.875 6.6875 
L 13.875 0 
L 5.765625 0 
z
M 28.609375 6.109375 
Q 35.75 6.109375 39.28125 11.765625 
Q 42.828125 17.4375 42.828125 26.703125 
Q 42.828125 34.96875 39.28125 40.375 
Q 35.75 45.796875 28.859375 45.796875 
Q 22.859375 45.796875 18.328125 41.359375 
Q 13.8125 36.921875 13.8125 26.703125 
Q 13.8125 19.34375 15.671875 14.75 
Q 19.140625 6.109375 28.609375 6.109375 
z
" id="Helvetica-98"/>
      </defs>
      <g transform="translate(-31.585938 131.681346)scale(0.14 -0.14)">
       <use xlink:href="#Helvetica-98"/>
       <use x="55.615234" xlink:href="#Helvetica-97"/>
       <use x="111.230469" xlink:href="#Helvetica-115"/>
       <use x="161.230469" xlink:href="#Helvetica-101"/>
       <use x="216.845703" xlink:href="#Helvetica-95"/>
       <use x="272.460938" xlink:href="#Helvetica-71"/>
       <use x="350.244141" xlink:href="#Helvetica-95"/>
       <use x="405.859375" xlink:href="#Helvetica-40"/>
       <use x="439.160156" xlink:href="#Helvetica-45"/>
       <use x="472.460938" xlink:href="#Helvetica-49"/>
       <use x="528.076172" xlink:href="#Helvetica-41"/>
      </g>
     </g>
    </g>
    <g id="ytick_7">
     <g id="line2d_24">
      <g>
       <use style="stroke:#000000;stroke-width:0.8;" x="54" xlink:href="#m23c9d0c8c8" y="143.28"/>
      </g>
     </g>
     <g id="text_12">
      <!-- base_T_(-1) -->
      <g transform="translate(-29.2475 148.352812)scale(0.14 -0.14)">
       <use xlink:href="#Helvetica-98"/>
       <use x="55.615234" xlink:href="#Helvetica-97"/>
       <use x="111.230469" xlink:href="#Helvetica-115"/>
       <use x="161.230469" xlink:href="#Helvetica-101"/>
       <use x="216.845703" xlink:href="#Helvetica-95"/>
       <use x="272.460938" xlink:href="#Helvetica-84"/>
       <use x="333.544922" xlink:href="#Helvetica-95"/>
       <use x="389.160156" xlink:href="#Helvetica-40"/>
       <use x="422.460938" xlink:href="#Helvetica-45"/>
       <use x="455.761719" xlink:href="#Helvetica-49"/>
       <use x="511.376953" xlink:href="#Helvetica-41"/>
      </g>
     </g>
    </g>
    <g id="ytick_8">
     <g id="line2d_25">
      <g>
       <use style="stroke:#000000;stroke-width:0.8;" x="54" xlink:href="#m23c9d0c8c8" y="160.006154"/>
      </g>
     </g>
     <g id="text_13">
      <!-- base_T_(+1) -->
      <g transform="translate(-32.762813 165.078966)scale(0.14 -0.14)">
       <use xlink:href="#Helvetica-98"/>
       <use x="55.615234" xlink:href="#Helvetica-97"/>
       <use x="111.230469" xlink:href="#Helvetica-115"/>
       <use x="161.230469" xlink:href="#Helvetica-101"/>
       <use x="216.845703" xlink:href="#Helvetica-95"/>
       <use x="272.460938" xlink:href="#Helvetica-84"/>
       <use x="333.544922" xlink:href="#Helvetica-95"/>
       <use x="389.160156" xlink:href="#Helvetica-40"/>
       <use x="422.460938" xlink:href="#Helvetica-43"/>
       <use x="480.859375" xlink:href="#Helvetica-49"/>
       <use x="536.474609" xlink:href="#Helvetica-41"/>
      </g>
     </g>
    </g>
    <g id="ytick_9">
     <g id="line2d_26">
      <g>
       <use style="stroke:#000000;stroke-width:0.8;" x="54" xlink:href="#m23c9d0c8c8" y="176.732308"/>
      </g>
     </g>
     <g id="text_14">
      <!-- codon_TAG_(-1) -->
      <g transform="translate(-57.260625 181.859808)scale(0.14 -0.14)">
       <use xlink:href="#Helvetica-99"/>
       <use x="50" xlink:href="#Helvetica-111"/>
       <use x="105.615234" xlink:href="#Helvetica-100"/>
       <use x="161.230469" xlink:href="#Helvetica-111"/>
       <use x="216.845703" xlink:href="#Helvetica-110"/>
       <use x="272.460938" xlink:href="#Helvetica-95"/>
       <use x="328.076172" xlink:href="#Helvetica-84"/>
       <use x="389.160156" xlink:href="#Helvetica-65"/>
       <use x="455.859375" xlink:href="#Helvetica-71"/>
       <use x="533.642578" xlink:href="#Helvetica-95"/>
       <use x="589.257812" xlink:href="#Helvetica-40"/>
       <use x="622.558594" xlink:href="#Helvetica-45"/>
       <use x="655.859375" xlink:href="#Helvetica-49"/>
       <use x="711.474609" xlink:href="#Helvetica-41"/>
      </g>
     </g>
    </g>
    <g id="ytick_10">
     <g id="line2d_27">
      <g>
       <use style="stroke:#000000;stroke-width:0.8;" x="54" xlink:href="#m23c9d0c8c8" y="193.458462"/>
      </g>
     </g>
     <g id="text_15">
      <!-- base_A_(+1) -->
      <g transform="translate(-33.550313 198.531274)scale(0.14 -0.14)">
       <use xlink:href="#Helvetica-98"/>
       <use x="55.615234" xlink:href="#Helvetica-97"/>
       <use x="111.230469" xlink:href="#Helvetica-115"/>
       <use x="161.230469" xlink:href="#Helvetica-101"/>
       <use x="216.845703" xlink:href="#Helvetica-95"/>
       <use x="272.460938" xlink:href="#Helvetica-65"/>
       <use x="339.160156" xlink:href="#Helvetica-95"/>
       <use x="394.775391" xlink:href="#Helvetica-40"/>
       <use x="428.076172" xlink:href="#Helvetica-43"/>
       <use x="486.474609" xlink:href="#Helvetica-49"/>
       <use x="542.089844" xlink:href="#Helvetica-41"/>
      </g>
     </g>
    </g>
    <g id="ytick_11">
     <g id="line2d_28">
      <g>
       <use style="stroke:#000000;stroke-width:0.8;" x="54" xlink:href="#m23c9d0c8c8" y="210.184615"/>
      </g>
     </g>
     <g id="text_16">
      <!-- Fis/H-NS/Lrp Regulon -->
      <defs>
       <path d="M 22.75 71.734375 
L 30.171875 71.734375 
L 7.421875 0 
L 0 0 
z
" id="Helvetica-47"/>
       <path d="M 7.859375 71.734375 
L 17.671875 71.734375 
L 17.671875 42.09375 
L 54.984375 42.09375 
L 54.984375 71.734375 
L 64.796875 71.734375 
L 64.796875 0 
L 54.984375 0 
L 54.984375 33.546875 
L 17.671875 33.546875 
L 17.671875 0 
L 7.859375 0 
z
" id="Helvetica-72"/>
       <path d="M 7.625 71.734375 
L 19.09375 71.734375 
L 55.328125 13.625 
L 55.328125 71.734375 
L 64.546875 71.734375 
L 64.546875 0 
L 53.65625 0 
L 16.890625 58.0625 
L 16.890625 0 
L 7.625 0 
z
M 35.453125 71.734375 
z
" id="Helvetica-78"/>
       <path d="M 7.625 71.734375 
L 17.328125 71.734375 
L 17.328125 8.546875 
L 53.65625 8.546875 
L 53.65625 0 
L 7.625 0 
z
" id="Helvetica-76"/>
       <path d="M 28.515625 5.90625 
Q 34.671875 5.90625 38.75 11.0625 
Q 42.828125 16.21875 42.828125 26.46875 
Q 42.828125 32.71875 41.015625 37.203125 
Q 37.59375 45.84375 28.515625 45.84375 
Q 19.390625 45.84375 16.015625 36.71875 
Q 14.203125 31.84375 14.203125 24.3125 
Q 14.203125 18.265625 16.015625 14.015625 
Q 19.4375 5.90625 28.515625 5.90625 
z
M 5.765625 52.046875 
L 14.3125 52.046875 
L 14.3125 45.125 
Q 16.9375 48.6875 20.0625 50.640625 
Q 24.515625 53.5625 30.515625 53.5625 
Q 39.40625 53.5625 45.609375 46.75 
Q 51.8125 39.9375 51.8125 27.296875 
Q 51.8125 10.203125 42.875 2.875 
Q 37.203125 -1.765625 29.6875 -1.765625 
Q 23.78125 -1.765625 19.78125 0.828125 
Q 17.4375 2.296875 14.546875 5.859375 
L 14.546875 -20.84375 
L 5.765625 -20.84375 
z
" id="Helvetica-112"/>
       <path d="M 40.96875 38.875 
Q 47.796875 38.875 51.78125 41.609375 
Q 55.765625 44.34375 55.765625 51.46875 
Q 55.765625 59.125 50.203125 61.921875 
Q 47.21875 63.375 42.234375 63.375 
L 18.5 63.375 
L 18.5 38.875 
z
M 8.796875 71.734375 
L 42 71.734375 
Q 50.203125 71.734375 55.515625 69.34375 
Q 65.625 64.75 65.625 52.390625 
Q 65.625 45.953125 62.953125 41.84375 
Q 60.296875 37.75 55.515625 35.25 
Q 59.71875 33.546875 61.84375 30.765625 
Q 63.96875 27.984375 64.203125 21.734375 
L 64.546875 12.109375 
Q 64.703125 8.015625 65.234375 6 
Q 66.109375 2.59375 68.359375 1.609375 
L 68.359375 0 
L 56.453125 0 
Q 55.953125 0.921875 55.65625 2.390625 
Q 55.375 3.859375 55.171875 8.0625 
L 54.59375 20.015625 
Q 54.25 27.046875 49.359375 29.4375 
Q 46.578125 30.765625 40.625 30.765625 
L 18.5 30.765625 
L 18.5 0 
L 8.796875 0 
z
" id="Helvetica-82"/>
      </defs>
      <g transform="translate(-89.930937 215.34274)scale(0.14 -0.14)">
       <use xlink:href="#Helvetica-70"/>
       <use x="61.083984" xlink:href="#Helvetica-105"/>
       <use x="83.300781" xlink:href="#Helvetica-115"/>
       <use x="133.300781" xlink:href="#Helvetica-47"/>
       <use x="161.083984" xlink:href="#Helvetica-72"/>
       <use x="233.300781" xlink:href="#Helvetica-45"/>
       <use x="266.601562" xlink:href="#Helvetica-78"/>
       <use x="338.818359" xlink:href="#Helvetica-83"/>
       <use x="405.517578" xlink:href="#Helvetica-47"/>
       <use x="433.300781" xlink:href="#Helvetica-76"/>
       <use x="488.916016" xlink:href="#Helvetica-114"/>
       <use x="522.216797" xlink:href="#Helvetica-112"/>
       <use x="577.832031" xlink:href="#Helvetica-32"/>
       <use x="605.615234" xlink:href="#Helvetica-82"/>
       <use x="677.832031" xlink:href="#Helvetica-101"/>
       <use x="733.447266" xlink:href="#Helvetica-103"/>
       <use x="789.0625" xlink:href="#Helvetica-117"/>
       <use x="844.677734" xlink:href="#Helvetica-108"/>
       <use x="866.894531" xlink:href="#Helvetica-111"/>
       <use x="922.509766" xlink:href="#Helvetica-110"/>
      </g>
     </g>
    </g>
    <g id="ytick_12">
     <g id="line2d_29">
      <g>
       <use style="stroke:#000000;stroke-width:0.8;" x="54" xlink:href="#m23c9d0c8c8" y="226.910769"/>
      </g>
     </g>
     <g id="text_17">
      <!-- base_A_(-1) -->
      <g transform="translate(-30.035 231.983582)scale(0.14 -0.14)">
       <use xlink:href="#Helvetica-98"/>
       <use x="55.615234" xlink:href="#Helvetica-97"/>
       <use x="111.230469" xlink:href="#Helvetica-115"/>
       <use x="161.230469" xlink:href="#Helvetica-101"/>
       <use x="216.845703" xlink:href="#Helvetica-95"/>
       <use x="272.460938" xlink:href="#Helvetica-65"/>
       <use x="339.160156" xlink:href="#Helvetica-95"/>
       <use x="394.775391" xlink:href="#Helvetica-40"/>
       <use x="428.076172" xlink:href="#Helvetica-45"/>
       <use x="461.376953" xlink:href="#Helvetica-49"/>
       <use x="516.992188" xlink:href="#Helvetica-41"/>
      </g>
     </g>
    </g>
    <g id="ytick_13">
     <g id="line2d_30">
      <g>
       <use style="stroke:#000000;stroke-width:0.8;" x="54" xlink:href="#m23c9d0c8c8" y="243.636923"/>
      </g>
     </g>
     <g id="text_18">
      <!-- codon_TAG_(+1) -->
      <g transform="translate(-60.775938 248.764423)scale(0.14 -0.14)">
       <use xlink:href="#Helvetica-99"/>
       <use x="50" xlink:href="#Helvetica-111"/>
       <use x="105.615234" xlink:href="#Helvetica-100"/>
       <use x="161.230469" xlink:href="#Helvetica-111"/>
       <use x="216.845703" xlink:href="#Helvetica-110"/>
       <use x="272.460938" xlink:href="#Helvetica-95"/>
       <use x="328.076172" xlink:href="#Helvetica-84"/>
       <use x="389.160156" xlink:href="#Helvetica-65"/>
       <use x="455.859375" xlink:href="#Helvetica-71"/>
       <use x="533.642578" xlink:href="#Helvetica-95"/>
       <use x="589.257812" xlink:href="#Helvetica-40"/>
       <use x="622.558594" xlink:href="#Helvetica-43"/>
       <use x="680.957031" xlink:href="#Helvetica-49"/>
       <use x="736.572266" xlink:href="#Helvetica-41"/>
      </g>
     </g>
    </g>
   </g>
   <g id="PathCollection_2">
    <defs>
     <path d="M 0 3.383948 
C 0.897434 3.383948 1.758231 3.027394 2.392813 2.392813 
C 3.027394 1.758231 3.383948 0.897434 3.383948 0 
C 3.383948 -0.897434 3.027394 -1.758231 2.392813 -2.392813 
C 1.758231 -3.027394 0.897434 -3.383948 0 -3.383948 
C -0.897434 -3.383948 -1.758231 -3.027394 -2.392813 -2.392813 
C -3.027394 -1.758231 -3.383948 -0.897434 -3.383948 0 
C -3.383948 0.897434 -3.027394 1.758231 -2.392813 2.392813 
C -1.758231 3.027394 -0.897434 3.383948 0 3.383948 
z
" id="mc4a7303be1" style="stroke:#ff7f0e;stroke-width:2.025;"/>
    </defs>
    <g clip-path="url(#p8e563b2bdc)">
     <use style="fill:#ff7f0e;stroke:#ff7f0e;stroke-width:2.025;" x="69.218182" xlink:href="#mc4a7303be1" y="43.341231"/>
     <use style="fill:#ff7f0e;stroke:#ff7f0e;stroke-width:2.025;" x="69.218182" xlink:href="#mc4a7303be1" y="60.067385"/>
     <use style="fill:#ff7f0e;stroke:#ff7f0e;stroke-width:2.025;" x="97.594547" xlink:href="#mc4a7303be1" y="76.793538"/>
     <use style="fill:#ff7f0e;stroke:#ff7f0e;stroke-width:2.025;" x="69.218182" xlink:href="#mc4a7303be1" y="93.519692"/>
     <use style="fill:#ff7f0e;stroke:#ff7f0e;stroke-width:2.025;" x="69.218182" xlink:href="#mc4a7303be1" y="110.245846"/>
     <use style="fill:#ff7f0e;stroke:#ff7f0e;stroke-width:2.025;" x="214.126559" xlink:href="#mc4a7303be1" y="126.972"/>
     <use style="fill:#ff7f0e;stroke:#ff7f0e;stroke-width:2.025;" x="188.401469" xlink:href="#mc4a7303be1" y="143.698154"/>
     <use style="fill:#ff7f0e;stroke:#ff7f0e;stroke-width:2.025;" x="224.761677" xlink:href="#mc4a7303be1" y="160.424308"/>
     <use style="fill:#ff7f0e;stroke:#ff7f0e;stroke-width:2.025;" x="70.993883" xlink:href="#mc4a7303be1" y="177.150462"/>
     <use style="fill:#ff7f0e;stroke:#ff7f0e;stroke-width:2.025;" x="188.401469" xlink:href="#mc4a7303be1" y="193.876615"/>
     <use style="fill:#ff7f0e;stroke:#ff7f0e;stroke-width:2.025;" x="80.713156" xlink:href="#mc4a7303be1" y="210.602769"/>
     <use style="fill:#ff7f0e;stroke:#ff7f0e;stroke-width:2.025;" x="224.761677" xlink:href="#mc4a7303be1" y="227.328923"/>
     <use style="fill:#ff7f0e;stroke:#ff7f0e;stroke-width:2.025;" x="70.993883" xlink:href="#mc4a7303be1" y="244.055077"/>
    </g>
   </g>
   <g id="line2d_31">
    <path clip-path="url(#p8e563b2bdc)" d="M 69.218182 43.341231 
L 69.218182 43.341231 
" style="fill:none;stroke:#ff7f0e;stroke-linecap:square;stroke-width:2.7;"/>
   </g>
   <g id="line2d_32">
    <path clip-path="url(#p8e563b2bdc)" d="M 69.218182 60.067385 
L 69.218182 60.067385 
" style="fill:none;stroke:#ff7f0e;stroke-linecap:square;stroke-width:2.7;"/>
   </g>
   <g id="line2d_33">
    <path clip-path="url(#p8e563b2bdc)" d="M 87.598218 76.793538 
L 107.117188 76.793538 
" style="fill:none;stroke:#ff7f0e;stroke-linecap:square;stroke-width:2.7;"/>
   </g>
   <g id="line2d_34">
    <path clip-path="url(#p8e563b2bdc)" d="M 69.218182 93.519692 
L 69.218182 93.519692 
" style="fill:none;stroke:#ff7f0e;stroke-linecap:square;stroke-width:2.7;"/>
   </g>
   <g id="line2d_35">
    <path clip-path="url(#p8e563b2bdc)" d="M 69.218182 110.245846 
L 69.218182 110.245846 
" style="fill:none;stroke:#ff7f0e;stroke-linecap:square;stroke-width:2.7;"/>
   </g>
   <g id="line2d_36">
    <path clip-path="url(#p8e563b2bdc)" d="M 206.684647 126.972 
L 221.511853 126.972 
" style="fill:none;stroke:#ff7f0e;stroke-linecap:square;stroke-width:2.7;"/>
   </g>
   <g id="line2d_37">
    <path clip-path="url(#p8e563b2bdc)" d="M 182.899703 143.698154 
L 194.169146 143.698154 
" style="fill:none;stroke:#ff7f0e;stroke-linecap:square;stroke-width:2.7;"/>
   </g>
   <g id="line2d_38">
    <path clip-path="url(#p8e563b2bdc)" d="M 217.599352 160.424308 
L 232.65148 160.424308 
" style="fill:none;stroke:#ff7f0e;stroke-linecap:square;stroke-width:2.7;"/>
   </g>
   <g id="line2d_39">
    <path clip-path="url(#p8e563b2bdc)" d="M 69.218182 177.150462 
L 76.320987 177.150462 
" style="fill:none;stroke:#ff7f0e;stroke-linecap:square;stroke-width:2.7;"/>
   </g>
   <g id="line2d_40">
    <path clip-path="url(#p8e563b2bdc)" d="M 182.910535 193.876615 
L 194.474367 193.876615 
" style="fill:none;stroke:#ff7f0e;stroke-linecap:square;stroke-width:2.7;"/>
   </g>
   <g id="line2d_41">
    <path clip-path="url(#p8e563b2bdc)" d="M 73.645786 210.602769 
L 89.407687 210.602769 
" style="fill:none;stroke:#ff7f0e;stroke-linecap:square;stroke-width:2.7;"/>
   </g>
   <g id="line2d_42">
    <path clip-path="url(#p8e563b2bdc)" d="M 217.651148 227.328923 
L 231.612992 227.328923 
" style="fill:none;stroke:#ff7f0e;stroke-linecap:square;stroke-width:2.7;"/>
   </g>
   <g id="line2d_43">
    <path clip-path="url(#p8e563b2bdc)" d="M 69.218182 244.055077 
L 74.545285 244.055077 
" style="fill:none;stroke:#ff7f0e;stroke-linecap:square;stroke-width:2.7;"/>
   </g>
   <g id="patch_3">
    <path d="M 54 252 
L 54 34.56 
" style="fill:none;stroke:#000000;stroke-linecap:square;stroke-linejoin:miter;stroke-width:0.8;"/>
   </g>
   <g id="patch_4">
    <path d="M 388.8 252 
L 388.8 34.56 
" style="fill:none;stroke:#000000;stroke-linecap:square;stroke-linejoin:miter;stroke-width:0.8;"/>
   </g>
   <g id="patch_5">
    <path d="M 54 252 
L 388.8 252 
" style="fill:none;stroke:#000000;stroke-linecap:square;stroke-linejoin:miter;stroke-width:0.8;"/>
   </g>
   <g id="patch_6">
    <path d="M 54 34.56 
L 388.8 34.56 
" style="fill:none;stroke:#000000;stroke-linecap:square;stroke-linejoin:miter;stroke-width:0.8;"/>
   </g>
   <g id="legend_1">
    <g id="patch_7">
     <path d="M 283.627188 85.681875 
L 379 85.681875 
Q 381.8 85.681875 381.8 82.881875 
L 381.8 44.36 
Q 381.8 41.56 379 41.56 
L 283.627188 41.56 
Q 280.827188 41.56 280.827188 44.36 
L 280.827188 82.881875 
Q 280.827188 85.681875 283.627188 85.681875 
z
" style="fill:#ffffff;opacity:0.8;stroke:#cccccc;stroke-linejoin:miter;"/>
    </g>
    <g id="PathCollection_3">
     <g>
      <use style="fill:#1f77b4;stroke:#1f77b4;stroke-width:2.025;" x="300.427188" xlink:href="#mcc3a18bdf9" y="53.527812"/>
     </g>
    </g>
    <g id="text_19">
     <!-- SNP -->
     <defs>
      <path d="M 8.546875 71.734375 
L 40.828125 71.734375 
Q 50.390625 71.734375 56.25 66.328125 
Q 62.109375 60.9375 62.109375 51.171875 
Q 62.109375 42.78125 56.875 36.546875 
Q 51.65625 30.328125 40.828125 30.328125 
L 18.265625 30.328125 
L 18.265625 0 
L 8.546875 0 
z
M 52.296875 51.125 
Q 52.296875 59.03125 46.4375 61.859375 
Q 43.21875 63.375 37.59375 63.375 
L 18.265625 63.375 
L 18.265625 38.53125 
L 37.59375 38.53125 
Q 44.140625 38.53125 48.21875 41.3125 
Q 52.296875 44.09375 52.296875 51.125 
z
" id="Helvetica-80"/>
     </defs>
     <g transform="translate(325.627188 57.202812)scale(0.14 -0.14)">
      <use xlink:href="#Helvetica-83"/>
      <use x="66.699219" xlink:href="#Helvetica-78"/>
      <use x="138.916016" xlink:href="#Helvetica-80"/>
     </g>
    </g>
    <g id="PathCollection_4">
     <g>
      <use style="fill:#ff7f0e;stroke:#ff7f0e;stroke-width:2.025;" x="300.427188" xlink:href="#mc4a7303be1" y="73.48875"/>
     </g>
    </g>
    <g id="text_20">
     <!-- No SNP -->
     <g transform="translate(325.627188 77.16375)scale(0.14 -0.14)">
      <use xlink:href="#Helvetica-78"/>
      <use x="72.216797" xlink:href="#Helvetica-111"/>
      <use x="127.832031" xlink:href="#Helvetica-32"/>
      <use x="155.615234" xlink:href="#Helvetica-83"/>
      <use x="222.314453" xlink:href="#Helvetica-78"/>
      <use x="294.53125" xlink:href="#Helvetica-80"/>
     </g>
    </g>
   </g>
  </g>
 </g>
 <defs>
  <clipPath id="p8e563b2bdc">
   <rect height="217.44" width="334.8" x="54" y="34.56"/>
  </clipPath>
 </defs>
</svg>
