<?xml version="1.0" encoding="utf-8" standalone="no"?>
<!DOCTYPE svg PUBLIC "-//W3C//DTD SVG 1.1//EN"
  "http://www.w3.org/Graphics/SVG/1.1/DTD/svg11.dtd">
<!-- Created with matplotlib (https://matplotlib.org/) -->
<svg height="576pt" version="1.1" viewBox="0 0 864 576" width="864pt" xmlns="http://www.w3.org/2000/svg" xmlns:xlink="http://www.w3.org/1999/xlink">
 <defs>
  <style type="text/css">
*{stroke-linecap:butt;stroke-linejoin:round;}
  </style>
 </defs>
 <g id="figure_1">
  <g id="patch_1">
   <path d="M 0 576 
L 864 576 
L 864 0 
L 0 0 
z
" style="fill:#ffffff;"/>
  </g>
  <g id="axes_1">
   <g id="patch_2">
    <path d="M 93.98 110.355686 
L 853.2 110.355686 
L 853.2 40.56 
L 93.98 40.56 
z
" style="fill:#ffffff;"/>
   </g>
   <g id="patch_3">
    <path clip-path="url(#p26aacba131)" d="M 175.040443 110.355686 
L 187.139256 110.355686 
L 187.139256 108.506386 
L 175.040443 108.506386 
z
" style="fill:#1f77b4;opacity:0.4;"/>
   </g>
   <g id="patch_4">
    <path clip-path="url(#p26aacba131)" d="M 187.139256 110.355686 
L 199.238068 110.355686 
L 199.238068 109.739253 
L 187.139256 109.739253 
z
" style="fill:#1f77b4;opacity:0.4;"/>
   </g>
   <g id="patch_5">
    <path clip-path="url(#p26aacba131)" d="M 199.238068 110.355686 
L 211.336881 110.355686 
L 211.336881 107.889952 
L 199.238068 107.889952 
z
" style="fill:#1f77b4;opacity:0.4;"/>
   </g>
   <g id="patch_6">
    <path clip-path="url(#p26aacba131)" d="M 211.336881 110.355686 
L 223.435694 110.355686 
L 223.435694 108.609125 
L 211.336881 108.609125 
z
" style="fill:#1f77b4;opacity:0.4;"/>
   </g>
   <g id="patch_7">
    <path clip-path="url(#p26aacba131)" d="M 223.435694 110.355686 
L 235.534507 110.355686 
L 235.534507 109.944731 
L 223.435694 109.944731 
z
" style="fill:#1f77b4;opacity:0.4;"/>
   </g>
   <g id="patch_8">
    <path clip-path="url(#p26aacba131)" d="M 235.534507 110.355686 
L 247.63332 110.355686 
L 247.63332 109.533775 
L 235.534507 109.533775 
z
" style="fill:#1f77b4;opacity:0.4;"/>
   </g>
   <g id="patch_9">
    <path clip-path="url(#p26aacba131)" d="M 247.63332 110.355686 
L 259.732133 110.355686 
L 259.732133 110.04747 
L 247.63332 110.04747 
z
" style="fill:#1f77b4;opacity:0.4;"/>
   </g>
   <g id="patch_10">
    <path clip-path="url(#p26aacba131)" d="M 259.732133 110.355686 
L 271.830946 110.355686 
L 271.830946 109.739253 
L 259.732133 109.739253 
z
" style="fill:#1f77b4;opacity:0.4;"/>
   </g>
   <g id="patch_11">
    <path clip-path="url(#p26aacba131)" d="M 271.830946 110.355686 
L 283.929758 110.355686 
L 283.929758 110.04747 
L 271.830946 110.04747 
z
" style="fill:#1f77b4;opacity:0.4;"/>
   </g>
   <g id="patch_12">
    <path clip-path="url(#p26aacba131)" d="M 283.929758 110.355686 
L 296.028571 110.355686 
L 296.028571 110.252947 
L 283.929758 110.252947 
z
" style="fill:#1f77b4;opacity:0.4;"/>
   </g>
   <g id="patch_13">
    <path clip-path="url(#p26aacba131)" d="M 296.028571 110.355686 
L 308.127384 110.355686 
L 308.127384 109.944731 
L 296.028571 109.944731 
z
" style="fill:#1f77b4;opacity:0.4;"/>
   </g>
   <g id="patch_14">
    <path clip-path="url(#p26aacba131)" d="M 308.127384 110.355686 
L 320.226197 110.355686 
L 320.226197 110.355686 
L 308.127384 110.355686 
z
" style="fill:#1f77b4;opacity:0.4;"/>
   </g>
   <g id="patch_15">
    <path clip-path="url(#p26aacba131)" d="M 320.226197 110.355686 
L 332.32501 110.355686 
L 332.32501 110.150208 
L 320.226197 110.150208 
z
" style="fill:#1f77b4;opacity:0.4;"/>
   </g>
   <g id="patch_16">
    <path clip-path="url(#p26aacba131)" d="M 332.32501 110.355686 
L 344.423823 110.355686 
L 344.423823 110.04747 
L 332.32501 110.04747 
z
" style="fill:#1f77b4;opacity:0.4;"/>
   </g>
   <g id="patch_17">
    <path clip-path="url(#p26aacba131)" d="M 344.423823 110.355686 
L 356.522636 110.355686 
L 356.522636 110.355686 
L 344.423823 110.355686 
z
" style="fill:#1f77b4;opacity:0.4;"/>
   </g>
   <g id="patch_18">
    <path clip-path="url(#p26aacba131)" d="M 356.522636 110.355686 
L 368.621448 110.355686 
L 368.621448 109.739253 
L 356.522636 109.739253 
z
" style="fill:#1f77b4;opacity:0.4;"/>
   </g>
   <g id="patch_19">
    <path clip-path="url(#p26aacba131)" d="M 368.621448 110.355686 
L 380.720261 110.355686 
L 380.720261 110.150208 
L 368.621448 110.150208 
z
" style="fill:#1f77b4;opacity:0.4;"/>
   </g>
   <g id="patch_20">
    <path clip-path="url(#p26aacba131)" d="M 380.720261 110.355686 
L 392.819074 110.355686 
L 392.819074 110.04747 
L 380.720261 110.04747 
z
" style="fill:#1f77b4;opacity:0.4;"/>
   </g>
   <g id="patch_21">
    <path clip-path="url(#p26aacba131)" d="M 392.819074 110.355686 
L 404.917887 110.355686 
L 404.917887 109.431036 
L 392.819074 109.431036 
z
" style="fill:#1f77b4;opacity:0.4;"/>
   </g>
   <g id="patch_22">
    <path clip-path="url(#p26aacba131)" d="M 404.917887 110.355686 
L 417.0167 110.355686 
L 417.0167 109.533775 
L 404.917887 109.533775 
z
" style="fill:#1f77b4;opacity:0.4;"/>
   </g>
   <g id="patch_23">
    <path clip-path="url(#p26aacba131)" d="M 417.0167 110.355686 
L 429.115513 110.355686 
L 429.115513 100.903706 
L 417.0167 100.903706 
z
" style="fill:#1f77b4;opacity:0.4;"/>
   </g>
   <g id="patch_24">
    <path clip-path="url(#p26aacba131)" d="M 429.115513 110.355686 
L 441.214326 110.355686 
L 441.214326 99.157144 
L 429.115513 99.157144 
z
" style="fill:#1f77b4;opacity:0.4;"/>
   </g>
   <g id="patch_25">
    <path clip-path="url(#p26aacba131)" d="M 441.214326 110.355686 
L 453.313138 110.355686 
L 453.313138 105.321479 
L 441.214326 105.321479 
z
" style="fill:#1f77b4;opacity:0.4;"/>
   </g>
   <g id="patch_26">
    <path clip-path="url(#p26aacba131)" d="M 453.313138 110.355686 
L 465.411951 110.355686 
L 465.411951 61.143743 
L 453.313138 61.143743 
z
" style="fill:#1f77b4;opacity:0.4;"/>
   </g>
   <g id="patch_27">
    <path clip-path="url(#p26aacba131)" d="M 465.411951 110.355686 
L 477.510764 110.355686 
L 477.510764 43.883604 
L 465.411951 43.883604 
z
" style="fill:#1f77b4;opacity:0.4;"/>
   </g>
   <g id="patch_28">
    <path clip-path="url(#p26aacba131)" d="M 477.510764 110.355686 
L 489.609577 110.355686 
L 489.609577 83.643567 
L 477.510764 83.643567 
z
" style="fill:#1f77b4;opacity:0.4;"/>
   </g>
   <g id="patch_29">
    <path clip-path="url(#p26aacba131)" d="M 489.609577 110.355686 
L 501.70839 110.355686 
L 501.70839 71.006679 
L 489.609577 71.006679 
z
" style="fill:#1f77b4;opacity:0.4;"/>
   </g>
   <g id="patch_30">
    <path clip-path="url(#p26aacba131)" d="M 501.70839 110.355686 
L 513.807203 110.355686 
L 513.807203 84.054522 
L 501.70839 84.054522 
z
" style="fill:#1f77b4;opacity:0.4;"/>
   </g>
   <g id="patch_31">
    <path clip-path="url(#p26aacba131)" d="M 513.807203 110.355686 
L 525.906016 110.355686 
L 525.906016 88.164079 
L 513.807203 88.164079 
z
" style="fill:#1f77b4;opacity:0.4;"/>
   </g>
   <g id="patch_32">
    <path clip-path="url(#p26aacba131)" d="M 525.906016 110.355686 
L 538.004828 110.355686 
L 538.004828 72.85598 
L 525.906016 72.85598 
z
" style="fill:#1f77b4;opacity:0.4;"/>
   </g>
   <g id="patch_33">
    <path clip-path="url(#p26aacba131)" d="M 538.004828 110.355686 
L 550.103641 110.355686 
L 550.103641 91.040769 
L 538.004828 91.040769 
z
" style="fill:#1f77b4;opacity:0.4;"/>
   </g>
   <g id="patch_34">
    <path clip-path="url(#p26aacba131)" d="M 550.103641 110.355686 
L 562.202454 110.355686 
L 562.202454 86.109301 
L 550.103641 86.109301 
z
" style="fill:#1f77b4;opacity:0.4;"/>
   </g>
   <g id="patch_35">
    <path clip-path="url(#p26aacba131)" d="M 562.202454 110.355686 
L 574.301267 110.355686 
L 574.301267 84.465478 
L 562.202454 84.465478 
z
" style="fill:#1f77b4;opacity:0.4;"/>
   </g>
   <g id="patch_36">
    <path clip-path="url(#p26aacba131)" d="M 574.301267 110.355686 
L 586.40008 110.355686 
L 586.40008 99.773577 
L 574.301267 99.773577 
z
" style="fill:#1f77b4;opacity:0.4;"/>
   </g>
   <g id="patch_37">
    <path clip-path="url(#p26aacba131)" d="M 586.40008 110.355686 
L 598.498893 110.355686 
L 598.498893 96.588671 
L 586.40008 96.588671 
z
" style="fill:#1f77b4;opacity:0.4;"/>
   </g>
   <g id="patch_38">
    <path clip-path="url(#p26aacba131)" d="M 598.498893 110.355686 
L 610.597705 110.355686 
L 610.597705 102.547528 
L 598.498893 102.547528 
z
" style="fill:#1f77b4;opacity:0.4;"/>
   </g>
   <g id="patch_39">
    <path clip-path="url(#p26aacba131)" d="M 610.597705 110.355686 
L 622.696518 110.355686 
L 622.696518 105.629696 
L 610.597705 105.629696 
z
" style="fill:#1f77b4;opacity:0.4;"/>
   </g>
   <g id="patch_40">
    <path clip-path="url(#p26aacba131)" d="M 622.696518 110.355686 
L 634.795331 110.355686 
L 634.795331 105.629696 
L 622.696518 105.629696 
z
" style="fill:#1f77b4;opacity:0.4;"/>
   </g>
   <g id="patch_41">
    <path clip-path="url(#p26aacba131)" d="M 634.795331 110.355686 
L 646.894144 110.355686 
L 646.894144 108.506386 
L 634.795331 108.506386 
z
" style="fill:#1f77b4;opacity:0.4;"/>
   </g>
   <g id="patch_42">
    <path clip-path="url(#p26aacba131)" d="M 646.894144 110.355686 
L 658.992957 110.355686 
L 658.992957 108.711864 
L 646.894144 108.711864 
z
" style="fill:#1f77b4;opacity:0.4;"/>
   </g>
   <g id="patch_43">
    <path clip-path="url(#p26aacba131)" d="M 658.992957 110.355686 
L 671.09177 110.355686 
L 671.09177 108.814602 
L 658.992957 108.814602 
z
" style="fill:#1f77b4;opacity:0.4;"/>
   </g>
   <g id="patch_44">
    <path clip-path="url(#p26aacba131)" d="M 671.09177 110.355686 
L 683.190583 110.355686 
L 683.190583 109.431036 
L 671.09177 109.431036 
z
" style="fill:#1f77b4;opacity:0.4;"/>
   </g>
   <g id="patch_45">
    <path clip-path="url(#p26aacba131)" d="M 683.190583 110.355686 
L 695.289395 110.355686 
L 695.289395 109.533775 
L 683.190583 109.533775 
z
" style="fill:#1f77b4;opacity:0.4;"/>
   </g>
   <g id="patch_46">
    <path clip-path="url(#p26aacba131)" d="M 695.289395 110.355686 
L 707.388208 110.355686 
L 707.388208 109.944731 
L 695.289395 109.944731 
z
" style="fill:#1f77b4;opacity:0.4;"/>
   </g>
   <g id="patch_47">
    <path clip-path="url(#p26aacba131)" d="M 707.388208 110.355686 
L 719.487021 110.355686 
L 719.487021 110.355686 
L 707.388208 110.355686 
z
" style="fill:#1f77b4;opacity:0.4;"/>
   </g>
   <g id="patch_48">
    <path clip-path="url(#p26aacba131)" d="M 719.487021 110.355686 
L 731.585834 110.355686 
L 731.585834 110.252947 
L 719.487021 110.252947 
z
" style="fill:#1f77b4;opacity:0.4;"/>
   </g>
   <g id="patch_49">
    <path clip-path="url(#p26aacba131)" d="M 731.585834 110.355686 
L 743.684647 110.355686 
L 743.684647 110.252947 
L 731.585834 110.252947 
z
" style="fill:#1f77b4;opacity:0.4;"/>
   </g>
   <g id="patch_50">
    <path clip-path="url(#p26aacba131)" d="M 743.684647 110.355686 
L 755.78346 110.355686 
L 755.78346 110.252947 
L 743.684647 110.252947 
z
" style="fill:#1f77b4;opacity:0.4;"/>
   </g>
   <g id="patch_51">
    <path clip-path="url(#p26aacba131)" d="M 755.78346 110.355686 
L 767.882273 110.355686 
L 767.882273 110.355686 
L 755.78346 110.355686 
z
" style="fill:#1f77b4;opacity:0.4;"/>
   </g>
   <g id="patch_52">
    <path clip-path="url(#p26aacba131)" d="M 767.882273 110.355686 
L 779.981085 110.355686 
L 779.981085 110.252947 
L 767.882273 110.252947 
z
" style="fill:#1f77b4;opacity:0.4;"/>
   </g>
   <g id="matplotlib.axis_1">
    <g id="xtick_1">
     <g id="line2d_1">
      <defs>
       <path d="M 0 0 
L 0 3.5 
" id="m2da7e14b6a" style="stroke:#000000;stroke-width:0.8;"/>
      </defs>
      <g>
       <use style="stroke:#000000;stroke-width:0.8;" x="111.682819" xlink:href="#m2da7e14b6a" y="110.355686"/>
      </g>
     </g>
    </g>
    <g id="xtick_2">
     <g id="line2d_2">
      <g>
       <use style="stroke:#000000;stroke-width:0.8;" x="270.076878" xlink:href="#m2da7e14b6a" y="110.355686"/>
      </g>
     </g>
    </g>
    <g id="xtick_3">
     <g id="line2d_3">
      <g>
       <use style="stroke:#000000;stroke-width:0.8;" x="428.470937" xlink:href="#m2da7e14b6a" y="110.355686"/>
      </g>
     </g>
    </g>
    <g id="xtick_4">
     <g id="line2d_4">
      <g>
       <use style="stroke:#000000;stroke-width:0.8;" x="586.864996" xlink:href="#m2da7e14b6a" y="110.355686"/>
      </g>
     </g>
    </g>
    <g id="xtick_5">
     <g id="line2d_5">
      <g>
       <use style="stroke:#000000;stroke-width:0.8;" x="745.259055" xlink:href="#m2da7e14b6a" y="110.355686"/>
      </g>
     </g>
    </g>
   </g>
   <g id="matplotlib.axis_2">
    <g id="ytick_1">
     <g id="line2d_6">
      <defs>
       <path d="M 0 0 
L -3.5 0 
" id="m535004f536" style="stroke:#000000;stroke-width:0.8;"/>
      </defs>
      <g>
       <use style="stroke:#000000;stroke-width:0.8;" x="93.98" xlink:href="#m535004f536" y="110.355686"/>
      </g>
     </g>
     <g id="text_1">
      <!-- 0.00 -->
      <defs>
       <path d="M 31.78125 66.40625 
Q 24.171875 66.40625 20.328125 58.90625 
Q 16.5 51.421875 16.5 36.375 
Q 16.5 21.390625 20.328125 13.890625 
Q 24.171875 6.390625 31.78125 6.390625 
Q 39.453125 6.390625 43.28125 13.890625 
Q 47.125 21.390625 47.125 36.375 
Q 47.125 51.421875 43.28125 58.90625 
Q 39.453125 66.40625 31.78125 66.40625 
z
M 31.78125 74.21875 
Q 44.046875 74.21875 50.515625 64.515625 
Q 56.984375 54.828125 56.984375 36.375 
Q 56.984375 17.96875 50.515625 8.265625 
Q 44.046875 -1.421875 31.78125 -1.421875 
Q 19.53125 -1.421875 13.0625 8.265625 
Q 6.59375 17.96875 6.59375 36.375 
Q 6.59375 54.828125 13.0625 64.515625 
Q 19.53125 74.21875 31.78125 74.21875 
z
" id="DejaVuSans-48"/>
       <path d="M 10.6875 12.40625 
L 21 12.40625 
L 21 0 
L 10.6875 0 
z
" id="DejaVuSans-46"/>
      </defs>
      <g transform="translate(31.315938 119.853733)scale(0.25 -0.25)">
       <use xlink:href="#DejaVuSans-48"/>
       <use x="63.623047" xlink:href="#DejaVuSans-46"/>
       <use x="95.410156" xlink:href="#DejaVuSans-48"/>
       <use x="159.033203" xlink:href="#DejaVuSans-48"/>
      </g>
     </g>
    </g>
    <g id="ytick_2">
     <g id="line2d_7">
      <g>
       <use style="stroke:#000000;stroke-width:0.8;" x="93.98" xlink:href="#m535004f536" y="69.763787"/>
      </g>
     </g>
     <g id="text_2">
      <!-- 0.25 -->
      <defs>
       <path d="M 19.1875 8.296875 
L 53.609375 8.296875 
L 53.609375 0 
L 7.328125 0 
L 7.328125 8.296875 
Q 12.9375 14.109375 22.625 23.890625 
Q 32.328125 33.6875 34.8125 36.53125 
Q 39.546875 41.84375 41.421875 45.53125 
Q 43.3125 49.21875 43.3125 52.78125 
Q 43.3125 58.59375 39.234375 62.25 
Q 35.15625 65.921875 28.609375 65.921875 
Q 23.96875 65.921875 18.8125 64.3125 
Q 13.671875 62.703125 7.8125 59.421875 
L 7.8125 69.390625 
Q 13.765625 71.78125 18.9375 73 
Q 24.125 74.21875 28.421875 74.21875 
Q 39.75 74.21875 46.484375 68.546875 
Q 53.21875 62.890625 53.21875 53.421875 
Q 53.21875 48.921875 51.53125 44.890625 
Q 49.859375 40.875 45.40625 35.40625 
Q 44.1875 33.984375 37.640625 27.21875 
Q 31.109375 20.453125 19.1875 8.296875 
z
" id="DejaVuSans-50"/>
       <path d="M 10.796875 72.90625 
L 49.515625 72.90625 
L 49.515625 64.59375 
L 19.828125 64.59375 
L 19.828125 46.734375 
Q 21.96875 47.46875 24.109375 47.828125 
Q 26.265625 48.1875 28.421875 48.1875 
Q 40.625 48.1875 47.75 41.5 
Q 54.890625 34.8125 54.890625 23.390625 
Q 54.890625 11.625 47.5625 5.09375 
Q 40.234375 -1.421875 26.90625 -1.421875 
Q 22.3125 -1.421875 17.546875 -0.640625 
Q 12.796875 0.140625 7.71875 1.703125 
L 7.71875 11.625 
Q 12.109375 9.234375 16.796875 8.0625 
Q 21.484375 6.890625 26.703125 6.890625 
Q 35.15625 6.890625 40.078125 11.328125 
Q 45.015625 15.765625 45.015625 23.390625 
Q 45.015625 31 40.078125 35.4375 
Q 35.15625 39.890625 26.703125 39.890625 
Q 22.75 39.890625 18.8125 39.015625 
Q 14.890625 38.140625 10.796875 36.28125 
z
" id="DejaVuSans-53"/>
      </defs>
      <g transform="translate(31.315938 79.261834)scale(0.25 -0.25)">
       <use xlink:href="#DejaVuSans-48"/>
       <use x="63.623047" xlink:href="#DejaVuSans-46"/>
       <use x="95.410156" xlink:href="#DejaVuSans-50"/>
       <use x="159.033203" xlink:href="#DejaVuSans-53"/>
      </g>
     </g>
    </g>
   </g>
   <g id="line2d_8">
    <path clip-path="url(#p26aacba131)" d="M 136.331528 110.349881 
L 143.224038 110.329943 
L 150.116548 110.269027 
L 157.009058 110.133178 
L 163.901567 109.915792 
L 170.794077 109.67252 
L 177.686587 109.484357 
L 184.579097 109.35957 
L 191.471607 109.214419 
L 198.364117 108.996763 
L 205.256626 108.793663 
L 212.149136 108.756506 
L 219.041646 108.932126 
L 225.934156 109.219033 
L 232.826666 109.482812 
L 239.719175 109.666195 
L 246.611685 109.783262 
L 253.504195 109.855632 
L 260.396705 109.891957 
L 267.289215 109.91266 
L 274.181725 109.948936 
L 281.074234 110.006145 
L 287.966744 110.058575 
L 294.859254 110.090061 
L 301.751764 110.11285 
L 308.644274 110.139161 
L 315.536783 110.16114 
L 322.429293 110.169701 
L 329.321803 110.171898 
L 336.214313 110.176627 
L 343.106823 110.174805 
L 349.999333 110.147164 
L 356.891842 110.092559 
L 363.784352 110.036219 
L 370.676862 109.996537 
L 377.569372 109.951804 
L 384.461882 109.855741 
L 391.354391 109.665294 
L 398.246901 109.295426 
L 405.139411 108.523296 
L 412.031921 107.049919 
L 418.924431 104.847858 
L 425.81694 102.363127 
L 432.70945 99.879461 
L 439.60196 96.449475 
L 446.49447 90.147195 
L 453.38698 80.38968 
L 460.27949 69.948978 
L 467.171999 63.434489 
L 474.064509 63.163073 
L 480.957019 67.285966 
L 487.849529 72.315165 
L 494.742039 76.440424 
L 501.634548 79.736294 
L 508.527058 82.217548 
L 515.419568 83.205538 
L 522.312078 82.686861 
L 529.204588 82.05884 
L 536.097098 82.736021 
L 542.989607 84.554629 
L 549.882117 86.262655 
L 556.774627 87.298205 
L 563.667137 88.38687 
L 570.559647 90.393813 
L 577.452156 93.195818 
L 584.344666 95.963102 
L 591.237176 98.191917 
L 598.129686 100.043634 
L 605.022196 101.796456 
L 611.914706 103.423074 
L 618.807215 104.785613 
L 625.699725 105.900103 
L 632.592235 106.853769 
L 639.484745 107.645736 
L 646.377255 108.225296 
L 653.269764 108.599837 
L 660.162274 108.840671 
L 667.054784 109.022755 
L 673.947294 109.191251 
L 680.839804 109.368596 
L 687.732313 109.564831 
L 694.624823 109.772112 
L 701.517333 109.963713 
L 708.409843 110.110677 
L 715.302353 110.199105 
L 722.194863 110.235861 
L 729.087372 110.24406 
L 735.979882 110.249518 
L 742.872392 110.265871 
L 749.764902 110.29053 
L 756.657412 110.312282 
L 763.549921 110.322141 
L 770.442431 110.320502 
L 777.334941 110.316393 
L 784.227451 110.318926 
L 791.119961 110.329151 
L 798.012471 110.341202 
L 804.90498 110.349734 
L 811.79749 110.353847 
L 818.69 110.355259 
" style="fill:none;stroke:#1f77b4;stroke-linecap:square;stroke-width:3;"/>
   </g>
   <g id="patch_53">
    <path d="M 93.98 110.355686 
L 93.98 40.56 
" style="fill:none;stroke:#000000;stroke-linecap:square;stroke-linejoin:miter;stroke-width:0.8;"/>
   </g>
   <g id="patch_54">
    <path d="M 93.98 110.355686 
L 853.2 110.355686 
" style="fill:none;stroke:#000000;stroke-linecap:square;stroke-linejoin:miter;stroke-width:0.8;"/>
   </g>
   <g id="text_3">
    <!-- Protein-Coding Genes (4138) -->
    <defs>
     <path d="M 19.671875 64.796875 
L 19.671875 37.40625 
L 32.078125 37.40625 
Q 38.96875 37.40625 42.71875 40.96875 
Q 46.484375 44.53125 46.484375 51.125 
Q 46.484375 57.671875 42.71875 61.234375 
Q 38.96875 64.796875 32.078125 64.796875 
z
M 9.8125 72.90625 
L 32.078125 72.90625 
Q 44.34375 72.90625 50.609375 67.359375 
Q 56.890625 61.8125 56.890625 51.125 
Q 56.890625 40.328125 50.609375 34.8125 
Q 44.34375 29.296875 32.078125 29.296875 
L 19.671875 29.296875 
L 19.671875 0 
L 9.8125 0 
z
" id="DejaVuSans-80"/>
     <path d="M 41.109375 46.296875 
Q 39.59375 47.171875 37.8125 47.578125 
Q 36.03125 48 33.890625 48 
Q 26.265625 48 22.1875 43.046875 
Q 18.109375 38.09375 18.109375 28.8125 
L 18.109375 0 
L 9.078125 0 
L 9.078125 54.6875 
L 18.109375 54.6875 
L 18.109375 46.1875 
Q 20.953125 51.171875 25.484375 53.578125 
Q 30.03125 56 36.53125 56 
Q 37.453125 56 38.578125 55.875 
Q 39.703125 55.765625 41.0625 55.515625 
z
" id="DejaVuSans-114"/>
     <path d="M 30.609375 48.390625 
Q 23.390625 48.390625 19.1875 42.75 
Q 14.984375 37.109375 14.984375 27.296875 
Q 14.984375 17.484375 19.15625 11.84375 
Q 23.34375 6.203125 30.609375 6.203125 
Q 37.796875 6.203125 41.984375 11.859375 
Q 46.1875 17.53125 46.1875 27.296875 
Q 46.1875 37.015625 41.984375 42.703125 
Q 37.796875 48.390625 30.609375 48.390625 
z
M 30.609375 56 
Q 42.328125 56 49.015625 48.375 
Q 55.71875 40.765625 55.71875 27.296875 
Q 55.71875 13.875 49.015625 6.21875 
Q 42.328125 -1.421875 30.609375 -1.421875 
Q 18.84375 -1.421875 12.171875 6.21875 
Q 5.515625 13.875 5.515625 27.296875 
Q 5.515625 40.765625 12.171875 48.375 
Q 18.84375 56 30.609375 56 
z
" id="DejaVuSans-111"/>
     <path d="M 18.3125 70.21875 
L 18.3125 54.6875 
L 36.8125 54.6875 
L 36.8125 47.703125 
L 18.3125 47.703125 
L 18.3125 18.015625 
Q 18.3125 11.328125 20.140625 9.421875 
Q 21.96875 7.515625 27.59375 7.515625 
L 36.8125 7.515625 
L 36.8125 0 
L 27.59375 0 
Q 17.1875 0 13.234375 3.875 
Q 9.28125 7.765625 9.28125 18.015625 
L 9.28125 47.703125 
L 2.6875 47.703125 
L 2.6875 54.6875 
L 9.28125 54.6875 
L 9.28125 70.21875 
z
" id="DejaVuSans-116"/>
     <path d="M 56.203125 29.59375 
L 56.203125 25.203125 
L 14.890625 25.203125 
Q 15.484375 15.921875 20.484375 11.0625 
Q 25.484375 6.203125 34.421875 6.203125 
Q 39.59375 6.203125 44.453125 7.46875 
Q 49.3125 8.734375 54.109375 11.28125 
L 54.109375 2.78125 
Q 49.265625 0.734375 44.1875 -0.34375 
Q 39.109375 -1.421875 33.890625 -1.421875 
Q 20.796875 -1.421875 13.15625 6.1875 
Q 5.515625 13.8125 5.515625 26.8125 
Q 5.515625 40.234375 12.765625 48.109375 
Q 20.015625 56 32.328125 56 
Q 43.359375 56 49.78125 48.890625 
Q 56.203125 41.796875 56.203125 29.59375 
z
M 47.21875 32.234375 
Q 47.125 39.59375 43.09375 43.984375 
Q 39.0625 48.390625 32.421875 48.390625 
Q 24.90625 48.390625 20.390625 44.140625 
Q 15.875 39.890625 15.1875 32.171875 
z
" id="DejaVuSans-101"/>
     <path d="M 9.421875 54.6875 
L 18.40625 54.6875 
L 18.40625 0 
L 9.421875 0 
z
M 9.421875 75.984375 
L 18.40625 75.984375 
L 18.40625 64.59375 
L 9.421875 64.59375 
z
" id="DejaVuSans-105"/>
     <path d="M 54.890625 33.015625 
L 54.890625 0 
L 45.90625 0 
L 45.90625 32.71875 
Q 45.90625 40.484375 42.875 44.328125 
Q 39.84375 48.1875 33.796875 48.1875 
Q 26.515625 48.1875 22.3125 43.546875 
Q 18.109375 38.921875 18.109375 30.90625 
L 18.109375 0 
L 9.078125 0 
L 9.078125 54.6875 
L 18.109375 54.6875 
L 18.109375 46.1875 
Q 21.34375 51.125 25.703125 53.5625 
Q 30.078125 56 35.796875 56 
Q 45.21875 56 50.046875 50.171875 
Q 54.890625 44.34375 54.890625 33.015625 
z
" id="DejaVuSans-110"/>
     <path d="M 4.890625 31.390625 
L 31.203125 31.390625 
L 31.203125 23.390625 
L 4.890625 23.390625 
z
" id="DejaVuSans-45"/>
     <path d="M 64.40625 67.28125 
L 64.40625 56.890625 
Q 59.421875 61.53125 53.78125 63.8125 
Q 48.140625 66.109375 41.796875 66.109375 
Q 29.296875 66.109375 22.65625 58.46875 
Q 16.015625 50.828125 16.015625 36.375 
Q 16.015625 21.96875 22.65625 14.328125 
Q 29.296875 6.6875 41.796875 6.6875 
Q 48.140625 6.6875 53.78125 8.984375 
Q 59.421875 11.28125 64.40625 15.921875 
L 64.40625 5.609375 
Q 59.234375 2.09375 53.4375 0.328125 
Q 47.65625 -1.421875 41.21875 -1.421875 
Q 24.65625 -1.421875 15.125 8.703125 
Q 5.609375 18.84375 5.609375 36.375 
Q 5.609375 53.953125 15.125 64.078125 
Q 24.65625 74.21875 41.21875 74.21875 
Q 47.75 74.21875 53.53125 72.484375 
Q 59.328125 70.75 64.40625 67.28125 
z
" id="DejaVuSans-67"/>
     <path d="M 45.40625 46.390625 
L 45.40625 75.984375 
L 54.390625 75.984375 
L 54.390625 0 
L 45.40625 0 
L 45.40625 8.203125 
Q 42.578125 3.328125 38.25 0.953125 
Q 33.9375 -1.421875 27.875 -1.421875 
Q 17.96875 -1.421875 11.734375 6.484375 
Q 5.515625 14.40625 5.515625 27.296875 
Q 5.515625 40.1875 11.734375 48.09375 
Q 17.96875 56 27.875 56 
Q 33.9375 56 38.25 53.625 
Q 42.578125 51.265625 45.40625 46.390625 
z
M 14.796875 27.296875 
Q 14.796875 17.390625 18.875 11.75 
Q 22.953125 6.109375 30.078125 6.109375 
Q 37.203125 6.109375 41.296875 11.75 
Q 45.40625 17.390625 45.40625 27.296875 
Q 45.40625 37.203125 41.296875 42.84375 
Q 37.203125 48.484375 30.078125 48.484375 
Q 22.953125 48.484375 18.875 42.84375 
Q 14.796875 37.203125 14.796875 27.296875 
z
" id="DejaVuSans-100"/>
     <path d="M 45.40625 27.984375 
Q 45.40625 37.75 41.375 43.109375 
Q 37.359375 48.484375 30.078125 48.484375 
Q 22.859375 48.484375 18.828125 43.109375 
Q 14.796875 37.75 14.796875 27.984375 
Q 14.796875 18.265625 18.828125 12.890625 
Q 22.859375 7.515625 30.078125 7.515625 
Q 37.359375 7.515625 41.375 12.890625 
Q 45.40625 18.265625 45.40625 27.984375 
z
M 54.390625 6.78125 
Q 54.390625 -7.171875 48.1875 -13.984375 
Q 42 -20.796875 29.203125 -20.796875 
Q 24.46875 -20.796875 20.265625 -20.09375 
Q 16.0625 -19.390625 12.109375 -17.921875 
L 12.109375 -9.1875 
Q 16.0625 -11.328125 19.921875 -12.34375 
Q 23.78125 -13.375 27.78125 -13.375 
Q 36.625 -13.375 41.015625 -8.765625 
Q 45.40625 -4.15625 45.40625 5.171875 
L 45.40625 9.625 
Q 42.625 4.78125 38.28125 2.390625 
Q 33.9375 0 27.875 0 
Q 17.828125 0 11.671875 7.65625 
Q 5.515625 15.328125 5.515625 27.984375 
Q 5.515625 40.671875 11.671875 48.328125 
Q 17.828125 56 27.875 56 
Q 33.9375 56 38.28125 53.609375 
Q 42.625 51.21875 45.40625 46.390625 
L 45.40625 54.6875 
L 54.390625 54.6875 
z
" id="DejaVuSans-103"/>
     <path id="DejaVuSans-32"/>
     <path d="M 59.515625 10.40625 
L 59.515625 29.984375 
L 43.40625 29.984375 
L 43.40625 38.09375 
L 69.28125 38.09375 
L 69.28125 6.78125 
Q 63.578125 2.734375 56.6875 0.65625 
Q 49.8125 -1.421875 42 -1.421875 
Q 24.90625 -1.421875 15.25 8.5625 
Q 5.609375 18.5625 5.609375 36.375 
Q 5.609375 54.25 15.25 64.234375 
Q 24.90625 74.21875 42 74.21875 
Q 49.125 74.21875 55.546875 72.453125 
Q 61.96875 70.703125 67.390625 67.28125 
L 67.390625 56.78125 
Q 61.921875 61.421875 55.765625 63.765625 
Q 49.609375 66.109375 42.828125 66.109375 
Q 29.4375 66.109375 22.71875 58.640625 
Q 16.015625 51.171875 16.015625 36.375 
Q 16.015625 21.625 22.71875 14.15625 
Q 29.4375 6.6875 42.828125 6.6875 
Q 48.046875 6.6875 52.140625 7.59375 
Q 56.25 8.5 59.515625 10.40625 
z
" id="DejaVuSans-71"/>
     <path d="M 44.28125 53.078125 
L 44.28125 44.578125 
Q 40.484375 46.53125 36.375 47.5 
Q 32.28125 48.484375 27.875 48.484375 
Q 21.1875 48.484375 17.84375 46.4375 
Q 14.5 44.390625 14.5 40.28125 
Q 14.5 37.15625 16.890625 35.375 
Q 19.28125 33.59375 26.515625 31.984375 
L 29.59375 31.296875 
Q 39.15625 29.25 43.1875 25.515625 
Q 47.21875 21.78125 47.21875 15.09375 
Q 47.21875 7.46875 41.1875 3.015625 
Q 35.15625 -1.421875 24.609375 -1.421875 
Q 20.21875 -1.421875 15.453125 -0.5625 
Q 10.6875 0.296875 5.421875 2 
L 5.421875 11.28125 
Q 10.40625 8.6875 15.234375 7.390625 
Q 20.0625 6.109375 24.8125 6.109375 
Q 31.15625 6.109375 34.5625 8.28125 
Q 37.984375 10.453125 37.984375 14.40625 
Q 37.984375 18.0625 35.515625 20.015625 
Q 33.0625 21.96875 24.703125 23.78125 
L 21.578125 24.515625 
Q 13.234375 26.265625 9.515625 29.90625 
Q 5.8125 33.546875 5.8125 39.890625 
Q 5.8125 47.609375 11.28125 51.796875 
Q 16.75 56 26.8125 56 
Q 31.78125 56 36.171875 55.265625 
Q 40.578125 54.546875 44.28125 53.078125 
z
" id="DejaVuSans-115"/>
     <path d="M 31 75.875 
Q 24.46875 64.65625 21.28125 53.65625 
Q 18.109375 42.671875 18.109375 31.390625 
Q 18.109375 20.125 21.3125 9.0625 
Q 24.515625 -2 31 -13.1875 
L 23.1875 -13.1875 
Q 15.875 -1.703125 12.234375 9.375 
Q 8.59375 20.453125 8.59375 31.390625 
Q 8.59375 42.28125 12.203125 53.3125 
Q 15.828125 64.359375 23.1875 75.875 
z
" id="DejaVuSans-40"/>
     <path d="M 37.796875 64.3125 
L 12.890625 25.390625 
L 37.796875 25.390625 
z
M 35.203125 72.90625 
L 47.609375 72.90625 
L 47.609375 25.390625 
L 58.015625 25.390625 
L 58.015625 17.1875 
L 47.609375 17.1875 
L 47.609375 0 
L 37.796875 0 
L 37.796875 17.1875 
L 4.890625 17.1875 
L 4.890625 26.703125 
z
" id="DejaVuSans-52"/>
     <path d="M 12.40625 8.296875 
L 28.515625 8.296875 
L 28.515625 63.921875 
L 10.984375 60.40625 
L 10.984375 69.390625 
L 28.421875 72.90625 
L 38.28125 72.90625 
L 38.28125 8.296875 
L 54.390625 8.296875 
L 54.390625 0 
L 12.40625 0 
z
" id="DejaVuSans-49"/>
     <path d="M 40.578125 39.3125 
Q 47.65625 37.796875 51.625 33 
Q 55.609375 28.21875 55.609375 21.1875 
Q 55.609375 10.40625 48.1875 4.484375 
Q 40.765625 -1.421875 27.09375 -1.421875 
Q 22.515625 -1.421875 17.65625 -0.515625 
Q 12.796875 0.390625 7.625 2.203125 
L 7.625 11.71875 
Q 11.71875 9.328125 16.59375 8.109375 
Q 21.484375 6.890625 26.8125 6.890625 
Q 36.078125 6.890625 40.9375 10.546875 
Q 45.796875 14.203125 45.796875 21.1875 
Q 45.796875 27.640625 41.28125 31.265625 
Q 36.765625 34.90625 28.71875 34.90625 
L 20.21875 34.90625 
L 20.21875 43.015625 
L 29.109375 43.015625 
Q 36.375 43.015625 40.234375 45.921875 
Q 44.09375 48.828125 44.09375 54.296875 
Q 44.09375 59.90625 40.109375 62.90625 
Q 36.140625 65.921875 28.71875 65.921875 
Q 24.65625 65.921875 20.015625 65.03125 
Q 15.375 64.15625 9.8125 62.3125 
L 9.8125 71.09375 
Q 15.4375 72.65625 20.34375 73.4375 
Q 25.25 74.21875 29.59375 74.21875 
Q 40.828125 74.21875 47.359375 69.109375 
Q 53.90625 64.015625 53.90625 55.328125 
Q 53.90625 49.265625 50.4375 45.09375 
Q 46.96875 40.921875 40.578125 39.3125 
z
" id="DejaVuSans-51"/>
     <path d="M 31.78125 34.625 
Q 24.75 34.625 20.71875 30.859375 
Q 16.703125 27.09375 16.703125 20.515625 
Q 16.703125 13.921875 20.71875 10.15625 
Q 24.75 6.390625 31.78125 6.390625 
Q 38.8125 6.390625 42.859375 10.171875 
Q 46.921875 13.96875 46.921875 20.515625 
Q 46.921875 27.09375 42.890625 30.859375 
Q 38.875 34.625 31.78125 34.625 
z
M 21.921875 38.8125 
Q 15.578125 40.375 12.03125 44.71875 
Q 8.5 49.078125 8.5 55.328125 
Q 8.5 64.0625 14.71875 69.140625 
Q 20.953125 74.21875 31.78125 74.21875 
Q 42.671875 74.21875 48.875 69.140625 
Q 55.078125 64.0625 55.078125 55.328125 
Q 55.078125 49.078125 51.53125 44.71875 
Q 48 40.375 41.703125 38.8125 
Q 48.828125 37.15625 52.796875 32.3125 
Q 56.78125 27.484375 56.78125 20.515625 
Q 56.78125 9.90625 50.3125 4.234375 
Q 43.84375 -1.421875 31.78125 -1.421875 
Q 19.734375 -1.421875 13.25 4.234375 
Q 6.78125 9.90625 6.78125 20.515625 
Q 6.78125 27.484375 10.78125 32.3125 
Q 14.796875 37.15625 21.921875 38.8125 
z
M 18.3125 54.390625 
Q 18.3125 48.734375 21.84375 45.5625 
Q 25.390625 42.390625 31.78125 42.390625 
Q 38.140625 42.390625 41.71875 45.5625 
Q 45.3125 48.734375 45.3125 54.390625 
Q 45.3125 60.0625 41.71875 63.234375 
Q 38.140625 66.40625 31.78125 66.40625 
Q 25.390625 66.40625 21.84375 63.234375 
Q 18.3125 60.0625 18.3125 54.390625 
z
" id="DejaVuSans-56"/>
     <path d="M 8.015625 75.875 
L 15.828125 75.875 
Q 23.140625 64.359375 26.78125 53.3125 
Q 30.421875 42.28125 30.421875 31.390625 
Q 30.421875 20.453125 26.78125 9.375 
Q 23.140625 -1.703125 15.828125 -13.1875 
L 8.015625 -13.1875 
Q 14.5 -2 17.703125 9.0625 
Q 20.90625 20.125 20.90625 31.390625 
Q 20.90625 42.671875 17.703125 53.65625 
Q 14.5 64.65625 8.015625 75.875 
z
" id="DejaVuSans-41"/>
    </defs>
    <g transform="translate(249.179062 34.56)scale(0.31 -0.31)">
     <use xlink:href="#DejaVuSans-80"/>
     <use x="58.552734" xlink:href="#DejaVuSans-114"/>
     <use x="97.416016" xlink:href="#DejaVuSans-111"/>
     <use x="158.597656" xlink:href="#DejaVuSans-116"/>
     <use x="197.806641" xlink:href="#DejaVuSans-101"/>
     <use x="259.330078" xlink:href="#DejaVuSans-105"/>
     <use x="287.113281" xlink:href="#DejaVuSans-110"/>
     <use x="350.492188" xlink:href="#DejaVuSans-45"/>
     <use x="386.576172" xlink:href="#DejaVuSans-67"/>
     <use x="456.400391" xlink:href="#DejaVuSans-111"/>
     <use x="517.582031" xlink:href="#DejaVuSans-100"/>
     <use x="581.058594" xlink:href="#DejaVuSans-105"/>
     <use x="608.841797" xlink:href="#DejaVuSans-110"/>
     <use x="672.220703" xlink:href="#DejaVuSans-103"/>
     <use x="735.697266" xlink:href="#DejaVuSans-32"/>
     <use x="767.484375" xlink:href="#DejaVuSans-71"/>
     <use x="844.974609" xlink:href="#DejaVuSans-101"/>
     <use x="906.498047" xlink:href="#DejaVuSans-110"/>
     <use x="969.876953" xlink:href="#DejaVuSans-101"/>
     <use x="1031.400391" xlink:href="#DejaVuSans-115"/>
     <use x="1083.5" xlink:href="#DejaVuSans-32"/>
     <use x="1115.287109" xlink:href="#DejaVuSans-40"/>
     <use x="1154.300781" xlink:href="#DejaVuSans-52"/>
     <use x="1217.923828" xlink:href="#DejaVuSans-49"/>
     <use x="1281.546875" xlink:href="#DejaVuSans-51"/>
     <use x="1345.169922" xlink:href="#DejaVuSans-56"/>
     <use x="1408.792969" xlink:href="#DejaVuSans-41"/>
    </g>
   </g>
  </g>
  <g id="axes_2">
   <g id="patch_55">
    <path d="M 93.98 303.837843 
L 853.2 303.837843 
L 853.2 234.042157 
L 93.98 234.042157 
z
" style="fill:#ffffff;"/>
   </g>
   <g id="patch_56">
    <path clip-path="url(#p20dd70edc7)" d="M 175.040443 303.837843 
L 186.451793 303.837843 
L 186.451793 302.998196 
L 175.040443 302.998196 
z
" style="fill:#1f77b4;opacity:0.4;"/>
   </g>
   <g id="patch_57">
    <path clip-path="url(#p20dd70edc7)" d="M 186.451793 303.837843 
L 197.863143 303.837843 
L 197.863143 303.278078 
L 186.451793 303.278078 
z
" style="fill:#1f77b4;opacity:0.4;"/>
   </g>
   <g id="patch_58">
    <path clip-path="url(#p20dd70edc7)" d="M 197.863143 303.837843 
L 209.274493 303.837843 
L 209.274493 300.339312 
L 197.863143 300.339312 
z
" style="fill:#1f77b4;opacity:0.4;"/>
   </g>
   <g id="patch_59">
    <path clip-path="url(#p20dd70edc7)" d="M 209.274493 303.837843 
L 220.685843 303.837843 
L 220.685843 300.899077 
L 209.274493 300.899077 
z
" style="fill:#1f77b4;opacity:0.4;"/>
   </g>
   <g id="patch_60">
    <path clip-path="url(#p20dd70edc7)" d="M 220.685843 303.837843 
L 232.097192 303.837843 
L 232.097192 302.438431 
L 220.685843 302.438431 
z
" style="fill:#1f77b4;opacity:0.4;"/>
   </g>
   <g id="patch_61">
    <path clip-path="url(#p20dd70edc7)" d="M 232.097192 303.837843 
L 243.508542 303.837843 
L 243.508542 302.998196 
L 232.097192 302.998196 
z
" style="fill:#1f77b4;opacity:0.4;"/>
   </g>
   <g id="patch_62">
    <path clip-path="url(#p20dd70edc7)" d="M 243.508542 303.837843 
L 254.919892 303.837843 
L 254.919892 303.418019 
L 243.508542 303.418019 
z
" style="fill:#1f77b4;opacity:0.4;"/>
   </g>
   <g id="patch_63">
    <path clip-path="url(#p20dd70edc7)" d="M 254.919892 303.837843 
L 266.331242 303.837843 
L 266.331242 302.29849 
L 254.919892 302.29849 
z
" style="fill:#1f77b4;opacity:0.4;"/>
   </g>
   <g id="patch_64">
    <path clip-path="url(#p20dd70edc7)" d="M 266.331242 303.837843 
L 277.742592 303.837843 
L 277.742592 297.540488 
L 266.331242 297.540488 
z
" style="fill:#1f77b4;opacity:0.4;"/>
   </g>
   <g id="patch_65">
    <path clip-path="url(#p20dd70edc7)" d="M 277.742592 303.837843 
L 289.153942 303.837843 
L 289.153942 299.919489 
L 277.742592 299.919489 
z
" style="fill:#1f77b4;opacity:0.4;"/>
   </g>
   <g id="patch_66">
    <path clip-path="url(#p20dd70edc7)" d="M 289.153942 303.837843 
L 300.565292 303.837843 
L 300.565292 302.858255 
L 289.153942 302.858255 
z
" style="fill:#1f77b4;opacity:0.4;"/>
   </g>
   <g id="patch_67">
    <path clip-path="url(#p20dd70edc7)" d="M 300.565292 303.837843 
L 311.976642 303.837843 
L 311.976642 301.738725 
L 300.565292 301.738725 
z
" style="fill:#1f77b4;opacity:0.4;"/>
   </g>
   <g id="patch_68">
    <path clip-path="url(#p20dd70edc7)" d="M 311.976642 303.837843 
L 323.387992 303.837843 
L 323.387992 301.458842 
L 311.976642 301.458842 
z
" style="fill:#1f77b4;opacity:0.4;"/>
   </g>
   <g id="patch_69">
    <path clip-path="url(#p20dd70edc7)" d="M 323.387992 303.837843 
L 334.799342 303.837843 
L 334.799342 301.598784 
L 323.387992 301.598784 
z
" style="fill:#1f77b4;opacity:0.4;"/>
   </g>
   <g id="patch_70">
    <path clip-path="url(#p20dd70edc7)" d="M 334.799342 303.837843 
L 346.210692 303.837843 
L 346.210692 301.458842 
L 334.799342 301.458842 
z
" style="fill:#1f77b4;opacity:0.4;"/>
   </g>
   <g id="patch_71">
    <path clip-path="url(#p20dd70edc7)" d="M 346.210692 303.837843 
L 357.622042 303.837843 
L 357.622042 302.158548 
L 346.210692 302.158548 
z
" style="fill:#1f77b4;opacity:0.4;"/>
   </g>
   <g id="patch_72">
    <path clip-path="url(#p20dd70edc7)" d="M 357.622042 303.837843 
L 369.033392 303.837843 
L 369.033392 299.639606 
L 357.622042 299.639606 
z
" style="fill:#1f77b4;opacity:0.4;"/>
   </g>
   <g id="patch_73">
    <path clip-path="url(#p20dd70edc7)" d="M 369.033392 303.837843 
L 380.444742 303.837843 
L 380.444742 298.660018 
L 369.033392 298.660018 
z
" style="fill:#1f77b4;opacity:0.4;"/>
   </g>
   <g id="patch_74">
    <path clip-path="url(#p20dd70edc7)" d="M 380.444742 303.837843 
L 391.856092 303.837843 
L 391.856092 301.17896 
L 380.444742 301.17896 
z
" style="fill:#1f77b4;opacity:0.4;"/>
   </g>
   <g id="patch_75">
    <path clip-path="url(#p20dd70edc7)" d="M 391.856092 303.837843 
L 403.267442 303.837843 
L 403.267442 300.339312 
L 391.856092 300.339312 
z
" style="fill:#1f77b4;opacity:0.4;"/>
   </g>
   <g id="patch_76">
    <path clip-path="url(#p20dd70edc7)" d="M 403.267442 303.837843 
L 414.678792 303.837843 
L 414.678792 300.05943 
L 403.267442 300.05943 
z
" style="fill:#1f77b4;opacity:0.4;"/>
   </g>
   <g id="patch_77">
    <path clip-path="url(#p20dd70edc7)" d="M 414.678792 303.837843 
L 426.090142 303.837843 
L 426.090142 298.380135 
L 414.678792 298.380135 
z
" style="fill:#1f77b4;opacity:0.4;"/>
   </g>
   <g id="patch_78">
    <path clip-path="url(#p20dd70edc7)" d="M 426.090142 303.837843 
L 437.501492 303.837843 
L 437.501492 285.365601 
L 426.090142 285.365601 
z
" style="fill:#1f77b4;opacity:0.4;"/>
   </g>
   <g id="patch_79">
    <path clip-path="url(#p20dd70edc7)" d="M 437.501492 303.837843 
L 448.912841 303.837843 
L 448.912841 288.304367 
L 437.501492 288.304367 
z
" style="fill:#1f77b4;opacity:0.4;"/>
   </g>
   <g id="patch_80">
    <path clip-path="url(#p20dd70edc7)" d="M 448.912841 303.837843 
L 460.324191 303.837843 
L 460.324191 271.791302 
L 448.912841 271.791302 
z
" style="fill:#1f77b4;opacity:0.4;"/>
   </g>
   <g id="patch_81">
    <path clip-path="url(#p20dd70edc7)" d="M 460.324191 303.837843 
L 471.735541 303.837843 
L 471.735541 237.365761 
L 460.324191 237.365761 
z
" style="fill:#1f77b4;opacity:0.4;"/>
   </g>
   <g id="patch_82">
    <path clip-path="url(#p20dd70edc7)" d="M 471.735541 303.837843 
L 483.146891 303.837843 
L 483.146891 262.275299 
L 471.735541 262.275299 
z
" style="fill:#1f77b4;opacity:0.4;"/>
   </g>
   <g id="patch_83">
    <path clip-path="url(#p20dd70edc7)" d="M 483.146891 303.837843 
L 494.558241 303.837843 
L 494.558241 265.493947 
L 483.146891 265.493947 
z
" style="fill:#1f77b4;opacity:0.4;"/>
   </g>
   <g id="patch_84">
    <path clip-path="url(#p20dd70edc7)" d="M 494.558241 303.837843 
L 505.969591 303.837843 
L 505.969591 268.992478 
L 494.558241 268.992478 
z
" style="fill:#1f77b4;opacity:0.4;"/>
   </g>
   <g id="patch_85">
    <path clip-path="url(#p20dd70edc7)" d="M 505.969591 303.837843 
L 517.380941 303.837843 
L 517.380941 276.12948 
L 505.969591 276.12948 
z
" style="fill:#1f77b4;opacity:0.4;"/>
   </g>
   <g id="patch_86">
    <path clip-path="url(#p20dd70edc7)" d="M 517.380941 303.837843 
L 528.792291 303.837843 
L 528.792291 273.610538 
L 517.380941 273.610538 
z
" style="fill:#1f77b4;opacity:0.4;"/>
   </g>
   <g id="patch_87">
    <path clip-path="url(#p20dd70edc7)" d="M 528.792291 303.837843 
L 540.203641 303.837843 
L 540.203641 274.030362 
L 528.792291 274.030362 
z
" style="fill:#1f77b4;opacity:0.4;"/>
   </g>
   <g id="patch_88">
    <path clip-path="url(#p20dd70edc7)" d="M 540.203641 303.837843 
L 551.614991 303.837843 
L 551.614991 281.587188 
L 540.203641 281.587188 
z
" style="fill:#1f77b4;opacity:0.4;"/>
   </g>
   <g id="patch_89">
    <path clip-path="url(#p20dd70edc7)" d="M 551.614991 303.837843 
L 563.026341 303.837843 
L 563.026341 282.846659 
L 551.614991 282.846659 
z
" style="fill:#1f77b4;opacity:0.4;"/>
   </g>
   <g id="patch_90">
    <path clip-path="url(#p20dd70edc7)" d="M 563.026341 303.837843 
L 574.437691 303.837843 
L 574.437691 288.304367 
L 563.026341 288.304367 
z
" style="fill:#1f77b4;opacity:0.4;"/>
   </g>
   <g id="patch_91">
    <path clip-path="url(#p20dd70edc7)" d="M 574.437691 303.837843 
L 585.849041 303.837843 
L 585.849041 291.243133 
L 574.437691 291.243133 
z
" style="fill:#1f77b4;opacity:0.4;"/>
   </g>
   <g id="patch_92">
    <path clip-path="url(#p20dd70edc7)" d="M 585.849041 303.837843 
L 597.260391 303.837843 
L 597.260391 294.461781 
L 585.849041 294.461781 
z
" style="fill:#1f77b4;opacity:0.4;"/>
   </g>
   <g id="patch_93">
    <path clip-path="url(#p20dd70edc7)" d="M 597.260391 303.837843 
L 608.671741 303.837843 
L 608.671741 296.420958 
L 597.260391 296.420958 
z
" style="fill:#1f77b4;opacity:0.4;"/>
   </g>
   <g id="patch_94">
    <path clip-path="url(#p20dd70edc7)" d="M 608.671741 303.837843 
L 620.083091 303.837843 
L 620.083091 299.359724 
L 608.671741 299.359724 
z
" style="fill:#1f77b4;opacity:0.4;"/>
   </g>
   <g id="patch_95">
    <path clip-path="url(#p20dd70edc7)" d="M 620.083091 303.837843 
L 631.494441 303.837843 
L 631.494441 300.05943 
L 620.083091 300.05943 
z
" style="fill:#1f77b4;opacity:0.4;"/>
   </g>
   <g id="patch_96">
    <path clip-path="url(#p20dd70edc7)" d="M 631.494441 303.837843 
L 642.905791 303.837843 
L 642.905791 300.899077 
L 631.494441 300.899077 
z
" style="fill:#1f77b4;opacity:0.4;"/>
   </g>
   <g id="patch_97">
    <path clip-path="url(#p20dd70edc7)" d="M 642.905791 303.837843 
L 654.317141 303.837843 
L 654.317141 303.418019 
L 642.905791 303.418019 
z
" style="fill:#1f77b4;opacity:0.4;"/>
   </g>
   <g id="patch_98">
    <path clip-path="url(#p20dd70edc7)" d="M 654.317141 303.837843 
L 665.72849 303.837843 
L 665.72849 302.29849 
L 654.317141 302.29849 
z
" style="fill:#1f77b4;opacity:0.4;"/>
   </g>
   <g id="patch_99">
    <path clip-path="url(#p20dd70edc7)" d="M 665.72849 303.837843 
L 677.13984 303.837843 
L 677.13984 303.278078 
L 665.72849 303.278078 
z
" style="fill:#1f77b4;opacity:0.4;"/>
   </g>
   <g id="patch_100">
    <path clip-path="url(#p20dd70edc7)" d="M 677.13984 303.837843 
L 688.55119 303.837843 
L 688.55119 302.998196 
L 677.13984 302.998196 
z
" style="fill:#1f77b4;opacity:0.4;"/>
   </g>
   <g id="patch_101">
    <path clip-path="url(#p20dd70edc7)" d="M 688.55119 303.837843 
L 699.96254 303.837843 
L 699.96254 303.418019 
L 688.55119 303.418019 
z
" style="fill:#1f77b4;opacity:0.4;"/>
   </g>
   <g id="patch_102">
    <path clip-path="url(#p20dd70edc7)" d="M 699.96254 303.837843 
L 711.37389 303.837843 
L 711.37389 303.697902 
L 699.96254 303.697902 
z
" style="fill:#1f77b4;opacity:0.4;"/>
   </g>
   <g id="patch_103">
    <path clip-path="url(#p20dd70edc7)" d="M 711.37389 303.837843 
L 722.78524 303.837843 
L 722.78524 303.557961 
L 711.37389 303.557961 
z
" style="fill:#1f77b4;opacity:0.4;"/>
   </g>
   <g id="patch_104">
    <path clip-path="url(#p20dd70edc7)" d="M 722.78524 303.837843 
L 734.19659 303.837843 
L 734.19659 303.278078 
L 722.78524 303.278078 
z
" style="fill:#1f77b4;opacity:0.4;"/>
   </g>
   <g id="patch_105">
    <path clip-path="url(#p20dd70edc7)" d="M 734.19659 303.837843 
L 745.60794 303.837843 
L 745.60794 303.557961 
L 734.19659 303.557961 
z
" style="fill:#1f77b4;opacity:0.4;"/>
   </g>
   <g id="matplotlib.axis_3">
    <g id="xtick_6">
     <g id="line2d_9">
      <g>
       <use style="stroke:#000000;stroke-width:0.8;" x="111.682819" xlink:href="#m2da7e14b6a" y="303.837843"/>
      </g>
     </g>
    </g>
    <g id="xtick_7">
     <g id="line2d_10">
      <g>
       <use style="stroke:#000000;stroke-width:0.8;" x="270.076878" xlink:href="#m2da7e14b6a" y="303.837843"/>
      </g>
     </g>
    </g>
    <g id="xtick_8">
     <g id="line2d_11">
      <g>
       <use style="stroke:#000000;stroke-width:0.8;" x="428.470937" xlink:href="#m2da7e14b6a" y="303.837843"/>
      </g>
     </g>
    </g>
    <g id="xtick_9">
     <g id="line2d_12">
      <g>
       <use style="stroke:#000000;stroke-width:0.8;" x="586.864996" xlink:href="#m2da7e14b6a" y="303.837843"/>
      </g>
     </g>
    </g>
    <g id="xtick_10">
     <g id="line2d_13">
      <g>
       <use style="stroke:#000000;stroke-width:0.8;" x="745.259055" xlink:href="#m2da7e14b6a" y="303.837843"/>
      </g>
     </g>
    </g>
   </g>
   <g id="matplotlib.axis_4">
    <g id="ytick_3">
     <g id="line2d_14">
      <g>
       <use style="stroke:#000000;stroke-width:0.8;" x="93.98" xlink:href="#m535004f536" y="303.837843"/>
      </g>
     </g>
     <g id="text_4">
      <!-- 0.00 -->
      <g transform="translate(31.315938 313.33589)scale(0.25 -0.25)">
       <use xlink:href="#DejaVuSans-48"/>
       <use x="63.623047" xlink:href="#DejaVuSans-46"/>
       <use x="95.410156" xlink:href="#DejaVuSans-48"/>
       <use x="159.033203" xlink:href="#DejaVuSans-48"/>
      </g>
     </g>
    </g>
    <g id="ytick_4">
     <g id="line2d_15">
      <g>
       <use style="stroke:#000000;stroke-width:0.8;" x="93.98" xlink:href="#m535004f536" y="258.973241"/>
      </g>
     </g>
     <g id="text_5">
      <!-- 0.25 -->
      <g transform="translate(31.315938 268.471288)scale(0.25 -0.25)">
       <use xlink:href="#DejaVuSans-48"/>
       <use x="63.623047" xlink:href="#DejaVuSans-46"/>
       <use x="95.410156" xlink:href="#DejaVuSans-50"/>
       <use x="159.033203" xlink:href="#DejaVuSans-53"/>
      </g>
     </g>
    </g>
    <g id="text_6">
     <!-- Normalized Count -->
     <defs>
      <path d="M 9.8125 72.90625 
L 23.09375 72.90625 
L 55.421875 11.921875 
L 55.421875 72.90625 
L 64.984375 72.90625 
L 64.984375 0 
L 51.703125 0 
L 19.390625 60.984375 
L 19.390625 0 
L 9.8125 0 
z
" id="DejaVuSans-78"/>
      <path d="M 52 44.1875 
Q 55.375 50.25 60.0625 53.125 
Q 64.75 56 71.09375 56 
Q 79.640625 56 84.28125 50.015625 
Q 88.921875 44.046875 88.921875 33.015625 
L 88.921875 0 
L 79.890625 0 
L 79.890625 32.71875 
Q 79.890625 40.578125 77.09375 44.375 
Q 74.3125 48.1875 68.609375 48.1875 
Q 61.625 48.1875 57.5625 43.546875 
Q 53.515625 38.921875 53.515625 30.90625 
L 53.515625 0 
L 44.484375 0 
L 44.484375 32.71875 
Q 44.484375 40.625 41.703125 44.40625 
Q 38.921875 48.1875 33.109375 48.1875 
Q 26.21875 48.1875 22.15625 43.53125 
Q 18.109375 38.875 18.109375 30.90625 
L 18.109375 0 
L 9.078125 0 
L 9.078125 54.6875 
L 18.109375 54.6875 
L 18.109375 46.1875 
Q 21.1875 51.21875 25.484375 53.609375 
Q 29.78125 56 35.6875 56 
Q 41.65625 56 45.828125 52.96875 
Q 50 49.953125 52 44.1875 
z
" id="DejaVuSans-109"/>
      <path d="M 34.28125 27.484375 
Q 23.390625 27.484375 19.1875 25 
Q 14.984375 22.515625 14.984375 16.5 
Q 14.984375 11.71875 18.140625 8.90625 
Q 21.296875 6.109375 26.703125 6.109375 
Q 34.1875 6.109375 38.703125 11.40625 
Q 43.21875 16.703125 43.21875 25.484375 
L 43.21875 27.484375 
z
M 52.203125 31.203125 
L 52.203125 0 
L 43.21875 0 
L 43.21875 8.296875 
Q 40.140625 3.328125 35.546875 0.953125 
Q 30.953125 -1.421875 24.3125 -1.421875 
Q 15.921875 -1.421875 10.953125 3.296875 
Q 6 8.015625 6 15.921875 
Q 6 25.140625 12.171875 29.828125 
Q 18.359375 34.515625 30.609375 34.515625 
L 43.21875 34.515625 
L 43.21875 35.40625 
Q 43.21875 41.609375 39.140625 45 
Q 35.0625 48.390625 27.6875 48.390625 
Q 23 48.390625 18.546875 47.265625 
Q 14.109375 46.140625 10.015625 43.890625 
L 10.015625 52.203125 
Q 14.9375 54.109375 19.578125 55.046875 
Q 24.21875 56 28.609375 56 
Q 40.484375 56 46.34375 49.84375 
Q 52.203125 43.703125 52.203125 31.203125 
z
" id="DejaVuSans-97"/>
      <path d="M 9.421875 75.984375 
L 18.40625 75.984375 
L 18.40625 0 
L 9.421875 0 
z
" id="DejaVuSans-108"/>
      <path d="M 5.515625 54.6875 
L 48.1875 54.6875 
L 48.1875 46.484375 
L 14.40625 7.171875 
L 48.1875 7.171875 
L 48.1875 0 
L 4.296875 0 
L 4.296875 8.203125 
L 38.09375 47.515625 
L 5.515625 47.515625 
z
" id="DejaVuSans-122"/>
      <path d="M 8.5 21.578125 
L 8.5 54.6875 
L 17.484375 54.6875 
L 17.484375 21.921875 
Q 17.484375 14.15625 20.5 10.265625 
Q 23.53125 6.390625 29.59375 6.390625 
Q 36.859375 6.390625 41.078125 11.03125 
Q 45.3125 15.671875 45.3125 23.6875 
L 45.3125 54.6875 
L 54.296875 54.6875 
L 54.296875 0 
L 45.3125 0 
L 45.3125 8.40625 
Q 42.046875 3.421875 37.71875 1 
Q 33.40625 -1.421875 27.6875 -1.421875 
Q 18.265625 -1.421875 13.375 4.4375 
Q 8.5 10.296875 8.5 21.578125 
z
M 31.109375 56 
z
" id="DejaVuSans-117"/>
     </defs>
     <g transform="translate(20.452969 416.756797)rotate(-90)scale(0.33 -0.33)">
      <use xlink:href="#DejaVuSans-78"/>
      <use x="74.804688" xlink:href="#DejaVuSans-111"/>
      <use x="135.986328" xlink:href="#DejaVuSans-114"/>
      <use x="175.349609" xlink:href="#DejaVuSans-109"/>
      <use x="272.761719" xlink:href="#DejaVuSans-97"/>
      <use x="334.041016" xlink:href="#DejaVuSans-108"/>
      <use x="361.824219" xlink:href="#DejaVuSans-105"/>
      <use x="389.607422" xlink:href="#DejaVuSans-122"/>
      <use x="442.097656" xlink:href="#DejaVuSans-101"/>
      <use x="503.621094" xlink:href="#DejaVuSans-100"/>
      <use x="567.097656" xlink:href="#DejaVuSans-32"/>
      <use x="598.884766" xlink:href="#DejaVuSans-67"/>
      <use x="668.708984" xlink:href="#DejaVuSans-111"/>
      <use x="729.890625" xlink:href="#DejaVuSans-117"/>
      <use x="793.269531" xlink:href="#DejaVuSans-110"/>
      <use x="856.648438" xlink:href="#DejaVuSans-116"/>
     </g>
    </g>
   </g>
   <g id="line2d_16">
    <path clip-path="url(#p20dd70edc7)" d="M 128.49 303.836133 
L 135.193721 303.831735 
L 141.897442 303.819497 
L 148.601163 303.791207 
L 155.304884 303.736369 
L 162.008605 303.645201 
L 168.712326 303.509256 
L 175.416047 303.315727 
L 182.119768 303.042713 
L 188.823489 302.674102 
L 195.52721 302.23795 
L 202.230931 301.832575 
L 208.934652 301.592964 
L 215.638374 301.605044 
L 222.342095 301.840243 
L 229.045816 302.167335 
L 235.749537 302.4195 
L 242.453258 302.45815 
L 249.156979 302.214251 
L 255.8607 301.721953 
L 262.564421 301.132554 
L 269.268142 300.665652 
L 275.971863 300.495209 
L 282.675584 300.64768 
L 289.379305 300.9983 
L 296.083026 301.364792 
L 302.786747 301.61501 
L 309.490468 301.712542 
L 316.194189 301.693243 
L 322.89791 301.614877 
L 329.601631 301.517556 
L 336.305352 301.405206 
L 343.009073 301.24815 
L 349.712794 301.011623 
L 356.416515 300.701415 
L 363.120236 300.387138 
L 369.823957 300.166299 
L 376.527678 300.088002 
L 383.231399 300.100138 
L 389.935121 300.055916 
L 396.638842 299.755504 
L 403.342563 298.992265 
L 410.046284 297.609589 
L 416.750005 295.560079 
L 423.453726 292.887773 
L 430.157447 289.571547 
L 436.861168 285.365865 
L 443.564889 279.942124 
L 450.26861 273.410291 
L 456.972331 266.759897 
L 463.676052 261.590306 
L 470.379773 259.155095 
L 477.083494 259.563902 
L 483.787215 261.882676 
L 490.490936 264.913588 
L 497.194657 267.835313 
L 503.898378 270.289182 
L 510.602099 272.185097 
L 517.30582 273.599311 
L 524.009541 274.770912 
L 530.713262 276.01987 
L 537.416983 277.575043 
L 544.120704 279.469293 
L 550.824425 281.590203 
L 557.528146 283.802257 
L 564.231868 286.013642 
L 570.935589 288.166546 
L 577.63931 290.214826 
L 584.343031 292.124156 
L 591.046752 293.872773 
L 597.750473 295.438871 
L 604.454194 296.797519 
L 611.157915 297.942349 
L 617.861636 298.907221 
L 624.565357 299.753862 
L 631.269078 300.529326 
L 637.972799 301.233858 
L 644.67652 301.830436 
L 651.380241 302.284977 
L 658.083962 302.598866 
L 664.787683 302.808277 
L 671.491404 302.959099 
L 678.195125 303.084531 
L 684.898846 303.199386 
L 691.602567 303.304546 
L 698.306288 303.392341 
L 705.010009 303.452804 
L 711.71373 303.482594 
L 718.417451 303.491636 
L 725.121172 303.50022 
L 731.824894 303.527055 
L 738.528615 303.577918 
L 745.232336 303.644075 
L 751.936057 303.710189 
L 758.639778 303.763876 
L 765.343499 303.800324 
L 772.04722 303.821283 
L 778.750941 303.831528 
L 785.454662 303.835778 
L 792.158383 303.837268 
" style="fill:none;stroke:#1f77b4;stroke-linecap:square;stroke-width:3;"/>
   </g>
   <g id="patch_106">
    <path d="M 93.98 303.837843 
L 93.98 234.042157 
" style="fill:none;stroke:#000000;stroke-linecap:square;stroke-linejoin:miter;stroke-width:0.8;"/>
   </g>
   <g id="patch_107">
    <path d="M 93.98 303.837843 
L 853.2 303.837843 
" style="fill:none;stroke:#000000;stroke-linecap:square;stroke-linejoin:miter;stroke-width:0.8;"/>
   </g>
   <g id="text_7">
    <!-- Transcription Units (3560) -->
    <defs>
     <path d="M -0.296875 72.90625 
L 61.375 72.90625 
L 61.375 64.59375 
L 35.5 64.59375 
L 35.5 0 
L 25.59375 0 
L 25.59375 64.59375 
L -0.296875 64.59375 
z
" id="DejaVuSans-84"/>
     <path d="M 48.78125 52.59375 
L 48.78125 44.1875 
Q 44.96875 46.296875 41.140625 47.34375 
Q 37.3125 48.390625 33.40625 48.390625 
Q 24.65625 48.390625 19.8125 42.84375 
Q 14.984375 37.3125 14.984375 27.296875 
Q 14.984375 17.28125 19.8125 11.734375 
Q 24.65625 6.203125 33.40625 6.203125 
Q 37.3125 6.203125 41.140625 7.25 
Q 44.96875 8.296875 48.78125 10.40625 
L 48.78125 2.09375 
Q 45.015625 0.34375 40.984375 -0.53125 
Q 36.96875 -1.421875 32.421875 -1.421875 
Q 20.0625 -1.421875 12.78125 6.34375 
Q 5.515625 14.109375 5.515625 27.296875 
Q 5.515625 40.671875 12.859375 48.328125 
Q 20.21875 56 33.015625 56 
Q 37.15625 56 41.109375 55.140625 
Q 45.0625 54.296875 48.78125 52.59375 
z
" id="DejaVuSans-99"/>
     <path d="M 18.109375 8.203125 
L 18.109375 -20.796875 
L 9.078125 -20.796875 
L 9.078125 54.6875 
L 18.109375 54.6875 
L 18.109375 46.390625 
Q 20.953125 51.265625 25.265625 53.625 
Q 29.59375 56 35.59375 56 
Q 45.5625 56 51.78125 48.09375 
Q 58.015625 40.1875 58.015625 27.296875 
Q 58.015625 14.40625 51.78125 6.484375 
Q 45.5625 -1.421875 35.59375 -1.421875 
Q 29.59375 -1.421875 25.265625 0.953125 
Q 20.953125 3.328125 18.109375 8.203125 
z
M 48.6875 27.296875 
Q 48.6875 37.203125 44.609375 42.84375 
Q 40.53125 48.484375 33.40625 48.484375 
Q 26.265625 48.484375 22.1875 42.84375 
Q 18.109375 37.203125 18.109375 27.296875 
Q 18.109375 17.390625 22.1875 11.75 
Q 26.265625 6.109375 33.40625 6.109375 
Q 40.53125 6.109375 44.609375 11.75 
Q 48.6875 17.390625 48.6875 27.296875 
z
" id="DejaVuSans-112"/>
     <path d="M 8.6875 72.90625 
L 18.609375 72.90625 
L 18.609375 28.609375 
Q 18.609375 16.890625 22.84375 11.734375 
Q 27.09375 6.59375 36.625 6.59375 
Q 46.09375 6.59375 50.34375 11.734375 
Q 54.59375 16.890625 54.59375 28.609375 
L 54.59375 72.90625 
L 64.5 72.90625 
L 64.5 27.390625 
Q 64.5 13.140625 57.4375 5.859375 
Q 50.390625 -1.421875 36.625 -1.421875 
Q 22.796875 -1.421875 15.734375 5.859375 
Q 8.6875 13.140625 8.6875 27.390625 
z
" id="DejaVuSans-85"/>
     <path d="M 33.015625 40.375 
Q 26.375 40.375 22.484375 35.828125 
Q 18.609375 31.296875 18.609375 23.390625 
Q 18.609375 15.53125 22.484375 10.953125 
Q 26.375 6.390625 33.015625 6.390625 
Q 39.65625 6.390625 43.53125 10.953125 
Q 47.40625 15.53125 47.40625 23.390625 
Q 47.40625 31.296875 43.53125 35.828125 
Q 39.65625 40.375 33.015625 40.375 
z
M 52.59375 71.296875 
L 52.59375 62.3125 
Q 48.875 64.0625 45.09375 64.984375 
Q 41.3125 65.921875 37.59375 65.921875 
Q 27.828125 65.921875 22.671875 59.328125 
Q 17.53125 52.734375 16.796875 39.40625 
Q 19.671875 43.65625 24.015625 45.921875 
Q 28.375 48.1875 33.59375 48.1875 
Q 44.578125 48.1875 50.953125 41.515625 
Q 57.328125 34.859375 57.328125 23.390625 
Q 57.328125 12.15625 50.6875 5.359375 
Q 44.046875 -1.421875 33.015625 -1.421875 
Q 20.359375 -1.421875 13.671875 8.265625 
Q 6.984375 17.96875 6.984375 36.375 
Q 6.984375 53.65625 15.1875 63.9375 
Q 23.390625 74.21875 37.203125 74.21875 
Q 40.921875 74.21875 44.703125 73.484375 
Q 48.484375 72.75 52.59375 71.296875 
z
" id="DejaVuSans-54"/>
    </defs>
    <g transform="translate(272.891641 228.042157)scale(0.31 -0.31)">
     <use xlink:href="#DejaVuSans-84"/>
     <use x="46.333984" xlink:href="#DejaVuSans-114"/>
     <use x="87.447266" xlink:href="#DejaVuSans-97"/>
     <use x="148.726562" xlink:href="#DejaVuSans-110"/>
     <use x="212.105469" xlink:href="#DejaVuSans-115"/>
     <use x="264.205078" xlink:href="#DejaVuSans-99"/>
     <use x="319.185547" xlink:href="#DejaVuSans-114"/>
     <use x="360.298828" xlink:href="#DejaVuSans-105"/>
     <use x="388.082031" xlink:href="#DejaVuSans-112"/>
     <use x="451.558594" xlink:href="#DejaVuSans-116"/>
     <use x="490.767578" xlink:href="#DejaVuSans-105"/>
     <use x="518.550781" xlink:href="#DejaVuSans-111"/>
     <use x="579.732422" xlink:href="#DejaVuSans-110"/>
     <use x="643.111328" xlink:href="#DejaVuSans-32"/>
     <use x="674.898438" xlink:href="#DejaVuSans-85"/>
     <use x="748.091797" xlink:href="#DejaVuSans-110"/>
     <use x="811.470703" xlink:href="#DejaVuSans-105"/>
     <use x="839.253906" xlink:href="#DejaVuSans-116"/>
     <use x="878.462891" xlink:href="#DejaVuSans-115"/>
     <use x="930.5625" xlink:href="#DejaVuSans-32"/>
     <use x="962.349609" xlink:href="#DejaVuSans-40"/>
     <use x="1001.363281" xlink:href="#DejaVuSans-51"/>
     <use x="1064.986328" xlink:href="#DejaVuSans-53"/>
     <use x="1128.609375" xlink:href="#DejaVuSans-54"/>
     <use x="1192.232422" xlink:href="#DejaVuSans-48"/>
     <use x="1255.855469" xlink:href="#DejaVuSans-41"/>
    </g>
   </g>
  </g>
  <g id="axes_3">
   <g id="patch_108">
    <path d="M 93.98 497.32 
L 853.2 497.32 
L 853.2 427.524314 
L 93.98 427.524314 
z
" style="fill:#ffffff;"/>
   </g>
   <g id="patch_109">
    <path clip-path="url(#p3c3896ec6f)" d="M 206.655706 497.32 
L 224.489829 497.32 
L 224.489829 452.169152 
L 206.655706 452.169152 
z
" style="fill:#1f77b4;opacity:0.4;"/>
   </g>
   <g id="patch_110">
    <path clip-path="url(#p3c3896ec6f)" d="M 224.489829 497.32 
L 242.323952 497.32 
L 242.323952 478.507147 
L 224.489829 478.507147 
z
" style="fill:#1f77b4;opacity:0.4;"/>
   </g>
   <g id="patch_111">
    <path clip-path="url(#p3c3896ec6f)" d="M 242.323952 497.32 
L 260.158074 497.32 
L 260.158074 482.269717 
L 242.323952 482.269717 
z
" style="fill:#1f77b4;opacity:0.4;"/>
   </g>
   <g id="patch_112">
    <path clip-path="url(#p3c3896ec6f)" d="M 260.158074 497.32 
L 277.992197 497.32 
L 277.992197 430.847918 
L 260.158074 430.847918 
z
" style="fill:#1f77b4;opacity:0.4;"/>
   </g>
   <g id="patch_113">
    <path clip-path="url(#p3c3896ec6f)" d="M 277.992197 497.32 
L 295.82632 497.32 
L 295.82632 464.711054 
L 277.992197 464.711054 
z
" style="fill:#1f77b4;opacity:0.4;"/>
   </g>
   <g id="patch_114">
    <path clip-path="url(#p3c3896ec6f)" d="M 295.82632 497.32 
L 313.660442 497.32 
L 313.660442 487.286478 
L 295.82632 487.286478 
z
" style="fill:#1f77b4;opacity:0.4;"/>
   </g>
   <g id="patch_115">
    <path clip-path="url(#p3c3896ec6f)" d="M 313.660442 497.32 
L 331.494565 497.32 
L 331.494565 487.286478 
L 313.660442 487.286478 
z
" style="fill:#1f77b4;opacity:0.4;"/>
   </g>
   <g id="patch_116">
    <path clip-path="url(#p3c3896ec6f)" d="M 331.494565 497.32 
L 349.328687 497.32 
L 349.328687 481.015527 
L 331.494565 481.015527 
z
" style="fill:#1f77b4;opacity:0.4;"/>
   </g>
   <g id="patch_117">
    <path clip-path="url(#p3c3896ec6f)" d="M 349.328687 497.32 
L 367.16281 497.32 
L 367.16281 488.540668 
L 349.328687 488.540668 
z
" style="fill:#1f77b4;opacity:0.4;"/>
   </g>
   <g id="patch_118">
    <path clip-path="url(#p3c3896ec6f)" d="M 367.16281 497.32 
L 384.996933 497.32 
L 384.996933 493.557429 
L 367.16281 493.557429 
z
" style="fill:#1f77b4;opacity:0.4;"/>
   </g>
   <g id="patch_119">
    <path clip-path="url(#p3c3896ec6f)" d="M 384.996933 497.32 
L 402.831055 497.32 
L 402.831055 496.06581 
L 384.996933 496.06581 
z
" style="fill:#1f77b4;opacity:0.4;"/>
   </g>
   <g id="patch_120">
    <path clip-path="url(#p3c3896ec6f)" d="M 402.831055 497.32 
L 420.665178 497.32 
L 420.665178 497.32 
L 402.831055 497.32 
z
" style="fill:#1f77b4;opacity:0.4;"/>
   </g>
   <g id="patch_121">
    <path clip-path="url(#p3c3896ec6f)" d="M 420.665178 497.32 
L 438.499301 497.32 
L 438.499301 494.81162 
L 420.665178 494.81162 
z
" style="fill:#1f77b4;opacity:0.4;"/>
   </g>
   <g id="patch_122">
    <path clip-path="url(#p3c3896ec6f)" d="M 438.499301 497.32 
L 456.333423 497.32 
L 456.333423 497.32 
L 438.499301 497.32 
z
" style="fill:#1f77b4;opacity:0.4;"/>
   </g>
   <g id="patch_123">
    <path clip-path="url(#p3c3896ec6f)" d="M 456.333423 497.32 
L 474.167546 497.32 
L 474.167546 497.32 
L 456.333423 497.32 
z
" style="fill:#1f77b4;opacity:0.4;"/>
   </g>
   <g id="patch_124">
    <path clip-path="url(#p3c3896ec6f)" d="M 474.167546 497.32 
L 492.001669 497.32 
L 492.001669 496.06581 
L 474.167546 496.06581 
z
" style="fill:#1f77b4;opacity:0.4;"/>
   </g>
   <g id="matplotlib.axis_5">
    <g id="xtick_11">
     <g id="line2d_17">
      <g>
       <use style="stroke:#000000;stroke-width:0.8;" x="111.682819" xlink:href="#m2da7e14b6a" y="497.32"/>
      </g>
     </g>
     <g id="text_8">
      <!-- 0 -->
      <g transform="translate(103.729694 523.316094)scale(0.25 -0.25)">
       <use xlink:href="#DejaVuSans-48"/>
      </g>
     </g>
    </g>
    <g id="xtick_12">
     <g id="line2d_18">
      <g>
       <use style="stroke:#000000;stroke-width:0.8;" x="270.076878" xlink:href="#m2da7e14b6a" y="497.32"/>
      </g>
     </g>
     <g id="text_9">
      <!-- 5 -->
      <g transform="translate(262.123753 523.316094)scale(0.25 -0.25)">
       <use xlink:href="#DejaVuSans-53"/>
      </g>
     </g>
    </g>
    <g id="xtick_13">
     <g id="line2d_19">
      <g>
       <use style="stroke:#000000;stroke-width:0.8;" x="428.470937" xlink:href="#m2da7e14b6a" y="497.32"/>
      </g>
     </g>
     <g id="text_10">
      <!-- 10 -->
      <g transform="translate(412.564687 523.316094)scale(0.25 -0.25)">
       <use xlink:href="#DejaVuSans-49"/>
       <use x="63.623047" xlink:href="#DejaVuSans-48"/>
      </g>
     </g>
    </g>
    <g id="xtick_14">
     <g id="line2d_20">
      <g>
       <use style="stroke:#000000;stroke-width:0.8;" x="586.864996" xlink:href="#m2da7e14b6a" y="497.32"/>
      </g>
     </g>
     <g id="text_11">
      <!-- 15 -->
      <g transform="translate(570.958746 523.316094)scale(0.25 -0.25)">
       <use xlink:href="#DejaVuSans-49"/>
       <use x="63.623047" xlink:href="#DejaVuSans-53"/>
      </g>
     </g>
    </g>
    <g id="xtick_15">
     <g id="line2d_21">
      <g>
       <use style="stroke:#000000;stroke-width:0.8;" x="745.259055" xlink:href="#m2da7e14b6a" y="497.32"/>
      </g>
     </g>
     <g id="text_12">
      <!-- 20 -->
      <g transform="translate(729.352805 523.316094)scale(0.25 -0.25)">
       <use xlink:href="#DejaVuSans-50"/>
       <use x="63.623047" xlink:href="#DejaVuSans-48"/>
      </g>
     </g>
    </g>
    <g id="text_13">
     <!-- Bits per bp -->
     <defs>
      <path d="M 19.671875 34.8125 
L 19.671875 8.109375 
L 35.5 8.109375 
Q 43.453125 8.109375 47.28125 11.40625 
Q 51.125 14.703125 51.125 21.484375 
Q 51.125 28.328125 47.28125 31.5625 
Q 43.453125 34.8125 35.5 34.8125 
z
M 19.671875 64.796875 
L 19.671875 42.828125 
L 34.28125 42.828125 
Q 41.5 42.828125 45.03125 45.53125 
Q 48.578125 48.25 48.578125 53.8125 
Q 48.578125 59.328125 45.03125 62.0625 
Q 41.5 64.796875 34.28125 64.796875 
z
M 9.8125 72.90625 
L 35.015625 72.90625 
Q 46.296875 72.90625 52.390625 68.21875 
Q 58.5 63.53125 58.5 54.890625 
Q 58.5 48.1875 55.375 44.234375 
Q 52.25 40.28125 46.1875 39.3125 
Q 53.46875 37.75 57.5 32.78125 
Q 61.53125 27.828125 61.53125 20.40625 
Q 61.53125 10.640625 54.890625 5.3125 
Q 48.25 0 35.984375 0 
L 9.8125 0 
z
" id="DejaVuSans-66"/>
      <path d="M 48.6875 27.296875 
Q 48.6875 37.203125 44.609375 42.84375 
Q 40.53125 48.484375 33.40625 48.484375 
Q 26.265625 48.484375 22.1875 42.84375 
Q 18.109375 37.203125 18.109375 27.296875 
Q 18.109375 17.390625 22.1875 11.75 
Q 26.265625 6.109375 33.40625 6.109375 
Q 40.53125 6.109375 44.609375 11.75 
Q 48.6875 17.390625 48.6875 27.296875 
z
M 18.109375 46.390625 
Q 20.953125 51.265625 25.265625 53.625 
Q 29.59375 56 35.59375 56 
Q 45.5625 56 51.78125 48.09375 
Q 58.015625 40.1875 58.015625 27.296875 
Q 58.015625 14.40625 51.78125 6.484375 
Q 45.5625 -1.421875 35.59375 -1.421875 
Q 29.59375 -1.421875 25.265625 0.953125 
Q 20.953125 3.328125 18.109375 8.203125 
L 18.109375 0 
L 9.078125 0 
L 9.078125 75.984375 
L 18.109375 75.984375 
z
" id="DejaVuSans-98"/>
     </defs>
     <g transform="translate(383.773281 557.590156)scale(0.33 -0.33)">
      <use xlink:href="#DejaVuSans-66"/>
      <use x="68.603516" xlink:href="#DejaVuSans-105"/>
      <use x="96.386719" xlink:href="#DejaVuSans-116"/>
      <use x="135.595703" xlink:href="#DejaVuSans-115"/>
      <use x="187.695312" xlink:href="#DejaVuSans-32"/>
      <use x="219.482422" xlink:href="#DejaVuSans-112"/>
      <use x="282.958984" xlink:href="#DejaVuSans-101"/>
      <use x="344.482422" xlink:href="#DejaVuSans-114"/>
      <use x="385.595703" xlink:href="#DejaVuSans-32"/>
      <use x="417.382812" xlink:href="#DejaVuSans-98"/>
      <use x="480.859375" xlink:href="#DejaVuSans-112"/>
     </g>
    </g>
   </g>
   <g id="matplotlib.axis_6">
    <g id="ytick_5">
     <g id="line2d_22">
      <g>
       <use style="stroke:#000000;stroke-width:0.8;" x="93.98" xlink:href="#m535004f536" y="497.32"/>
      </g>
     </g>
     <g id="text_14">
      <!-- 0.0 -->
      <g transform="translate(47.222188 506.818047)scale(0.25 -0.25)">
       <use xlink:href="#DejaVuSans-48"/>
       <use x="63.623047" xlink:href="#DejaVuSans-46"/>
       <use x="95.410156" xlink:href="#DejaVuSans-48"/>
      </g>
     </g>
    </g>
    <g id="ytick_6">
     <g id="line2d_23">
      <g>
       <use style="stroke:#000000;stroke-width:0.8;" x="93.98" xlink:href="#m535004f536" y="432.008748"/>
      </g>
     </g>
     <g id="text_15">
      <!-- 0.5 -->
      <g transform="translate(47.222188 441.506794)scale(0.25 -0.25)">
       <use xlink:href="#DejaVuSans-48"/>
       <use x="63.623047" xlink:href="#DejaVuSans-46"/>
       <use x="95.410156" xlink:href="#DejaVuSans-53"/>
      </g>
     </g>
    </g>
   </g>
   <g id="line2d_24">
    <path clip-path="url(#p3c3896ec6f)" d="M 154.776882 497.197305 
L 158.707222 497.078484 
L 162.637561 496.86755 
L 166.567901 496.513142 
L 170.49824 495.949935 
L 174.42858 495.104136 
L 178.358919 493.905136 
L 182.289259 492.303011 
L 186.219598 490.288998 
L 190.149938 487.913386 
L 194.080277 485.293801 
L 198.010617 482.607848 
L 201.940956 480.067948 
L 205.871296 477.882011 
L 209.801635 476.209136 
L 213.731975 475.12234 
L 217.662314 474.588878 
L 221.592654 474.473467 
L 225.522993 474.562875 
L 229.453333 474.604855 
L 233.383672 474.352162 
L 237.314012 473.603623 
L 241.244351 472.23716 
L 245.174691 470.232251 
L 249.10503 467.680198 
L 253.03537 464.780188 
L 256.965709 461.819027 
L 260.896049 459.134178 
L 264.826388 457.063651 
L 268.756728 455.891029 
L 272.687067 455.797156 
L 276.617407 456.829769 
L 280.547746 458.898225 
L 284.478086 461.793836 
L 288.408425 465.229717 
L 292.338765 468.889876 
L 296.269104 472.476577 
L 300.199444 475.747485 
L 304.129783 478.538079 
L 308.060123 480.768836 
L 311.990462 482.439373 
L 315.920802 483.613103 
L 319.851141 484.396134 
L 323.781481 484.913972 
L 327.71182 485.289324 
L 331.64216 485.624068 
L 335.572499 485.988003 
L 339.502839 486.415892 
L 343.433178 486.912564 
L 347.363518 487.463813 
L 351.293857 488.04925 
L 355.224197 488.652949 
L 359.154536 489.268828 
L 363.084876 489.899997 
L 367.015215 490.553601 
L 370.945555 491.234105 
L 374.875894 491.938039 
L 378.806234 492.651994 
L 382.736573 493.354081 
L 386.666913 494.017774 
L 390.597252 494.616588 
L 394.527592 495.128336 
L 398.457931 495.538286 
L 402.388271 495.841079 
L 406.31861 496.041459 
L 410.24895 496.153792 
L 414.179289 496.200293 
L 418.109629 496.207934 
L 422.039968 496.204331 
L 425.970308 496.213331 
L 429.900647 496.251271 
L 433.830987 496.324866 
L 437.761326 496.431228 
L 441.691666 496.559895 
L 445.622005 496.696148 
L 449.552345 496.824608 
L 453.482684 496.932194 
L 457.413024 497.009923 
L 461.343363 497.053551 
L 465.273703 497.063367 
L 469.204042 497.043564 
L 473.134382 497.001465 
L 477.064721 496.94666 
L 480.995061 496.889939 
L 484.9254 496.841956 
L 488.85574 496.811686 
L 492.786079 496.804991 
L 496.716419 496.823679 
L 500.646758 496.865379 
L 504.577098 496.924331 
L 508.507437 496.992849 
L 512.437777 497.063036 
L 516.368116 497.128269 
L 520.298456 497.184105 
L 524.228795 497.228504 
L 528.159135 497.261482 
L 532.089474 497.284448 
L 536.019814 497.299482 
L 539.950153 497.308752 
L 543.880493 497.314142 
" style="fill:none;stroke:#1f77b4;stroke-linecap:square;stroke-width:3;"/>
   </g>
   <g id="patch_125">
    <path d="M 93.98 497.32 
L 93.98 427.524314 
" style="fill:none;stroke:#000000;stroke-linecap:square;stroke-linejoin:miter;stroke-width:0.8;"/>
   </g>
   <g id="patch_126">
    <path d="M 93.98 497.32 
L 853.2 497.32 
" style="fill:none;stroke:#000000;stroke-linecap:square;stroke-linejoin:miter;stroke-width:0.8;"/>
   </g>
   <g id="text_16">
    <!-- Pseudogenes (185) -->
    <g transform="translate(324.337109 421.077282)scale(0.31 -0.31)">
     <use xlink:href="#DejaVuSans-80"/>
     <use x="58.552734" xlink:href="#DejaVuSans-115"/>
     <use x="110.652344" xlink:href="#DejaVuSans-101"/>
     <use x="172.175781" xlink:href="#DejaVuSans-117"/>
     <use x="235.554688" xlink:href="#DejaVuSans-100"/>
     <use x="299.03125" xlink:href="#DejaVuSans-111"/>
     <use x="360.212891" xlink:href="#DejaVuSans-103"/>
     <use x="423.689453" xlink:href="#DejaVuSans-101"/>
     <use x="485.212891" xlink:href="#DejaVuSans-110"/>
     <use x="548.591797" xlink:href="#DejaVuSans-101"/>
     <use x="610.115234" xlink:href="#DejaVuSans-115"/>
     <use x="662.214844" xlink:href="#DejaVuSans-32"/>
     <use x="694.001953" xlink:href="#DejaVuSans-40"/>
     <use x="733.015625" xlink:href="#DejaVuSans-49"/>
     <use x="796.638672" xlink:href="#DejaVuSans-56"/>
     <use x="860.261719" xlink:href="#DejaVuSans-53"/>
     <use x="923.884766" xlink:href="#DejaVuSans-41"/>
    </g>
   </g>
  </g>
 </g>
 <defs>
  <clipPath id="p26aacba131">
   <rect height="69.795686" width="759.22" x="93.98" y="40.56"/>
  </clipPath>
  <clipPath id="p20dd70edc7">
   <rect height="69.795686" width="759.22" x="93.98" y="234.042157"/>
  </clipPath>
  <clipPath id="p3c3896ec6f">
   <rect height="69.795686" width="759.22" x="93.98" y="427.524314"/>
  </clipPath>
 </defs>
</svg>
