<?xml version="1.0" encoding="utf-8" standalone="no"?>
<!DOCTYPE svg PUBLIC "-//W3C//DTD SVG 1.1//EN"
  "http://www.w3.org/Graphics/SVG/1.1/DTD/svg11.dtd">
<!-- Created with matplotlib (https://matplotlib.org/) -->
<svg height="576pt" version="1.1" viewBox="0 0 864 576" width="864pt" xmlns="http://www.w3.org/2000/svg" xmlns:xlink="http://www.w3.org/1999/xlink">
 <defs>
  <style type="text/css">
*{stroke-linecap:butt;stroke-linejoin:round;}
  </style>
 </defs>
 <g id="figure_1">
  <g id="patch_1">
   <path d="M 0 576 
L 864 576 
L 864 0 
L 0 0 
z
" style="fill:#ffffff;"/>
  </g>
  <g id="axes_1">
   <g id="patch_2">
    <path d="M 59.56 140.503417 
L 853.2 140.503417 
L 853.2 10.8 
L 59.56 10.8 
z
" style="fill:#ffffff;"/>
   </g>
   <g id="patch_3">
    <path clip-path="url(#p65e1d41bc2)" d="M 95.634545 140.503417 
L 113.231885 140.503417 
L 113.231885 140.503417 
L 95.634545 140.503417 
z
" style="fill:#1f77b4;opacity:0.4;"/>
   </g>
   <g id="patch_4">
    <path clip-path="url(#p65e1d41bc2)" d="M 113.231885 140.503417 
L 130.829224 140.503417 
L 130.829224 140.503417 
L 113.231885 140.503417 
z
" style="fill:#1f77b4;opacity:0.4;"/>
   </g>
   <g id="patch_5">
    <path clip-path="url(#p65e1d41bc2)" d="M 130.829224 140.503417 
L 148.426563 140.503417 
L 148.426563 140.503417 
L 130.829224 140.503417 
z
" style="fill:#1f77b4;opacity:0.4;"/>
   </g>
   <g id="patch_6">
    <path clip-path="url(#p65e1d41bc2)" d="M 148.426563 140.503417 
L 166.023902 140.503417 
L 166.023902 140.503417 
L 148.426563 140.503417 
z
" style="fill:#1f77b4;opacity:0.4;"/>
   </g>
   <g id="patch_7">
    <path clip-path="url(#p65e1d41bc2)" d="M 166.023902 140.503417 
L 183.621242 140.503417 
L 183.621242 137.157614 
L 166.023902 137.157614 
z
" style="fill:#1f77b4;opacity:0.4;"/>
   </g>
   <g id="patch_8">
    <path clip-path="url(#p65e1d41bc2)" d="M 183.621242 140.503417 
L 201.218581 140.503417 
L 201.218581 139.700425 
L 183.621242 139.700425 
z
" style="fill:#1f77b4;opacity:0.4;"/>
   </g>
   <g id="patch_9">
    <path clip-path="url(#p65e1d41bc2)" d="M 201.218581 140.503417 
L 218.81592 140.503417 
L 218.81592 135.68546 
L 201.218581 135.68546 
z
" style="fill:#1f77b4;opacity:0.4;"/>
   </g>
   <g id="patch_10">
    <path clip-path="url(#p65e1d41bc2)" d="M 218.81592 140.503417 
L 236.413259 140.503417 
L 236.413259 139.566592 
L 218.81592 139.566592 
z
" style="fill:#1f77b4;opacity:0.4;"/>
   </g>
   <g id="patch_11">
    <path clip-path="url(#p65e1d41bc2)" d="M 236.413259 140.503417 
L 254.010599 140.503417 
L 254.010599 139.566592 
L 236.413259 139.566592 
z
" style="fill:#1f77b4;opacity:0.4;"/>
   </g>
   <g id="patch_12">
    <path clip-path="url(#p65e1d41bc2)" d="M 254.010599 140.503417 
L 271.607938 140.503417 
L 271.607938 140.503417 
L 254.010599 140.503417 
z
" style="fill:#1f77b4;opacity:0.4;"/>
   </g>
   <g id="patch_13">
    <path clip-path="url(#p65e1d41bc2)" d="M 271.607938 140.503417 
L 289.205277 140.503417 
L 289.205277 139.298928 
L 271.607938 139.298928 
z
" style="fill:#1f77b4;opacity:0.4;"/>
   </g>
   <g id="patch_14">
    <path clip-path="url(#p65e1d41bc2)" d="M 289.205277 140.503417 
L 306.802616 140.503417 
L 306.802616 140.101921 
L 289.205277 140.101921 
z
" style="fill:#1f77b4;opacity:0.4;"/>
   </g>
   <g id="patch_15">
    <path clip-path="url(#p65e1d41bc2)" d="M 306.802616 140.503417 
L 324.399956 140.503417 
L 324.399956 139.834257 
L 306.802616 139.834257 
z
" style="fill:#1f77b4;opacity:0.4;"/>
   </g>
   <g id="patch_16">
    <path clip-path="url(#p65e1d41bc2)" d="M 324.399956 140.503417 
L 341.997295 140.503417 
L 341.997295 140.235753 
L 324.399956 140.235753 
z
" style="fill:#1f77b4;opacity:0.4;"/>
   </g>
   <g id="patch_17">
    <path clip-path="url(#p65e1d41bc2)" d="M 341.997295 140.503417 
L 359.594634 140.503417 
L 359.594634 140.235753 
L 341.997295 140.235753 
z
" style="fill:#1f77b4;opacity:0.4;"/>
   </g>
   <g id="patch_18">
    <path clip-path="url(#p65e1d41bc2)" d="M 359.594634 140.503417 
L 377.191973 140.503417 
L 377.191973 139.968089 
L 359.594634 139.968089 
z
" style="fill:#1f77b4;opacity:0.4;"/>
   </g>
   <g id="patch_19">
    <path clip-path="url(#p65e1d41bc2)" d="M 377.191973 140.503417 
L 394.789313 140.503417 
L 394.789313 140.235753 
L 377.191973 140.235753 
z
" style="fill:#1f77b4;opacity:0.4;"/>
   </g>
   <g id="patch_20">
    <path clip-path="url(#p65e1d41bc2)" d="M 394.789313 140.503417 
L 412.386652 140.503417 
L 412.386652 139.700425 
L 394.789313 139.700425 
z
" style="fill:#1f77b4;opacity:0.4;"/>
   </g>
   <g id="patch_21">
    <path clip-path="url(#p65e1d41bc2)" d="M 412.386652 140.503417 
L 429.983991 140.503417 
L 429.983991 138.629767 
L 412.386652 138.629767 
z
" style="fill:#1f77b4;opacity:0.4;"/>
   </g>
   <g id="patch_22">
    <path clip-path="url(#p65e1d41bc2)" d="M 429.983991 140.503417 
L 447.58133 140.503417 
L 447.58133 128.592357 
L 429.983991 128.592357 
z
" style="fill:#1f77b4;opacity:0.4;"/>
   </g>
   <g id="patch_23">
    <path clip-path="url(#p65e1d41bc2)" d="M 447.58133 140.503417 
L 465.17867 140.503417 
L 465.17867 121.365422 
L 447.58133 121.365422 
z
" style="fill:#1f77b4;opacity:0.4;"/>
   </g>
   <g id="patch_24">
    <path clip-path="url(#p65e1d41bc2)" d="M 465.17867 140.503417 
L 482.776009 140.503417 
L 482.776009 105.439397 
L 465.17867 105.439397 
z
" style="fill:#1f77b4;opacity:0.4;"/>
   </g>
   <g id="patch_25">
    <path clip-path="url(#p65e1d41bc2)" d="M 482.776009 140.503417 
L 500.373348 140.503417 
L 500.373348 16.976353 
L 482.776009 16.976353 
z
" style="fill:#1f77b4;opacity:0.4;"/>
   </g>
   <g id="patch_26">
    <path clip-path="url(#p65e1d41bc2)" d="M 500.373348 140.503417 
L 517.970687 140.503417 
L 517.970687 84.96308 
L 500.373348 84.96308 
z
" style="fill:#1f77b4;opacity:0.4;"/>
   </g>
   <g id="patch_27">
    <path clip-path="url(#p65e1d41bc2)" d="M 517.970687 140.503417 
L 535.568027 140.503417 
L 535.568027 80.814283 
L 517.970687 80.814283 
z
" style="fill:#1f77b4;opacity:0.4;"/>
   </g>
   <g id="patch_28">
    <path clip-path="url(#p65e1d41bc2)" d="M 535.568027 140.503417 
L 553.165366 140.503417 
L 553.165366 108.383704 
L 535.568027 108.383704 
z
" style="fill:#1f77b4;opacity:0.4;"/>
   </g>
   <g id="patch_29">
    <path clip-path="url(#p65e1d41bc2)" d="M 553.165366 140.503417 
L 570.762705 140.503417 
L 570.762705 76.933151 
L 553.165366 76.933151 
z
" style="fill:#1f77b4;opacity:0.4;"/>
   </g>
   <g id="patch_30">
    <path clip-path="url(#p65e1d41bc2)" d="M 570.762705 140.503417 
L 588.360044 140.503417 
L 588.360044 107.313047 
L 570.762705 107.313047 
z
" style="fill:#1f77b4;opacity:0.4;"/>
   </g>
   <g id="patch_31">
    <path clip-path="url(#p65e1d41bc2)" d="M 588.360044 140.503417 
L 605.957384 140.503417 
L 605.957384 99.015454 
L 588.360044 99.015454 
z
" style="fill:#1f77b4;opacity:0.4;"/>
   </g>
   <g id="patch_32">
    <path clip-path="url(#p65e1d41bc2)" d="M 605.957384 140.503417 
L 623.554723 140.503417 
L 623.554723 118.688779 
L 605.957384 118.688779 
z
" style="fill:#1f77b4;opacity:0.4;"/>
   </g>
   <g id="patch_33">
    <path clip-path="url(#p65e1d41bc2)" d="M 623.554723 140.503417 
L 641.152062 140.503417 
L 641.152062 120.696261 
L 623.554723 120.696261 
z
" style="fill:#1f77b4;opacity:0.4;"/>
   </g>
   <g id="patch_34">
    <path clip-path="url(#p65e1d41bc2)" d="M 641.152062 140.503417 
L 658.749401 140.503417 
L 658.749401 132.205825 
L 641.152062 132.205825 
z
" style="fill:#1f77b4;opacity:0.4;"/>
   </g>
   <g id="patch_35">
    <path clip-path="url(#p65e1d41bc2)" d="M 658.749401 140.503417 
L 676.346741 140.503417 
L 676.346741 135.150132 
L 658.749401 135.150132 
z
" style="fill:#1f77b4;opacity:0.4;"/>
   </g>
   <g id="patch_36">
    <path clip-path="url(#p65e1d41bc2)" d="M 676.346741 140.503417 
L 693.94408 140.503417 
L 693.94408 137.826775 
L 676.346741 137.826775 
z
" style="fill:#1f77b4;opacity:0.4;"/>
   </g>
   <g id="patch_37">
    <path clip-path="url(#p65e1d41bc2)" d="M 693.94408 140.503417 
L 711.541419 140.503417 
L 711.541419 138.897432 
L 693.94408 138.897432 
z
" style="fill:#1f77b4;opacity:0.4;"/>
   </g>
   <g id="patch_38">
    <path clip-path="url(#p65e1d41bc2)" d="M 711.541419 140.503417 
L 729.138758 140.503417 
L 729.138758 139.700425 
L 711.541419 139.700425 
z
" style="fill:#1f77b4;opacity:0.4;"/>
   </g>
   <g id="patch_39">
    <path clip-path="url(#p65e1d41bc2)" d="M 729.138758 140.503417 
L 746.736098 140.503417 
L 746.736098 139.566592 
L 729.138758 139.566592 
z
" style="fill:#1f77b4;opacity:0.4;"/>
   </g>
   <g id="patch_40">
    <path clip-path="url(#p65e1d41bc2)" d="M 746.736098 140.503417 
L 764.333437 140.503417 
L 764.333437 140.369585 
L 746.736098 140.369585 
z
" style="fill:#1f77b4;opacity:0.4;"/>
   </g>
   <g id="patch_41">
    <path clip-path="url(#p65e1d41bc2)" d="M 764.333437 140.503417 
L 781.930776 140.503417 
L 781.930776 140.503417 
L 764.333437 140.503417 
z
" style="fill:#1f77b4;opacity:0.4;"/>
   </g>
   <g id="patch_42">
    <path clip-path="url(#p65e1d41bc2)" d="M 781.930776 140.503417 
L 799.528115 140.503417 
L 799.528115 140.369585 
L 781.930776 140.369585 
z
" style="fill:#1f77b4;opacity:0.4;"/>
   </g>
   <g id="patch_43">
    <path clip-path="url(#p65e1d41bc2)" d="M 799.528115 140.503417 
L 817.125455 140.503417 
L 817.125455 140.503417 
L 799.528115 140.503417 
z
" style="fill:#1f77b4;opacity:0.4;"/>
   </g>
   <g id="matplotlib.axis_1">
    <g id="xtick_1">
     <g id="line2d_1">
      <defs>
       <path d="M 0 0 
L 0 3.5 
" id="m12cdcdb7fd" style="stroke:#000000;stroke-width:0.8;"/>
      </defs>
      <g>
       <use style="stroke:#000000;stroke-width:0.8;" x="271.607938" xlink:href="#m12cdcdb7fd" y="140.503417"/>
      </g>
     </g>
     <g id="text_1">
      <!-- 5 -->
      <defs>
       <path d="M 12.359375 17.828125 
Q 13.234375 10.296875 19.34375 7.421875 
Q 22.46875 5.953125 26.5625 5.953125 
Q 34.375 5.953125 38.125 10.9375 
Q 41.890625 15.921875 41.890625 21.96875 
Q 41.890625 29.296875 37.421875 33.296875 
Q 32.953125 37.3125 26.703125 37.3125 
Q 22.171875 37.3125 18.921875 35.546875 
Q 15.671875 33.796875 13.375 30.671875 
L 5.765625 31.109375 
L 11.078125 68.75 
L 47.40625 68.75 
L 47.40625 60.25 
L 17.671875 60.25 
L 14.703125 40.828125 
Q 17.140625 42.671875 19.34375 43.609375 
Q 23.25 45.21875 28.375 45.21875 
Q 37.984375 45.21875 44.671875 39.015625 
Q 51.375 32.8125 51.375 23.296875 
Q 51.375 13.375 45.234375 5.796875 
Q 39.109375 -1.765625 25.6875 -1.765625 
Q 17.140625 -1.765625 10.5625 3.046875 
Q 4 7.859375 3.21875 17.828125 
z
" id="Helvetica-53"/>
      </defs>
      <g transform="translate(264.656766 165.437011)scale(0.25 -0.25)">
       <use xlink:href="#Helvetica-53"/>
      </g>
     </g>
    </g>
    <g id="xtick_2">
     <g id="line2d_2">
      <g>
       <use style="stroke:#000000;stroke-width:0.8;" x="447.58133" xlink:href="#m12cdcdb7fd" y="140.503417"/>
      </g>
     </g>
     <g id="text_2">
      <!-- 10 -->
      <defs>
       <path d="M 9.578125 49.515625 
L 9.578125 56.25 
Q 19.09375 57.171875 22.84375 59.34375 
Q 26.609375 61.53125 28.46875 69.625 
L 35.40625 69.625 
L 35.40625 0 
L 26.03125 0 
L 26.03125 49.515625 
z
" id="Helvetica-49"/>
       <path d="M 27.046875 69.921875 
Q 40.625 69.921875 46.6875 58.734375 
Q 51.375 50.09375 51.375 35.0625 
Q 51.375 20.796875 47.125 11.46875 
Q 40.96875 -1.90625 27 -1.90625 
Q 14.40625 -1.90625 8.25 9.03125 
Q 3.125 18.171875 3.125 33.546875 
Q 3.125 45.453125 6.203125 54 
Q 11.96875 69.921875 27.046875 69.921875 
z
M 26.953125 6.109375 
Q 33.796875 6.109375 37.84375 12.15625 
Q 41.890625 18.21875 41.890625 34.71875 
Q 41.890625 46.625 38.953125 54.3125 
Q 36.03125 62.015625 27.59375 62.015625 
Q 19.828125 62.015625 16.234375 54.703125 
Q 12.640625 47.40625 12.640625 33.203125 
Q 12.640625 22.515625 14.9375 16.015625 
Q 18.453125 6.109375 26.953125 6.109375 
z
" id="Helvetica-48"/>
      </defs>
      <g transform="translate(433.678987 165.437011)scale(0.25 -0.25)">
       <use xlink:href="#Helvetica-49"/>
       <use x="55.615234" xlink:href="#Helvetica-48"/>
      </g>
     </g>
    </g>
    <g id="xtick_3">
     <g id="line2d_3">
      <g>
       <use style="stroke:#000000;stroke-width:0.8;" x="623.554723" xlink:href="#m12cdcdb7fd" y="140.503417"/>
      </g>
     </g>
     <g id="text_3">
      <!-- 15 -->
      <g transform="translate(609.652379 165.437011)scale(0.25 -0.25)">
       <use xlink:href="#Helvetica-49"/>
       <use x="55.615234" xlink:href="#Helvetica-53"/>
      </g>
     </g>
    </g>
    <g id="xtick_4">
     <g id="line2d_4">
      <g>
       <use style="stroke:#000000;stroke-width:0.8;" x="799.528115" xlink:href="#m12cdcdb7fd" y="140.503417"/>
      </g>
     </g>
     <g id="text_4">
      <!-- 20 -->
      <defs>
       <path d="M 3.125 0 
Q 3.609375 9.03125 6.859375 15.71875 
Q 10.109375 22.40625 19.53125 27.875 
L 28.90625 33.296875 
Q 35.203125 36.96875 37.75 39.546875 
Q 41.75 43.609375 41.75 48.828125 
Q 41.75 54.9375 38.078125 58.515625 
Q 34.421875 62.109375 28.328125 62.109375 
Q 19.28125 62.109375 15.828125 55.28125 
Q 13.96875 51.609375 13.765625 45.125 
L 4.828125 45.125 
Q 4.984375 54.25 8.203125 60.015625 
Q 13.921875 70.171875 28.375 70.171875 
Q 40.375 70.171875 45.921875 63.671875 
Q 51.46875 57.171875 51.46875 49.21875 
Q 51.46875 40.828125 45.5625 34.859375 
Q 42.140625 31.390625 33.296875 26.46875 
L 26.609375 22.75 
Q 21.828125 20.125 19.09375 17.71875 
Q 14.203125 13.484375 12.9375 8.296875 
L 51.125 8.296875 
L 51.125 0 
L 3.125 0 
z
" id="Helvetica-50"/>
      </defs>
      <g transform="translate(785.625772 165.437011)scale(0.25 -0.25)">
       <use xlink:href="#Helvetica-50"/>
       <use x="55.615234" xlink:href="#Helvetica-48"/>
      </g>
     </g>
    </g>
   </g>
   <g id="matplotlib.axis_2">
    <g id="ytick_1">
     <g id="line2d_5">
      <defs>
       <path d="M 0 0 
L -3.5 0 
" id="m999baba19c" style="stroke:#000000;stroke-width:0.8;"/>
      </defs>
      <g>
       <use style="stroke:#000000;stroke-width:0.8;" x="59.56" xlink:href="#m999baba19c" y="140.503417"/>
      </g>
     </g>
     <g id="text_5">
      <!-- 0 -->
      <g transform="translate(38.657656 149.470214)scale(0.25 -0.25)">
       <use xlink:href="#Helvetica-48"/>
      </g>
     </g>
    </g>
    <g id="ytick_2">
     <g id="line2d_6">
      <g>
       <use style="stroke:#000000;stroke-width:0.8;" x="59.56" xlink:href="#m999baba19c" y="73.587348"/>
      </g>
     </g>
     <g id="text_6">
      <!-- 500 -->
      <g transform="translate(10.852969 82.554145)scale(0.25 -0.25)">
       <use xlink:href="#Helvetica-53"/>
       <use x="55.615234" xlink:href="#Helvetica-48"/>
       <use x="111.230469" xlink:href="#Helvetica-48"/>
      </g>
     </g>
    </g>
   </g>
   <g id="line2d_7">
    <path clip-path="url(#p65e1d41bc2)" d="M 522.306749 140.503417 
L 522.306749 10.8 
" style="fill:none;stroke:#1f77b4;stroke-linecap:square;stroke-width:1.5;"/>
   </g>
   <g id="patch_44">
    <path d="M 59.56 140.503417 
L 59.56 10.8 
" style="fill:none;stroke:#000000;stroke-linecap:square;stroke-linejoin:miter;stroke-width:0.8;"/>
   </g>
   <g id="patch_45">
    <path d="M 59.56 140.503417 
L 853.2 140.503417 
" style="fill:none;stroke:#000000;stroke-linecap:square;stroke-linejoin:miter;stroke-width:0.8;"/>
   </g>
   <g id="text_7">
    <!-- Genes (4140) -->
    <defs>
     <path d="M 38.625 73.578125 
Q 48.734375 73.578125 56.109375 69.671875 
Q 66.796875 64.0625 69.1875 50 
L 59.578125 50 
Q 57.8125 57.859375 52.296875 61.453125 
Q 46.78125 65.046875 38.375 65.046875 
Q 28.421875 65.046875 21.609375 57.5625 
Q 14.796875 50.09375 14.796875 35.296875 
Q 14.796875 22.515625 20.40625 14.484375 
Q 26.03125 6.453125 38.71875 6.453125 
Q 48.4375 6.453125 54.8125 12.078125 
Q 61.1875 17.71875 61.328125 30.328125 
L 38.875 30.328125 
L 38.875 38.375 
L 70.359375 38.375 
L 70.359375 0 
L 64.109375 0 
L 61.765625 9.234375 
Q 56.84375 3.8125 53.03125 1.703125 
Q 46.625 -1.90625 36.765625 -1.90625 
Q 24.03125 -1.90625 14.84375 6.34375 
Q 4.828125 16.703125 4.828125 34.765625 
Q 4.828125 52.78125 14.59375 63.421875 
Q 23.875 73.578125 38.625 73.578125 
z
M 37.015625 73.6875 
z
" id="Helvetica-71"/>
     <path d="M 28.21875 53.46875 
Q 33.796875 53.46875 39.015625 50.859375 
Q 44.234375 48.25 46.96875 44.09375 
Q 49.609375 40.140625 50.484375 34.859375 
Q 51.265625 31.25 51.265625 23.34375 
L 12.9375 23.34375 
Q 13.1875 15.375 16.703125 10.5625 
Q 20.21875 5.765625 27.59375 5.765625 
Q 34.46875 5.765625 38.578125 10.296875 
Q 40.921875 12.9375 41.890625 16.40625 
L 50.53125 16.40625 
Q 50.203125 13.53125 48.265625 9.984375 
Q 46.34375 6.453125 43.953125 4.203125 
Q 39.9375 0.296875 34.03125 -1.078125 
Q 30.859375 -1.859375 26.859375 -1.859375 
Q 17.09375 -1.859375 10.296875 5.25 
Q 3.515625 12.359375 3.515625 25.140625 
Q 3.515625 37.75 10.34375 45.609375 
Q 17.1875 53.46875 28.21875 53.46875 
z
M 42.234375 30.328125 
Q 41.703125 36.03125 39.75 39.453125 
Q 36.140625 45.796875 27.6875 45.796875 
Q 21.625 45.796875 17.515625 41.421875 
Q 13.421875 37.0625 13.1875 30.328125 
z
M 27.390625 53.5625 
z
" id="Helvetica-101"/>
     <path d="M 6.453125 52.296875 
L 14.796875 52.296875 
L 14.796875 44.875 
Q 18.5 49.46875 22.65625 51.46875 
Q 26.8125 53.46875 31.890625 53.46875 
Q 43.015625 53.46875 46.921875 45.703125 
Q 49.078125 41.453125 49.078125 33.546875 
L 49.078125 0 
L 40.140625 0 
L 40.140625 32.953125 
Q 40.140625 37.75 38.71875 40.671875 
Q 36.375 45.5625 30.21875 45.5625 
Q 27.09375 45.5625 25.09375 44.921875 
Q 21.484375 43.84375 18.75 40.625 
Q 16.546875 38.03125 15.890625 35.265625 
Q 15.234375 32.515625 15.234375 27.390625 
L 15.234375 0 
L 6.453125 0 
z
M 27.09375 53.5625 
z
" id="Helvetica-110"/>
     <path d="M 11.671875 16.40625 
Q 12.0625 12.015625 13.875 9.671875 
Q 17.1875 5.421875 25.390625 5.421875 
Q 30.28125 5.421875 33.984375 7.546875 
Q 37.703125 9.671875 37.703125 14.109375 
Q 37.703125 17.484375 34.71875 19.234375 
Q 32.8125 20.3125 27.203125 21.734375 
L 20.21875 23.484375 
Q 13.53125 25.140625 10.359375 27.203125 
Q 4.6875 30.765625 4.6875 37.0625 
Q 4.6875 44.484375 10.03125 49.0625 
Q 15.375 53.65625 24.421875 53.65625 
Q 36.234375 53.65625 41.453125 46.734375 
Q 44.734375 42.328125 44.625 37.25 
L 36.328125 37.25 
Q 36.078125 40.234375 34.234375 42.671875 
Q 31.203125 46.140625 23.734375 46.140625 
Q 18.75 46.140625 16.1875 44.234375 
Q 13.625 42.328125 13.625 39.203125 
Q 13.625 35.796875 17 33.734375 
Q 18.953125 32.515625 22.75 31.59375 
L 28.5625 30.171875 
Q 38.03125 27.875 41.265625 25.734375 
Q 46.390625 22.359375 46.390625 15.140625 
Q 46.390625 8.15625 41.09375 3.078125 
Q 35.796875 -2 24.953125 -2 
Q 13.28125 -2 8.421875 3.296875 
Q 3.5625 8.59375 3.21875 16.40625 
z
M 24.65625 53.5625 
z
" id="Helvetica-115"/>
     <path id="Helvetica-32"/>
     <path d="M 29.59375 72.90625 
Q 21.921875 58.015625 19.625 50.984375 
Q 16.15625 40.28125 16.15625 26.265625 
Q 16.15625 12.109375 20.125 0.390625 
Q 22.5625 -6.84375 29.734375 -20.40625 
L 23.828125 -20.40625 
Q 16.703125 -9.28125 14.984375 -6.203125 
Q 13.28125 -3.125 11.28125 2.15625 
Q 8.546875 9.375 7.46875 17.578125 
Q 6.9375 21.828125 6.9375 25.6875 
Q 6.9375 40.140625 11.46875 51.421875 
Q 14.359375 58.59375 23.484375 72.90625 
z
" id="Helvetica-40"/>
     <path d="M 33.0625 24.75 
L 33.0625 56.453125 
L 10.640625 24.75 
z
M 33.203125 0 
L 33.203125 17.09375 
L 2.546875 17.09375 
L 2.546875 25.6875 
L 34.578125 70.125 
L 42 70.125 
L 42 24.75 
L 52.296875 24.75 
L 52.296875 17.09375 
L 42 17.09375 
L 42 0 
z
" id="Helvetica-52"/>
     <path d="M 3.46875 -20.40625 
Q 11.234375 -5.28125 13.484375 1.65625 
Q 16.890625 12.15625 16.890625 26.265625 
Q 16.890625 40.375 12.9375 52.09375 
Q 10.5 59.328125 3.328125 72.90625 
L 9.234375 72.90625 
Q 16.75 60.890625 18.328125 58.078125 
Q 19.921875 55.28125 21.78125 50.34375 
Q 24.125 44.234375 25.125 38.28125 
Q 26.125 32.328125 26.125 26.8125 
Q 26.125 12.359375 21.53125 1.03125 
Q 18.65625 -6.25 9.578125 -20.40625 
z
" id="Helvetica-41"/>
    </defs>
    <g transform="translate(658.192675 121.047905)scale(0.28 -0.28)">
     <use xlink:href="#Helvetica-71"/>
     <use x="77.783203" xlink:href="#Helvetica-101"/>
     <use x="133.398438" xlink:href="#Helvetica-110"/>
     <use x="189.013672" xlink:href="#Helvetica-101"/>
     <use x="244.628906" xlink:href="#Helvetica-115"/>
     <use x="294.628906" xlink:href="#Helvetica-32"/>
     <use x="322.412109" xlink:href="#Helvetica-40"/>
     <use x="355.712891" xlink:href="#Helvetica-52"/>
     <use x="411.328125" xlink:href="#Helvetica-49"/>
     <use x="466.943359" xlink:href="#Helvetica-52"/>
     <use x="522.558594" xlink:href="#Helvetica-48"/>
     <use x="578.173828" xlink:href="#Helvetica-41"/>
    </g>
   </g>
  </g>
  <g id="axes_2">
   <g id="patch_46">
    <path d="M 59.56 319.631709 
L 853.2 319.631709 
L 853.2 189.928291 
L 59.56 189.928291 
z
" style="fill:#ffffff;"/>
   </g>
   <g id="patch_47">
    <path clip-path="url(#p0eea7cb460)" d="M 95.634545 319.631709 
L 113.231885 319.631709 
L 113.231885 319.631709 
L 95.634545 319.631709 
z
" style="fill:#1f77b4;opacity:0.4;"/>
   </g>
   <g id="patch_48">
    <path clip-path="url(#p0eea7cb460)" d="M 113.231885 319.631709 
L 130.829224 319.631709 
L 130.829224 319.631709 
L 113.231885 319.631709 
z
" style="fill:#1f77b4;opacity:0.4;"/>
   </g>
   <g id="patch_49">
    <path clip-path="url(#p0eea7cb460)" d="M 130.829224 319.631709 
L 148.426563 319.631709 
L 148.426563 319.631709 
L 130.829224 319.631709 
z
" style="fill:#1f77b4;opacity:0.4;"/>
   </g>
   <g id="patch_50">
    <path clip-path="url(#p0eea7cb460)" d="M 148.426563 319.631709 
L 166.023902 319.631709 
L 166.023902 319.631709 
L 148.426563 319.631709 
z
" style="fill:#1f77b4;opacity:0.4;"/>
   </g>
   <g id="patch_51">
    <path clip-path="url(#p0eea7cb460)" d="M 166.023902 319.631709 
L 183.621242 319.631709 
L 183.621242 318.154554 
L 166.023902 318.154554 
z
" style="fill:#1f77b4;opacity:0.4;"/>
   </g>
   <g id="patch_52">
    <path clip-path="url(#p0eea7cb460)" d="M 183.621242 319.631709 
L 201.218581 319.631709 
L 201.218581 317.96991 
L 183.621242 317.96991 
z
" style="fill:#1f77b4;opacity:0.4;"/>
   </g>
   <g id="patch_53">
    <path clip-path="url(#p0eea7cb460)" d="M 201.218581 319.631709 
L 218.81592 319.631709 
L 218.81592 309.845559 
L 201.218581 309.845559 
z
" style="fill:#1f77b4;opacity:0.4;"/>
   </g>
   <g id="patch_54">
    <path clip-path="url(#p0eea7cb460)" d="M 218.81592 319.631709 
L 236.413259 319.631709 
L 236.413259 317.96991 
L 218.81592 317.96991 
z
" style="fill:#1f77b4;opacity:0.4;"/>
   </g>
   <g id="patch_55">
    <path clip-path="url(#p0eea7cb460)" d="M 236.413259 319.631709 
L 254.010599 319.631709 
L 254.010599 318.893131 
L 236.413259 318.893131 
z
" style="fill:#1f77b4;opacity:0.4;"/>
   </g>
   <g id="patch_56">
    <path clip-path="url(#p0eea7cb460)" d="M 254.010599 319.631709 
L 271.607938 319.631709 
L 271.607938 317.231332 
L 254.010599 317.231332 
z
" style="fill:#1f77b4;opacity:0.4;"/>
   </g>
   <g id="patch_57">
    <path clip-path="url(#p0eea7cb460)" d="M 271.607938 319.631709 
L 289.205277 319.631709 
L 289.205277 308.368404 
L 271.607938 308.368404 
z
" style="fill:#1f77b4;opacity:0.4;"/>
   </g>
   <g id="patch_58">
    <path clip-path="url(#p0eea7cb460)" d="M 289.205277 319.631709 
L 306.802616 319.631709 
L 306.802616 316.492755 
L 289.205277 316.492755 
z
" style="fill:#1f77b4;opacity:0.4;"/>
   </g>
   <g id="patch_59">
    <path clip-path="url(#p0eea7cb460)" d="M 306.802616 319.631709 
L 324.399956 319.631709 
L 324.399956 316.492755 
L 306.802616 316.492755 
z
" style="fill:#1f77b4;opacity:0.4;"/>
   </g>
   <g id="patch_60">
    <path clip-path="url(#p0eea7cb460)" d="M 324.399956 319.631709 
L 341.997295 319.631709 
L 341.997295 316.123466 
L 324.399956 316.123466 
z
" style="fill:#1f77b4;opacity:0.4;"/>
   </g>
   <g id="patch_61">
    <path clip-path="url(#p0eea7cb460)" d="M 341.997295 319.631709 
L 359.594634 319.631709 
L 359.594634 314.092378 
L 341.997295 314.092378 
z
" style="fill:#1f77b4;opacity:0.4;"/>
   </g>
   <g id="patch_62">
    <path clip-path="url(#p0eea7cb460)" d="M 359.594634 319.631709 
L 377.191973 319.631709 
L 377.191973 314.092378 
L 359.594634 314.092378 
z
" style="fill:#1f77b4;opacity:0.4;"/>
   </g>
   <g id="patch_63">
    <path clip-path="url(#p0eea7cb460)" d="M 377.191973 319.631709 
L 394.789313 319.631709 
L 394.789313 311.507358 
L 377.191973 311.507358 
z
" style="fill:#1f77b4;opacity:0.4;"/>
   </g>
   <g id="patch_64">
    <path clip-path="url(#p0eea7cb460)" d="M 394.789313 319.631709 
L 412.386652 319.631709 
L 412.386652 312.984512 
L 394.789313 312.984512 
z
" style="fill:#1f77b4;opacity:0.4;"/>
   </g>
   <g id="patch_65">
    <path clip-path="url(#p0eea7cb460)" d="M 412.386652 319.631709 
L 429.983991 319.631709 
L 429.983991 315.200244 
L 412.386652 315.200244 
z
" style="fill:#1f77b4;opacity:0.4;"/>
   </g>
   <g id="patch_66">
    <path clip-path="url(#p0eea7cb460)" d="M 429.983991 319.631709 
L 447.58133 319.631709 
L 447.58133 302.644429 
L 429.983991 302.644429 
z
" style="fill:#1f77b4;opacity:0.4;"/>
   </g>
   <g id="patch_67">
    <path clip-path="url(#p0eea7cb460)" d="M 447.58133 319.631709 
L 465.17867 319.631709 
L 465.17867 290.457903 
L 447.58133 290.457903 
z
" style="fill:#1f77b4;opacity:0.4;"/>
   </g>
   <g id="patch_68">
    <path clip-path="url(#p0eea7cb460)" d="M 465.17867 319.631709 
L 482.776009 319.631709 
L 482.776009 264.238406 
L 465.17867 264.238406 
z
" style="fill:#1f77b4;opacity:0.4;"/>
   </g>
   <g id="patch_69">
    <path clip-path="url(#p0eea7cb460)" d="M 482.776009 319.631709 
L 500.373348 319.631709 
L 500.373348 196.104645 
L 482.776009 196.104645 
z
" style="fill:#1f77b4;opacity:0.4;"/>
   </g>
   <g id="patch_70">
    <path clip-path="url(#p0eea7cb460)" d="M 500.373348 319.631709 
L 517.970687 319.631709 
L 517.970687 255.006189 
L 500.373348 255.006189 
z
" style="fill:#1f77b4;opacity:0.4;"/>
   </g>
   <g id="patch_71">
    <path clip-path="url(#p0eea7cb460)" d="M 517.970687 319.631709 
L 535.568027 319.631709 
L 535.568027 255.744767 
L 517.970687 255.744767 
z
" style="fill:#1f77b4;opacity:0.4;"/>
   </g>
   <g id="patch_72">
    <path clip-path="url(#p0eea7cb460)" d="M 535.568027 319.631709 
L 553.165366 319.631709 
L 553.165366 267.37736 
L 535.568027 267.37736 
z
" style="fill:#1f77b4;opacity:0.4;"/>
   </g>
   <g id="patch_73">
    <path clip-path="url(#p0eea7cb460)" d="M 553.165366 319.631709 
L 570.762705 319.631709 
L 570.762705 267.008071 
L 553.165366 267.008071 
z
" style="fill:#1f77b4;opacity:0.4;"/>
   </g>
   <g id="patch_74">
    <path clip-path="url(#p0eea7cb460)" d="M 570.762705 319.631709 
L 588.360044 319.631709 
L 588.360044 278.086732 
L 570.762705 278.086732 
z
" style="fill:#1f77b4;opacity:0.4;"/>
   </g>
   <g id="patch_75">
    <path clip-path="url(#p0eea7cb460)" d="M 588.360044 319.631709 
L 605.957384 319.631709 
L 605.957384 285.472506 
L 588.360044 285.472506 
z
" style="fill:#1f77b4;opacity:0.4;"/>
   </g>
   <g id="patch_76">
    <path clip-path="url(#p0eea7cb460)" d="M 605.957384 319.631709 
L 623.554723 319.631709 
L 623.554723 299.874764 
L 605.957384 299.874764 
z
" style="fill:#1f77b4;opacity:0.4;"/>
   </g>
   <g id="patch_77">
    <path clip-path="url(#p0eea7cb460)" d="M 623.554723 319.631709 
L 641.152062 319.631709 
L 641.152062 303.013718 
L 623.554723 303.013718 
z
" style="fill:#1f77b4;opacity:0.4;"/>
   </g>
   <g id="patch_78">
    <path clip-path="url(#p0eea7cb460)" d="M 641.152062 319.631709 
L 658.749401 319.631709 
L 658.749401 313.353801 
L 641.152062 313.353801 
z
" style="fill:#1f77b4;opacity:0.4;"/>
   </g>
   <g id="patch_79">
    <path clip-path="url(#p0eea7cb460)" d="M 658.749401 319.631709 
L 676.346741 319.631709 
L 676.346741 315.938822 
L 658.749401 315.938822 
z
" style="fill:#1f77b4;opacity:0.4;"/>
   </g>
   <g id="patch_80">
    <path clip-path="url(#p0eea7cb460)" d="M 676.346741 319.631709 
L 693.94408 319.631709 
L 693.94408 317.231332 
L 676.346741 317.231332 
z
" style="fill:#1f77b4;opacity:0.4;"/>
   </g>
   <g id="patch_81">
    <path clip-path="url(#p0eea7cb460)" d="M 693.94408 319.631709 
L 711.541419 319.631709 
L 711.541419 317.785265 
L 693.94408 317.785265 
z
" style="fill:#1f77b4;opacity:0.4;"/>
   </g>
   <g id="patch_82">
    <path clip-path="url(#p0eea7cb460)" d="M 711.541419 319.631709 
L 729.138758 319.631709 
L 729.138758 318.708487 
L 711.541419 318.708487 
z
" style="fill:#1f77b4;opacity:0.4;"/>
   </g>
   <g id="patch_83">
    <path clip-path="url(#p0eea7cb460)" d="M 729.138758 319.631709 
L 746.736098 319.631709 
L 746.736098 319.077776 
L 729.138758 319.077776 
z
" style="fill:#1f77b4;opacity:0.4;"/>
   </g>
   <g id="patch_84">
    <path clip-path="url(#p0eea7cb460)" d="M 746.736098 319.631709 
L 764.333437 319.631709 
L 764.333437 318.339198 
L 746.736098 318.339198 
z
" style="fill:#1f77b4;opacity:0.4;"/>
   </g>
   <g id="patch_85">
    <path clip-path="url(#p0eea7cb460)" d="M 764.333437 319.631709 
L 781.930776 319.631709 
L 781.930776 318.893131 
L 764.333437 318.893131 
z
" style="fill:#1f77b4;opacity:0.4;"/>
   </g>
   <g id="patch_86">
    <path clip-path="url(#p0eea7cb460)" d="M 781.930776 319.631709 
L 799.528115 319.631709 
L 799.528115 319.631709 
L 781.930776 319.631709 
z
" style="fill:#1f77b4;opacity:0.4;"/>
   </g>
   <g id="patch_87">
    <path clip-path="url(#p0eea7cb460)" d="M 799.528115 319.631709 
L 817.125455 319.631709 
L 817.125455 319.631709 
L 799.528115 319.631709 
z
" style="fill:#1f77b4;opacity:0.4;"/>
   </g>
   <g id="matplotlib.axis_3">
    <g id="xtick_5">
     <g id="line2d_8">
      <g>
       <use style="stroke:#000000;stroke-width:0.8;" x="271.607938" xlink:href="#m12cdcdb7fd" y="319.631709"/>
      </g>
     </g>
     <g id="text_8">
      <!-- 5 -->
      <g transform="translate(264.656766 344.565302)scale(0.25 -0.25)">
       <use xlink:href="#Helvetica-53"/>
      </g>
     </g>
    </g>
    <g id="xtick_6">
     <g id="line2d_9">
      <g>
       <use style="stroke:#000000;stroke-width:0.8;" x="447.58133" xlink:href="#m12cdcdb7fd" y="319.631709"/>
      </g>
     </g>
     <g id="text_9">
      <!-- 10 -->
      <g transform="translate(433.678987 344.565302)scale(0.25 -0.25)">
       <use xlink:href="#Helvetica-49"/>
       <use x="55.615234" xlink:href="#Helvetica-48"/>
      </g>
     </g>
    </g>
    <g id="xtick_7">
     <g id="line2d_10">
      <g>
       <use style="stroke:#000000;stroke-width:0.8;" x="623.554723" xlink:href="#m12cdcdb7fd" y="319.631709"/>
      </g>
     </g>
     <g id="text_10">
      <!-- 15 -->
      <g transform="translate(609.652379 344.565302)scale(0.25 -0.25)">
       <use xlink:href="#Helvetica-49"/>
       <use x="55.615234" xlink:href="#Helvetica-53"/>
      </g>
     </g>
    </g>
    <g id="xtick_8">
     <g id="line2d_11">
      <g>
       <use style="stroke:#000000;stroke-width:0.8;" x="799.528115" xlink:href="#m12cdcdb7fd" y="319.631709"/>
      </g>
     </g>
     <g id="text_11">
      <!-- 20 -->
      <g transform="translate(785.625772 344.565302)scale(0.25 -0.25)">
       <use xlink:href="#Helvetica-50"/>
       <use x="55.615234" xlink:href="#Helvetica-48"/>
      </g>
     </g>
    </g>
   </g>
   <g id="matplotlib.axis_4">
    <g id="ytick_3">
     <g id="line2d_12">
      <g>
       <use style="stroke:#000000;stroke-width:0.8;" x="59.56" xlink:href="#m999baba19c" y="319.631709"/>
      </g>
     </g>
     <g id="text_12">
      <!-- 0 -->
      <g transform="translate(38.657656 328.598506)scale(0.25 -0.25)">
       <use xlink:href="#Helvetica-48"/>
      </g>
     </g>
    </g>
    <g id="ytick_4">
     <g id="line2d_13">
      <g>
       <use style="stroke:#000000;stroke-width:0.8;" x="59.56" xlink:href="#m999baba19c" y="227.309538"/>
      </g>
     </g>
     <g id="text_13">
      <!-- 500 -->
      <g transform="translate(10.852969 236.276335)scale(0.25 -0.25)">
       <use xlink:href="#Helvetica-53"/>
       <use x="55.615234" xlink:href="#Helvetica-48"/>
       <use x="111.230469" xlink:href="#Helvetica-48"/>
      </g>
     </g>
    </g>
   </g>
   <g id="line2d_14">
    <path clip-path="url(#p0eea7cb460)" d="M 509.531796 319.631709 
L 509.531796 189.928291 
" style="fill:none;stroke:#1f77b4;stroke-linecap:square;stroke-width:1.5;"/>
   </g>
   <g id="patch_88">
    <path d="M 59.56 319.631709 
L 59.56 189.928291 
" style="fill:none;stroke:#000000;stroke-linecap:square;stroke-linejoin:miter;stroke-width:0.8;"/>
   </g>
   <g id="patch_89">
    <path d="M 59.56 319.631709 
L 853.2 319.631709 
" style="fill:none;stroke:#000000;stroke-linecap:square;stroke-linejoin:miter;stroke-width:0.8;"/>
   </g>
   <g id="text_14">
    <!-- TUs (3560) -->
    <defs>
     <path d="M 59.8125 71.734375 
L 59.8125 63.1875 
L 35.640625 63.1875 
L 35.640625 0 
L 25.78125 0 
L 25.78125 63.1875 
L 1.609375 63.1875 
L 1.609375 71.734375 
z
" id="Helvetica-84"/>
     <path d="M 18.171875 71.734375 
L 18.171875 27.390625 
Q 18.171875 19.578125 21.09375 14.40625 
Q 25.4375 6.59375 35.75 6.59375 
Q 48.09375 6.59375 52.546875 15.046875 
Q 54.9375 19.625 54.9375 27.390625 
L 54.9375 71.734375 
L 64.796875 71.734375 
L 64.796875 31.453125 
Q 64.796875 18.21875 61.234375 11.078125 
Q 54.6875 -1.90625 36.53125 -1.90625 
Q 18.359375 -1.90625 11.859375 11.078125 
Q 8.296875 18.21875 8.296875 31.453125 
L 8.296875 71.734375 
z
M 36.578125 71.734375 
z
" id="Helvetica-85"/>
     <path d="M 25.984375 -1.90625 
Q 13.578125 -1.90625 7.984375 4.90625 
Q 2.390625 11.71875 2.390625 21.484375 
L 11.578125 21.484375 
Q 12.15625 14.703125 14.109375 11.625 
Q 17.53125 6.109375 26.46875 6.109375 
Q 33.40625 6.109375 37.59375 9.8125 
Q 41.796875 13.53125 41.796875 19.390625 
Q 41.796875 26.609375 37.375 29.484375 
Q 32.953125 32.375 25.09375 32.375 
Q 24.21875 32.375 23.3125 32.34375 
Q 22.40625 32.328125 21.484375 32.28125 
L 21.484375 40.046875 
Q 22.859375 39.890625 23.78125 39.84375 
Q 24.703125 39.796875 25.78125 39.796875 
Q 30.71875 39.796875 33.890625 41.359375 
Q 39.453125 44.09375 39.453125 51.125 
Q 39.453125 56.34375 35.734375 59.171875 
Q 32.03125 62.015625 27.09375 62.015625 
Q 18.3125 62.015625 14.9375 56.15625 
Q 13.09375 52.9375 12.84375 46.96875 
L 4.15625 46.96875 
Q 4.15625 54.78125 7.28125 60.25 
Q 12.640625 70.015625 26.171875 70.015625 
Q 36.859375 70.015625 42.71875 65.25 
Q 48.578125 60.5 48.578125 51.46875 
Q 48.578125 45.015625 45.125 41.015625 
Q 42.96875 38.53125 39.546875 37.109375 
Q 45.0625 35.59375 48.15625 31.265625 
Q 51.265625 26.953125 51.265625 20.703125 
Q 51.265625 10.6875 44.671875 4.390625 
Q 38.09375 -1.90625 25.984375 -1.90625 
z
" id="Helvetica-51"/>
     <path d="M 29.25 70.21875 
Q 40.96875 70.21875 45.578125 64.140625 
Q 50.203125 58.0625 50.203125 51.609375 
L 41.5 51.609375 
Q 40.71875 55.765625 39.015625 58.109375 
Q 35.84375 62.5 29.390625 62.5 
Q 22.015625 62.5 17.671875 55.6875 
Q 13.328125 48.875 12.84375 36.1875 
Q 15.875 40.625 20.453125 42.828125 
Q 24.65625 44.78125 29.828125 44.78125 
Q 38.625 44.78125 45.15625 39.15625 
Q 51.703125 33.546875 51.703125 22.40625 
Q 51.703125 12.890625 45.5 5.53125 
Q 39.3125 -1.8125 27.828125 -1.8125 
Q 18.015625 -1.8125 10.890625 5.640625 
Q 3.765625 13.09375 3.765625 30.71875 
Q 3.765625 43.75 6.9375 52.828125 
Q 13.03125 70.21875 29.25 70.21875 
z
M 28.609375 6 
Q 35.546875 6 38.984375 10.65625 
Q 42.4375 15.328125 42.4375 21.6875 
Q 42.4375 27.046875 39.359375 31.90625 
Q 36.28125 36.765625 28.171875 36.765625 
Q 22.515625 36.765625 18.234375 33 
Q 13.96875 29.25 13.96875 21.6875 
Q 13.96875 15.046875 17.84375 10.515625 
Q 21.734375 6 28.609375 6 
z
" id="Helvetica-54"/>
    </defs>
    <g transform="translate(689.360175 300.176196)scale(0.28 -0.28)">
     <use xlink:href="#Helvetica-84"/>
     <use x="61.083984" xlink:href="#Helvetica-85"/>
     <use x="133.300781" xlink:href="#Helvetica-115"/>
     <use x="183.300781" xlink:href="#Helvetica-32"/>
     <use x="211.083984" xlink:href="#Helvetica-40"/>
     <use x="244.384766" xlink:href="#Helvetica-51"/>
     <use x="300" xlink:href="#Helvetica-53"/>
     <use x="355.615234" xlink:href="#Helvetica-54"/>
     <use x="411.230469" xlink:href="#Helvetica-48"/>
     <use x="466.845703" xlink:href="#Helvetica-41"/>
    </g>
   </g>
  </g>
  <g id="axes_3">
   <g id="patch_90">
    <path d="M 59.56 498.76 
L 853.2 498.76 
L 853.2 369.056583 
L 59.56 369.056583 
z
" style="fill:#ffffff;"/>
   </g>
   <g id="patch_91">
    <path clip-path="url(#p0b1041b182)" d="M 95.634545 498.76 
L 113.231885 498.76 
L 113.231885 498.76 
L 95.634545 498.76 
z
" style="fill:#1f77b4;opacity:0.4;"/>
   </g>
   <g id="patch_92">
    <path clip-path="url(#p0b1041b182)" d="M 113.231885 498.76 
L 130.829224 498.76 
L 130.829224 498.76 
L 113.231885 498.76 
z
" style="fill:#1f77b4;opacity:0.4;"/>
   </g>
   <g id="patch_93">
    <path clip-path="url(#p0b1041b182)" d="M 130.829224 498.76 
L 148.426563 498.76 
L 148.426563 498.76 
L 130.829224 498.76 
z
" style="fill:#1f77b4;opacity:0.4;"/>
   </g>
   <g id="patch_94">
    <path clip-path="url(#p0b1041b182)" d="M 148.426563 498.76 
L 166.023902 498.76 
L 166.023902 498.76 
L 148.426563 498.76 
z
" style="fill:#1f77b4;opacity:0.4;"/>
   </g>
   <g id="patch_95">
    <path clip-path="url(#p0b1041b182)" d="M 166.023902 498.76 
L 183.621242 498.76 
L 183.621242 498.76 
L 166.023902 498.76 
z
" style="fill:#1f77b4;opacity:0.4;"/>
   </g>
   <g id="patch_96">
    <path clip-path="url(#p0b1041b182)" d="M 183.621242 498.76 
L 201.218581 498.76 
L 201.218581 496.186519 
L 183.621242 496.186519 
z
" style="fill:#1f77b4;opacity:0.4;"/>
   </g>
   <g id="patch_97">
    <path clip-path="url(#p0b1041b182)" d="M 201.218581 498.76 
L 218.81592 498.76 
L 218.81592 406.114702 
L 201.218581 406.114702 
z
" style="fill:#1f77b4;opacity:0.4;"/>
   </g>
   <g id="patch_98">
    <path clip-path="url(#p0b1041b182)" d="M 218.81592 498.76 
L 236.413259 498.76 
L 236.413259 480.745636 
L 218.81592 480.745636 
z
" style="fill:#1f77b4;opacity:0.4;"/>
   </g>
   <g id="patch_99">
    <path clip-path="url(#p0b1041b182)" d="M 236.413259 498.76 
L 254.010599 498.76 
L 254.010599 460.157792 
L 236.413259 460.157792 
z
" style="fill:#1f77b4;opacity:0.4;"/>
   </g>
   <g id="patch_100">
    <path clip-path="url(#p0b1041b182)" d="M 254.010599 498.76 
L 271.607938 498.76 
L 271.607938 421.555585 
L 254.010599 421.555585 
z
" style="fill:#1f77b4;opacity:0.4;"/>
   </g>
   <g id="patch_101">
    <path clip-path="url(#p0b1041b182)" d="M 271.607938 498.76 
L 289.205277 498.76 
L 289.205277 375.232936 
L 271.607938 375.232936 
z
" style="fill:#1f77b4;opacity:0.4;"/>
   </g>
   <g id="patch_102">
    <path clip-path="url(#p0b1041b182)" d="M 289.205277 498.76 
L 306.802616 498.76 
L 306.802616 452.437351 
L 289.205277 452.437351 
z
" style="fill:#1f77b4;opacity:0.4;"/>
   </g>
   <g id="patch_103">
    <path clip-path="url(#p0b1041b182)" d="M 306.802616 498.76 
L 324.399956 498.76 
L 324.399956 491.039558 
L 306.802616 491.039558 
z
" style="fill:#1f77b4;opacity:0.4;"/>
   </g>
   <g id="patch_104">
    <path clip-path="url(#p0b1041b182)" d="M 324.399956 498.76 
L 341.997295 498.76 
L 341.997295 485.892597 
L 324.399956 485.892597 
z
" style="fill:#1f77b4;opacity:0.4;"/>
   </g>
   <g id="patch_105">
    <path clip-path="url(#p0b1041b182)" d="M 341.997295 498.76 
L 359.594634 498.76 
L 359.594634 465.304753 
L 341.997295 465.304753 
z
" style="fill:#1f77b4;opacity:0.4;"/>
   </g>
   <g id="patch_106">
    <path clip-path="url(#p0b1041b182)" d="M 359.594634 498.76 
L 377.191973 498.76 
L 377.191973 485.892597 
L 359.594634 485.892597 
z
" style="fill:#1f77b4;opacity:0.4;"/>
   </g>
   <g id="patch_107">
    <path clip-path="url(#p0b1041b182)" d="M 377.191973 498.76 
L 394.789313 498.76 
L 394.789313 496.186519 
L 377.191973 496.186519 
z
" style="fill:#1f77b4;opacity:0.4;"/>
   </g>
   <g id="patch_108">
    <path clip-path="url(#p0b1041b182)" d="M 394.789313 498.76 
L 412.386652 498.76 
L 412.386652 496.186519 
L 394.789313 496.186519 
z
" style="fill:#1f77b4;opacity:0.4;"/>
   </g>
   <g id="patch_109">
    <path clip-path="url(#p0b1041b182)" d="M 412.386652 498.76 
L 429.983991 498.76 
L 429.983991 498.76 
L 412.386652 498.76 
z
" style="fill:#1f77b4;opacity:0.4;"/>
   </g>
   <g id="patch_110">
    <path clip-path="url(#p0b1041b182)" d="M 429.983991 498.76 
L 447.58133 498.76 
L 447.58133 496.186519 
L 429.983991 496.186519 
z
" style="fill:#1f77b4;opacity:0.4;"/>
   </g>
   <g id="patch_111">
    <path clip-path="url(#p0b1041b182)" d="M 447.58133 498.76 
L 465.17867 498.76 
L 465.17867 498.76 
L 447.58133 498.76 
z
" style="fill:#1f77b4;opacity:0.4;"/>
   </g>
   <g id="patch_112">
    <path clip-path="url(#p0b1041b182)" d="M 465.17867 498.76 
L 482.776009 498.76 
L 482.776009 498.76 
L 465.17867 498.76 
z
" style="fill:#1f77b4;opacity:0.4;"/>
   </g>
   <g id="patch_113">
    <path clip-path="url(#p0b1041b182)" d="M 482.776009 498.76 
L 500.373348 498.76 
L 500.373348 498.76 
L 482.776009 498.76 
z
" style="fill:#1f77b4;opacity:0.4;"/>
   </g>
   <g id="patch_114">
    <path clip-path="url(#p0b1041b182)" d="M 500.373348 498.76 
L 517.970687 498.76 
L 517.970687 498.76 
L 500.373348 498.76 
z
" style="fill:#1f77b4;opacity:0.4;"/>
   </g>
   <g id="patch_115">
    <path clip-path="url(#p0b1041b182)" d="M 517.970687 498.76 
L 535.568027 498.76 
L 535.568027 498.76 
L 517.970687 498.76 
z
" style="fill:#1f77b4;opacity:0.4;"/>
   </g>
   <g id="patch_116">
    <path clip-path="url(#p0b1041b182)" d="M 535.568027 498.76 
L 553.165366 498.76 
L 553.165366 498.76 
L 535.568027 498.76 
z
" style="fill:#1f77b4;opacity:0.4;"/>
   </g>
   <g id="patch_117">
    <path clip-path="url(#p0b1041b182)" d="M 553.165366 498.76 
L 570.762705 498.76 
L 570.762705 498.76 
L 553.165366 498.76 
z
" style="fill:#1f77b4;opacity:0.4;"/>
   </g>
   <g id="patch_118">
    <path clip-path="url(#p0b1041b182)" d="M 570.762705 498.76 
L 588.360044 498.76 
L 588.360044 498.76 
L 570.762705 498.76 
z
" style="fill:#1f77b4;opacity:0.4;"/>
   </g>
   <g id="patch_119">
    <path clip-path="url(#p0b1041b182)" d="M 588.360044 498.76 
L 605.957384 498.76 
L 605.957384 498.76 
L 588.360044 498.76 
z
" style="fill:#1f77b4;opacity:0.4;"/>
   </g>
   <g id="patch_120">
    <path clip-path="url(#p0b1041b182)" d="M 605.957384 498.76 
L 623.554723 498.76 
L 623.554723 498.76 
L 605.957384 498.76 
z
" style="fill:#1f77b4;opacity:0.4;"/>
   </g>
   <g id="patch_121">
    <path clip-path="url(#p0b1041b182)" d="M 623.554723 498.76 
L 641.152062 498.76 
L 641.152062 498.76 
L 623.554723 498.76 
z
" style="fill:#1f77b4;opacity:0.4;"/>
   </g>
   <g id="patch_122">
    <path clip-path="url(#p0b1041b182)" d="M 641.152062 498.76 
L 658.749401 498.76 
L 658.749401 498.76 
L 641.152062 498.76 
z
" style="fill:#1f77b4;opacity:0.4;"/>
   </g>
   <g id="patch_123">
    <path clip-path="url(#p0b1041b182)" d="M 658.749401 498.76 
L 676.346741 498.76 
L 676.346741 498.76 
L 658.749401 498.76 
z
" style="fill:#1f77b4;opacity:0.4;"/>
   </g>
   <g id="patch_124">
    <path clip-path="url(#p0b1041b182)" d="M 676.346741 498.76 
L 693.94408 498.76 
L 693.94408 498.76 
L 676.346741 498.76 
z
" style="fill:#1f77b4;opacity:0.4;"/>
   </g>
   <g id="patch_125">
    <path clip-path="url(#p0b1041b182)" d="M 693.94408 498.76 
L 711.541419 498.76 
L 711.541419 498.76 
L 693.94408 498.76 
z
" style="fill:#1f77b4;opacity:0.4;"/>
   </g>
   <g id="patch_126">
    <path clip-path="url(#p0b1041b182)" d="M 711.541419 498.76 
L 729.138758 498.76 
L 729.138758 498.76 
L 711.541419 498.76 
z
" style="fill:#1f77b4;opacity:0.4;"/>
   </g>
   <g id="patch_127">
    <path clip-path="url(#p0b1041b182)" d="M 729.138758 498.76 
L 746.736098 498.76 
L 746.736098 498.76 
L 729.138758 498.76 
z
" style="fill:#1f77b4;opacity:0.4;"/>
   </g>
   <g id="patch_128">
    <path clip-path="url(#p0b1041b182)" d="M 746.736098 498.76 
L 764.333437 498.76 
L 764.333437 498.76 
L 746.736098 498.76 
z
" style="fill:#1f77b4;opacity:0.4;"/>
   </g>
   <g id="patch_129">
    <path clip-path="url(#p0b1041b182)" d="M 764.333437 498.76 
L 781.930776 498.76 
L 781.930776 498.76 
L 764.333437 498.76 
z
" style="fill:#1f77b4;opacity:0.4;"/>
   </g>
   <g id="patch_130">
    <path clip-path="url(#p0b1041b182)" d="M 781.930776 498.76 
L 799.528115 498.76 
L 799.528115 498.76 
L 781.930776 498.76 
z
" style="fill:#1f77b4;opacity:0.4;"/>
   </g>
   <g id="patch_131">
    <path clip-path="url(#p0b1041b182)" d="M 799.528115 498.76 
L 817.125455 498.76 
L 817.125455 498.76 
L 799.528115 498.76 
z
" style="fill:#1f77b4;opacity:0.4;"/>
   </g>
   <g id="matplotlib.axis_5">
    <g id="xtick_9">
     <g id="line2d_15">
      <g>
       <use style="stroke:#000000;stroke-width:0.8;" x="271.607938" xlink:href="#m12cdcdb7fd" y="498.76"/>
      </g>
     </g>
     <g id="text_15">
      <!-- 5 -->
      <g transform="translate(264.656766 523.693594)scale(0.25 -0.25)">
       <use xlink:href="#Helvetica-53"/>
      </g>
     </g>
    </g>
    <g id="xtick_10">
     <g id="line2d_16">
      <g>
       <use style="stroke:#000000;stroke-width:0.8;" x="447.58133" xlink:href="#m12cdcdb7fd" y="498.76"/>
      </g>
     </g>
     <g id="text_16">
      <!-- 10 -->
      <g transform="translate(433.678987 523.693594)scale(0.25 -0.25)">
       <use xlink:href="#Helvetica-49"/>
       <use x="55.615234" xlink:href="#Helvetica-48"/>
      </g>
     </g>
    </g>
    <g id="xtick_11">
     <g id="line2d_17">
      <g>
       <use style="stroke:#000000;stroke-width:0.8;" x="623.554723" xlink:href="#m12cdcdb7fd" y="498.76"/>
      </g>
     </g>
     <g id="text_17">
      <!-- 15 -->
      <g transform="translate(609.652379 523.693594)scale(0.25 -0.25)">
       <use xlink:href="#Helvetica-49"/>
       <use x="55.615234" xlink:href="#Helvetica-53"/>
      </g>
     </g>
    </g>
    <g id="xtick_12">
     <g id="line2d_18">
      <g>
       <use style="stroke:#000000;stroke-width:0.8;" x="799.528115" xlink:href="#m12cdcdb7fd" y="498.76"/>
      </g>
     </g>
     <g id="text_18">
      <!-- 20 -->
      <g transform="translate(785.625772 523.693594)scale(0.25 -0.25)">
       <use xlink:href="#Helvetica-50"/>
       <use x="55.615234" xlink:href="#Helvetica-48"/>
      </g>
     </g>
    </g>
    <g id="text_19">
     <!-- Bit density (bits/bp) -->
     <defs>
      <path d="M 34.578125 41.40625 
Q 40.71875 41.40625 44.140625 43.109375 
Q 49.515625 45.796875 49.515625 52.78125 
Q 49.515625 59.8125 43.796875 62.25 
Q 40.578125 63.625 34.234375 63.625 
L 16.890625 63.625 
L 16.890625 41.40625 
z
M 37.84375 8.296875 
Q 46.78125 8.296875 50.59375 13.484375 
Q 52.984375 16.75 52.984375 21.390625 
Q 52.984375 29.203125 46 32.03125 
Q 42.28125 33.546875 36.1875 33.546875 
L 16.890625 33.546875 
L 16.890625 8.296875 
z
M 7.375 71.734375 
L 38.1875 71.734375 
Q 50.78125 71.734375 56.109375 64.203125 
Q 59.234375 59.765625 59.234375 53.953125 
Q 59.234375 47.171875 55.375 42.828125 
Q 53.375 40.53125 49.609375 38.625 
Q 55.125 36.53125 57.859375 33.890625 
Q 62.703125 29.203125 62.703125 20.953125 
Q 62.703125 14.015625 58.34375 8.40625 
Q 51.859375 0 37.703125 0 
L 7.375 0 
z
" id="Helvetica-66"/>
      <path d="M 6.453125 52.046875 
L 15.375 52.046875 
L 15.375 0 
L 6.453125 0 
z
M 6.453125 71.734375 
L 15.375 71.734375 
L 15.375 61.765625 
L 6.453125 61.765625 
z
" id="Helvetica-105"/>
      <path d="M 8.203125 66.890625 
L 17.09375 66.890625 
L 17.09375 52.296875 
L 25.4375 52.296875 
L 25.4375 45.125 
L 17.09375 45.125 
L 17.09375 10.984375 
Q 17.09375 8.25 18.953125 7.328125 
Q 19.96875 6.78125 22.359375 6.78125 
Q 23 6.78125 23.734375 6.8125 
Q 24.46875 6.84375 25.4375 6.9375 
L 25.4375 0 
Q 23.921875 -0.4375 22.28125 -0.625 
Q 20.65625 -0.828125 18.75 -0.828125 
Q 12.59375 -0.828125 10.390625 2.3125 
Q 8.203125 5.46875 8.203125 10.5 
L 8.203125 45.125 
L 1.125 45.125 
L 1.125 52.296875 
L 8.203125 52.296875 
z
" id="Helvetica-116"/>
      <path d="M 12.015625 25.53125 
Q 12.015625 17.140625 15.578125 11.46875 
Q 19.140625 5.8125 27 5.8125 
Q 33.109375 5.8125 37.03125 11.0625 
Q 40.96875 16.3125 40.96875 26.125 
Q 40.96875 36.03125 36.90625 40.796875 
Q 32.859375 45.5625 26.90625 45.5625 
Q 20.265625 45.5625 16.140625 40.484375 
Q 12.015625 35.40625 12.015625 25.53125 
z
M 25.25 53.21875 
Q 31.25 53.21875 35.296875 50.6875 
Q 37.640625 49.21875 40.625 45.5625 
L 40.625 71.96875 
L 49.078125 71.96875 
L 49.078125 0 
L 41.15625 0 
L 41.15625 7.28125 
Q 38.09375 2.4375 33.890625 0.28125 
Q 29.6875 -1.859375 24.265625 -1.859375 
Q 15.53125 -1.859375 9.125 5.484375 
Q 2.734375 12.84375 2.734375 25.046875 
Q 2.734375 36.46875 8.5625 44.84375 
Q 14.40625 53.21875 25.25 53.21875 
z
" id="Helvetica-100"/>
      <path d="M 39.109375 52.296875 
L 48.828125 52.296875 
Q 46.96875 47.265625 40.578125 29.34375 
Q 35.796875 15.875 32.5625 7.375 
Q 24.953125 -12.640625 21.828125 -17.03125 
Q 18.703125 -21.4375 11.078125 -21.4375 
Q 9.234375 -21.4375 8.234375 -21.28125 
Q 7.234375 -21.140625 5.765625 -20.75 
L 5.765625 -12.75 
Q 8.0625 -13.375 9.078125 -13.515625 
Q 10.109375 -13.671875 10.890625 -13.671875 
Q 13.328125 -13.671875 14.46875 -12.859375 
Q 15.625 -12.0625 16.40625 -10.890625 
Q 16.65625 -10.5 18.15625 -6.875 
Q 19.671875 -3.265625 20.359375 -1.515625 
L 1.03125 52.296875 
L 10.984375 52.296875 
L 25 9.71875 
z
M 24.953125 53.5625 
z
" id="Helvetica-121"/>
      <path d="M 5.765625 71.96875 
L 14.3125 71.96875 
L 14.3125 45.953125 
Q 17.1875 49.703125 21.1875 51.671875 
Q 25.203125 53.65625 29.890625 53.65625 
Q 39.65625 53.65625 45.734375 46.9375 
Q 51.8125 40.234375 51.8125 27.15625 
Q 51.8125 14.75 45.796875 6.546875 
Q 39.796875 -1.65625 29.15625 -1.65625 
Q 23.1875 -1.65625 19.09375 1.21875 
Q 16.65625 2.9375 13.875 6.6875 
L 13.875 0 
L 5.765625 0 
z
M 28.609375 6.109375 
Q 35.75 6.109375 39.28125 11.765625 
Q 42.828125 17.4375 42.828125 26.703125 
Q 42.828125 34.96875 39.28125 40.375 
Q 35.75 45.796875 28.859375 45.796875 
Q 22.859375 45.796875 18.328125 41.359375 
Q 13.8125 36.921875 13.8125 26.703125 
Q 13.8125 19.34375 15.671875 14.75 
Q 19.140625 6.109375 28.609375 6.109375 
z
" id="Helvetica-98"/>
      <path d="M 22.75 71.734375 
L 30.171875 71.734375 
L 7.421875 0 
L 0 0 
z
" id="Helvetica-47"/>
      <path d="M 28.515625 5.90625 
Q 34.671875 5.90625 38.75 11.0625 
Q 42.828125 16.21875 42.828125 26.46875 
Q 42.828125 32.71875 41.015625 37.203125 
Q 37.59375 45.84375 28.515625 45.84375 
Q 19.390625 45.84375 16.015625 36.71875 
Q 14.203125 31.84375 14.203125 24.3125 
Q 14.203125 18.265625 16.015625 14.015625 
Q 19.4375 5.90625 28.515625 5.90625 
z
M 5.765625 52.046875 
L 14.3125 52.046875 
L 14.3125 45.125 
Q 16.9375 48.6875 20.0625 50.640625 
Q 24.515625 53.5625 30.515625 53.5625 
Q 39.40625 53.5625 45.609375 46.75 
Q 51.8125 39.9375 51.8125 27.296875 
Q 51.8125 10.203125 42.875 2.875 
Q 37.203125 -1.765625 29.6875 -1.765625 
Q 23.78125 -1.765625 19.78125 0.828125 
Q 17.4375 2.296875 14.546875 5.859375 
L 14.546875 -20.84375 
L 5.765625 -20.84375 
z
" id="Helvetica-112"/>
     </defs>
     <g transform="translate(311.829531 557.692656)scale(0.34 -0.34)">
      <use xlink:href="#Helvetica-66"/>
      <use x="66.699219" xlink:href="#Helvetica-105"/>
      <use x="88.916016" xlink:href="#Helvetica-116"/>
      <use x="116.699219" xlink:href="#Helvetica-32"/>
      <use x="144.482422" xlink:href="#Helvetica-100"/>
      <use x="200.097656" xlink:href="#Helvetica-101"/>
      <use x="255.712891" xlink:href="#Helvetica-110"/>
      <use x="311.328125" xlink:href="#Helvetica-115"/>
      <use x="361.328125" xlink:href="#Helvetica-105"/>
      <use x="383.544922" xlink:href="#Helvetica-116"/>
      <use x="411.328125" xlink:href="#Helvetica-121"/>
      <use x="461.328125" xlink:href="#Helvetica-32"/>
      <use x="489.111328" xlink:href="#Helvetica-40"/>
      <use x="522.412109" xlink:href="#Helvetica-98"/>
      <use x="578.027344" xlink:href="#Helvetica-105"/>
      <use x="600.244141" xlink:href="#Helvetica-116"/>
      <use x="628.027344" xlink:href="#Helvetica-115"/>
      <use x="678.027344" xlink:href="#Helvetica-47"/>
      <use x="705.810547" xlink:href="#Helvetica-98"/>
      <use x="761.425781" xlink:href="#Helvetica-112"/>
      <use x="817.041016" xlink:href="#Helvetica-41"/>
     </g>
    </g>
   </g>
   <g id="matplotlib.axis_6">
    <g id="ytick_5">
     <g id="line2d_19">
      <g>
       <use style="stroke:#000000;stroke-width:0.8;" x="59.56" xlink:href="#m999baba19c" y="498.76"/>
      </g>
     </g>
     <g id="text_20">
      <!-- 0 -->
      <g transform="translate(38.657656 507.726797)scale(0.25 -0.25)">
       <use xlink:href="#Helvetica-48"/>
      </g>
     </g>
    </g>
    <g id="ytick_6">
     <g id="line2d_20">
      <g>
       <use style="stroke:#000000;stroke-width:0.8;" x="59.56" xlink:href="#m999baba19c" y="370.085975"/>
      </g>
     </g>
     <g id="text_21">
      <!-- 50 -->
      <g transform="translate(24.755312 379.052772)scale(0.25 -0.25)">
       <use xlink:href="#Helvetica-53"/>
       <use x="55.615234" xlink:href="#Helvetica-48"/>
      </g>
     </g>
    </g>
   </g>
   <g id="line2d_21">
    <path clip-path="url(#p0b1041b182)" d="M 271.607938 498.76 
L 271.607938 369.056583 
" style="fill:none;stroke:#1f77b4;stroke-linecap:square;stroke-width:1.5;"/>
   </g>
   <g id="patch_132">
    <path d="M 59.56 498.76 
L 59.56 369.056583 
" style="fill:none;stroke:#000000;stroke-linecap:square;stroke-linejoin:miter;stroke-width:0.8;"/>
   </g>
   <g id="patch_133">
    <path d="M 59.56 498.76 
L 853.2 498.76 
" style="fill:none;stroke:#000000;stroke-linecap:square;stroke-linejoin:miter;stroke-width:0.8;"/>
   </g>
   <g id="text_22">
    <!-- Pseudo (184) -->
    <defs>
     <path d="M 8.546875 71.734375 
L 40.828125 71.734375 
Q 50.390625 71.734375 56.25 66.328125 
Q 62.109375 60.9375 62.109375 51.171875 
Q 62.109375 42.78125 56.875 36.546875 
Q 51.65625 30.328125 40.828125 30.328125 
L 18.265625 30.328125 
L 18.265625 0 
L 8.546875 0 
z
M 52.296875 51.125 
Q 52.296875 59.03125 46.4375 61.859375 
Q 43.21875 63.375 37.59375 63.375 
L 18.265625 63.375 
L 18.265625 38.53125 
L 37.59375 38.53125 
Q 44.140625 38.53125 48.21875 41.3125 
Q 52.296875 44.09375 52.296875 51.125 
z
" id="Helvetica-80"/>
     <path d="M 15.234375 52.296875 
L 15.234375 17.578125 
Q 15.234375 13.578125 16.5 11.03125 
Q 18.84375 6.34375 25.25 6.34375 
Q 34.421875 6.34375 37.75 14.546875 
Q 39.546875 18.953125 39.546875 26.609375 
L 39.546875 52.296875 
L 48.34375 52.296875 
L 48.34375 0 
L 40.046875 0 
L 40.140625 7.71875 
Q 38.421875 4.734375 35.890625 2.6875 
Q 30.859375 -1.421875 23.6875 -1.421875 
Q 12.5 -1.421875 8.453125 6.0625 
Q 6.25 10.0625 6.25 16.75 
L 6.25 52.296875 
z
M 27.296875 53.5625 
z
" id="Helvetica-117"/>
     <path d="M 27.203125 5.671875 
Q 35.9375 5.671875 39.1875 12.28125 
Q 42.4375 18.890625 42.4375 27 
Q 42.4375 34.328125 40.09375 38.921875 
Q 36.375 46.140625 27.296875 46.140625 
Q 19.234375 46.140625 15.578125 39.984375 
Q 11.921875 33.84375 11.921875 25.140625 
Q 11.921875 16.796875 15.578125 11.234375 
Q 19.234375 5.671875 27.203125 5.671875 
z
M 27.546875 53.8125 
Q 37.640625 53.8125 44.625 47.0625 
Q 51.609375 40.328125 51.609375 27.25 
Q 51.609375 14.59375 45.453125 6.34375 
Q 39.3125 -1.90625 26.375 -1.90625 
Q 15.578125 -1.90625 9.21875 5.390625 
Q 2.875 12.703125 2.875 25 
Q 2.875 38.1875 9.5625 46 
Q 16.265625 53.8125 27.546875 53.8125 
z
M 27.25 53.5625 
z
" id="Helvetica-111"/>
     <path d="M 27.203125 40.625 
Q 33.015625 40.625 36.28125 43.875 
Q 39.546875 47.125 39.546875 51.609375 
Q 39.546875 55.515625 36.421875 58.78125 
Q 33.296875 62.0625 26.90625 62.0625 
Q 20.5625 62.0625 17.71875 58.78125 
Q 14.890625 55.515625 14.890625 51.125 
Q 14.890625 46.1875 18.546875 43.40625 
Q 22.21875 40.625 27.203125 40.625 
z
M 27.734375 6 
Q 33.84375 6 37.859375 9.296875 
Q 41.890625 12.59375 41.890625 19.140625 
Q 41.890625 25.921875 37.734375 29.4375 
Q 33.59375 32.953125 27.09375 32.953125 
Q 20.796875 32.953125 16.8125 29.359375 
Q 12.84375 25.78125 12.84375 19.4375 
Q 12.84375 13.96875 16.484375 9.984375 
Q 20.125 6 27.734375 6 
z
M 15.234375 37.25 
Q 11.578125 38.8125 9.515625 40.921875 
Q 5.671875 44.828125 5.671875 51.078125 
Q 5.671875 58.890625 11.328125 64.5 
Q 17 70.125 27.390625 70.125 
Q 37.453125 70.125 43.15625 64.8125 
Q 48.875 59.515625 48.875 52.4375 
Q 48.875 45.90625 45.5625 41.84375 
Q 43.703125 39.546875 39.796875 37.359375 
Q 44.140625 35.359375 46.625 32.765625 
Q 51.265625 27.875 51.265625 20.0625 
Q 51.265625 10.84375 45.0625 4.421875 
Q 38.875 -2 27.546875 -2 
Q 17.328125 -2 10.265625 3.53125 
Q 3.21875 9.078125 3.21875 19.625 
Q 3.21875 25.828125 6.25 30.34375 
Q 9.28125 34.859375 15.234375 37.25 
z
" id="Helvetica-56"/>
    </defs>
    <g transform="translate(661.29455 479.304487)scale(0.28 -0.28)">
     <use xlink:href="#Helvetica-80"/>
     <use x="66.699219" xlink:href="#Helvetica-115"/>
     <use x="116.699219" xlink:href="#Helvetica-101"/>
     <use x="172.314453" xlink:href="#Helvetica-117"/>
     <use x="227.929688" xlink:href="#Helvetica-100"/>
     <use x="283.544922" xlink:href="#Helvetica-111"/>
     <use x="339.160156" xlink:href="#Helvetica-32"/>
     <use x="366.943359" xlink:href="#Helvetica-40"/>
     <use x="400.244141" xlink:href="#Helvetica-49"/>
     <use x="455.859375" xlink:href="#Helvetica-56"/>
     <use x="511.474609" xlink:href="#Helvetica-52"/>
     <use x="567.089844" xlink:href="#Helvetica-41"/>
    </g>
   </g>
  </g>
 </g>
 <defs>
  <clipPath id="p65e1d41bc2">
   <rect height="129.703417" width="793.64" x="59.56" y="10.8"/>
  </clipPath>
  <clipPath id="p0eea7cb460">
   <rect height="129.703417" width="793.64" x="59.56" y="189.928291"/>
  </clipPath>
  <clipPath id="p0b1041b182">
   <rect height="129.703417" width="793.64" x="59.56" y="369.056583"/>
  </clipPath>
 </defs>
</svg>
