<?xml version="1.0" encoding="utf-8" standalone="no"?>
<!DOCTYPE svg PUBLIC "-//W3C//DTD SVG 1.1//EN"
  "http://www.w3.org/Graphics/SVG/1.1/DTD/svg11.dtd">
<!-- Created with matplotlib (https://matplotlib.org/) -->
<svg height="576pt" version="1.1" viewBox="0 0 576 576" width="576pt" xmlns="http://www.w3.org/2000/svg" xmlns:xlink="http://www.w3.org/1999/xlink">
 <defs>
  <style type="text/css">
*{stroke-linecap:butt;stroke-linejoin:round;}
  </style>
 </defs>
 <g id="figure_1">
  <g id="patch_1">
   <path d="M 0 576 
L 576 576 
L 576 0 
L 0 0 
z
" style="fill:#ffffff;"/>
  </g>
  <g id="axes_1">
   <g id="patch_2">
    <path d="M 72 270.72 
L 518.4 270.72 
L 518.4 69.12 
L 72 69.12 
z
" style="fill:#ffffff;"/>
   </g>
   <g id="patch_3">
    <path clip-path="url(#p1881b1df15)" d="M 136.261809 270.72 
L 150.146607 270.72 
L 150.146607 243.068369 
L 136.261809 243.068369 
z
" style="fill:#0000ff;opacity:0.4;"/>
   </g>
   <g id="patch_4">
    <path clip-path="url(#p1881b1df15)" d="M 150.146607 270.72 
L 164.031405 270.72 
L 164.031405 132.461843 
L 150.146607 132.461843 
z
" style="fill:#0000ff;opacity:0.4;"/>
   </g>
   <g id="patch_5">
    <path clip-path="url(#p1881b1df15)" d="M 164.031405 270.72 
L 177.916203 270.72 
L 177.916203 144.559432 
L 164.031405 144.559432 
z
" style="fill:#0000ff;opacity:0.4;"/>
   </g>
   <g id="patch_6">
    <path clip-path="url(#p1881b1df15)" d="M 177.916203 270.72 
L 191.801001 270.72 
L 191.801001 120.364254 
L 177.916203 120.364254 
z
" style="fill:#0000ff;opacity:0.4;"/>
   </g>
   <g id="patch_7">
    <path clip-path="url(#p1881b1df15)" d="M 191.801001 270.72 
L 205.685799 270.72 
L 205.685799 101.353758 
L 191.801001 101.353758 
z
" style="fill:#0000ff;opacity:0.4;"/>
   </g>
   <g id="patch_8">
    <path clip-path="url(#p1881b1df15)" d="M 205.685799 270.72 
L 219.570597 270.72 
L 219.570597 130.733616 
L 205.685799 130.733616 
z
" style="fill:#0000ff;opacity:0.4;"/>
   </g>
   <g id="patch_9">
    <path clip-path="url(#p1881b1df15)" d="M 219.570597 270.72 
L 233.455395 270.72 
L 233.455395 116.9078 
L 219.570597 116.9078 
z
" style="fill:#0000ff;opacity:0.4;"/>
   </g>
   <g id="patch_10">
    <path clip-path="url(#p1881b1df15)" d="M 233.455395 270.72 
L 247.340193 270.72 
L 247.340193 148.015886 
L 233.455395 148.015886 
z
" style="fill:#0000ff;opacity:0.4;"/>
   </g>
   <g id="patch_11">
    <path clip-path="url(#p1881b1df15)" d="M 247.340193 270.72 
L 261.224991 270.72 
L 261.224991 154.928794 
L 247.340193 154.928794 
z
" style="fill:#0000ff;opacity:0.4;"/>
   </g>
   <g id="patch_12">
    <path clip-path="url(#p1881b1df15)" d="M 261.224991 270.72 
L 275.109789 270.72 
L 275.109789 206.775602 
L 261.224991 206.775602 
z
" style="fill:#0000ff;opacity:0.4;"/>
   </g>
   <g id="patch_13">
    <path clip-path="url(#p1881b1df15)" d="M 275.109789 270.72 
L 288.994587 270.72 
L 288.994587 227.514326 
L 275.109789 227.514326 
z
" style="fill:#0000ff;opacity:0.4;"/>
   </g>
   <g id="patch_14">
    <path clip-path="url(#p1881b1df15)" d="M 288.994587 270.72 
L 302.879385 270.72 
L 302.879385 217.144964 
L 288.994587 217.144964 
z
" style="fill:#0000ff;opacity:0.4;"/>
   </g>
   <g id="patch_15">
    <path clip-path="url(#p1881b1df15)" d="M 302.879385 270.72 
L 316.764183 270.72 
L 316.764183 249.981276 
L 302.879385 249.981276 
z
" style="fill:#0000ff;opacity:0.4;"/>
   </g>
   <g id="patch_16">
    <path clip-path="url(#p1881b1df15)" d="M 316.764183 270.72 
L 330.648981 270.72 
L 330.648981 253.43773 
L 316.764183 253.43773 
z
" style="fill:#0000ff;opacity:0.4;"/>
   </g>
   <g id="patch_17">
    <path clip-path="url(#p1881b1df15)" d="M 330.648981 270.72 
L 344.533779 270.72 
L 344.533779 255.165957 
L 330.648981 255.165957 
z
" style="fill:#0000ff;opacity:0.4;"/>
   </g>
   <g id="patch_18">
    <path clip-path="url(#p1881b1df15)" d="M 344.533779 270.72 
L 358.418577 270.72 
L 358.418577 255.165957 
L 344.533779 255.165957 
z
" style="fill:#0000ff;opacity:0.4;"/>
   </g>
   <g id="patch_19">
    <path clip-path="url(#p1881b1df15)" d="M 358.418577 270.72 
L 372.303375 270.72 
L 372.303375 262.078865 
L 358.418577 262.078865 
z
" style="fill:#0000ff;opacity:0.4;"/>
   </g>
   <g id="patch_20">
    <path clip-path="url(#p1881b1df15)" d="M 372.303375 270.72 
L 386.188173 270.72 
L 386.188173 268.991773 
L 372.303375 268.991773 
z
" style="fill:#0000ff;opacity:0.4;"/>
   </g>
   <g id="patch_21">
    <path clip-path="url(#p1881b1df15)" d="M 386.188173 270.72 
L 400.072971 270.72 
L 400.072971 265.535319 
L 386.188173 265.535319 
z
" style="fill:#0000ff;opacity:0.4;"/>
   </g>
   <g id="patch_22">
    <path clip-path="url(#p1881b1df15)" d="M 400.072971 270.72 
L 413.957769 270.72 
L 413.957769 268.991773 
L 400.072971 268.991773 
z
" style="fill:#0000ff;opacity:0.4;"/>
   </g>
   <g id="patch_23">
    <path clip-path="url(#p1881b1df15)" d="M 140.157655 270.72 
L 155.626224 270.72 
L 155.626224 230.134634 
L 140.157655 230.134634 
z
" style="fill:#ff0000;opacity:0.4;"/>
   </g>
   <g id="patch_24">
    <path clip-path="url(#p1881b1df15)" d="M 155.626224 270.72 
L 171.094792 270.72 
L 171.094792 216.085854 
L 155.626224 216.085854 
z
" style="fill:#ff0000;opacity:0.4;"/>
   </g>
   <g id="patch_25">
    <path clip-path="url(#p1881b1df15)" d="M 171.094792 270.72 
L 186.56336 270.72 
L 186.56336 202.037073 
L 171.094792 202.037073 
z
" style="fill:#ff0000;opacity:0.4;"/>
   </g>
   <g id="patch_26">
    <path clip-path="url(#p1881b1df15)" d="M 186.56336 270.72 
L 202.031928 270.72 
L 202.031928 173.939512 
L 186.56336 173.939512 
z
" style="fill:#ff0000;opacity:0.4;"/>
   </g>
   <g id="patch_27">
    <path clip-path="url(#p1881b1df15)" d="M 202.031928 270.72 
L 217.500497 270.72 
L 217.500497 169.256585 
L 202.031928 169.256585 
z
" style="fill:#ff0000;opacity:0.4;"/>
   </g>
   <g id="patch_28">
    <path clip-path="url(#p1881b1df15)" d="M 217.500497 270.72 
L 232.969065 270.72 
L 232.969065 78.72 
L 217.500497 78.72 
z
" style="fill:#ff0000;opacity:0.4;"/>
   </g>
   <g id="patch_29">
    <path clip-path="url(#p1881b1df15)" d="M 232.969065 270.72 
L 248.437633 270.72 
L 248.437633 99.012683 
L 232.969065 99.012683 
z
" style="fill:#ff0000;opacity:0.4;"/>
   </g>
   <g id="patch_30">
    <path clip-path="url(#p1881b1df15)" d="M 248.437633 270.72 
L 263.906201 270.72 
L 263.906201 166.134634 
L 248.437633 166.134634 
z
" style="fill:#ff0000;opacity:0.4;"/>
   </g>
   <g id="patch_31">
    <path clip-path="url(#p1881b1df15)" d="M 263.906201 270.72 
L 279.37477 270.72 
L 279.37477 184.866341 
L 263.906201 184.866341 
z
" style="fill:#ff0000;opacity:0.4;"/>
   </g>
   <g id="patch_32">
    <path clip-path="url(#p1881b1df15)" d="M 279.37477 270.72 
L 294.843338 270.72 
L 294.843338 183.305366 
L 279.37477 183.305366 
z
" style="fill:#ff0000;opacity:0.4;"/>
   </g>
   <g id="patch_33">
    <path clip-path="url(#p1881b1df15)" d="M 294.843338 270.72 
L 310.311906 270.72 
L 310.311906 212.963902 
L 294.843338 212.963902 
z
" style="fill:#ff0000;opacity:0.4;"/>
   </g>
   <g id="patch_34">
    <path clip-path="url(#p1881b1df15)" d="M 310.311906 270.72 
L 325.780474 270.72 
L 325.780474 205.159024 
L 310.311906 205.159024 
z
" style="fill:#ff0000;opacity:0.4;"/>
   </g>
   <g id="patch_35">
    <path clip-path="url(#p1881b1df15)" d="M 325.780474 270.72 
L 341.249043 270.72 
L 341.249043 228.573659 
L 325.780474 228.573659 
z
" style="fill:#ff0000;opacity:0.4;"/>
   </g>
   <g id="patch_36">
    <path clip-path="url(#p1881b1df15)" d="M 341.249043 270.72 
L 356.717611 270.72 
L 356.717611 234.817561 
L 341.249043 234.817561 
z
" style="fill:#ff0000;opacity:0.4;"/>
   </g>
   <g id="patch_37">
    <path clip-path="url(#p1881b1df15)" d="M 356.717611 270.72 
L 372.186179 270.72 
L 372.186179 255.110244 
L 356.717611 255.110244 
z
" style="fill:#ff0000;opacity:0.4;"/>
   </g>
   <g id="patch_38">
    <path clip-path="url(#p1881b1df15)" d="M 372.186179 270.72 
L 387.654747 270.72 
L 387.654747 262.915122 
L 372.186179 262.915122 
z
" style="fill:#ff0000;opacity:0.4;"/>
   </g>
   <g id="patch_39">
    <path clip-path="url(#p1881b1df15)" d="M 387.654747 270.72 
L 403.123316 270.72 
L 403.123316 266.037073 
L 387.654747 266.037073 
z
" style="fill:#ff0000;opacity:0.4;"/>
   </g>
   <g id="patch_40">
    <path clip-path="url(#p1881b1df15)" d="M 403.123316 270.72 
L 418.591884 270.72 
L 418.591884 266.037073 
L 403.123316 266.037073 
z
" style="fill:#ff0000;opacity:0.4;"/>
   </g>
   <g id="patch_41">
    <path clip-path="url(#p1881b1df15)" d="M 418.591884 270.72 
L 434.060452 270.72 
L 434.060452 262.915122 
L 418.591884 262.915122 
z
" style="fill:#ff0000;opacity:0.4;"/>
   </g>
   <g id="patch_42">
    <path clip-path="url(#p1881b1df15)" d="M 434.060452 270.72 
L 449.529021 270.72 
L 449.529021 267.598049 
L 434.060452 267.598049 
z
" style="fill:#ff0000;opacity:0.4;"/>
   </g>
   <g id="matplotlib.axis_1">
    <g id="xtick_1">
     <g id="line2d_1">
      <defs>
       <path d="M 0 0 
L 0 3.5 
" id="m232006c3dd" style="stroke:#000000;stroke-width:0.8;"/>
      </defs>
      <g>
       <use style="stroke:#000000;stroke-width:0.8;" x="183.01197" xlink:href="#m232006c3dd" y="270.72"/>
      </g>
     </g>
    </g>
    <g id="xtick_2">
     <g id="line2d_2">
      <g>
       <use style="stroke:#000000;stroke-width:0.8;" x="299.887374" xlink:href="#m232006c3dd" y="270.72"/>
      </g>
     </g>
    </g>
    <g id="xtick_3">
     <g id="line2d_3">
      <g>
       <use style="stroke:#000000;stroke-width:0.8;" x="416.762778" xlink:href="#m232006c3dd" y="270.72"/>
      </g>
     </g>
    </g>
   </g>
   <g id="matplotlib.axis_2">
    <g id="ytick_1">
     <g id="line2d_4">
      <defs>
       <path d="M 0 0 
L -3.5 0 
" id="m1d7e85d264" style="stroke:#000000;stroke-width:0.8;"/>
      </defs>
      <g>
       <use style="stroke:#000000;stroke-width:0.8;" x="72" xlink:href="#m1d7e85d264" y="270.72"/>
      </g>
     </g>
     <g id="text_1">
      <!-- 0.0 -->
      <defs>
       <path d="M 31.78125 66.40625 
Q 24.171875 66.40625 20.328125 58.90625 
Q 16.5 51.421875 16.5 36.375 
Q 16.5 21.390625 20.328125 13.890625 
Q 24.171875 6.390625 31.78125 6.390625 
Q 39.453125 6.390625 43.28125 13.890625 
Q 47.125 21.390625 47.125 36.375 
Q 47.125 51.421875 43.28125 58.90625 
Q 39.453125 66.40625 31.78125 66.40625 
z
M 31.78125 74.21875 
Q 44.046875 74.21875 50.515625 64.515625 
Q 56.984375 54.828125 56.984375 36.375 
Q 56.984375 17.96875 50.515625 8.265625 
Q 44.046875 -1.421875 31.78125 -1.421875 
Q 19.53125 -1.421875 13.0625 8.265625 
Q 6.59375 17.96875 6.59375 36.375 
Q 6.59375 54.828125 13.0625 64.515625 
Q 19.53125 74.21875 31.78125 74.21875 
z
" id="DejaVuSans-48"/>
       <path d="M 10.6875 12.40625 
L 21 12.40625 
L 21 0 
L 10.6875 0 
z
" id="DejaVuSans-46"/>
      </defs>
      <g transform="translate(30.013125 279.078281)scale(0.22 -0.22)">
       <use xlink:href="#DejaVuSans-48"/>
       <use x="63.623047" xlink:href="#DejaVuSans-46"/>
       <use x="95.410156" xlink:href="#DejaVuSans-48"/>
      </g>
     </g>
    </g>
    <g id="ytick_2">
     <g id="line2d_5">
      <g>
       <use style="stroke:#000000;stroke-width:0.8;" x="72" xlink:href="#m1d7e85d264" y="188.081371"/>
      </g>
     </g>
     <g id="text_2">
      <!-- 0.1 -->
      <defs>
       <path d="M 12.40625 8.296875 
L 28.515625 8.296875 
L 28.515625 63.921875 
L 10.984375 60.40625 
L 10.984375 69.390625 
L 28.421875 72.90625 
L 38.28125 72.90625 
L 38.28125 8.296875 
L 54.390625 8.296875 
L 54.390625 0 
L 12.40625 0 
z
" id="DejaVuSans-49"/>
      </defs>
      <g transform="translate(30.013125 196.439653)scale(0.22 -0.22)">
       <use xlink:href="#DejaVuSans-48"/>
       <use x="63.623047" xlink:href="#DejaVuSans-46"/>
       <use x="95.410156" xlink:href="#DejaVuSans-49"/>
      </g>
     </g>
    </g>
    <g id="ytick_3">
     <g id="line2d_6">
      <g>
       <use style="stroke:#000000;stroke-width:0.8;" x="72" xlink:href="#m1d7e85d264" y="105.442743"/>
      </g>
     </g>
     <g id="text_3">
      <!-- 0.2 -->
      <defs>
       <path d="M 19.1875 8.296875 
L 53.609375 8.296875 
L 53.609375 0 
L 7.328125 0 
L 7.328125 8.296875 
Q 12.9375 14.109375 22.625 23.890625 
Q 32.328125 33.6875 34.8125 36.53125 
Q 39.546875 41.84375 41.421875 45.53125 
Q 43.3125 49.21875 43.3125 52.78125 
Q 43.3125 58.59375 39.234375 62.25 
Q 35.15625 65.921875 28.609375 65.921875 
Q 23.96875 65.921875 18.8125 64.3125 
Q 13.671875 62.703125 7.8125 59.421875 
L 7.8125 69.390625 
Q 13.765625 71.78125 18.9375 73 
Q 24.125 74.21875 28.421875 74.21875 
Q 39.75 74.21875 46.484375 68.546875 
Q 53.21875 62.890625 53.21875 53.421875 
Q 53.21875 48.921875 51.53125 44.890625 
Q 49.859375 40.875 45.40625 35.40625 
Q 44.1875 33.984375 37.640625 27.21875 
Q 31.109375 20.453125 19.1875 8.296875 
z
" id="DejaVuSans-50"/>
      </defs>
      <g transform="translate(30.013125 113.801024)scale(0.22 -0.22)">
       <use xlink:href="#DejaVuSans-48"/>
       <use x="63.623047" xlink:href="#DejaVuSans-46"/>
       <use x="95.410156" xlink:href="#DejaVuSans-50"/>
      </g>
     </g>
    </g>
    <g id="text_4">
     <!-- Normalized Count -->
     <defs>
      <path d="M 9.8125 72.90625 
L 23.09375 72.90625 
L 55.421875 11.921875 
L 55.421875 72.90625 
L 64.984375 72.90625 
L 64.984375 0 
L 51.703125 0 
L 19.390625 60.984375 
L 19.390625 0 
L 9.8125 0 
z
" id="DejaVuSans-78"/>
      <path d="M 30.609375 48.390625 
Q 23.390625 48.390625 19.1875 42.75 
Q 14.984375 37.109375 14.984375 27.296875 
Q 14.984375 17.484375 19.15625 11.84375 
Q 23.34375 6.203125 30.609375 6.203125 
Q 37.796875 6.203125 41.984375 11.859375 
Q 46.1875 17.53125 46.1875 27.296875 
Q 46.1875 37.015625 41.984375 42.703125 
Q 37.796875 48.390625 30.609375 48.390625 
z
M 30.609375 56 
Q 42.328125 56 49.015625 48.375 
Q 55.71875 40.765625 55.71875 27.296875 
Q 55.71875 13.875 49.015625 6.21875 
Q 42.328125 -1.421875 30.609375 -1.421875 
Q 18.84375 -1.421875 12.171875 6.21875 
Q 5.515625 13.875 5.515625 27.296875 
Q 5.515625 40.765625 12.171875 48.375 
Q 18.84375 56 30.609375 56 
z
" id="DejaVuSans-111"/>
      <path d="M 41.109375 46.296875 
Q 39.59375 47.171875 37.8125 47.578125 
Q 36.03125 48 33.890625 48 
Q 26.265625 48 22.1875 43.046875 
Q 18.109375 38.09375 18.109375 28.8125 
L 18.109375 0 
L 9.078125 0 
L 9.078125 54.6875 
L 18.109375 54.6875 
L 18.109375 46.1875 
Q 20.953125 51.171875 25.484375 53.578125 
Q 30.03125 56 36.53125 56 
Q 37.453125 56 38.578125 55.875 
Q 39.703125 55.765625 41.0625 55.515625 
z
" id="DejaVuSans-114"/>
      <path d="M 52 44.1875 
Q 55.375 50.25 60.0625 53.125 
Q 64.75 56 71.09375 56 
Q 79.640625 56 84.28125 50.015625 
Q 88.921875 44.046875 88.921875 33.015625 
L 88.921875 0 
L 79.890625 0 
L 79.890625 32.71875 
Q 79.890625 40.578125 77.09375 44.375 
Q 74.3125 48.1875 68.609375 48.1875 
Q 61.625 48.1875 57.5625 43.546875 
Q 53.515625 38.921875 53.515625 30.90625 
L 53.515625 0 
L 44.484375 0 
L 44.484375 32.71875 
Q 44.484375 40.625 41.703125 44.40625 
Q 38.921875 48.1875 33.109375 48.1875 
Q 26.21875 48.1875 22.15625 43.53125 
Q 18.109375 38.875 18.109375 30.90625 
L 18.109375 0 
L 9.078125 0 
L 9.078125 54.6875 
L 18.109375 54.6875 
L 18.109375 46.1875 
Q 21.1875 51.21875 25.484375 53.609375 
Q 29.78125 56 35.6875 56 
Q 41.65625 56 45.828125 52.96875 
Q 50 49.953125 52 44.1875 
z
" id="DejaVuSans-109"/>
      <path d="M 34.28125 27.484375 
Q 23.390625 27.484375 19.1875 25 
Q 14.984375 22.515625 14.984375 16.5 
Q 14.984375 11.71875 18.140625 8.90625 
Q 21.296875 6.109375 26.703125 6.109375 
Q 34.1875 6.109375 38.703125 11.40625 
Q 43.21875 16.703125 43.21875 25.484375 
L 43.21875 27.484375 
z
M 52.203125 31.203125 
L 52.203125 0 
L 43.21875 0 
L 43.21875 8.296875 
Q 40.140625 3.328125 35.546875 0.953125 
Q 30.953125 -1.421875 24.3125 -1.421875 
Q 15.921875 -1.421875 10.953125 3.296875 
Q 6 8.015625 6 15.921875 
Q 6 25.140625 12.171875 29.828125 
Q 18.359375 34.515625 30.609375 34.515625 
L 43.21875 34.515625 
L 43.21875 35.40625 
Q 43.21875 41.609375 39.140625 45 
Q 35.0625 48.390625 27.6875 48.390625 
Q 23 48.390625 18.546875 47.265625 
Q 14.109375 46.140625 10.015625 43.890625 
L 10.015625 52.203125 
Q 14.9375 54.109375 19.578125 55.046875 
Q 24.21875 56 28.609375 56 
Q 40.484375 56 46.34375 49.84375 
Q 52.203125 43.703125 52.203125 31.203125 
z
" id="DejaVuSans-97"/>
      <path d="M 9.421875 75.984375 
L 18.40625 75.984375 
L 18.40625 0 
L 9.421875 0 
z
" id="DejaVuSans-108"/>
      <path d="M 9.421875 54.6875 
L 18.40625 54.6875 
L 18.40625 0 
L 9.421875 0 
z
M 9.421875 75.984375 
L 18.40625 75.984375 
L 18.40625 64.59375 
L 9.421875 64.59375 
z
" id="DejaVuSans-105"/>
      <path d="M 5.515625 54.6875 
L 48.1875 54.6875 
L 48.1875 46.484375 
L 14.40625 7.171875 
L 48.1875 7.171875 
L 48.1875 0 
L 4.296875 0 
L 4.296875 8.203125 
L 38.09375 47.515625 
L 5.515625 47.515625 
z
" id="DejaVuSans-122"/>
      <path d="M 56.203125 29.59375 
L 56.203125 25.203125 
L 14.890625 25.203125 
Q 15.484375 15.921875 20.484375 11.0625 
Q 25.484375 6.203125 34.421875 6.203125 
Q 39.59375 6.203125 44.453125 7.46875 
Q 49.3125 8.734375 54.109375 11.28125 
L 54.109375 2.78125 
Q 49.265625 0.734375 44.1875 -0.34375 
Q 39.109375 -1.421875 33.890625 -1.421875 
Q 20.796875 -1.421875 13.15625 6.1875 
Q 5.515625 13.8125 5.515625 26.8125 
Q 5.515625 40.234375 12.765625 48.109375 
Q 20.015625 56 32.328125 56 
Q 43.359375 56 49.78125 48.890625 
Q 56.203125 41.796875 56.203125 29.59375 
z
M 47.21875 32.234375 
Q 47.125 39.59375 43.09375 43.984375 
Q 39.0625 48.390625 32.421875 48.390625 
Q 24.90625 48.390625 20.390625 44.140625 
Q 15.875 39.890625 15.1875 32.171875 
z
" id="DejaVuSans-101"/>
      <path d="M 45.40625 46.390625 
L 45.40625 75.984375 
L 54.390625 75.984375 
L 54.390625 0 
L 45.40625 0 
L 45.40625 8.203125 
Q 42.578125 3.328125 38.25 0.953125 
Q 33.9375 -1.421875 27.875 -1.421875 
Q 17.96875 -1.421875 11.734375 6.484375 
Q 5.515625 14.40625 5.515625 27.296875 
Q 5.515625 40.1875 11.734375 48.09375 
Q 17.96875 56 27.875 56 
Q 33.9375 56 38.25 53.625 
Q 42.578125 51.265625 45.40625 46.390625 
z
M 14.796875 27.296875 
Q 14.796875 17.390625 18.875 11.75 
Q 22.953125 6.109375 30.078125 6.109375 
Q 37.203125 6.109375 41.296875 11.75 
Q 45.40625 17.390625 45.40625 27.296875 
Q 45.40625 37.203125 41.296875 42.84375 
Q 37.203125 48.484375 30.078125 48.484375 
Q 22.953125 48.484375 18.875 42.84375 
Q 14.796875 37.203125 14.796875 27.296875 
z
" id="DejaVuSans-100"/>
      <path id="DejaVuSans-32"/>
      <path d="M 64.40625 67.28125 
L 64.40625 56.890625 
Q 59.421875 61.53125 53.78125 63.8125 
Q 48.140625 66.109375 41.796875 66.109375 
Q 29.296875 66.109375 22.65625 58.46875 
Q 16.015625 50.828125 16.015625 36.375 
Q 16.015625 21.96875 22.65625 14.328125 
Q 29.296875 6.6875 41.796875 6.6875 
Q 48.140625 6.6875 53.78125 8.984375 
Q 59.421875 11.28125 64.40625 15.921875 
L 64.40625 5.609375 
Q 59.234375 2.09375 53.4375 0.328125 
Q 47.65625 -1.421875 41.21875 -1.421875 
Q 24.65625 -1.421875 15.125 8.703125 
Q 5.609375 18.84375 5.609375 36.375 
Q 5.609375 53.953125 15.125 64.078125 
Q 24.65625 74.21875 41.21875 74.21875 
Q 47.75 74.21875 53.53125 72.484375 
Q 59.328125 70.75 64.40625 67.28125 
z
" id="DejaVuSans-67"/>
      <path d="M 8.5 21.578125 
L 8.5 54.6875 
L 17.484375 54.6875 
L 17.484375 21.921875 
Q 17.484375 14.15625 20.5 10.265625 
Q 23.53125 6.390625 29.59375 6.390625 
Q 36.859375 6.390625 41.078125 11.03125 
Q 45.3125 15.671875 45.3125 23.6875 
L 45.3125 54.6875 
L 54.296875 54.6875 
L 54.296875 0 
L 45.3125 0 
L 45.3125 8.40625 
Q 42.046875 3.421875 37.71875 1 
Q 33.40625 -1.421875 27.6875 -1.421875 
Q 18.265625 -1.421875 13.375 4.4375 
Q 8.5 10.296875 8.5 21.578125 
z
M 31.109375 56 
z
" id="DejaVuSans-117"/>
      <path d="M 54.890625 33.015625 
L 54.890625 0 
L 45.90625 0 
L 45.90625 32.71875 
Q 45.90625 40.484375 42.875 44.328125 
Q 39.84375 48.1875 33.796875 48.1875 
Q 26.515625 48.1875 22.3125 43.546875 
Q 18.109375 38.921875 18.109375 30.90625 
L 18.109375 0 
L 9.078125 0 
L 9.078125 54.6875 
L 18.109375 54.6875 
L 18.109375 46.1875 
Q 21.34375 51.125 25.703125 53.5625 
Q 30.078125 56 35.796875 56 
Q 45.21875 56 50.046875 50.171875 
Q 54.890625 44.34375 54.890625 33.015625 
z
" id="DejaVuSans-110"/>
      <path d="M 18.3125 70.21875 
L 18.3125 54.6875 
L 36.8125 54.6875 
L 36.8125 47.703125 
L 18.3125 47.703125 
L 18.3125 18.015625 
Q 18.3125 11.328125 20.140625 9.421875 
Q 21.96875 7.515625 27.59375 7.515625 
L 36.8125 7.515625 
L 36.8125 0 
L 27.59375 0 
Q 17.1875 0 13.234375 3.875 
Q 9.28125 7.765625 9.28125 18.015625 
L 9.28125 47.703125 
L 2.6875 47.703125 
L 2.6875 54.6875 
L 9.28125 54.6875 
L 9.28125 70.21875 
z
" id="DejaVuSans-116"/>
     </defs>
     <g transform="translate(20.605937 286.381719)rotate(-90)scale(0.26 -0.26)">
      <use xlink:href="#DejaVuSans-78"/>
      <use x="74.804688" xlink:href="#DejaVuSans-111"/>
      <use x="135.986328" xlink:href="#DejaVuSans-114"/>
      <use x="175.349609" xlink:href="#DejaVuSans-109"/>
      <use x="272.761719" xlink:href="#DejaVuSans-97"/>
      <use x="334.041016" xlink:href="#DejaVuSans-108"/>
      <use x="361.824219" xlink:href="#DejaVuSans-105"/>
      <use x="389.607422" xlink:href="#DejaVuSans-122"/>
      <use x="442.097656" xlink:href="#DejaVuSans-101"/>
      <use x="503.621094" xlink:href="#DejaVuSans-100"/>
      <use x="567.097656" xlink:href="#DejaVuSans-32"/>
      <use x="598.884766" xlink:href="#DejaVuSans-67"/>
      <use x="668.708984" xlink:href="#DejaVuSans-111"/>
      <use x="729.890625" xlink:href="#DejaVuSans-117"/>
      <use x="793.269531" xlink:href="#DejaVuSans-110"/>
      <use x="856.648438" xlink:href="#DejaVuSans-116"/>
     </g>
    </g>
   </g>
   <g id="line2d_7">
    <path clip-path="url(#p1881b1df15)" d="M 97.525748 270.700433 
L 101.113305 270.669459 
L 104.700861 270.596682 
L 108.288417 270.435606 
L 111.875974 270.09993 
L 115.46353 269.441821 
L 119.051086 268.229374 
L 122.638643 266.133305 
L 126.226199 262.738348 
L 129.813756 257.595533 
L 133.401312 250.32235 
L 136.988868 240.73674 
L 140.576425 228.983689 
L 144.163981 215.595166 
L 147.751537 201.432991 
L 151.339094 187.507299 
L 154.92665 174.725368 
L 158.514207 163.671194 
L 162.101763 154.510864 
L 165.689319 147.057086 
L 169.276876 140.94321 
L 172.864432 135.806855 
L 176.451988 131.398446 
L 180.039545 127.594376 
L 183.627101 124.35652 
L 187.214658 121.695073 
L 190.802214 119.658314 
L 194.38977 118.328933 
L 197.977327 117.793291 
L 201.564883 118.077143 
L 205.152439 119.082019 
L 208.739996 120.572941 
L 212.327552 122.243724 
L 215.915108 123.836653 
L 219.502665 125.254355 
L 223.090221 126.601423 
L 226.677778 128.133668 
L 230.265334 130.147603 
L 233.85289 132.875775 
L 237.440447 136.442844 
L 241.028003 140.891174 
L 244.615559 146.236047 
L 248.203116 152.493886 
L 251.790672 159.652611 
L 255.378229 167.601133 
L 258.965785 176.06966 
L 262.553341 184.630639 
L 266.140898 192.775778 
L 269.728454 200.042704 
L 273.31601 206.140839 
L 276.903567 211.028791 
L 280.491123 214.917052 
L 284.078679 218.196539 
L 287.666236 221.31628 
L 291.253792 224.648592 
L 294.841349 228.384257 
L 298.428905 232.490694 
L 302.016461 236.74391 
L 305.604018 240.818378 
L 309.191574 244.399636 
L 312.77913 247.280208 
L 316.366687 249.409957 
L 319.954243 250.890525 
L 323.5418 251.922535 
L 327.129356 252.728601 
L 330.716912 253.481638 
L 334.304469 254.2644 
L 337.892025 255.072711 
L 341.479581 255.855721 
L 345.067138 256.570065 
L 348.654694 257.21967 
L 352.242251 257.862398 
L 355.829807 258.583519 
L 359.417363 259.453418 
L 363.00492 260.492971 
L 366.592476 261.662793 
L 370.180032 262.878145 
L 373.767589 264.039188 
L 377.355145 265.062115 
L 380.942701 265.899963 
L 384.530258 266.548439 
L 388.117814 267.03805 
L 391.705371 267.417777 
L 395.292927 267.737243 
L 398.880483 268.033714 
L 402.46804 268.327299 
L 406.055596 268.623634 
L 409.643152 268.920124 
L 413.230709 269.211377 
L 416.818265 269.491569 
L 420.405822 269.754352 
L 423.993378 269.992414 
L 427.580934 270.198267 
L 431.168491 270.366233 
L 434.756047 270.494388 
L 438.343603 270.585242 
L 441.93116 270.644855 
L 445.518716 270.680971 
L 449.106273 270.701152 
L 452.693829 270.711547 
" style="fill:none;stroke:#0000ff;stroke-linecap:square;stroke-opacity:0.4;stroke-width:5;"/>
   </g>
   <g id="line2d_8">
    <path clip-path="url(#p1881b1df15)" d="M 95.880619 270.667285 
L 99.900067 270.596522 
L 103.919516 270.449083 
L 107.938965 270.162584 
L 111.958414 269.64309 
L 115.977863 268.763553 
L 119.997312 267.37221 
L 124.016761 265.314252 
L 128.03621 262.465731 
L 132.055658 258.772356 
L 136.075107 254.280262 
L 140.094556 249.144377 
L 144.114005 243.605024 
L 148.133454 237.934236 
L 152.152903 232.366097 
L 156.172352 227.034698 
L 160.191801 221.944134 
L 164.21125 216.985124 
L 168.230698 211.99444 
L 172.250147 206.833031 
L 176.269596 201.446382 
L 180.289045 195.875085 
L 184.308494 190.206464 
L 188.327943 184.489972 
L 192.347392 178.662627 
L 196.366841 172.530731 
L 200.386289 165.828584 
L 204.405738 158.337095 
L 208.425187 150.015647 
L 212.444636 141.094054 
L 216.464085 132.088638 
L 220.483534 123.736316 
L 224.502983 116.867874 
L 228.522432 112.256062 
L 232.54188 110.473741 
L 236.561329 111.787778 
L 240.580778 116.103776 
L 244.600227 122.969921 
L 248.619676 131.643402 
L 252.639125 141.214375 
L 256.658574 150.767457 
L 260.678023 159.544546 
L 264.697471 167.06617 
L 268.71692 173.178911 
L 272.736369 178.020882 
L 276.755818 181.923918 
L 280.775267 185.288013 
L 284.794716 188.465898 
L 288.814165 191.686565 
L 292.833614 195.031913 
L 296.853062 198.464447 
L 300.872511 201.888472 
L 304.89196 205.216373 
L 308.911409 208.411329 
L 312.930858 211.491172 
L 316.950307 214.500123 
L 320.969756 217.472897 
L 324.989205 220.417047 
L 329.008653 223.323178 
L 333.028102 226.1909 
L 337.047551 229.047341 
L 341.067 231.942389 
L 345.086449 234.923532 
L 349.105898 238.008047 
L 353.125347 241.17063 
L 357.144796 244.352048 
L 361.164244 247.479902 
L 365.183693 250.486893 
L 369.203142 253.317446 
L 373.222591 255.923982 
L 377.24204 258.261257 
L 381.261489 260.286391 
L 385.280938 261.965935 
L 389.300387 263.285172 
L 393.319835 264.253552 
L 397.339284 264.903729 
L 401.358733 265.286404 
L 405.378182 265.465006 
L 409.397631 265.512071 
L 413.41708 265.505453 
L 417.436529 265.520997 
L 421.455978 265.620697 
L 425.475426 265.839987 
L 429.494875 266.180784 
L 433.514324 266.615275 
L 437.533773 267.099766 
L 441.553222 267.592084 
L 445.572671 268.064117 
L 449.59212 268.50449 
L 453.611569 268.912526 
L 457.631017 269.289206 
L 461.650466 269.631186 
L 465.669915 269.93051 
L 469.689364 270.17858 
L 473.708813 270.370817 
L 477.728262 270.509075 
L 481.747711 270.601006 
L 485.76716 270.657424 
L 489.786608 270.689365 
L 493.806057 270.706049 
" style="fill:none;stroke:#ff0000;stroke-linecap:square;stroke-opacity:0.4;stroke-width:5;"/>
   </g>
   <g id="patch_43">
    <path d="M 72 270.72 
L 72 69.12 
" style="fill:none;stroke:#000000;stroke-linecap:square;stroke-linejoin:miter;stroke-width:0.8;"/>
   </g>
   <g id="patch_44">
    <path d="M 72 270.72 
L 518.4 270.72 
" style="fill:none;stroke:#000000;stroke-linecap:square;stroke-linejoin:miter;stroke-width:0.8;"/>
   </g>
   <g id="text_5">
    <!-- 5' UTRs (1605) -->
    <defs>
     <path d="M 10.796875 72.90625 
L 49.515625 72.90625 
L 49.515625 64.59375 
L 19.828125 64.59375 
L 19.828125 46.734375 
Q 21.96875 47.46875 24.109375 47.828125 
Q 26.265625 48.1875 28.421875 48.1875 
Q 40.625 48.1875 47.75 41.5 
Q 54.890625 34.8125 54.890625 23.390625 
Q 54.890625 11.625 47.5625 5.09375 
Q 40.234375 -1.421875 26.90625 -1.421875 
Q 22.3125 -1.421875 17.546875 -0.640625 
Q 12.796875 0.140625 7.71875 1.703125 
L 7.71875 11.625 
Q 12.109375 9.234375 16.796875 8.0625 
Q 21.484375 6.890625 26.703125 6.890625 
Q 35.15625 6.890625 40.078125 11.328125 
Q 45.015625 15.765625 45.015625 23.390625 
Q 45.015625 31 40.078125 35.4375 
Q 35.15625 39.890625 26.703125 39.890625 
Q 22.75 39.890625 18.8125 39.015625 
Q 14.890625 38.140625 10.796875 36.28125 
z
" id="DejaVuSans-53"/>
     <path d="M 17.921875 72.90625 
L 17.921875 45.796875 
L 9.625 45.796875 
L 9.625 72.90625 
z
" id="DejaVuSans-39"/>
     <path d="M 8.6875 72.90625 
L 18.609375 72.90625 
L 18.609375 28.609375 
Q 18.609375 16.890625 22.84375 11.734375 
Q 27.09375 6.59375 36.625 6.59375 
Q 46.09375 6.59375 50.34375 11.734375 
Q 54.59375 16.890625 54.59375 28.609375 
L 54.59375 72.90625 
L 64.5 72.90625 
L 64.5 27.390625 
Q 64.5 13.140625 57.4375 5.859375 
Q 50.390625 -1.421875 36.625 -1.421875 
Q 22.796875 -1.421875 15.734375 5.859375 
Q 8.6875 13.140625 8.6875 27.390625 
z
" id="DejaVuSans-85"/>
     <path d="M -0.296875 72.90625 
L 61.375 72.90625 
L 61.375 64.59375 
L 35.5 64.59375 
L 35.5 0 
L 25.59375 0 
L 25.59375 64.59375 
L -0.296875 64.59375 
z
" id="DejaVuSans-84"/>
     <path d="M 44.390625 34.1875 
Q 47.5625 33.109375 50.5625 29.59375 
Q 53.5625 26.078125 56.59375 19.921875 
L 66.609375 0 
L 56 0 
L 46.6875 18.703125 
Q 43.0625 26.03125 39.671875 28.421875 
Q 36.28125 30.8125 30.421875 30.8125 
L 19.671875 30.8125 
L 19.671875 0 
L 9.8125 0 
L 9.8125 72.90625 
L 32.078125 72.90625 
Q 44.578125 72.90625 50.734375 67.671875 
Q 56.890625 62.453125 56.890625 51.90625 
Q 56.890625 45.015625 53.6875 40.46875 
Q 50.484375 35.9375 44.390625 34.1875 
z
M 19.671875 64.796875 
L 19.671875 38.921875 
L 32.078125 38.921875 
Q 39.203125 38.921875 42.84375 42.21875 
Q 46.484375 45.515625 46.484375 51.90625 
Q 46.484375 58.296875 42.84375 61.546875 
Q 39.203125 64.796875 32.078125 64.796875 
z
" id="DejaVuSans-82"/>
     <path d="M 44.28125 53.078125 
L 44.28125 44.578125 
Q 40.484375 46.53125 36.375 47.5 
Q 32.28125 48.484375 27.875 48.484375 
Q 21.1875 48.484375 17.84375 46.4375 
Q 14.5 44.390625 14.5 40.28125 
Q 14.5 37.15625 16.890625 35.375 
Q 19.28125 33.59375 26.515625 31.984375 
L 29.59375 31.296875 
Q 39.15625 29.25 43.1875 25.515625 
Q 47.21875 21.78125 47.21875 15.09375 
Q 47.21875 7.46875 41.1875 3.015625 
Q 35.15625 -1.421875 24.609375 -1.421875 
Q 20.21875 -1.421875 15.453125 -0.5625 
Q 10.6875 0.296875 5.421875 2 
L 5.421875 11.28125 
Q 10.40625 8.6875 15.234375 7.390625 
Q 20.0625 6.109375 24.8125 6.109375 
Q 31.15625 6.109375 34.5625 8.28125 
Q 37.984375 10.453125 37.984375 14.40625 
Q 37.984375 18.0625 35.515625 20.015625 
Q 33.0625 21.96875 24.703125 23.78125 
L 21.578125 24.515625 
Q 13.234375 26.265625 9.515625 29.90625 
Q 5.8125 33.546875 5.8125 39.890625 
Q 5.8125 47.609375 11.28125 51.796875 
Q 16.75 56 26.8125 56 
Q 31.78125 56 36.171875 55.265625 
Q 40.578125 54.546875 44.28125 53.078125 
z
" id="DejaVuSans-115"/>
     <path d="M 31 75.875 
Q 24.46875 64.65625 21.28125 53.65625 
Q 18.109375 42.671875 18.109375 31.390625 
Q 18.109375 20.125 21.3125 9.0625 
Q 24.515625 -2 31 -13.1875 
L 23.1875 -13.1875 
Q 15.875 -1.703125 12.234375 9.375 
Q 8.59375 20.453125 8.59375 31.390625 
Q 8.59375 42.28125 12.203125 53.3125 
Q 15.828125 64.359375 23.1875 75.875 
z
" id="DejaVuSans-40"/>
     <path d="M 33.015625 40.375 
Q 26.375 40.375 22.484375 35.828125 
Q 18.609375 31.296875 18.609375 23.390625 
Q 18.609375 15.53125 22.484375 10.953125 
Q 26.375 6.390625 33.015625 6.390625 
Q 39.65625 6.390625 43.53125 10.953125 
Q 47.40625 15.53125 47.40625 23.390625 
Q 47.40625 31.296875 43.53125 35.828125 
Q 39.65625 40.375 33.015625 40.375 
z
M 52.59375 71.296875 
L 52.59375 62.3125 
Q 48.875 64.0625 45.09375 64.984375 
Q 41.3125 65.921875 37.59375 65.921875 
Q 27.828125 65.921875 22.671875 59.328125 
Q 17.53125 52.734375 16.796875 39.40625 
Q 19.671875 43.65625 24.015625 45.921875 
Q 28.375 48.1875 33.59375 48.1875 
Q 44.578125 48.1875 50.953125 41.515625 
Q 57.328125 34.859375 57.328125 23.390625 
Q 57.328125 12.15625 50.6875 5.359375 
Q 44.046875 -1.421875 33.015625 -1.421875 
Q 20.359375 -1.421875 13.671875 8.265625 
Q 6.984375 17.96875 6.984375 36.375 
Q 6.984375 53.65625 15.1875 63.9375 
Q 23.390625 74.21875 37.203125 74.21875 
Q 40.921875 74.21875 44.703125 73.484375 
Q 48.484375 72.75 52.59375 71.296875 
z
" id="DejaVuSans-54"/>
     <path d="M 8.015625 75.875 
L 15.828125 75.875 
Q 23.140625 64.359375 26.78125 53.3125 
Q 30.421875 42.28125 30.421875 31.390625 
Q 30.421875 20.453125 26.78125 9.375 
Q 23.140625 -1.703125 15.828125 -13.1875 
L 8.015625 -13.1875 
Q 14.5 -2 17.703125 9.0625 
Q 20.90625 20.125 20.90625 31.390625 
Q 20.90625 42.671875 17.703125 53.65625 
Q 14.5 64.65625 8.015625 75.875 
z
" id="DejaVuSans-41"/>
    </defs>
    <g transform="translate(220.895312 63.12)scale(0.2 -0.2)">
     <use xlink:href="#DejaVuSans-53"/>
     <use x="63.623047" xlink:href="#DejaVuSans-39"/>
     <use x="91.113281" xlink:href="#DejaVuSans-32"/>
     <use x="122.900391" xlink:href="#DejaVuSans-85"/>
     <use x="196.09375" xlink:href="#DejaVuSans-84"/>
     <use x="257.177734" xlink:href="#DejaVuSans-82"/>
     <use x="326.660156" xlink:href="#DejaVuSans-115"/>
     <use x="378.759766" xlink:href="#DejaVuSans-32"/>
     <use x="410.546875" xlink:href="#DejaVuSans-40"/>
     <use x="449.560547" xlink:href="#DejaVuSans-49"/>
     <use x="513.183594" xlink:href="#DejaVuSans-54"/>
     <use x="576.806641" xlink:href="#DejaVuSans-48"/>
     <use x="640.429688" xlink:href="#DejaVuSans-53"/>
     <use x="704.052734" xlink:href="#DejaVuSans-41"/>
    </g>
   </g>
  </g>
  <g id="axes_2">
   <g id="patch_45">
    <path d="M 72 512.64 
L 518.4 512.64 
L 518.4 311.04 
L 72 311.04 
z
" style="fill:#ffffff;"/>
   </g>
   <g id="patch_46">
    <path clip-path="url(#pa481a2dc23)" d="M 144.258547 512.64 
L 158.748202 512.64 
L 158.748202 470.557808 
L 144.258547 470.557808 
z
" style="fill:#0000ff;opacity:0.4;"/>
   </g>
   <g id="patch_47">
    <path clip-path="url(#pa481a2dc23)" d="M 158.748202 512.64 
L 173.237857 512.64 
L 173.237857 462.667397 
L 158.748202 462.667397 
z
" style="fill:#0000ff;opacity:0.4;"/>
   </g>
   <g id="patch_48">
    <path clip-path="url(#pa481a2dc23)" d="M 173.237857 512.64 
L 187.727513 512.64 
L 187.727513 410.064658 
L 173.237857 410.064658 
z
" style="fill:#0000ff;opacity:0.4;"/>
   </g>
   <g id="patch_49">
    <path clip-path="url(#pa481a2dc23)" d="M 187.727513 512.64 
L 202.217168 512.64 
L 202.217168 357.461918 
L 187.727513 357.461918 
z
" style="fill:#0000ff;opacity:0.4;"/>
   </g>
   <g id="patch_50">
    <path clip-path="url(#pa481a2dc23)" d="M 202.217168 512.64 
L 216.706824 512.64 
L 216.706824 383.763288 
L 202.217168 383.763288 
z
" style="fill:#0000ff;opacity:0.4;"/>
   </g>
   <g id="patch_51">
    <path clip-path="url(#pa481a2dc23)" d="M 216.706824 512.64 
L 231.196479 512.64 
L 231.196479 320.64 
L 216.706824 320.64 
z
" style="fill:#0000ff;opacity:0.4;"/>
   </g>
   <g id="patch_52">
    <path clip-path="url(#pa481a2dc23)" d="M 231.196479 512.64 
L 245.686134 512.64 
L 245.686134 367.982466 
L 231.196479 367.982466 
z
" style="fill:#0000ff;opacity:0.4;"/>
   </g>
   <g id="patch_53">
    <path clip-path="url(#pa481a2dc23)" d="M 245.686134 512.64 
L 260.17579 512.64 
L 260.17579 349.571507 
L 245.686134 349.571507 
z
" style="fill:#0000ff;opacity:0.4;"/>
   </g>
   <g id="patch_54">
    <path clip-path="url(#pa481a2dc23)" d="M 260.17579 512.64 
L 274.665445 512.64 
L 274.665445 399.54411 
L 260.17579 399.54411 
z
" style="fill:#0000ff;opacity:0.4;"/>
   </g>
   <g id="patch_55">
    <path clip-path="url(#pa481a2dc23)" d="M 274.665445 512.64 
L 289.1551 512.64 
L 289.1551 438.996164 
L 274.665445 438.996164 
z
" style="fill:#0000ff;opacity:0.4;"/>
   </g>
   <g id="patch_56">
    <path clip-path="url(#pa481a2dc23)" d="M 289.1551 512.64 
L 303.644756 512.64 
L 303.644756 465.297534 
L 289.1551 465.297534 
z
" style="fill:#0000ff;opacity:0.4;"/>
   </g>
   <g id="patch_57">
    <path clip-path="url(#pa481a2dc23)" d="M 303.644756 512.64 
L 318.134411 512.64 
L 318.134411 499.489315 
L 303.644756 499.489315 
z
" style="fill:#0000ff;opacity:0.4;"/>
   </g>
   <g id="patch_58">
    <path clip-path="url(#pa481a2dc23)" d="M 318.134411 512.64 
L 332.624066 512.64 
L 332.624066 496.859178 
L 318.134411 496.859178 
z
" style="fill:#0000ff;opacity:0.4;"/>
   </g>
   <g id="patch_59">
    <path clip-path="url(#pa481a2dc23)" d="M 332.624066 512.64 
L 347.113722 512.64 
L 347.113722 504.749589 
L 332.624066 504.749589 
z
" style="fill:#0000ff;opacity:0.4;"/>
   </g>
   <g id="patch_60">
    <path clip-path="url(#pa481a2dc23)" d="M 347.113722 512.64 
L 361.603377 512.64 
L 361.603377 481.078356 
L 347.113722 481.078356 
z
" style="fill:#0000ff;opacity:0.4;"/>
   </g>
   <g id="patch_61">
    <path clip-path="url(#pa481a2dc23)" d="M 361.603377 512.64 
L 376.093032 512.64 
L 376.093032 507.379726 
L 361.603377 507.379726 
z
" style="fill:#0000ff;opacity:0.4;"/>
   </g>
   <g id="patch_62">
    <path clip-path="url(#pa481a2dc23)" d="M 376.093032 512.64 
L 390.582688 512.64 
L 390.582688 507.379726 
L 376.093032 507.379726 
z
" style="fill:#0000ff;opacity:0.4;"/>
   </g>
   <g id="patch_63">
    <path clip-path="url(#pa481a2dc23)" d="M 140.870979 512.64 
L 159.027335 512.64 
L 159.027335 502.058913 
L 140.870979 502.058913 
z
" style="fill:#ff0000;opacity:0.4;"/>
   </g>
   <g id="patch_64">
    <path clip-path="url(#pa481a2dc23)" d="M 159.027335 512.64 
L 177.18369 512.64 
L 177.18369 489.361609 
L 159.027335 489.361609 
z
" style="fill:#ff0000;opacity:0.4;"/>
   </g>
   <g id="patch_65">
    <path clip-path="url(#pa481a2dc23)" d="M 177.18369 512.64 
L 195.340046 512.64 
L 195.340046 434.339956 
L 177.18369 434.339956 
z
" style="fill:#ff0000;opacity:0.4;"/>
   </g>
   <g id="patch_66">
    <path clip-path="url(#pa481a2dc23)" d="M 195.340046 512.64 
L 213.496401 512.64 
L 213.496401 427.991304 
L 195.340046 427.991304 
z
" style="fill:#ff0000;opacity:0.4;"/>
   </g>
   <g id="patch_67">
    <path clip-path="url(#pa481a2dc23)" d="M 213.496401 512.64 
L 231.652756 512.64 
L 231.652756 330.645304 
L 213.496401 330.645304 
z
" style="fill:#ff0000;opacity:0.4;"/>
   </g>
   <g id="patch_68">
    <path clip-path="url(#pa481a2dc23)" d="M 231.652756 512.64 
L 249.809112 512.64 
L 249.809112 339.110173 
L 231.652756 339.110173 
z
" style="fill:#ff0000;opacity:0.4;"/>
   </g>
   <g id="patch_69">
    <path clip-path="url(#pa481a2dc23)" d="M 249.809112 512.64 
L 267.965467 512.64 
L 267.965467 419.526434 
L 249.809112 419.526434 
z
" style="fill:#ff0000;opacity:0.4;"/>
   </g>
   <g id="patch_70">
    <path clip-path="url(#pa481a2dc23)" d="M 267.965467 512.64 
L 286.121822 512.64 
L 286.121822 408.945347 
L 267.965467 408.945347 
z
" style="fill:#ff0000;opacity:0.4;"/>
   </g>
   <g id="patch_71">
    <path clip-path="url(#pa481a2dc23)" d="M 286.121822 512.64 
L 304.278178 512.64 
L 304.278178 419.526434 
L 286.121822 419.526434 
z
" style="fill:#ff0000;opacity:0.4;"/>
   </g>
   <g id="patch_72">
    <path clip-path="url(#pa481a2dc23)" d="M 304.278178 512.64 
L 322.434533 512.64 
L 322.434533 442.804826 
L 304.278178 442.804826 
z
" style="fill:#ff0000;opacity:0.4;"/>
   </g>
   <g id="patch_73">
    <path clip-path="url(#pa481a2dc23)" d="M 322.434533 512.64 
L 340.590888 512.64 
L 340.590888 457.618348 
L 322.434533 457.618348 
z
" style="fill:#ff0000;opacity:0.4;"/>
   </g>
   <g id="patch_74">
    <path clip-path="url(#pa481a2dc23)" d="M 340.590888 512.64 
L 358.747244 512.64 
L 358.747244 491.477826 
L 340.590888 491.477826 
z
" style="fill:#ff0000;opacity:0.4;"/>
   </g>
   <g id="patch_75">
    <path clip-path="url(#pa481a2dc23)" d="M 358.747244 512.64 
L 376.903599 512.64 
L 376.903599 504.17513 
L 358.747244 504.17513 
z
" style="fill:#ff0000;opacity:0.4;"/>
   </g>
   <g id="patch_76">
    <path clip-path="url(#pa481a2dc23)" d="M 376.903599 512.64 
L 395.059954 512.64 
L 395.059954 508.407565 
L 376.903599 508.407565 
z
" style="fill:#ff0000;opacity:0.4;"/>
   </g>
   <g id="patch_77">
    <path clip-path="url(#pa481a2dc23)" d="M 395.059954 512.64 
L 413.21631 512.64 
L 413.21631 512.64 
L 395.059954 512.64 
z
" style="fill:#ff0000;opacity:0.4;"/>
   </g>
   <g id="patch_78">
    <path clip-path="url(#pa481a2dc23)" d="M 413.21631 512.64 
L 431.372665 512.64 
L 431.372665 491.477826 
L 413.21631 491.477826 
z
" style="fill:#ff0000;opacity:0.4;"/>
   </g>
   <g id="patch_79">
    <path clip-path="url(#pa481a2dc23)" d="M 431.372665 512.64 
L 449.529021 512.64 
L 449.529021 504.17513 
L 431.372665 504.17513 
z
" style="fill:#ff0000;opacity:0.4;"/>
   </g>
   <g id="patch_80">
    <path clip-path="url(#pa481a2dc23)" d="M 312.434761 432.589362 
L 306.590991 424.584299 
L 312.317886 424.584299 
L 312.317886 352.538725 
L 312.551636 352.538725 
L 312.551636 424.584299 
L 318.278531 424.584299 
z
" style="fill:#1f77b4;stroke:#000000;stroke-linejoin:miter;"/>
   </g>
   <g id="matplotlib.axis_3">
    <g id="xtick_4">
     <g id="line2d_9">
      <g>
       <use style="stroke:#000000;stroke-width:0.8;" x="183.01197" xlink:href="#m232006c3dd" y="512.64"/>
      </g>
     </g>
     <g id="text_6">
      <!-- 5 -->
      <g transform="translate(176.01322 536.356562)scale(0.22 -0.22)">
       <use xlink:href="#DejaVuSans-53"/>
      </g>
     </g>
    </g>
    <g id="xtick_5">
     <g id="line2d_10">
      <g>
       <use style="stroke:#000000;stroke-width:0.8;" x="299.887374" xlink:href="#m232006c3dd" y="512.64"/>
      </g>
     </g>
     <g id="text_7">
      <!-- 10 -->
      <g transform="translate(285.889874 536.356562)scale(0.22 -0.22)">
       <use xlink:href="#DejaVuSans-49"/>
       <use x="63.623047" xlink:href="#DejaVuSans-48"/>
      </g>
     </g>
    </g>
    <g id="xtick_6">
     <g id="line2d_11">
      <g>
       <use style="stroke:#000000;stroke-width:0.8;" x="416.762778" xlink:href="#m232006c3dd" y="512.64"/>
      </g>
     </g>
     <g id="text_8">
      <!-- 15 -->
      <g transform="translate(402.765278 536.356562)scale(0.22 -0.22)">
       <use xlink:href="#DejaVuSans-49"/>
       <use x="63.623047" xlink:href="#DejaVuSans-53"/>
      </g>
     </g>
    </g>
    <g id="text_9">
     <!-- Bits per bp -->
     <defs>
      <path d="M 19.671875 34.8125 
L 19.671875 8.109375 
L 35.5 8.109375 
Q 43.453125 8.109375 47.28125 11.40625 
Q 51.125 14.703125 51.125 21.484375 
Q 51.125 28.328125 47.28125 31.5625 
Q 43.453125 34.8125 35.5 34.8125 
z
M 19.671875 64.796875 
L 19.671875 42.828125 
L 34.28125 42.828125 
Q 41.5 42.828125 45.03125 45.53125 
Q 48.578125 48.25 48.578125 53.8125 
Q 48.578125 59.328125 45.03125 62.0625 
Q 41.5 64.796875 34.28125 64.796875 
z
M 9.8125 72.90625 
L 35.015625 72.90625 
Q 46.296875 72.90625 52.390625 68.21875 
Q 58.5 63.53125 58.5 54.890625 
Q 58.5 48.1875 55.375 44.234375 
Q 52.25 40.28125 46.1875 39.3125 
Q 53.46875 37.75 57.5 32.78125 
Q 61.53125 27.828125 61.53125 20.40625 
Q 61.53125 10.640625 54.890625 5.3125 
Q 48.25 0 35.984375 0 
L 9.8125 0 
z
" id="DejaVuSans-66"/>
      <path d="M 18.109375 8.203125 
L 18.109375 -20.796875 
L 9.078125 -20.796875 
L 9.078125 54.6875 
L 18.109375 54.6875 
L 18.109375 46.390625 
Q 20.953125 51.265625 25.265625 53.625 
Q 29.59375 56 35.59375 56 
Q 45.5625 56 51.78125 48.09375 
Q 58.015625 40.1875 58.015625 27.296875 
Q 58.015625 14.40625 51.78125 6.484375 
Q 45.5625 -1.421875 35.59375 -1.421875 
Q 29.59375 -1.421875 25.265625 0.953125 
Q 20.953125 3.328125 18.109375 8.203125 
z
M 48.6875 27.296875 
Q 48.6875 37.203125 44.609375 42.84375 
Q 40.53125 48.484375 33.40625 48.484375 
Q 26.265625 48.484375 22.1875 42.84375 
Q 18.109375 37.203125 18.109375 27.296875 
Q 18.109375 17.390625 22.1875 11.75 
Q 26.265625 6.109375 33.40625 6.109375 
Q 40.53125 6.109375 44.609375 11.75 
Q 48.6875 17.390625 48.6875 27.296875 
z
" id="DejaVuSans-112"/>
      <path d="M 48.6875 27.296875 
Q 48.6875 37.203125 44.609375 42.84375 
Q 40.53125 48.484375 33.40625 48.484375 
Q 26.265625 48.484375 22.1875 42.84375 
Q 18.109375 37.203125 18.109375 27.296875 
Q 18.109375 17.390625 22.1875 11.75 
Q 26.265625 6.109375 33.40625 6.109375 
Q 40.53125 6.109375 44.609375 11.75 
Q 48.6875 17.390625 48.6875 27.296875 
z
M 18.109375 46.390625 
Q 20.953125 51.265625 25.265625 53.625 
Q 29.59375 56 35.59375 56 
Q 45.5625 56 51.78125 48.09375 
Q 58.015625 40.1875 58.015625 27.296875 
Q 58.015625 14.40625 51.78125 6.484375 
Q 45.5625 -1.421875 35.59375 -1.421875 
Q 29.59375 -1.421875 25.265625 0.953125 
Q 20.953125 3.328125 18.109375 8.203125 
L 18.109375 0 
L 9.078125 0 
L 9.078125 75.984375 
L 18.109375 75.984375 
z
" id="DejaVuSans-98"/>
     </defs>
     <g transform="translate(224.435312 564.687813)scale(0.26 -0.26)">
      <use xlink:href="#DejaVuSans-66"/>
      <use x="68.603516" xlink:href="#DejaVuSans-105"/>
      <use x="96.386719" xlink:href="#DejaVuSans-116"/>
      <use x="135.595703" xlink:href="#DejaVuSans-115"/>
      <use x="187.695312" xlink:href="#DejaVuSans-32"/>
      <use x="219.482422" xlink:href="#DejaVuSans-112"/>
      <use x="282.958984" xlink:href="#DejaVuSans-101"/>
      <use x="344.482422" xlink:href="#DejaVuSans-114"/>
      <use x="385.595703" xlink:href="#DejaVuSans-32"/>
      <use x="417.382812" xlink:href="#DejaVuSans-98"/>
      <use x="480.859375" xlink:href="#DejaVuSans-112"/>
     </g>
    </g>
   </g>
   <g id="matplotlib.axis_4">
    <g id="ytick_4">
     <g id="line2d_12">
      <g>
       <use style="stroke:#000000;stroke-width:0.8;" x="72" xlink:href="#m1d7e85d264" y="512.64"/>
      </g>
     </g>
     <g id="text_10">
      <!-- 0.0 -->
      <g transform="translate(30.013125 520.998281)scale(0.22 -0.22)">
       <use xlink:href="#DejaVuSans-48"/>
       <use x="63.623047" xlink:href="#DejaVuSans-46"/>
       <use x="95.410156" xlink:href="#DejaVuSans-48"/>
      </g>
     </g>
    </g>
    <g id="ytick_5">
     <g id="line2d_13">
      <g>
       <use style="stroke:#000000;stroke-width:0.8;" x="72" xlink:href="#m1d7e85d264" y="432.589362"/>
      </g>
     </g>
     <g id="text_11">
      <!-- 0.1 -->
      <g transform="translate(30.013125 440.947644)scale(0.22 -0.22)">
       <use xlink:href="#DejaVuSans-48"/>
       <use x="63.623047" xlink:href="#DejaVuSans-46"/>
       <use x="95.410156" xlink:href="#DejaVuSans-49"/>
      </g>
     </g>
    </g>
    <g id="ytick_6">
     <g id="line2d_14">
      <g>
       <use style="stroke:#000000;stroke-width:0.8;" x="72" xlink:href="#m1d7e85d264" y="352.538725"/>
      </g>
     </g>
     <g id="text_12">
      <!-- 0.2 -->
      <g transform="translate(30.013125 360.897006)scale(0.22 -0.22)">
       <use xlink:href="#DejaVuSans-48"/>
       <use x="63.623047" xlink:href="#DejaVuSans-46"/>
       <use x="95.410156" xlink:href="#DejaVuSans-50"/>
      </g>
     </g>
    </g>
    <g id="text_13">
     <!-- Normalized Count -->
     <g transform="translate(20.605937 528.301719)rotate(-90)scale(0.26 -0.26)">
      <use xlink:href="#DejaVuSans-78"/>
      <use x="74.804688" xlink:href="#DejaVuSans-111"/>
      <use x="135.986328" xlink:href="#DejaVuSans-114"/>
      <use x="175.349609" xlink:href="#DejaVuSans-109"/>
      <use x="272.761719" xlink:href="#DejaVuSans-97"/>
      <use x="334.041016" xlink:href="#DejaVuSans-108"/>
      <use x="361.824219" xlink:href="#DejaVuSans-105"/>
      <use x="389.607422" xlink:href="#DejaVuSans-122"/>
      <use x="442.097656" xlink:href="#DejaVuSans-101"/>
      <use x="503.621094" xlink:href="#DejaVuSans-100"/>
      <use x="567.097656" xlink:href="#DejaVuSans-32"/>
      <use x="598.884766" xlink:href="#DejaVuSans-67"/>
      <use x="668.708984" xlink:href="#DejaVuSans-111"/>
      <use x="729.890625" xlink:href="#DejaVuSans-117"/>
      <use x="793.269531" xlink:href="#DejaVuSans-110"/>
      <use x="856.648438" xlink:href="#DejaVuSans-116"/>
     </g>
    </g>
   </g>
   <g id="line2d_15">
    <path clip-path="url(#pa481a2dc23)" d="M 104.804981 512.594687 
L 108.090145 512.538161 
L 111.375309 512.423222 
L 114.660474 512.20266 
L 117.945638 511.803202 
L 121.230803 511.120433 
L 124.515967 510.019248 
L 127.801131 508.344053 
L 131.086296 505.941717 
L 134.37146 502.696669 
L 137.656624 498.571655 
L 140.941789 493.641256 
L 144.226953 488.101614 
L 147.512118 482.242289 
L 150.797282 476.376854 
L 154.082446 470.745719 
L 157.367611 465.421579 
L 160.652775 460.255898 
L 163.937939 454.897124 
L 167.223104 448.887559 
L 170.508268 441.814447 
L 173.793433 433.4659 
L 177.078597 423.936496 
L 180.363761 413.644409 
L 183.648926 403.253979 
L 186.93409 393.52925 
L 190.219254 385.161729 
L 193.504419 378.615358 
L 196.789583 374.020219 
L 200.074748 371.134368 
L 203.359912 369.38544 
L 206.645076 367.99581 
L 209.930241 366.178426 
L 213.215405 363.36287 
L 216.500569 359.384136 
L 219.785734 354.56038 
L 223.070898 349.61507 
L 226.356063 345.458444 
L 229.641227 342.906168 
L 232.926391 342.444817 
L 236.211556 344.133746 
L 239.49672 347.669147 
L 242.781884 352.562285 
L 246.067049 358.339017 
L 249.352213 364.672858 
L 252.637378 371.410472 
L 255.922542 378.506857 
L 259.207706 385.925961 
L 262.492871 393.566169 
L 265.778035 401.24496 
L 269.063199 408.741935 
L 272.348364 415.872473 
L 275.633528 422.55476 
L 278.918693 428.840064 
L 282.203857 434.893657 
L 285.489021 440.933769 
L 288.774186 447.151289 
L 292.05935 453.63892 
L 295.344514 460.353427 
L 298.629679 467.12136 
L 301.914843 473.682887 
L 305.200008 479.756408 
L 308.485172 485.102217 
L 311.770336 489.566876 
L 315.055501 493.098493 
L 318.340665 495.733353 
L 321.625829 497.563196 
L 324.910994 498.697624 
L 328.196158 499.236462 
L 331.481323 499.261996 
L 334.766487 498.852311 
L 338.051651 498.107232 
L 341.336816 497.171583 
L 344.62198 496.240145 
L 347.907144 495.535818 
L 351.192309 495.264832 
L 354.477473 495.564731 
L 357.762638 496.466081 
L 361.047802 497.884224 
L 364.332966 499.644849 
L 367.618131 501.533212 
L 370.903295 503.348493 
L 374.188459 504.945479 
L 377.473624 506.25356 
L 380.758788 507.272806 
L 384.043953 508.053976 
L 387.329117 508.671798 
L 390.614281 509.199817 
L 393.899446 509.692417 
L 397.18461 510.176641 
L 400.469774 510.653618 
L 403.754939 511.106978 
L 407.040103 511.514149 
L 410.325268 511.856336 
L 413.610432 512.124402 
L 416.895596 512.319949 
L 420.180761 512.452801 
L 423.465925 512.536917 
L 426.751089 512.586591 
L 430.036254 512.613974 
" style="fill:none;stroke:#0000ff;stroke-linecap:square;stroke-opacity:0.4;stroke-width:5;"/>
   </g>
   <g id="line2d_16">
    <path clip-path="url(#pa481a2dc23)" d="M 92.290909 512.613751 
L 96.390083 512.583589 
L 100.489256 512.525798 
L 104.58843 512.421989 
L 108.687603 512.247026 
L 112.786777 511.969933 
L 116.88595 511.556615 
L 120.985124 510.973746 
L 125.084298 510.192051 
L 129.183471 509.186371 
L 133.282645 507.930377 
L 137.381818 506.385829 
L 141.480992 504.489549 
L 145.580165 502.144295 
L 149.679339 499.220731 
L 153.778512 495.575481 
L 157.877686 491.084712 
L 161.97686 485.685432 
L 166.076033 479.410426 
L 170.175207 472.400572 
L 174.27438 464.882977 
L 178.373554 457.114933 
L 182.472727 449.309022 
L 186.571901 441.567008 
L 190.671074 433.852202 
L 194.770248 426.018118 
L 198.869421 417.888596 
L 202.968595 409.361148 
L 207.067769 400.492998 
L 211.166942 391.535586 
L 215.266116 382.906016 
L 219.365289 375.111438 
L 223.464463 368.659588 
L 227.563636 363.986455 
L 231.66281 361.413185 
L 235.761983 361.122853 
L 239.861157 363.139098 
L 243.960331 367.298719 
L 248.059504 373.23069 
L 252.158678 380.367715 
L 256.257851 388.010886 
L 260.357025 395.4443 
L 264.456198 402.069096 
L 268.555372 407.512549 
L 272.654545 411.676067 
L 276.753719 414.71103 
L 280.852893 416.938973 
L 284.952066 418.749236 
L 289.05124 420.507536 
L 293.150413 422.496886 
L 297.249587 424.896484 
L 301.34876 427.791586 
L 305.447934 431.200887 
L 309.547107 435.106959 
L 313.646281 439.478247 
L 317.745455 444.276686 
L 321.844628 449.451858 
L 325.943802 454.928616 
L 330.042975 460.597831 
L 334.142149 466.317934 
L 338.241322 471.929304 
L 342.340496 477.27707 
L 346.439669 482.233982 
L 350.538843 486.71537 
L 354.638017 490.682275 
L 358.73719 494.133981 
L 362.836364 497.094698 
L 366.935537 499.599688 
L 371.034711 501.684227 
L 375.133884 503.376359 
L 379.233058 504.693022 
L 383.332231 505.639259 
L 387.431405 506.211238 
L 391.530579 506.404404 
L 395.629752 506.227056 
L 399.728926 505.716877 
L 403.828099 504.95443 
L 407.927273 504.065681 
L 412.026446 503.207768 
L 416.12562 502.538729 
L 420.224793 502.180399 
L 424.323967 502.189063 
L 428.42314 502.54683 
L 432.522314 503.177744 
L 436.621488 503.980996 
L 440.720661 504.865777 
L 444.819835 505.772925 
L 448.919008 506.676734 
L 453.018182 507.57104 
L 457.117355 508.450636 
L 461.216529 509.298935 
L 465.315702 510.087001 
L 469.414876 510.781853 
L 473.51405 511.35768 
L 477.613223 511.803718 
L 481.712397 512.125805 
L 485.81157 512.342413 
L 489.910744 512.478069 
L 494.009917 512.557215 
L 498.109091 512.600257 
" style="fill:none;stroke:#ff0000;stroke-linecap:square;stroke-opacity:0.4;stroke-width:5;"/>
   </g>
   <g id="patch_81">
    <path d="M 72 512.64 
L 72 311.04 
" style="fill:none;stroke:#000000;stroke-linecap:square;stroke-linejoin:miter;stroke-width:0.8;"/>
   </g>
   <g id="patch_82">
    <path d="M 72 512.64 
L 518.4 512.64 
" style="fill:none;stroke:#000000;stroke-linecap:square;stroke-linejoin:miter;stroke-width:0.8;"/>
   </g>
   <g id="text_14">
    <!-- Intergenic within operon (978) -->
    <defs>
     <path d="M 9.8125 72.90625 
L 19.671875 72.90625 
L 19.671875 0 
L 9.8125 0 
z
" id="DejaVuSans-73"/>
     <path d="M 45.40625 27.984375 
Q 45.40625 37.75 41.375 43.109375 
Q 37.359375 48.484375 30.078125 48.484375 
Q 22.859375 48.484375 18.828125 43.109375 
Q 14.796875 37.75 14.796875 27.984375 
Q 14.796875 18.265625 18.828125 12.890625 
Q 22.859375 7.515625 30.078125 7.515625 
Q 37.359375 7.515625 41.375 12.890625 
Q 45.40625 18.265625 45.40625 27.984375 
z
M 54.390625 6.78125 
Q 54.390625 -7.171875 48.1875 -13.984375 
Q 42 -20.796875 29.203125 -20.796875 
Q 24.46875 -20.796875 20.265625 -20.09375 
Q 16.0625 -19.390625 12.109375 -17.921875 
L 12.109375 -9.1875 
Q 16.0625 -11.328125 19.921875 -12.34375 
Q 23.78125 -13.375 27.78125 -13.375 
Q 36.625 -13.375 41.015625 -8.765625 
Q 45.40625 -4.15625 45.40625 5.171875 
L 45.40625 9.625 
Q 42.625 4.78125 38.28125 2.390625 
Q 33.9375 0 27.875 0 
Q 17.828125 0 11.671875 7.65625 
Q 5.515625 15.328125 5.515625 27.984375 
Q 5.515625 40.671875 11.671875 48.328125 
Q 17.828125 56 27.875 56 
Q 33.9375 56 38.28125 53.609375 
Q 42.625 51.21875 45.40625 46.390625 
L 45.40625 54.6875 
L 54.390625 54.6875 
z
" id="DejaVuSans-103"/>
     <path d="M 48.78125 52.59375 
L 48.78125 44.1875 
Q 44.96875 46.296875 41.140625 47.34375 
Q 37.3125 48.390625 33.40625 48.390625 
Q 24.65625 48.390625 19.8125 42.84375 
Q 14.984375 37.3125 14.984375 27.296875 
Q 14.984375 17.28125 19.8125 11.734375 
Q 24.65625 6.203125 33.40625 6.203125 
Q 37.3125 6.203125 41.140625 7.25 
Q 44.96875 8.296875 48.78125 10.40625 
L 48.78125 2.09375 
Q 45.015625 0.34375 40.984375 -0.53125 
Q 36.96875 -1.421875 32.421875 -1.421875 
Q 20.0625 -1.421875 12.78125 6.34375 
Q 5.515625 14.109375 5.515625 27.296875 
Q 5.515625 40.671875 12.859375 48.328125 
Q 20.21875 56 33.015625 56 
Q 37.15625 56 41.109375 55.140625 
Q 45.0625 54.296875 48.78125 52.59375 
z
" id="DejaVuSans-99"/>
     <path d="M 4.203125 54.6875 
L 13.1875 54.6875 
L 24.421875 12.015625 
L 35.59375 54.6875 
L 46.1875 54.6875 
L 57.421875 12.015625 
L 68.609375 54.6875 
L 77.59375 54.6875 
L 63.28125 0 
L 52.6875 0 
L 40.921875 44.828125 
L 29.109375 0 
L 18.5 0 
z
" id="DejaVuSans-119"/>
     <path d="M 54.890625 33.015625 
L 54.890625 0 
L 45.90625 0 
L 45.90625 32.71875 
Q 45.90625 40.484375 42.875 44.328125 
Q 39.84375 48.1875 33.796875 48.1875 
Q 26.515625 48.1875 22.3125 43.546875 
Q 18.109375 38.921875 18.109375 30.90625 
L 18.109375 0 
L 9.078125 0 
L 9.078125 75.984375 
L 18.109375 75.984375 
L 18.109375 46.1875 
Q 21.34375 51.125 25.703125 53.5625 
Q 30.078125 56 35.796875 56 
Q 45.21875 56 50.046875 50.171875 
Q 54.890625 44.34375 54.890625 33.015625 
z
" id="DejaVuSans-104"/>
     <path d="M 10.984375 1.515625 
L 10.984375 10.5 
Q 14.703125 8.734375 18.5 7.8125 
Q 22.3125 6.890625 25.984375 6.890625 
Q 35.75 6.890625 40.890625 13.453125 
Q 46.046875 20.015625 46.78125 33.40625 
Q 43.953125 29.203125 39.59375 26.953125 
Q 35.25 24.703125 29.984375 24.703125 
Q 19.046875 24.703125 12.671875 31.3125 
Q 6.296875 37.9375 6.296875 49.421875 
Q 6.296875 60.640625 12.9375 67.421875 
Q 19.578125 74.21875 30.609375 74.21875 
Q 43.265625 74.21875 49.921875 64.515625 
Q 56.59375 54.828125 56.59375 36.375 
Q 56.59375 19.140625 48.40625 8.859375 
Q 40.234375 -1.421875 26.421875 -1.421875 
Q 22.703125 -1.421875 18.890625 -0.6875 
Q 15.09375 0.046875 10.984375 1.515625 
z
M 30.609375 32.421875 
Q 37.25 32.421875 41.125 36.953125 
Q 45.015625 41.5 45.015625 49.421875 
Q 45.015625 57.28125 41.125 61.84375 
Q 37.25 66.40625 30.609375 66.40625 
Q 23.96875 66.40625 20.09375 61.84375 
Q 16.21875 57.28125 16.21875 49.421875 
Q 16.21875 41.5 20.09375 36.953125 
Q 23.96875 32.421875 30.609375 32.421875 
z
" id="DejaVuSans-57"/>
     <path d="M 8.203125 72.90625 
L 55.078125 72.90625 
L 55.078125 68.703125 
L 28.609375 0 
L 18.3125 0 
L 43.21875 64.59375 
L 8.203125 64.59375 
z
" id="DejaVuSans-55"/>
     <path d="M 31.78125 34.625 
Q 24.75 34.625 20.71875 30.859375 
Q 16.703125 27.09375 16.703125 20.515625 
Q 16.703125 13.921875 20.71875 10.15625 
Q 24.75 6.390625 31.78125 6.390625 
Q 38.8125 6.390625 42.859375 10.171875 
Q 46.921875 13.96875 46.921875 20.515625 
Q 46.921875 27.09375 42.890625 30.859375 
Q 38.875 34.625 31.78125 34.625 
z
M 21.921875 38.8125 
Q 15.578125 40.375 12.03125 44.71875 
Q 8.5 49.078125 8.5 55.328125 
Q 8.5 64.0625 14.71875 69.140625 
Q 20.953125 74.21875 31.78125 74.21875 
Q 42.671875 74.21875 48.875 69.140625 
Q 55.078125 64.0625 55.078125 55.328125 
Q 55.078125 49.078125 51.53125 44.71875 
Q 48 40.375 41.703125 38.8125 
Q 48.828125 37.15625 52.796875 32.3125 
Q 56.78125 27.484375 56.78125 20.515625 
Q 56.78125 9.90625 50.3125 4.234375 
Q 43.84375 -1.421875 31.78125 -1.421875 
Q 19.734375 -1.421875 13.25 4.234375 
Q 6.78125 9.90625 6.78125 20.515625 
Q 6.78125 27.484375 10.78125 32.3125 
Q 14.796875 37.15625 21.921875 38.8125 
z
M 18.3125 54.390625 
Q 18.3125 48.734375 21.84375 45.5625 
Q 25.390625 42.390625 31.78125 42.390625 
Q 38.140625 42.390625 41.71875 45.5625 
Q 45.3125 48.734375 45.3125 54.390625 
Q 45.3125 60.0625 41.71875 63.234375 
Q 38.140625 66.40625 31.78125 66.40625 
Q 25.390625 66.40625 21.84375 63.234375 
Q 18.3125 60.0625 18.3125 54.390625 
z
" id="DejaVuSans-56"/>
    </defs>
    <g transform="translate(143.070312 305.04)scale(0.2 -0.2)">
     <use xlink:href="#DejaVuSans-73"/>
     <use x="29.492188" xlink:href="#DejaVuSans-110"/>
     <use x="92.871094" xlink:href="#DejaVuSans-116"/>
     <use x="132.080078" xlink:href="#DejaVuSans-101"/>
     <use x="193.603516" xlink:href="#DejaVuSans-114"/>
     <use x="232.966797" xlink:href="#DejaVuSans-103"/>
     <use x="296.443359" xlink:href="#DejaVuSans-101"/>
     <use x="357.966797" xlink:href="#DejaVuSans-110"/>
     <use x="421.345703" xlink:href="#DejaVuSans-105"/>
     <use x="449.128906" xlink:href="#DejaVuSans-99"/>
     <use x="504.109375" xlink:href="#DejaVuSans-32"/>
     <use x="535.896484" xlink:href="#DejaVuSans-119"/>
     <use x="617.683594" xlink:href="#DejaVuSans-105"/>
     <use x="645.466797" xlink:href="#DejaVuSans-116"/>
     <use x="684.675781" xlink:href="#DejaVuSans-104"/>
     <use x="748.054688" xlink:href="#DejaVuSans-105"/>
     <use x="775.837891" xlink:href="#DejaVuSans-110"/>
     <use x="839.216797" xlink:href="#DejaVuSans-32"/>
     <use x="871.003906" xlink:href="#DejaVuSans-111"/>
     <use x="932.185547" xlink:href="#DejaVuSans-112"/>
     <use x="995.662109" xlink:href="#DejaVuSans-101"/>
     <use x="1057.185547" xlink:href="#DejaVuSans-114"/>
     <use x="1096.048828" xlink:href="#DejaVuSans-111"/>
     <use x="1157.230469" xlink:href="#DejaVuSans-110"/>
     <use x="1220.609375" xlink:href="#DejaVuSans-32"/>
     <use x="1252.396484" xlink:href="#DejaVuSans-40"/>
     <use x="1291.410156" xlink:href="#DejaVuSans-57"/>
     <use x="1355.033203" xlink:href="#DejaVuSans-55"/>
     <use x="1418.65625" xlink:href="#DejaVuSans-56"/>
     <use x="1482.279297" xlink:href="#DejaVuSans-41"/>
    </g>
   </g>
  </g>
  <g id="legend_1">
   <g id="patch_83">
    <path d="M 470.985 59.77 
L 564.8 59.77 
Q 568 59.77 568 56.57 
L 568 11.2 
Q 568 8 564.8 8 
L 470.985 8 
Q 467.785 8 467.785 11.2 
L 467.785 56.57 
Q 467.785 59.77 470.985 59.77 
z
" style="fill:#ffffff;opacity:0.8;stroke:#cccccc;stroke-linejoin:miter;"/>
   </g>
   <g id="patch_84">
    <path d="M 474.185 26.5575 
L 506.185 26.5575 
L 506.185 15.3575 
L 474.185 15.3575 
z
" style="fill:#0000ff;fill-opacity:0.4;stroke:#0000ff;stroke-linejoin:miter;stroke-opacity:0.4;"/>
   </g>
   <g id="text_15">
    <!-- small -->
    <g transform="translate(518.985 26.5575)scale(0.16 -0.16)">
     <use xlink:href="#DejaVuSans-115"/>
     <use x="52.099609" xlink:href="#DejaVuSans-109"/>
     <use x="149.511719" xlink:href="#DejaVuSans-97"/>
     <use x="210.791016" xlink:href="#DejaVuSans-108"/>
     <use x="238.574219" xlink:href="#DejaVuSans-108"/>
    </g>
   </g>
   <g id="patch_85">
    <path d="M 474.185 50.0425 
L 506.185 50.0425 
L 506.185 38.8425 
L 474.185 38.8425 
z
" style="fill:#ff0000;fill-opacity:0.4;stroke:#ff0000;stroke-linejoin:miter;stroke-opacity:0.4;"/>
   </g>
   <g id="text_16">
    <!-- large -->
    <g transform="translate(518.985 50.0425)scale(0.16 -0.16)">
     <use xlink:href="#DejaVuSans-108"/>
     <use x="27.783203" xlink:href="#DejaVuSans-97"/>
     <use x="89.0625" xlink:href="#DejaVuSans-114"/>
     <use x="128.425781" xlink:href="#DejaVuSans-103"/>
     <use x="191.902344" xlink:href="#DejaVuSans-101"/>
    </g>
   </g>
  </g>
 </g>
 <defs>
  <clipPath id="p1881b1df15">
   <rect height="201.6" width="446.4" x="72" y="69.12"/>
  </clipPath>
  <clipPath id="pa481a2dc23">
   <rect height="201.6" width="446.4" x="72" y="311.04"/>
  </clipPath>
 </defs>
</svg>
