<?xml version="1.0" encoding="utf-8" standalone="no"?>
<!DOCTYPE svg PUBLIC "-//W3C//DTD SVG 1.1//EN"
  "http://www.w3.org/Graphics/SVG/1.1/DTD/svg11.dtd">
<!-- Created with matplotlib (https://matplotlib.org/) -->
<svg height="1080pt" version="1.1" viewBox="0 0 720 1080" width="720pt" xmlns="http://www.w3.org/2000/svg" xmlns:xlink="http://www.w3.org/1999/xlink">
 <defs>
  <style type="text/css">
*{stroke-linecap:butt;stroke-linejoin:round;}
  </style>
 </defs>
 <g id="figure_1">
  <g id="patch_1">
   <path d="M 0 1080 
L 720 1080 
L 720 0 
L 0 0 
z
" style="fill:#ffffff;"/>
  </g>
  <g id="axes_1">
   <g id="patch_2">
    <path d="M 59.56 227.8 
L 709.2 227.8 
L 709.2 10.8 
L 59.56 10.8 
z
" style="fill:#ffffff;"/>
   </g>
   <g id="patch_3">
    <path clip-path="url(#pa860321368)" d="M 89.089091 227.8 
L 103.493525 227.8 
L 103.493525 227.8 
L 89.089091 227.8 
z
" style="fill:#1f77b4;opacity:0.4;"/>
   </g>
   <g id="patch_4">
    <path clip-path="url(#pa860321368)" d="M 103.493525 227.8 
L 117.89796 227.8 
L 117.89796 227.8 
L 103.493525 227.8 
z
" style="fill:#1f77b4;opacity:0.4;"/>
   </g>
   <g id="patch_5">
    <path clip-path="url(#pa860321368)" d="M 117.89796 227.8 
L 132.302395 227.8 
L 132.302395 227.8 
L 117.89796 227.8 
z
" style="fill:#1f77b4;opacity:0.4;"/>
   </g>
   <g id="patch_6">
    <path clip-path="url(#pa860321368)" d="M 132.302395 227.8 
L 146.706829 227.8 
L 146.706829 227.8 
L 132.302395 227.8 
z
" style="fill:#1f77b4;opacity:0.4;"/>
   </g>
   <g id="patch_7">
    <path clip-path="url(#pa860321368)" d="M 146.706829 227.8 
L 161.111264 227.8 
L 161.111264 227.8 
L 146.706829 227.8 
z
" style="fill:#1f77b4;opacity:0.4;"/>
   </g>
   <g id="patch_8">
    <path clip-path="url(#pa860321368)" d="M 161.111264 227.8 
L 175.515698 227.8 
L 175.515698 227.8 
L 161.111264 227.8 
z
" style="fill:#1f77b4;opacity:0.4;"/>
   </g>
   <g id="patch_9">
    <path clip-path="url(#pa860321368)" d="M 175.515698 227.8 
L 189.920133 227.8 
L 189.920133 193.869652 
L 175.515698 193.869652 
z
" style="fill:#1f77b4;opacity:0.4;"/>
   </g>
   <g id="patch_10">
    <path clip-path="url(#pa860321368)" d="M 189.920133 227.8 
L 204.324568 227.8 
L 204.324568 206.20796 
L 189.920133 206.20796 
z
" style="fill:#1f77b4;opacity:0.4;"/>
   </g>
   <g id="patch_11">
    <path clip-path="url(#pa860321368)" d="M 204.324568 227.8 
L 218.729002 227.8 
L 218.729002 159.939303 
L 204.324568 159.939303 
z
" style="fill:#1f77b4;opacity:0.4;"/>
   </g>
   <g id="patch_12">
    <path clip-path="url(#pa860321368)" d="M 218.729002 227.8 
L 233.133437 227.8 
L 233.133437 156.854726 
L 218.729002 156.854726 
z
" style="fill:#1f77b4;opacity:0.4;"/>
   </g>
   <g id="patch_13">
    <path clip-path="url(#pa860321368)" d="M 233.133437 227.8 
L 247.537871 227.8 
L 247.537871 73.571144 
L 233.133437 73.571144 
z
" style="fill:#1f77b4;opacity:0.4;"/>
   </g>
   <g id="patch_14">
    <path clip-path="url(#pa860321368)" d="M 247.537871 227.8 
L 261.942306 227.8 
L 261.942306 85.909453 
L 247.537871 85.909453 
z
" style="fill:#1f77b4;opacity:0.4;"/>
   </g>
   <g id="patch_15">
    <path clip-path="url(#pa860321368)" d="M 261.942306 227.8 
L 276.346741 227.8 
L 276.346741 58.148259 
L 261.942306 58.148259 
z
" style="fill:#1f77b4;opacity:0.4;"/>
   </g>
   <g id="patch_16">
    <path clip-path="url(#pa860321368)" d="M 276.346741 227.8 
L 290.751175 227.8 
L 290.751175 21.133333 
L 276.346741 21.133333 
z
" style="fill:#1f77b4;opacity:0.4;"/>
   </g>
   <g id="patch_17">
    <path clip-path="url(#pa860321368)" d="M 290.751175 227.8 
L 305.15561 227.8 
L 305.15561 36.556219 
L 290.751175 36.556219 
z
" style="fill:#1f77b4;opacity:0.4;"/>
   </g>
   <g id="patch_18">
    <path clip-path="url(#pa860321368)" d="M 305.15561 227.8 
L 319.560044 227.8 
L 319.560044 85.909453 
L 305.15561 85.909453 
z
" style="fill:#1f77b4;opacity:0.4;"/>
   </g>
   <g id="patch_19">
    <path clip-path="url(#pa860321368)" d="M 319.560044 227.8 
L 333.964479 227.8 
L 333.964479 88.99403 
L 319.560044 88.99403 
z
" style="fill:#1f77b4;opacity:0.4;"/>
   </g>
   <g id="patch_20">
    <path clip-path="url(#pa860321368)" d="M 333.964479 227.8 
L 348.368914 227.8 
L 348.368914 116.755224 
L 333.964479 116.755224 
z
" style="fill:#1f77b4;opacity:0.4;"/>
   </g>
   <g id="patch_21">
    <path clip-path="url(#pa860321368)" d="M 348.368914 227.8 
L 362.773348 227.8 
L 362.773348 113.670647 
L 348.368914 113.670647 
z
" style="fill:#1f77b4;opacity:0.4;"/>
   </g>
   <g id="patch_22">
    <path clip-path="url(#pa860321368)" d="M 362.773348 227.8 
L 377.177783 227.8 
L 377.177783 203.123383 
L 362.773348 203.123383 
z
" style="fill:#1f77b4;opacity:0.4;"/>
   </g>
   <g id="patch_23">
    <path clip-path="url(#pa860321368)" d="M 377.177783 227.8 
L 391.582217 227.8 
L 391.582217 147.600995 
L 377.177783 147.600995 
z
" style="fill:#1f77b4;opacity:0.4;"/>
   </g>
   <g id="patch_24">
    <path clip-path="url(#pa860321368)" d="M 391.582217 227.8 
L 405.986652 227.8 
L 405.986652 193.869652 
L 391.582217 193.869652 
z
" style="fill:#1f77b4;opacity:0.4;"/>
   </g>
   <g id="patch_25">
    <path clip-path="url(#pa860321368)" d="M 405.986652 227.8 
L 420.391086 227.8 
L 420.391086 218.546269 
L 405.986652 218.546269 
z
" style="fill:#1f77b4;opacity:0.4;"/>
   </g>
   <g id="patch_26">
    <path clip-path="url(#pa860321368)" d="M 420.391086 227.8 
L 434.795521 227.8 
L 434.795521 212.377114 
L 420.391086 212.377114 
z
" style="fill:#1f77b4;opacity:0.4;"/>
   </g>
   <g id="patch_27">
    <path clip-path="url(#pa860321368)" d="M 434.795521 227.8 
L 449.199956 227.8 
L 449.199956 221.630846 
L 434.795521 221.630846 
z
" style="fill:#1f77b4;opacity:0.4;"/>
   </g>
   <g id="patch_28">
    <path clip-path="url(#pa860321368)" d="M 449.199956 227.8 
L 463.60439 227.8 
L 463.60439 206.20796 
L 449.199956 206.20796 
z
" style="fill:#1f77b4;opacity:0.4;"/>
   </g>
   <g id="patch_29">
    <path clip-path="url(#pa860321368)" d="M 463.60439 227.8 
L 478.008825 227.8 
L 478.008825 218.546269 
L 463.60439 218.546269 
z
" style="fill:#1f77b4;opacity:0.4;"/>
   </g>
   <g id="patch_30">
    <path clip-path="url(#pa860321368)" d="M 478.008825 227.8 
L 492.413259 227.8 
L 492.413259 203.123383 
L 478.008825 203.123383 
z
" style="fill:#1f77b4;opacity:0.4;"/>
   </g>
   <g id="patch_31">
    <path clip-path="url(#pa860321368)" d="M 492.413259 227.8 
L 506.817694 227.8 
L 506.817694 224.715423 
L 492.413259 224.715423 
z
" style="fill:#1f77b4;opacity:0.4;"/>
   </g>
   <g id="patch_32">
    <path clip-path="url(#pa860321368)" d="M 506.817694 227.8 
L 521.222129 227.8 
L 521.222129 212.377114 
L 506.817694 212.377114 
z
" style="fill:#1f77b4;opacity:0.4;"/>
   </g>
   <g id="patch_33">
    <path clip-path="url(#pa860321368)" d="M 521.222129 227.8 
L 535.626563 227.8 
L 535.626563 215.461692 
L 521.222129 215.461692 
z
" style="fill:#1f77b4;opacity:0.4;"/>
   </g>
   <g id="patch_34">
    <path clip-path="url(#pa860321368)" d="M 535.626563 227.8 
L 550.030998 227.8 
L 550.030998 227.8 
L 535.626563 227.8 
z
" style="fill:#1f77b4;opacity:0.4;"/>
   </g>
   <g id="patch_35">
    <path clip-path="url(#pa860321368)" d="M 550.030998 227.8 
L 564.435432 227.8 
L 564.435432 227.8 
L 550.030998 227.8 
z
" style="fill:#1f77b4;opacity:0.4;"/>
   </g>
   <g id="patch_36">
    <path clip-path="url(#pa860321368)" d="M 564.435432 227.8 
L 578.839867 227.8 
L 578.839867 221.630846 
L 564.435432 221.630846 
z
" style="fill:#1f77b4;opacity:0.4;"/>
   </g>
   <g id="patch_37">
    <path clip-path="url(#pa860321368)" d="M 578.839867 227.8 
L 593.244302 227.8 
L 593.244302 227.8 
L 578.839867 227.8 
z
" style="fill:#1f77b4;opacity:0.4;"/>
   </g>
   <g id="patch_38">
    <path clip-path="url(#pa860321368)" d="M 593.244302 227.8 
L 607.648736 227.8 
L 607.648736 227.8 
L 593.244302 227.8 
z
" style="fill:#1f77b4;opacity:0.4;"/>
   </g>
   <g id="patch_39">
    <path clip-path="url(#pa860321368)" d="M 607.648736 227.8 
L 622.053171 227.8 
L 622.053171 227.8 
L 607.648736 227.8 
z
" style="fill:#1f77b4;opacity:0.4;"/>
   </g>
   <g id="patch_40">
    <path clip-path="url(#pa860321368)" d="M 622.053171 227.8 
L 636.457605 227.8 
L 636.457605 227.8 
L 622.053171 227.8 
z
" style="fill:#1f77b4;opacity:0.4;"/>
   </g>
   <g id="patch_41">
    <path clip-path="url(#pa860321368)" d="M 636.457605 227.8 
L 650.86204 227.8 
L 650.86204 227.8 
L 636.457605 227.8 
z
" style="fill:#1f77b4;opacity:0.4;"/>
   </g>
   <g id="patch_42">
    <path clip-path="url(#pa860321368)" d="M 650.86204 227.8 
L 665.266475 227.8 
L 665.266475 227.8 
L 650.86204 227.8 
z
" style="fill:#1f77b4;opacity:0.4;"/>
   </g>
   <g id="patch_43">
    <path clip-path="url(#pa860321368)" d="M 665.266475 227.8 
L 679.670909 227.8 
L 679.670909 227.8 
L 665.266475 227.8 
z
" style="fill:#1f77b4;opacity:0.4;"/>
   </g>
   <g id="matplotlib.axis_1">
    <g id="xtick_1">
     <g id="line2d_1">
      <defs>
       <path d="M 0 0 
L 0 3.5 
" id="mfe5005139b" style="stroke:#000000;stroke-width:0.8;"/>
      </defs>
      <g>
       <use style="stroke:#000000;stroke-width:0.8;" x="233.133437" xlink:href="#mfe5005139b" y="227.8"/>
      </g>
     </g>
     <g id="text_1">
      <!-- 5 -->
      <defs>
       <path d="M 12.359375 17.828125 
Q 13.234375 10.296875 19.34375 7.421875 
Q 22.46875 5.953125 26.5625 5.953125 
Q 34.375 5.953125 38.125 10.9375 
Q 41.890625 15.921875 41.890625 21.96875 
Q 41.890625 29.296875 37.421875 33.296875 
Q 32.953125 37.3125 26.703125 37.3125 
Q 22.171875 37.3125 18.921875 35.546875 
Q 15.671875 33.796875 13.375 30.671875 
L 5.765625 31.109375 
L 11.078125 68.75 
L 47.40625 68.75 
L 47.40625 60.25 
L 17.671875 60.25 
L 14.703125 40.828125 
Q 17.140625 42.671875 19.34375 43.609375 
Q 23.25 45.21875 28.375 45.21875 
Q 37.984375 45.21875 44.671875 39.015625 
Q 51.375 32.8125 51.375 23.296875 
Q 51.375 13.375 45.234375 5.796875 
Q 39.109375 -1.765625 25.6875 -1.765625 
Q 17.140625 -1.765625 10.5625 3.046875 
Q 4 7.859375 3.21875 17.828125 
z
" id="Helvetica-53"/>
      </defs>
      <g transform="translate(226.182265 252.733594)scale(0.25 -0.25)">
       <use xlink:href="#Helvetica-53"/>
      </g>
     </g>
    </g>
    <g id="xtick_2">
     <g id="line2d_2">
      <g>
       <use style="stroke:#000000;stroke-width:0.8;" x="377.177783" xlink:href="#mfe5005139b" y="227.8"/>
      </g>
     </g>
     <g id="text_2">
      <!-- 10 -->
      <defs>
       <path d="M 9.578125 49.515625 
L 9.578125 56.25 
Q 19.09375 57.171875 22.84375 59.34375 
Q 26.609375 61.53125 28.46875 69.625 
L 35.40625 69.625 
L 35.40625 0 
L 26.03125 0 
L 26.03125 49.515625 
z
" id="Helvetica-49"/>
       <path d="M 27.046875 69.921875 
Q 40.625 69.921875 46.6875 58.734375 
Q 51.375 50.09375 51.375 35.0625 
Q 51.375 20.796875 47.125 11.46875 
Q 40.96875 -1.90625 27 -1.90625 
Q 14.40625 -1.90625 8.25 9.03125 
Q 3.125 18.171875 3.125 33.546875 
Q 3.125 45.453125 6.203125 54 
Q 11.96875 69.921875 27.046875 69.921875 
z
M 26.953125 6.109375 
Q 33.796875 6.109375 37.84375 12.15625 
Q 41.890625 18.21875 41.890625 34.71875 
Q 41.890625 46.625 38.953125 54.3125 
Q 36.03125 62.015625 27.59375 62.015625 
Q 19.828125 62.015625 16.234375 54.703125 
Q 12.640625 47.40625 12.640625 33.203125 
Q 12.640625 22.515625 14.9375 16.015625 
Q 18.453125 6.109375 26.953125 6.109375 
z
" id="Helvetica-48"/>
      </defs>
      <g transform="translate(363.275439 252.733594)scale(0.25 -0.25)">
       <use xlink:href="#Helvetica-49"/>
       <use x="55.615234" xlink:href="#Helvetica-48"/>
      </g>
     </g>
    </g>
    <g id="xtick_3">
     <g id="line2d_3">
      <g>
       <use style="stroke:#000000;stroke-width:0.8;" x="521.222129" xlink:href="#mfe5005139b" y="227.8"/>
      </g>
     </g>
     <g id="text_3">
      <!-- 15 -->
      <g transform="translate(507.319785 252.733594)scale(0.25 -0.25)">
       <use xlink:href="#Helvetica-49"/>
       <use x="55.615234" xlink:href="#Helvetica-53"/>
      </g>
     </g>
    </g>
    <g id="xtick_4">
     <g id="line2d_4">
      <g>
       <use style="stroke:#000000;stroke-width:0.8;" x="665.266475" xlink:href="#mfe5005139b" y="227.8"/>
      </g>
     </g>
     <g id="text_4">
      <!-- 20 -->
      <defs>
       <path d="M 3.125 0 
Q 3.609375 9.03125 6.859375 15.71875 
Q 10.109375 22.40625 19.53125 27.875 
L 28.90625 33.296875 
Q 35.203125 36.96875 37.75 39.546875 
Q 41.75 43.609375 41.75 48.828125 
Q 41.75 54.9375 38.078125 58.515625 
Q 34.421875 62.109375 28.328125 62.109375 
Q 19.28125 62.109375 15.828125 55.28125 
Q 13.96875 51.609375 13.765625 45.125 
L 4.828125 45.125 
Q 4.984375 54.25 8.203125 60.015625 
Q 13.921875 70.171875 28.375 70.171875 
Q 40.375 70.171875 45.921875 63.671875 
Q 51.46875 57.171875 51.46875 49.21875 
Q 51.46875 40.828125 45.5625 34.859375 
Q 42.140625 31.390625 33.296875 26.46875 
L 26.609375 22.75 
Q 21.828125 20.125 19.09375 17.71875 
Q 14.203125 13.484375 12.9375 8.296875 
L 51.125 8.296875 
L 51.125 0 
L 3.125 0 
z
" id="Helvetica-50"/>
      </defs>
      <g transform="translate(651.364131 252.733594)scale(0.25 -0.25)">
       <use xlink:href="#Helvetica-50"/>
       <use x="55.615234" xlink:href="#Helvetica-48"/>
      </g>
     </g>
    </g>
   </g>
   <g id="matplotlib.axis_2">
    <g id="ytick_1">
     <g id="line2d_5">
      <defs>
       <path d="M 0 0 
L -3.5 0 
" id="ma64c3f4e05" style="stroke:#000000;stroke-width:0.8;"/>
      </defs>
      <g>
       <use style="stroke:#000000;stroke-width:0.8;" x="59.56" xlink:href="#ma64c3f4e05" y="227.8"/>
      </g>
     </g>
     <g id="text_5">
      <!-- 0 -->
      <g transform="translate(38.657656 236.766797)scale(0.25 -0.25)">
       <use xlink:href="#Helvetica-48"/>
      </g>
     </g>
    </g>
    <g id="ytick_2">
     <g id="line2d_6">
      <g>
       <use style="stroke:#000000;stroke-width:0.8;" x="59.56" xlink:href="#ma64c3f4e05" y="166.108458"/>
      </g>
     </g>
     <g id="text_6">
      <!-- 20 -->
      <g transform="translate(24.755313 175.075255)scale(0.25 -0.25)">
       <use xlink:href="#Helvetica-50"/>
       <use x="55.615234" xlink:href="#Helvetica-48"/>
      </g>
     </g>
    </g>
    <g id="ytick_3">
     <g id="line2d_7">
      <g>
       <use style="stroke:#000000;stroke-width:0.8;" x="59.56" xlink:href="#ma64c3f4e05" y="104.416915"/>
      </g>
     </g>
     <g id="text_7">
      <!-- 40 -->
      <defs>
       <path d="M 33.0625 24.75 
L 33.0625 56.453125 
L 10.640625 24.75 
z
M 33.203125 0 
L 33.203125 17.09375 
L 2.546875 17.09375 
L 2.546875 25.6875 
L 34.578125 70.125 
L 42 70.125 
L 42 24.75 
L 52.296875 24.75 
L 52.296875 17.09375 
L 42 17.09375 
L 42 0 
z
" id="Helvetica-52"/>
      </defs>
      <g transform="translate(24.755313 113.383712)scale(0.25 -0.25)">
       <use xlink:href="#Helvetica-52"/>
       <use x="55.615234" xlink:href="#Helvetica-48"/>
      </g>
     </g>
    </g>
    <g id="ytick_4">
     <g id="line2d_8">
      <g>
       <use style="stroke:#000000;stroke-width:0.8;" x="59.56" xlink:href="#ma64c3f4e05" y="42.725373"/>
      </g>
     </g>
     <g id="text_8">
      <!-- 60 -->
      <defs>
       <path d="M 29.25 70.21875 
Q 40.96875 70.21875 45.578125 64.140625 
Q 50.203125 58.0625 50.203125 51.609375 
L 41.5 51.609375 
Q 40.71875 55.765625 39.015625 58.109375 
Q 35.84375 62.5 29.390625 62.5 
Q 22.015625 62.5 17.671875 55.6875 
Q 13.328125 48.875 12.84375 36.1875 
Q 15.875 40.625 20.453125 42.828125 
Q 24.65625 44.78125 29.828125 44.78125 
Q 38.625 44.78125 45.15625 39.15625 
Q 51.703125 33.546875 51.703125 22.40625 
Q 51.703125 12.890625 45.5 5.53125 
Q 39.3125 -1.8125 27.828125 -1.8125 
Q 18.015625 -1.8125 10.890625 5.640625 
Q 3.765625 13.09375 3.765625 30.71875 
Q 3.765625 43.75 6.9375 52.828125 
Q 13.03125 70.21875 29.25 70.21875 
z
M 28.609375 6 
Q 35.546875 6 38.984375 10.65625 
Q 42.4375 15.328125 42.4375 21.6875 
Q 42.4375 27.046875 39.359375 31.90625 
Q 36.28125 36.765625 28.171875 36.765625 
Q 22.515625 36.765625 18.234375 33 
Q 13.96875 29.25 13.96875 21.6875 
Q 13.96875 15.046875 17.84375 10.515625 
Q 21.734375 6 28.609375 6 
z
" id="Helvetica-54"/>
      </defs>
      <g transform="translate(24.755313 51.69217)scale(0.25 -0.25)">
       <use xlink:href="#Helvetica-54"/>
       <use x="55.615234" xlink:href="#Helvetica-48"/>
      </g>
     </g>
    </g>
   </g>
   <g id="line2d_9">
    <path clip-path="url(#pa860321368)" d="M 291.407278 227.8 
L 291.407278 10.8 
" style="fill:none;stroke:#1f77b4;stroke-linecap:square;stroke-width:1.5;"/>
   </g>
   <g id="patch_44">
    <path d="M 59.56 227.8 
L 59.56 10.8 
" style="fill:none;stroke:#000000;stroke-linecap:square;stroke-linejoin:miter;stroke-width:0.8;"/>
   </g>
   <g id="patch_45">
    <path d="M 59.56 227.8 
L 709.2 227.8 
" style="fill:none;stroke:#000000;stroke-linecap:square;stroke-linejoin:miter;stroke-width:0.8;"/>
   </g>
   <g id="text_9">
    <!-- 3' UTR (592) -->
    <defs>
     <path d="M 25.984375 -1.90625 
Q 13.578125 -1.90625 7.984375 4.90625 
Q 2.390625 11.71875 2.390625 21.484375 
L 11.578125 21.484375 
Q 12.15625 14.703125 14.109375 11.625 
Q 17.53125 6.109375 26.46875 6.109375 
Q 33.40625 6.109375 37.59375 9.8125 
Q 41.796875 13.53125 41.796875 19.390625 
Q 41.796875 26.609375 37.375 29.484375 
Q 32.953125 32.375 25.09375 32.375 
Q 24.21875 32.375 23.3125 32.34375 
Q 22.40625 32.328125 21.484375 32.28125 
L 21.484375 40.046875 
Q 22.859375 39.890625 23.78125 39.84375 
Q 24.703125 39.796875 25.78125 39.796875 
Q 30.71875 39.796875 33.890625 41.359375 
Q 39.453125 44.09375 39.453125 51.125 
Q 39.453125 56.34375 35.734375 59.171875 
Q 32.03125 62.015625 27.09375 62.015625 
Q 18.3125 62.015625 14.9375 56.15625 
Q 13.09375 52.9375 12.84375 46.96875 
L 4.15625 46.96875 
Q 4.15625 54.78125 7.28125 60.25 
Q 12.640625 70.015625 26.171875 70.015625 
Q 36.859375 70.015625 42.71875 65.25 
Q 48.578125 60.5 48.578125 51.46875 
Q 48.578125 45.015625 45.125 41.015625 
Q 42.96875 38.53125 39.546875 37.109375 
Q 45.0625 35.59375 48.15625 31.265625 
Q 51.265625 26.953125 51.265625 20.703125 
Q 51.265625 10.6875 44.671875 4.390625 
Q 38.09375 -1.90625 25.984375 -1.90625 
z
" id="Helvetica-51"/>
     <path d="M 16.5 71.734375 
L 14.890625 43.015625 
L 9.234375 43.015625 
L 7.625 71.734375 
z
" id="Helvetica-39"/>
     <path id="Helvetica-32"/>
     <path d="M 18.171875 71.734375 
L 18.171875 27.390625 
Q 18.171875 19.578125 21.09375 14.40625 
Q 25.4375 6.59375 35.75 6.59375 
Q 48.09375 6.59375 52.546875 15.046875 
Q 54.9375 19.625 54.9375 27.390625 
L 54.9375 71.734375 
L 64.796875 71.734375 
L 64.796875 31.453125 
Q 64.796875 18.21875 61.234375 11.078125 
Q 54.6875 -1.90625 36.53125 -1.90625 
Q 18.359375 -1.90625 11.859375 11.078125 
Q 8.296875 18.21875 8.296875 31.453125 
L 8.296875 71.734375 
z
M 36.578125 71.734375 
z
" id="Helvetica-85"/>
     <path d="M 59.8125 71.734375 
L 59.8125 63.1875 
L 35.640625 63.1875 
L 35.640625 0 
L 25.78125 0 
L 25.78125 63.1875 
L 1.609375 63.1875 
L 1.609375 71.734375 
z
" id="Helvetica-84"/>
     <path d="M 40.96875 38.875 
Q 47.796875 38.875 51.78125 41.609375 
Q 55.765625 44.34375 55.765625 51.46875 
Q 55.765625 59.125 50.203125 61.921875 
Q 47.21875 63.375 42.234375 63.375 
L 18.5 63.375 
L 18.5 38.875 
z
M 8.796875 71.734375 
L 42 71.734375 
Q 50.203125 71.734375 55.515625 69.34375 
Q 65.625 64.75 65.625 52.390625 
Q 65.625 45.953125 62.953125 41.84375 
Q 60.296875 37.75 55.515625 35.25 
Q 59.71875 33.546875 61.84375 30.765625 
Q 63.96875 27.984375 64.203125 21.734375 
L 64.546875 12.109375 
Q 64.703125 8.015625 65.234375 6 
Q 66.109375 2.59375 68.359375 1.609375 
L 68.359375 0 
L 56.453125 0 
Q 55.953125 0.921875 55.65625 2.390625 
Q 55.375 3.859375 55.171875 8.0625 
L 54.59375 20.015625 
Q 54.25 27.046875 49.359375 29.4375 
Q 46.578125 30.765625 40.625 30.765625 
L 18.5 30.765625 
L 18.5 0 
L 8.796875 0 
z
" id="Helvetica-82"/>
     <path d="M 29.59375 72.90625 
Q 21.921875 58.015625 19.625 50.984375 
Q 16.15625 40.28125 16.15625 26.265625 
Q 16.15625 12.109375 20.125 0.390625 
Q 22.5625 -6.84375 29.734375 -20.40625 
L 23.828125 -20.40625 
Q 16.703125 -9.28125 14.984375 -6.203125 
Q 13.28125 -3.125 11.28125 2.15625 
Q 8.546875 9.375 7.46875 17.578125 
Q 6.9375 21.828125 6.9375 25.6875 
Q 6.9375 40.140625 11.46875 51.421875 
Q 14.359375 58.59375 23.484375 72.90625 
z
" id="Helvetica-40"/>
     <path d="M 13.28125 16.890625 
Q 13.671875 9.625 18.890625 6.84375 
Q 21.578125 5.375 24.953125 5.375 
Q 31.25 5.375 35.6875 10.625 
Q 40.140625 15.875 42 31.9375 
Q 39.0625 27.296875 34.734375 25.40625 
Q 30.421875 23.53125 25.4375 23.53125 
Q 15.328125 23.53125 9.4375 29.828125 
Q 3.5625 36.140625 3.5625 46.046875 
Q 3.5625 55.5625 9.375 62.78125 
Q 15.1875 70.015625 26.515625 70.015625 
Q 41.796875 70.015625 47.609375 56.25 
Q 50.828125 48.6875 50.828125 37.3125 
Q 50.828125 24.46875 46.96875 14.546875 
Q 40.578125 -1.953125 25.296875 -1.953125 
Q 15.046875 -1.953125 9.71875 3.421875 
Q 4.390625 8.796875 4.390625 16.890625 
z
M 26.609375 31.25 
Q 31.84375 31.25 36.15625 34.6875 
Q 40.484375 38.140625 40.484375 46.734375 
Q 40.484375 54.4375 36.59375 58.21875 
Q 32.71875 62.015625 26.703125 62.015625 
Q 20.265625 62.015625 16.484375 57.6875 
Q 12.703125 53.375 12.703125 46.140625 
Q 12.703125 39.3125 16.015625 35.28125 
Q 19.34375 31.25 26.609375 31.25 
z
" id="Helvetica-57"/>
     <path d="M 3.46875 -20.40625 
Q 11.234375 -5.28125 13.484375 1.65625 
Q 16.890625 12.15625 16.890625 26.265625 
Q 16.890625 40.375 12.9375 52.09375 
Q 10.5 59.328125 3.328125 72.90625 
L 9.234375 72.90625 
Q 16.75 60.890625 18.328125 58.078125 
Q 19.921875 55.28125 21.78125 50.34375 
Q 24.125 44.234375 25.125 38.28125 
Q 26.125 32.328125 26.125 26.8125 
Q 26.125 12.359375 21.53125 1.03125 
Q 18.65625 -6.25 9.578125 -20.40625 
z
" id="Helvetica-41"/>
    </defs>
    <g transform="translate(530.333925 195.25)scale(0.28 -0.28)">
     <use xlink:href="#Helvetica-51"/>
     <use x="55.615234" xlink:href="#Helvetica-39"/>
     <use x="74.707031" xlink:href="#Helvetica-32"/>
     <use x="102.490234" xlink:href="#Helvetica-85"/>
     <use x="174.707031" xlink:href="#Helvetica-84"/>
     <use x="235.791016" xlink:href="#Helvetica-82"/>
     <use x="308.007812" xlink:href="#Helvetica-32"/>
     <use x="335.791016" xlink:href="#Helvetica-40"/>
     <use x="369.091797" xlink:href="#Helvetica-53"/>
     <use x="424.707031" xlink:href="#Helvetica-57"/>
     <use x="480.322266" xlink:href="#Helvetica-50"/>
     <use x="535.9375" xlink:href="#Helvetica-41"/>
    </g>
   </g>
  </g>
  <g id="axes_2">
   <g id="patch_46">
    <path d="M 59.56 486.12 
L 709.2 486.12 
L 709.2 269.12 
L 59.56 269.12 
z
" style="fill:#ffffff;"/>
   </g>
   <g id="patch_47">
    <path clip-path="url(#p34511edd6d)" d="M 89.089091 486.12 
L 103.493525 486.12 
L 103.493525 486.12 
L 89.089091 486.12 
z
" style="fill:#1f77b4;opacity:0.4;"/>
   </g>
   <g id="patch_48">
    <path clip-path="url(#p34511edd6d)" d="M 103.493525 486.12 
L 117.89796 486.12 
L 117.89796 486.12 
L 103.493525 486.12 
z
" style="fill:#1f77b4;opacity:0.4;"/>
   </g>
   <g id="patch_49">
    <path clip-path="url(#p34511edd6d)" d="M 117.89796 486.12 
L 132.302395 486.12 
L 132.302395 486.12 
L 117.89796 486.12 
z
" style="fill:#1f77b4;opacity:0.4;"/>
   </g>
   <g id="patch_50">
    <path clip-path="url(#p34511edd6d)" d="M 132.302395 486.12 
L 146.706829 486.12 
L 146.706829 486.12 
L 132.302395 486.12 
z
" style="fill:#1f77b4;opacity:0.4;"/>
   </g>
   <g id="patch_51">
    <path clip-path="url(#p34511edd6d)" d="M 146.706829 486.12 
L 161.111264 486.12 
L 161.111264 486.12 
L 146.706829 486.12 
z
" style="fill:#1f77b4;opacity:0.4;"/>
   </g>
   <g id="patch_52">
    <path clip-path="url(#p34511edd6d)" d="M 161.111264 486.12 
L 175.515698 486.12 
L 175.515698 486.12 
L 161.111264 486.12 
z
" style="fill:#1f77b4;opacity:0.4;"/>
   </g>
   <g id="patch_53">
    <path clip-path="url(#p34511edd6d)" d="M 175.515698 486.12 
L 189.920133 486.12 
L 189.920133 486.12 
L 175.515698 486.12 
z
" style="fill:#1f77b4;opacity:0.4;"/>
   </g>
   <g id="patch_54">
    <path clip-path="url(#p34511edd6d)" d="M 189.920133 486.12 
L 204.324568 486.12 
L 204.324568 486.12 
L 189.920133 486.12 
z
" style="fill:#1f77b4;opacity:0.4;"/>
   </g>
   <g id="patch_55">
    <path clip-path="url(#p34511edd6d)" d="M 204.324568 486.12 
L 218.729002 486.12 
L 218.729002 454.135873 
L 204.324568 454.135873 
z
" style="fill:#1f77b4;opacity:0.4;"/>
   </g>
   <g id="patch_56">
    <path clip-path="url(#p34511edd6d)" d="M 218.729002 486.12 
L 233.133437 486.12 
L 233.133437 418.871323 
L 218.729002 418.871323 
z
" style="fill:#1f77b4;opacity:0.4;"/>
   </g>
   <g id="patch_57">
    <path clip-path="url(#p34511edd6d)" d="M 233.133437 486.12 
L 247.537871 486.12 
L 247.537871 367.204656 
L 233.133437 367.204656 
z
" style="fill:#1f77b4;opacity:0.4;"/>
   </g>
   <g id="patch_58">
    <path clip-path="url(#p34511edd6d)" d="M 247.537871 486.12 
L 261.942306 486.12 
L 261.942306 369.664974 
L 247.537871 369.664974 
z
" style="fill:#1f77b4;opacity:0.4;"/>
   </g>
   <g id="patch_59">
    <path clip-path="url(#p34511edd6d)" d="M 261.942306 486.12 
L 276.346741 486.12 
L 276.346741 296.675556 
L 261.942306 296.675556 
z
" style="fill:#1f77b4;opacity:0.4;"/>
   </g>
   <g id="patch_60">
    <path clip-path="url(#p34511edd6d)" d="M 276.346741 486.12 
L 290.751175 486.12 
L 290.751175 279.453333 
L 276.346741 279.453333 
z
" style="fill:#1f77b4;opacity:0.4;"/>
   </g>
   <g id="patch_61">
    <path clip-path="url(#p34511edd6d)" d="M 290.751175 486.12 
L 305.15561 486.12 
L 305.15561 291.754921 
L 290.751175 291.754921 
z
" style="fill:#1f77b4;opacity:0.4;"/>
   </g>
   <g id="patch_62">
    <path clip-path="url(#p34511edd6d)" d="M 305.15561 486.12 
L 319.560044 486.12 
L 319.560044 331.12 
L 305.15561 331.12 
z
" style="fill:#1f77b4;opacity:0.4;"/>
   </g>
   <g id="patch_63">
    <path clip-path="url(#p34511edd6d)" d="M 319.560044 486.12 
L 333.964479 486.12 
L 333.964479 372.945397 
L 319.560044 372.945397 
z
" style="fill:#1f77b4;opacity:0.4;"/>
   </g>
   <g id="patch_64">
    <path clip-path="url(#p34511edd6d)" d="M 333.964479 486.12 
L 348.368914 486.12 
L 348.368914 410.670265 
L 333.964479 410.670265 
z
" style="fill:#1f77b4;opacity:0.4;"/>
   </g>
   <g id="patch_65">
    <path clip-path="url(#p34511edd6d)" d="M 348.368914 486.12 
L 362.773348 486.12 
L 362.773348 416.411005 
L 348.368914 416.411005 
z
" style="fill:#1f77b4;opacity:0.4;"/>
   </g>
   <g id="patch_66">
    <path clip-path="url(#p34511edd6d)" d="M 362.773348 486.12 
L 377.177783 486.12 
L 377.177783 456.59619 
L 362.773348 456.59619 
z
" style="fill:#1f77b4;opacity:0.4;"/>
   </g>
   <g id="patch_67">
    <path clip-path="url(#p34511edd6d)" d="M 377.177783 486.12 
L 391.582217 486.12 
L 391.582217 469.717884 
L 377.177783 469.717884 
z
" style="fill:#1f77b4;opacity:0.4;"/>
   </g>
   <g id="patch_68">
    <path clip-path="url(#p34511edd6d)" d="M 391.582217 486.12 
L 405.986652 486.12 
L 405.986652 472.998307 
L 391.582217 472.998307 
z
" style="fill:#1f77b4;opacity:0.4;"/>
   </g>
   <g id="patch_69">
    <path clip-path="url(#p34511edd6d)" d="M 405.986652 486.12 
L 420.391086 486.12 
L 420.391086 468.897778 
L 405.986652 468.897778 
z
" style="fill:#1f77b4;opacity:0.4;"/>
   </g>
   <g id="patch_70">
    <path clip-path="url(#p34511edd6d)" d="M 420.391086 486.12 
L 434.795521 486.12 
L 434.795521 467.257566 
L 420.391086 467.257566 
z
" style="fill:#1f77b4;opacity:0.4;"/>
   </g>
   <g id="patch_71">
    <path clip-path="url(#p34511edd6d)" d="M 434.795521 486.12 
L 449.199956 486.12 
L 449.199956 462.336931 
L 434.795521 462.336931 
z
" style="fill:#1f77b4;opacity:0.4;"/>
   </g>
   <g id="patch_72">
    <path clip-path="url(#p34511edd6d)" d="M 449.199956 486.12 
L 463.60439 486.12 
L 463.60439 478.739048 
L 449.199956 478.739048 
z
" style="fill:#1f77b4;opacity:0.4;"/>
   </g>
   <g id="patch_73">
    <path clip-path="url(#p34511edd6d)" d="M 463.60439 486.12 
L 478.008825 486.12 
L 478.008825 477.098836 
L 463.60439 477.098836 
z
" style="fill:#1f77b4;opacity:0.4;"/>
   </g>
   <g id="patch_74">
    <path clip-path="url(#p34511edd6d)" d="M 478.008825 486.12 
L 492.413259 486.12 
L 492.413259 479.559153 
L 478.008825 479.559153 
z
" style="fill:#1f77b4;opacity:0.4;"/>
   </g>
   <g id="patch_75">
    <path clip-path="url(#p34511edd6d)" d="M 492.413259 486.12 
L 506.817694 486.12 
L 506.817694 474.638519 
L 492.413259 474.638519 
z
" style="fill:#1f77b4;opacity:0.4;"/>
   </g>
   <g id="patch_76">
    <path clip-path="url(#p34511edd6d)" d="M 506.817694 486.12 
L 521.222129 486.12 
L 521.222129 480.379259 
L 506.817694 480.379259 
z
" style="fill:#1f77b4;opacity:0.4;"/>
   </g>
   <g id="patch_77">
    <path clip-path="url(#p34511edd6d)" d="M 521.222129 486.12 
L 535.626563 486.12 
L 535.626563 480.379259 
L 521.222129 480.379259 
z
" style="fill:#1f77b4;opacity:0.4;"/>
   </g>
   <g id="patch_78">
    <path clip-path="url(#p34511edd6d)" d="M 535.626563 486.12 
L 550.030998 486.12 
L 550.030998 484.479788 
L 535.626563 484.479788 
z
" style="fill:#1f77b4;opacity:0.4;"/>
   </g>
   <g id="patch_79">
    <path clip-path="url(#p34511edd6d)" d="M 550.030998 486.12 
L 564.435432 486.12 
L 564.435432 485.299894 
L 550.030998 485.299894 
z
" style="fill:#1f77b4;opacity:0.4;"/>
   </g>
   <g id="patch_80">
    <path clip-path="url(#p34511edd6d)" d="M 564.435432 486.12 
L 578.839867 486.12 
L 578.839867 483.659683 
L 564.435432 483.659683 
z
" style="fill:#1f77b4;opacity:0.4;"/>
   </g>
   <g id="patch_81">
    <path clip-path="url(#p34511edd6d)" d="M 578.839867 486.12 
L 593.244302 486.12 
L 593.244302 486.12 
L 578.839867 486.12 
z
" style="fill:#1f77b4;opacity:0.4;"/>
   </g>
   <g id="patch_82">
    <path clip-path="url(#p34511edd6d)" d="M 593.244302 486.12 
L 607.648736 486.12 
L 607.648736 484.479788 
L 593.244302 484.479788 
z
" style="fill:#1f77b4;opacity:0.4;"/>
   </g>
   <g id="patch_83">
    <path clip-path="url(#p34511edd6d)" d="M 607.648736 486.12 
L 622.053171 486.12 
L 622.053171 486.12 
L 607.648736 486.12 
z
" style="fill:#1f77b4;opacity:0.4;"/>
   </g>
   <g id="patch_84">
    <path clip-path="url(#p34511edd6d)" d="M 622.053171 486.12 
L 636.457605 486.12 
L 636.457605 486.12 
L 622.053171 486.12 
z
" style="fill:#1f77b4;opacity:0.4;"/>
   </g>
   <g id="patch_85">
    <path clip-path="url(#p34511edd6d)" d="M 636.457605 486.12 
L 650.86204 486.12 
L 650.86204 485.299894 
L 636.457605 485.299894 
z
" style="fill:#1f77b4;opacity:0.4;"/>
   </g>
   <g id="patch_86">
    <path clip-path="url(#p34511edd6d)" d="M 650.86204 486.12 
L 665.266475 486.12 
L 665.266475 486.12 
L 650.86204 486.12 
z
" style="fill:#1f77b4;opacity:0.4;"/>
   </g>
   <g id="patch_87">
    <path clip-path="url(#p34511edd6d)" d="M 665.266475 486.12 
L 679.670909 486.12 
L 679.670909 486.12 
L 665.266475 486.12 
z
" style="fill:#1f77b4;opacity:0.4;"/>
   </g>
   <g id="matplotlib.axis_3">
    <g id="xtick_5">
     <g id="line2d_10">
      <g>
       <use style="stroke:#000000;stroke-width:0.8;" x="233.133437" xlink:href="#mfe5005139b" y="486.12"/>
      </g>
     </g>
     <g id="text_10">
      <!-- 5 -->
      <g transform="translate(226.182265 511.053594)scale(0.25 -0.25)">
       <use xlink:href="#Helvetica-53"/>
      </g>
     </g>
    </g>
    <g id="xtick_6">
     <g id="line2d_11">
      <g>
       <use style="stroke:#000000;stroke-width:0.8;" x="377.177783" xlink:href="#mfe5005139b" y="486.12"/>
      </g>
     </g>
     <g id="text_11">
      <!-- 10 -->
      <g transform="translate(363.275439 511.053594)scale(0.25 -0.25)">
       <use xlink:href="#Helvetica-49"/>
       <use x="55.615234" xlink:href="#Helvetica-48"/>
      </g>
     </g>
    </g>
    <g id="xtick_7">
     <g id="line2d_12">
      <g>
       <use style="stroke:#000000;stroke-width:0.8;" x="521.222129" xlink:href="#mfe5005139b" y="486.12"/>
      </g>
     </g>
     <g id="text_12">
      <!-- 15 -->
      <g transform="translate(507.319785 511.053594)scale(0.25 -0.25)">
       <use xlink:href="#Helvetica-49"/>
       <use x="55.615234" xlink:href="#Helvetica-53"/>
      </g>
     </g>
    </g>
    <g id="xtick_8">
     <g id="line2d_13">
      <g>
       <use style="stroke:#000000;stroke-width:0.8;" x="665.266475" xlink:href="#mfe5005139b" y="486.12"/>
      </g>
     </g>
     <g id="text_13">
      <!-- 20 -->
      <g transform="translate(651.364131 511.053594)scale(0.25 -0.25)">
       <use xlink:href="#Helvetica-50"/>
       <use x="55.615234" xlink:href="#Helvetica-48"/>
      </g>
     </g>
    </g>
   </g>
   <g id="matplotlib.axis_4">
    <g id="ytick_5">
     <g id="line2d_14">
      <g>
       <use style="stroke:#000000;stroke-width:0.8;" x="59.56" xlink:href="#ma64c3f4e05" y="486.12"/>
      </g>
     </g>
     <g id="text_14">
      <!-- 0 -->
      <g transform="translate(38.657656 495.086797)scale(0.25 -0.25)">
       <use xlink:href="#Helvetica-48"/>
      </g>
     </g>
    </g>
    <g id="ytick_6">
     <g id="line2d_15">
      <g>
       <use style="stroke:#000000;stroke-width:0.8;" x="59.56" xlink:href="#ma64c3f4e05" y="404.109418"/>
      </g>
     </g>
     <g id="text_15">
      <!-- 100 -->
      <g transform="translate(10.852969 413.076215)scale(0.25 -0.25)">
       <use xlink:href="#Helvetica-49"/>
       <use x="55.615234" xlink:href="#Helvetica-48"/>
       <use x="111.230469" xlink:href="#Helvetica-48"/>
      </g>
     </g>
    </g>
    <g id="ytick_7">
     <g id="line2d_16">
      <g>
       <use style="stroke:#000000;stroke-width:0.8;" x="59.56" xlink:href="#ma64c3f4e05" y="322.098836"/>
      </g>
     </g>
     <g id="text_16">
      <!-- 200 -->
      <g transform="translate(10.852969 331.065633)scale(0.25 -0.25)">
       <use xlink:href="#Helvetica-50"/>
       <use x="55.615234" xlink:href="#Helvetica-48"/>
       <use x="111.230469" xlink:href="#Helvetica-48"/>
      </g>
     </g>
    </g>
   </g>
   <g id="line2d_17">
    <path clip-path="url(#p34511edd6d)" d="M 290.905233 486.12 
L 290.905233 269.12 
" style="fill:none;stroke:#1f77b4;stroke-linecap:square;stroke-width:1.5;"/>
   </g>
   <g id="patch_88">
    <path d="M 59.56 486.12 
L 59.56 269.12 
" style="fill:none;stroke:#000000;stroke-linecap:square;stroke-linejoin:miter;stroke-width:0.8;"/>
   </g>
   <g id="patch_89">
    <path d="M 59.56 486.12 
L 709.2 486.12 
" style="fill:none;stroke:#000000;stroke-linecap:square;stroke-linejoin:miter;stroke-width:0.8;"/>
   </g>
   <g id="text_17">
    <!-- 5' UTR (1842) -->
    <defs>
     <path d="M 27.203125 40.625 
Q 33.015625 40.625 36.28125 43.875 
Q 39.546875 47.125 39.546875 51.609375 
Q 39.546875 55.515625 36.421875 58.78125 
Q 33.296875 62.0625 26.90625 62.0625 
Q 20.5625 62.0625 17.71875 58.78125 
Q 14.890625 55.515625 14.890625 51.125 
Q 14.890625 46.1875 18.546875 43.40625 
Q 22.21875 40.625 27.203125 40.625 
z
M 27.734375 6 
Q 33.84375 6 37.859375 9.296875 
Q 41.890625 12.59375 41.890625 19.140625 
Q 41.890625 25.921875 37.734375 29.4375 
Q 33.59375 32.953125 27.09375 32.953125 
Q 20.796875 32.953125 16.8125 29.359375 
Q 12.84375 25.78125 12.84375 19.4375 
Q 12.84375 13.96875 16.484375 9.984375 
Q 20.125 6 27.734375 6 
z
M 15.234375 37.25 
Q 11.578125 38.8125 9.515625 40.921875 
Q 5.671875 44.828125 5.671875 51.078125 
Q 5.671875 58.890625 11.328125 64.5 
Q 17 70.125 27.390625 70.125 
Q 37.453125 70.125 43.15625 64.8125 
Q 48.875 59.515625 48.875 52.4375 
Q 48.875 45.90625 45.5625 41.84375 
Q 43.703125 39.546875 39.796875 37.359375 
Q 44.140625 35.359375 46.625 32.765625 
Q 51.265625 27.875 51.265625 20.0625 
Q 51.265625 10.84375 45.0625 4.421875 
Q 38.875 -2 27.546875 -2 
Q 17.328125 -2 10.265625 3.53125 
Q 3.21875 9.078125 3.21875 19.625 
Q 3.21875 25.828125 6.25 30.34375 
Q 9.28125 34.859375 15.234375 37.25 
z
" id="Helvetica-56"/>
    </defs>
    <g transform="translate(514.7633 453.57)scale(0.28 -0.28)">
     <use xlink:href="#Helvetica-53"/>
     <use x="55.615234" xlink:href="#Helvetica-39"/>
     <use x="74.707031" xlink:href="#Helvetica-32"/>
     <use x="102.490234" xlink:href="#Helvetica-85"/>
     <use x="174.707031" xlink:href="#Helvetica-84"/>
     <use x="235.791016" xlink:href="#Helvetica-82"/>
     <use x="308.007812" xlink:href="#Helvetica-32"/>
     <use x="335.791016" xlink:href="#Helvetica-40"/>
     <use x="369.091797" xlink:href="#Helvetica-49"/>
     <use x="424.707031" xlink:href="#Helvetica-56"/>
     <use x="480.322266" xlink:href="#Helvetica-52"/>
     <use x="535.9375" xlink:href="#Helvetica-50"/>
     <use x="591.552734" xlink:href="#Helvetica-41"/>
    </g>
   </g>
  </g>
  <g id="axes_3">
   <g id="patch_90">
    <path d="M 59.56 744.44 
L 709.2 744.44 
L 709.2 527.44 
L 59.56 527.44 
z
" style="fill:#ffffff;"/>
   </g>
   <g id="patch_91">
    <path clip-path="url(#p1fe8683737)" d="M 89.089091 744.44 
L 103.493525 744.44 
L 103.493525 744.44 
L 89.089091 744.44 
z
" style="fill:#1f77b4;opacity:0.4;"/>
   </g>
   <g id="patch_92">
    <path clip-path="url(#p1fe8683737)" d="M 103.493525 744.44 
L 117.89796 744.44 
L 117.89796 744.44 
L 103.493525 744.44 
z
" style="fill:#1f77b4;opacity:0.4;"/>
   </g>
   <g id="patch_93">
    <path clip-path="url(#p1fe8683737)" d="M 117.89796 744.44 
L 132.302395 744.44 
L 132.302395 744.44 
L 117.89796 744.44 
z
" style="fill:#1f77b4;opacity:0.4;"/>
   </g>
   <g id="patch_94">
    <path clip-path="url(#p1fe8683737)" d="M 132.302395 744.44 
L 146.706829 744.44 
L 146.706829 744.44 
L 132.302395 744.44 
z
" style="fill:#1f77b4;opacity:0.4;"/>
   </g>
   <g id="patch_95">
    <path clip-path="url(#p1fe8683737)" d="M 146.706829 744.44 
L 161.111264 744.44 
L 161.111264 744.44 
L 146.706829 744.44 
z
" style="fill:#1f77b4;opacity:0.4;"/>
   </g>
   <g id="patch_96">
    <path clip-path="url(#p1fe8683737)" d="M 161.111264 744.44 
L 175.515698 744.44 
L 175.515698 744.44 
L 161.111264 744.44 
z
" style="fill:#1f77b4;opacity:0.4;"/>
   </g>
   <g id="patch_97">
    <path clip-path="url(#p1fe8683737)" d="M 175.515698 744.44 
L 189.920133 744.44 
L 189.920133 744.44 
L 175.515698 744.44 
z
" style="fill:#1f77b4;opacity:0.4;"/>
   </g>
   <g id="patch_98">
    <path clip-path="url(#p1fe8683737)" d="M 189.920133 744.44 
L 204.324568 744.44 
L 204.324568 744.44 
L 189.920133 744.44 
z
" style="fill:#1f77b4;opacity:0.4;"/>
   </g>
   <g id="patch_99">
    <path clip-path="url(#p1fe8683737)" d="M 204.324568 744.44 
L 218.729002 744.44 
L 218.729002 556.627135 
L 204.324568 556.627135 
z
" style="fill:#1f77b4;opacity:0.4;"/>
   </g>
   <g id="patch_100">
    <path clip-path="url(#p1fe8683737)" d="M 218.729002 744.44 
L 233.133437 744.44 
L 233.133437 733.562807 
L 218.729002 733.562807 
z
" style="fill:#1f77b4;opacity:0.4;"/>
   </g>
   <g id="patch_101">
    <path clip-path="url(#p1fe8683737)" d="M 233.133437 744.44 
L 247.537871 744.44 
L 247.537871 588.533567 
L 233.133437 588.533567 
z
" style="fill:#1f77b4;opacity:0.4;"/>
   </g>
   <g id="patch_102">
    <path clip-path="url(#p1fe8683737)" d="M 247.537871 744.44 
L 261.942306 744.44 
L 261.942306 722.685614 
L 247.537871 722.685614 
z
" style="fill:#1f77b4;opacity:0.4;"/>
   </g>
   <g id="patch_103">
    <path clip-path="url(#p1fe8683737)" d="M 261.942306 744.44 
L 276.346741 744.44 
L 276.346741 537.773333 
L 261.942306 537.773333 
z
" style="fill:#1f77b4;opacity:0.4;"/>
   </g>
   <g id="patch_104">
    <path clip-path="url(#p1fe8683737)" d="M 276.346741 744.44 
L 290.751175 744.44 
L 290.751175 702.38152 
L 276.346741 702.38152 
z
" style="fill:#1f77b4;opacity:0.4;"/>
   </g>
   <g id="patch_105">
    <path clip-path="url(#p1fe8683737)" d="M 290.751175 744.44 
L 305.15561 744.44 
L 305.15561 601.586199 
L 290.751175 601.586199 
z
" style="fill:#1f77b4;opacity:0.4;"/>
   </g>
   <g id="patch_106">
    <path clip-path="url(#p1fe8683737)" d="M 305.15561 744.44 
L 319.560044 744.44 
L 319.560044 720.510175 
L 305.15561 720.510175 
z
" style="fill:#1f77b4;opacity:0.4;"/>
   </g>
   <g id="patch_107">
    <path clip-path="url(#p1fe8683737)" d="M 319.560044 744.44 
L 333.964479 744.44 
L 333.964479 693.679766 
L 319.560044 693.679766 
z
" style="fill:#1f77b4;opacity:0.4;"/>
   </g>
   <g id="patch_108">
    <path clip-path="url(#p1fe8683737)" d="M 333.964479 744.44 
L 348.368914 744.44 
L 348.368914 736.463392 
L 333.964479 736.463392 
z
" style="fill:#1f77b4;opacity:0.4;"/>
   </g>
   <g id="patch_109">
    <path clip-path="url(#p1fe8683737)" d="M 348.368914 744.44 
L 362.773348 744.44 
L 362.773348 733.562807 
L 348.368914 733.562807 
z
" style="fill:#1f77b4;opacity:0.4;"/>
   </g>
   <g id="patch_110">
    <path clip-path="url(#p1fe8683737)" d="M 362.773348 744.44 
L 377.177783 744.44 
L 377.177783 742.264561 
L 362.773348 742.264561 
z
" style="fill:#1f77b4;opacity:0.4;"/>
   </g>
   <g id="patch_111">
    <path clip-path="url(#p1fe8683737)" d="M 377.177783 744.44 
L 391.582217 744.44 
L 391.582217 742.989708 
L 377.177783 742.989708 
z
" style="fill:#1f77b4;opacity:0.4;"/>
   </g>
   <g id="patch_112">
    <path clip-path="url(#p1fe8683737)" d="M 391.582217 744.44 
L 405.986652 744.44 
L 405.986652 743.714854 
L 391.582217 743.714854 
z
" style="fill:#1f77b4;opacity:0.4;"/>
   </g>
   <g id="patch_113">
    <path clip-path="url(#p1fe8683737)" d="M 405.986652 744.44 
L 420.391086 744.44 
L 420.391086 743.714854 
L 405.986652 743.714854 
z
" style="fill:#1f77b4;opacity:0.4;"/>
   </g>
   <g id="patch_114">
    <path clip-path="url(#p1fe8683737)" d="M 420.391086 744.44 
L 434.795521 744.44 
L 434.795521 744.44 
L 420.391086 744.44 
z
" style="fill:#1f77b4;opacity:0.4;"/>
   </g>
   <g id="patch_115">
    <path clip-path="url(#p1fe8683737)" d="M 434.795521 744.44 
L 449.199956 744.44 
L 449.199956 742.989708 
L 434.795521 742.989708 
z
" style="fill:#1f77b4;opacity:0.4;"/>
   </g>
   <g id="patch_116">
    <path clip-path="url(#p1fe8683737)" d="M 449.199956 744.44 
L 463.60439 744.44 
L 463.60439 744.44 
L 449.199956 744.44 
z
" style="fill:#1f77b4;opacity:0.4;"/>
   </g>
   <g id="patch_117">
    <path clip-path="url(#p1fe8683737)" d="M 463.60439 744.44 
L 478.008825 744.44 
L 478.008825 744.44 
L 463.60439 744.44 
z
" style="fill:#1f77b4;opacity:0.4;"/>
   </g>
   <g id="patch_118">
    <path clip-path="url(#p1fe8683737)" d="M 478.008825 744.44 
L 492.413259 744.44 
L 492.413259 744.44 
L 478.008825 744.44 
z
" style="fill:#1f77b4;opacity:0.4;"/>
   </g>
   <g id="patch_119">
    <path clip-path="url(#p1fe8683737)" d="M 492.413259 744.44 
L 506.817694 744.44 
L 506.817694 744.44 
L 492.413259 744.44 
z
" style="fill:#1f77b4;opacity:0.4;"/>
   </g>
   <g id="patch_120">
    <path clip-path="url(#p1fe8683737)" d="M 506.817694 744.44 
L 521.222129 744.44 
L 521.222129 744.44 
L 506.817694 744.44 
z
" style="fill:#1f77b4;opacity:0.4;"/>
   </g>
   <g id="patch_121">
    <path clip-path="url(#p1fe8683737)" d="M 521.222129 744.44 
L 535.626563 744.44 
L 535.626563 744.44 
L 521.222129 744.44 
z
" style="fill:#1f77b4;opacity:0.4;"/>
   </g>
   <g id="patch_122">
    <path clip-path="url(#p1fe8683737)" d="M 535.626563 744.44 
L 550.030998 744.44 
L 550.030998 744.44 
L 535.626563 744.44 
z
" style="fill:#1f77b4;opacity:0.4;"/>
   </g>
   <g id="patch_123">
    <path clip-path="url(#p1fe8683737)" d="M 550.030998 744.44 
L 564.435432 744.44 
L 564.435432 744.44 
L 550.030998 744.44 
z
" style="fill:#1f77b4;opacity:0.4;"/>
   </g>
   <g id="patch_124">
    <path clip-path="url(#p1fe8683737)" d="M 564.435432 744.44 
L 578.839867 744.44 
L 578.839867 744.44 
L 564.435432 744.44 
z
" style="fill:#1f77b4;opacity:0.4;"/>
   </g>
   <g id="patch_125">
    <path clip-path="url(#p1fe8683737)" d="M 578.839867 744.44 
L 593.244302 744.44 
L 593.244302 744.44 
L 578.839867 744.44 
z
" style="fill:#1f77b4;opacity:0.4;"/>
   </g>
   <g id="patch_126">
    <path clip-path="url(#p1fe8683737)" d="M 593.244302 744.44 
L 607.648736 744.44 
L 607.648736 744.44 
L 593.244302 744.44 
z
" style="fill:#1f77b4;opacity:0.4;"/>
   </g>
   <g id="patch_127">
    <path clip-path="url(#p1fe8683737)" d="M 607.648736 744.44 
L 622.053171 744.44 
L 622.053171 744.44 
L 607.648736 744.44 
z
" style="fill:#1f77b4;opacity:0.4;"/>
   </g>
   <g id="patch_128">
    <path clip-path="url(#p1fe8683737)" d="M 622.053171 744.44 
L 636.457605 744.44 
L 636.457605 744.44 
L 622.053171 744.44 
z
" style="fill:#1f77b4;opacity:0.4;"/>
   </g>
   <g id="patch_129">
    <path clip-path="url(#p1fe8683737)" d="M 636.457605 744.44 
L 650.86204 744.44 
L 650.86204 744.44 
L 636.457605 744.44 
z
" style="fill:#1f77b4;opacity:0.4;"/>
   </g>
   <g id="patch_130">
    <path clip-path="url(#p1fe8683737)" d="M 650.86204 744.44 
L 665.266475 744.44 
L 665.266475 744.44 
L 650.86204 744.44 
z
" style="fill:#1f77b4;opacity:0.4;"/>
   </g>
   <g id="patch_131">
    <path clip-path="url(#p1fe8683737)" d="M 665.266475 744.44 
L 679.670909 744.44 
L 679.670909 744.44 
L 665.266475 744.44 
z
" style="fill:#1f77b4;opacity:0.4;"/>
   </g>
   <g id="matplotlib.axis_5">
    <g id="xtick_9">
     <g id="line2d_18">
      <g>
       <use style="stroke:#000000;stroke-width:0.8;" x="233.133437" xlink:href="#mfe5005139b" y="744.44"/>
      </g>
     </g>
     <g id="text_18">
      <!-- 5 -->
      <g transform="translate(226.182265 769.373594)scale(0.25 -0.25)">
       <use xlink:href="#Helvetica-53"/>
      </g>
     </g>
    </g>
    <g id="xtick_10">
     <g id="line2d_19">
      <g>
       <use style="stroke:#000000;stroke-width:0.8;" x="377.177783" xlink:href="#mfe5005139b" y="744.44"/>
      </g>
     </g>
     <g id="text_19">
      <!-- 10 -->
      <g transform="translate(363.275439 769.373594)scale(0.25 -0.25)">
       <use xlink:href="#Helvetica-49"/>
       <use x="55.615234" xlink:href="#Helvetica-48"/>
      </g>
     </g>
    </g>
    <g id="xtick_11">
     <g id="line2d_20">
      <g>
       <use style="stroke:#000000;stroke-width:0.8;" x="521.222129" xlink:href="#mfe5005139b" y="744.44"/>
      </g>
     </g>
     <g id="text_20">
      <!-- 15 -->
      <g transform="translate(507.319785 769.373594)scale(0.25 -0.25)">
       <use xlink:href="#Helvetica-49"/>
       <use x="55.615234" xlink:href="#Helvetica-53"/>
      </g>
     </g>
    </g>
    <g id="xtick_12">
     <g id="line2d_21">
      <g>
       <use style="stroke:#000000;stroke-width:0.8;" x="665.266475" xlink:href="#mfe5005139b" y="744.44"/>
      </g>
     </g>
     <g id="text_21">
      <!-- 20 -->
      <g transform="translate(651.364131 769.373594)scale(0.25 -0.25)">
       <use xlink:href="#Helvetica-50"/>
       <use x="55.615234" xlink:href="#Helvetica-48"/>
      </g>
     </g>
    </g>
   </g>
   <g id="matplotlib.axis_6">
    <g id="ytick_8">
     <g id="line2d_22">
      <g>
       <use style="stroke:#000000;stroke-width:0.8;" x="59.56" xlink:href="#ma64c3f4e05" y="744.44"/>
      </g>
     </g>
     <g id="text_22">
      <!-- 0 -->
      <g transform="translate(38.657656 753.406797)scale(0.25 -0.25)">
       <use xlink:href="#Helvetica-48"/>
      </g>
     </g>
    </g>
    <g id="ytick_9">
     <g id="line2d_23">
      <g>
       <use style="stroke:#000000;stroke-width:0.8;" x="59.56" xlink:href="#ma64c3f4e05" y="671.92538"/>
      </g>
     </g>
     <g id="text_23">
      <!-- 100 -->
      <g transform="translate(10.852969 680.892177)scale(0.25 -0.25)">
       <use xlink:href="#Helvetica-49"/>
       <use x="55.615234" xlink:href="#Helvetica-48"/>
       <use x="111.230469" xlink:href="#Helvetica-48"/>
      </g>
     </g>
    </g>
    <g id="ytick_10">
     <g id="line2d_24">
      <g>
       <use style="stroke:#000000;stroke-width:0.8;" x="59.56" xlink:href="#ma64c3f4e05" y="599.41076"/>
      </g>
     </g>
     <g id="text_24">
      <!-- 200 -->
      <g transform="translate(10.852969 608.377557)scale(0.25 -0.25)">
       <use xlink:href="#Helvetica-50"/>
       <use x="55.615234" xlink:href="#Helvetica-48"/>
       <use x="111.230469" xlink:href="#Helvetica-48"/>
      </g>
     </g>
    </g>
   </g>
   <g id="line2d_25">
    <path clip-path="url(#p1fe8683737)" d="M 261.942306 744.44 
L 261.942306 527.44 
" style="fill:none;stroke:#1f77b4;stroke-linecap:square;stroke-width:1.5;"/>
   </g>
   <g id="patch_132">
    <path d="M 59.56 744.44 
L 59.56 527.44 
" style="fill:none;stroke:#000000;stroke-linecap:square;stroke-linejoin:miter;stroke-width:0.8;"/>
   </g>
   <g id="patch_133">
    <path d="M 59.56 744.44 
L 709.2 744.44 
" style="fill:none;stroke:#000000;stroke-linecap:square;stroke-linejoin:miter;stroke-width:0.8;"/>
   </g>
   <g id="text_25">
    <!-- Intergenic in Operon (1197) -->
    <defs>
     <path d="M 9.8125 71.734375 
L 19.625 71.734375 
L 19.625 0 
L 9.8125 0 
z
" id="Helvetica-73"/>
     <path d="M 6.453125 52.296875 
L 14.796875 52.296875 
L 14.796875 44.875 
Q 18.5 49.46875 22.65625 51.46875 
Q 26.8125 53.46875 31.890625 53.46875 
Q 43.015625 53.46875 46.921875 45.703125 
Q 49.078125 41.453125 49.078125 33.546875 
L 49.078125 0 
L 40.140625 0 
L 40.140625 32.953125 
Q 40.140625 37.75 38.71875 40.671875 
Q 36.375 45.5625 30.21875 45.5625 
Q 27.09375 45.5625 25.09375 44.921875 
Q 21.484375 43.84375 18.75 40.625 
Q 16.546875 38.03125 15.890625 35.265625 
Q 15.234375 32.515625 15.234375 27.390625 
L 15.234375 0 
L 6.453125 0 
z
M 27.09375 53.5625 
z
" id="Helvetica-110"/>
     <path d="M 8.203125 66.890625 
L 17.09375 66.890625 
L 17.09375 52.296875 
L 25.4375 52.296875 
L 25.4375 45.125 
L 17.09375 45.125 
L 17.09375 10.984375 
Q 17.09375 8.25 18.953125 7.328125 
Q 19.96875 6.78125 22.359375 6.78125 
Q 23 6.78125 23.734375 6.8125 
Q 24.46875 6.84375 25.4375 6.9375 
L 25.4375 0 
Q 23.921875 -0.4375 22.28125 -0.625 
Q 20.65625 -0.828125 18.75 -0.828125 
Q 12.59375 -0.828125 10.390625 2.3125 
Q 8.203125 5.46875 8.203125 10.5 
L 8.203125 45.125 
L 1.125 45.125 
L 1.125 52.296875 
L 8.203125 52.296875 
z
" id="Helvetica-116"/>
     <path d="M 28.21875 53.46875 
Q 33.796875 53.46875 39.015625 50.859375 
Q 44.234375 48.25 46.96875 44.09375 
Q 49.609375 40.140625 50.484375 34.859375 
Q 51.265625 31.25 51.265625 23.34375 
L 12.9375 23.34375 
Q 13.1875 15.375 16.703125 10.5625 
Q 20.21875 5.765625 27.59375 5.765625 
Q 34.46875 5.765625 38.578125 10.296875 
Q 40.921875 12.9375 41.890625 16.40625 
L 50.53125 16.40625 
Q 50.203125 13.53125 48.265625 9.984375 
Q 46.34375 6.453125 43.953125 4.203125 
Q 39.9375 0.296875 34.03125 -1.078125 
Q 30.859375 -1.859375 26.859375 -1.859375 
Q 17.09375 -1.859375 10.296875 5.25 
Q 3.515625 12.359375 3.515625 25.140625 
Q 3.515625 37.75 10.34375 45.609375 
Q 17.1875 53.46875 28.21875 53.46875 
z
M 42.234375 30.328125 
Q 41.703125 36.03125 39.75 39.453125 
Q 36.140625 45.796875 27.6875 45.796875 
Q 21.625 45.796875 17.515625 41.421875 
Q 13.421875 37.0625 13.1875 30.328125 
z
M 27.390625 53.5625 
z
" id="Helvetica-101"/>
     <path d="M 6.6875 52.296875 
L 15.046875 52.296875 
L 15.046875 43.265625 
Q 16.0625 45.90625 20.0625 49.6875 
Q 24.078125 53.46875 29.296875 53.46875 
Q 29.546875 53.46875 30.125 53.421875 
Q 30.71875 53.375 32.125 53.21875 
L 32.125 43.953125 
Q 31.34375 44.09375 30.6875 44.140625 
Q 30.03125 44.1875 29.25 44.1875 
Q 22.609375 44.1875 19.046875 39.90625 
Q 15.484375 35.640625 15.484375 30.078125 
L 15.484375 0 
L 6.6875 0 
z
" id="Helvetica-114"/>
     <path d="M 24.90625 53.21875 
Q 31.0625 53.21875 35.640625 50.203125 
Q 38.140625 48.484375 40.71875 45.21875 
L 40.71875 51.8125 
L 48.828125 51.8125 
L 48.828125 4.25 
Q 48.828125 -5.71875 45.90625 -11.46875 
Q 40.4375 -22.125 25.25 -22.125 
Q 16.796875 -22.125 11.03125 -18.328125 
Q 5.28125 -14.546875 4.59375 -6.5 
L 13.53125 -6.5 
Q 14.15625 -10.015625 16.0625 -11.921875 
Q 19.046875 -14.84375 25.4375 -14.84375 
Q 35.546875 -14.84375 38.671875 -7.71875 
Q 40.53125 -3.515625 40.375 7.28125 
Q 37.75 3.265625 34.03125 1.3125 
Q 30.328125 -0.640625 24.21875 -0.640625 
Q 15.71875 -0.640625 9.34375 5.390625 
Q 2.984375 11.421875 2.984375 25.34375 
Q 2.984375 38.484375 9.40625 45.84375 
Q 15.828125 53.21875 24.90625 53.21875 
z
M 40.71875 26.375 
Q 40.71875 36.078125 36.71875 40.765625 
Q 32.71875 45.453125 26.515625 45.453125 
Q 17.234375 45.453125 13.8125 36.765625 
Q 12.015625 32.125 12.015625 24.609375 
Q 12.015625 15.765625 15.59375 11.15625 
Q 19.1875 6.546875 25.25 6.546875 
Q 34.71875 6.546875 38.578125 15.09375 
Q 40.71875 19.921875 40.71875 26.375 
z
M 25.921875 53.5625 
z
" id="Helvetica-103"/>
     <path d="M 6.453125 52.046875 
L 15.375 52.046875 
L 15.375 0 
L 6.453125 0 
z
M 6.453125 71.734375 
L 15.375 71.734375 
L 15.375 61.765625 
L 6.453125 61.765625 
z
" id="Helvetica-105"/>
     <path d="M 26.609375 53.8125 
Q 35.453125 53.8125 40.984375 49.515625 
Q 46.53125 45.21875 47.65625 34.71875 
L 39.109375 34.71875 
Q 38.328125 39.546875 35.546875 42.75 
Q 32.765625 45.953125 26.609375 45.953125 
Q 18.21875 45.953125 14.59375 37.75 
Q 12.25 32.421875 12.25 24.609375 
Q 12.25 16.75 15.5625 11.375 
Q 18.890625 6 26.03125 6 
Q 31.5 6 34.6875 9.34375 
Q 37.890625 12.703125 39.109375 18.5 
L 47.65625 18.5 
Q 46.1875 8.109375 40.328125 3.296875 
Q 34.46875 -1.515625 25.34375 -1.515625 
Q 15.09375 -1.515625 8.984375 5.984375 
Q 2.875 13.484375 2.875 24.703125 
Q 2.875 38.484375 9.5625 46.140625 
Q 16.265625 53.8125 26.609375 53.8125 
z
M 25.25 53.5625 
z
" id="Helvetica-99"/>
     <path d="M 38.578125 73.6875 
Q 57.5625 73.6875 66.703125 61.46875 
Q 73.828125 51.953125 73.828125 37.109375 
Q 73.828125 21.046875 65.671875 10.40625 
Q 56.109375 -2.09375 38.375 -2.09375 
Q 21.828125 -2.09375 12.359375 8.84375 
Q 3.90625 19.390625 3.90625 35.5 
Q 3.90625 50.046875 11.140625 60.40625 
Q 20.40625 73.6875 38.578125 73.6875 
z
M 39.546875 6.59375 
Q 52.390625 6.59375 58.125 15.796875 
Q 63.875 25 63.875 36.96875 
Q 63.875 49.609375 57.25 57.328125 
Q 50.640625 65.046875 39.15625 65.046875 
Q 28.03125 65.046875 21 57.390625 
Q 13.96875 49.75 13.96875 34.859375 
Q 13.96875 22.953125 20 14.765625 
Q 26.03125 6.59375 39.546875 6.59375 
z
M 38.875 73.6875 
z
" id="Helvetica-79"/>
     <path d="M 28.515625 5.90625 
Q 34.671875 5.90625 38.75 11.0625 
Q 42.828125 16.21875 42.828125 26.46875 
Q 42.828125 32.71875 41.015625 37.203125 
Q 37.59375 45.84375 28.515625 45.84375 
Q 19.390625 45.84375 16.015625 36.71875 
Q 14.203125 31.84375 14.203125 24.3125 
Q 14.203125 18.265625 16.015625 14.015625 
Q 19.4375 5.90625 28.515625 5.90625 
z
M 5.765625 52.046875 
L 14.3125 52.046875 
L 14.3125 45.125 
Q 16.9375 48.6875 20.0625 50.640625 
Q 24.515625 53.5625 30.515625 53.5625 
Q 39.40625 53.5625 45.609375 46.75 
Q 51.8125 39.9375 51.8125 27.296875 
Q 51.8125 10.203125 42.875 2.875 
Q 37.203125 -1.765625 29.6875 -1.765625 
Q 23.78125 -1.765625 19.78125 0.828125 
Q 17.4375 2.296875 14.546875 5.859375 
L 14.546875 -20.84375 
L 5.765625 -20.84375 
z
" id="Helvetica-112"/>
     <path d="M 27.203125 5.671875 
Q 35.9375 5.671875 39.1875 12.28125 
Q 42.4375 18.890625 42.4375 27 
Q 42.4375 34.328125 40.09375 38.921875 
Q 36.375 46.140625 27.296875 46.140625 
Q 19.234375 46.140625 15.578125 39.984375 
Q 11.921875 33.84375 11.921875 25.140625 
Q 11.921875 16.796875 15.578125 11.234375 
Q 19.234375 5.671875 27.203125 5.671875 
z
M 27.546875 53.8125 
Q 37.640625 53.8125 44.625 47.0625 
Q 51.609375 40.328125 51.609375 27.25 
Q 51.609375 14.59375 45.453125 6.34375 
Q 39.3125 -1.90625 26.375 -1.90625 
Q 15.578125 -1.90625 9.21875 5.390625 
Q 2.875 12.703125 2.875 25 
Q 2.875 38.1875 9.5625 46 
Q 16.265625 53.8125 27.546875 53.8125 
z
M 27.25 53.5625 
z
" id="Helvetica-111"/>
     <path d="M 52.296875 68.75 
L 52.296875 61.078125 
Q 48.921875 57.8125 43.328125 49.703125 
Q 37.75 41.609375 33.453125 32.234375 
Q 29.203125 23.09375 27 15.578125 
Q 25.59375 10.75 23.34375 0 
L 13.625 0 
Q 16.9375 20.015625 28.265625 39.84375 
Q 34.96875 51.46875 42.328125 59.90625 
L 3.65625 59.90625 
L 3.65625 68.75 
z
" id="Helvetica-55"/>
    </defs>
    <g transform="translate(347.31455 711.89)scale(0.28 -0.28)">
     <use xlink:href="#Helvetica-73"/>
     <use x="27.783203" xlink:href="#Helvetica-110"/>
     <use x="83.398438" xlink:href="#Helvetica-116"/>
     <use x="111.181641" xlink:href="#Helvetica-101"/>
     <use x="166.796875" xlink:href="#Helvetica-114"/>
     <use x="200.097656" xlink:href="#Helvetica-103"/>
     <use x="255.712891" xlink:href="#Helvetica-101"/>
     <use x="311.328125" xlink:href="#Helvetica-110"/>
     <use x="366.943359" xlink:href="#Helvetica-105"/>
     <use x="389.160156" xlink:href="#Helvetica-99"/>
     <use x="439.160156" xlink:href="#Helvetica-32"/>
     <use x="466.943359" xlink:href="#Helvetica-105"/>
     <use x="489.160156" xlink:href="#Helvetica-110"/>
     <use x="544.775391" xlink:href="#Helvetica-32"/>
     <use x="572.558594" xlink:href="#Helvetica-79"/>
     <use x="650.341797" xlink:href="#Helvetica-112"/>
     <use x="705.957031" xlink:href="#Helvetica-101"/>
     <use x="761.572266" xlink:href="#Helvetica-114"/>
     <use x="794.873047" xlink:href="#Helvetica-111"/>
     <use x="850.488281" xlink:href="#Helvetica-110"/>
     <use x="906.103516" xlink:href="#Helvetica-32"/>
     <use x="933.886719" xlink:href="#Helvetica-40"/>
     <use x="967.1875" xlink:href="#Helvetica-49"/>
     <use x="1022.802734" xlink:href="#Helvetica-49"/>
     <use x="1078.417969" xlink:href="#Helvetica-57"/>
     <use x="1134.033203" xlink:href="#Helvetica-55"/>
     <use x="1189.648438" xlink:href="#Helvetica-41"/>
    </g>
   </g>
  </g>
  <g id="axes_4">
   <g id="patch_134">
    <path d="M 59.56 1002.76 
L 709.2 1002.76 
L 709.2 785.76 
L 59.56 785.76 
z
" style="fill:#ffffff;"/>
   </g>
   <g id="patch_135">
    <path clip-path="url(#p7795169fa0)" d="M 89.089091 1002.76 
L 103.493525 1002.76 
L 103.493525 1002.76 
L 89.089091 1002.76 
z
" style="fill:#1f77b4;opacity:0.4;"/>
   </g>
   <g id="patch_136">
    <path clip-path="url(#p7795169fa0)" d="M 103.493525 1002.76 
L 117.89796 1002.76 
L 117.89796 1002.76 
L 103.493525 1002.76 
z
" style="fill:#1f77b4;opacity:0.4;"/>
   </g>
   <g id="patch_137">
    <path clip-path="url(#p7795169fa0)" d="M 117.89796 1002.76 
L 132.302395 1002.76 
L 132.302395 1002.76 
L 117.89796 1002.76 
z
" style="fill:#1f77b4;opacity:0.4;"/>
   </g>
   <g id="patch_138">
    <path clip-path="url(#p7795169fa0)" d="M 132.302395 1002.76 
L 146.706829 1002.76 
L 146.706829 1002.76 
L 132.302395 1002.76 
z
" style="fill:#1f77b4;opacity:0.4;"/>
   </g>
   <g id="patch_139">
    <path clip-path="url(#p7795169fa0)" d="M 146.706829 1002.76 
L 161.111264 1002.76 
L 161.111264 796.093333 
L 146.706829 796.093333 
z
" style="fill:#1f77b4;opacity:0.4;"/>
   </g>
   <g id="patch_140">
    <path clip-path="url(#p7795169fa0)" d="M 161.111264 1002.76 
L 175.515698 1002.76 
L 175.515698 880.751968 
L 161.111264 880.751968 
z
" style="fill:#1f77b4;opacity:0.4;"/>
   </g>
   <g id="patch_141">
    <path clip-path="url(#p7795169fa0)" d="M 175.515698 1002.76 
L 189.920133 1002.76 
L 189.920133 871.414618 
L 175.515698 871.414618 
z
" style="fill:#1f77b4;opacity:0.4;"/>
   </g>
   <g id="patch_142">
    <path clip-path="url(#p7795169fa0)" d="M 189.920133 1002.76 
L 204.324568 1002.76 
L 204.324568 928.683695 
L 189.920133 928.683695 
z
" style="fill:#1f77b4;opacity:0.4;"/>
   </g>
   <g id="patch_143">
    <path clip-path="url(#p7795169fa0)" d="M 204.324568 1002.76 
L 218.729002 1002.76 
L 218.729002 951.404578 
L 204.324568 951.404578 
z
" style="fill:#1f77b4;opacity:0.4;"/>
   </g>
   <g id="patch_144">
    <path clip-path="url(#p7795169fa0)" d="M 218.729002 1002.76 
L 233.133437 1002.76 
L 233.133437 972.569237 
L 218.729002 972.569237 
z
" style="fill:#1f77b4;opacity:0.4;"/>
   </g>
   <g id="patch_145">
    <path clip-path="url(#p7795169fa0)" d="M 233.133437 1002.76 
L 247.537871 1002.76 
L 247.537871 984.085301 
L 233.133437 984.085301 
z
" style="fill:#1f77b4;opacity:0.4;"/>
   </g>
   <g id="patch_146">
    <path clip-path="url(#p7795169fa0)" d="M 247.537871 1002.76 
L 261.942306 1002.76 
L 261.942306 991.866426 
L 247.537871 991.866426 
z
" style="fill:#1f77b4;opacity:0.4;"/>
   </g>
   <g id="patch_147">
    <path clip-path="url(#p7795169fa0)" d="M 261.942306 1002.76 
L 276.346741 1002.76 
L 276.346741 995.601365 
L 261.942306 995.601365 
z
" style="fill:#1f77b4;opacity:0.4;"/>
   </g>
   <g id="patch_148">
    <path clip-path="url(#p7795169fa0)" d="M 276.346741 1002.76 
L 290.751175 1002.76 
L 290.751175 998.40257 
L 276.346741 998.40257 
z
" style="fill:#1f77b4;opacity:0.4;"/>
   </g>
   <g id="patch_149">
    <path clip-path="url(#p7795169fa0)" d="M 290.751175 1002.76 
L 305.15561 1002.76 
L 305.15561 1000.581285 
L 290.751175 1000.581285 
z
" style="fill:#1f77b4;opacity:0.4;"/>
   </g>
   <g id="patch_150">
    <path clip-path="url(#p7795169fa0)" d="M 305.15561 1002.76 
L 319.560044 1002.76 
L 319.560044 1001.826265 
L 305.15561 1001.826265 
z
" style="fill:#1f77b4;opacity:0.4;"/>
   </g>
   <g id="patch_151">
    <path clip-path="url(#p7795169fa0)" d="M 319.560044 1002.76 
L 333.964479 1002.76 
L 333.964479 1002.76 
L 319.560044 1002.76 
z
" style="fill:#1f77b4;opacity:0.4;"/>
   </g>
   <g id="patch_152">
    <path clip-path="url(#p7795169fa0)" d="M 333.964479 1002.76 
L 348.368914 1002.76 
L 348.368914 1002.448755 
L 333.964479 1002.448755 
z
" style="fill:#1f77b4;opacity:0.4;"/>
   </g>
   <g id="patch_153">
    <path clip-path="url(#p7795169fa0)" d="M 348.368914 1002.76 
L 362.773348 1002.76 
L 362.773348 1002.448755 
L 348.368914 1002.448755 
z
" style="fill:#1f77b4;opacity:0.4;"/>
   </g>
   <g id="patch_154">
    <path clip-path="url(#p7795169fa0)" d="M 362.773348 1002.76 
L 377.177783 1002.76 
L 377.177783 1002.76 
L 362.773348 1002.76 
z
" style="fill:#1f77b4;opacity:0.4;"/>
   </g>
   <g id="patch_155">
    <path clip-path="url(#p7795169fa0)" d="M 377.177783 1002.76 
L 391.582217 1002.76 
L 391.582217 1002.76 
L 377.177783 1002.76 
z
" style="fill:#1f77b4;opacity:0.4;"/>
   </g>
   <g id="patch_156">
    <path clip-path="url(#p7795169fa0)" d="M 391.582217 1002.76 
L 405.986652 1002.76 
L 405.986652 1002.76 
L 391.582217 1002.76 
z
" style="fill:#1f77b4;opacity:0.4;"/>
   </g>
   <g id="patch_157">
    <path clip-path="url(#p7795169fa0)" d="M 405.986652 1002.76 
L 420.391086 1002.76 
L 420.391086 1002.76 
L 405.986652 1002.76 
z
" style="fill:#1f77b4;opacity:0.4;"/>
   </g>
   <g id="patch_158">
    <path clip-path="url(#p7795169fa0)" d="M 420.391086 1002.76 
L 434.795521 1002.76 
L 434.795521 1002.76 
L 420.391086 1002.76 
z
" style="fill:#1f77b4;opacity:0.4;"/>
   </g>
   <g id="patch_159">
    <path clip-path="url(#p7795169fa0)" d="M 434.795521 1002.76 
L 449.199956 1002.76 
L 449.199956 1002.76 
L 434.795521 1002.76 
z
" style="fill:#1f77b4;opacity:0.4;"/>
   </g>
   <g id="patch_160">
    <path clip-path="url(#p7795169fa0)" d="M 449.199956 1002.76 
L 463.60439 1002.76 
L 463.60439 1002.76 
L 449.199956 1002.76 
z
" style="fill:#1f77b4;opacity:0.4;"/>
   </g>
   <g id="patch_161">
    <path clip-path="url(#p7795169fa0)" d="M 463.60439 1002.76 
L 478.008825 1002.76 
L 478.008825 1002.76 
L 463.60439 1002.76 
z
" style="fill:#1f77b4;opacity:0.4;"/>
   </g>
   <g id="patch_162">
    <path clip-path="url(#p7795169fa0)" d="M 478.008825 1002.76 
L 492.413259 1002.76 
L 492.413259 1002.76 
L 478.008825 1002.76 
z
" style="fill:#1f77b4;opacity:0.4;"/>
   </g>
   <g id="patch_163">
    <path clip-path="url(#p7795169fa0)" d="M 492.413259 1002.76 
L 506.817694 1002.76 
L 506.817694 1002.76 
L 492.413259 1002.76 
z
" style="fill:#1f77b4;opacity:0.4;"/>
   </g>
   <g id="patch_164">
    <path clip-path="url(#p7795169fa0)" d="M 506.817694 1002.76 
L 521.222129 1002.76 
L 521.222129 1002.76 
L 506.817694 1002.76 
z
" style="fill:#1f77b4;opacity:0.4;"/>
   </g>
   <g id="patch_165">
    <path clip-path="url(#p7795169fa0)" d="M 521.222129 1002.76 
L 535.626563 1002.76 
L 535.626563 1002.76 
L 521.222129 1002.76 
z
" style="fill:#1f77b4;opacity:0.4;"/>
   </g>
   <g id="patch_166">
    <path clip-path="url(#p7795169fa0)" d="M 535.626563 1002.76 
L 550.030998 1002.76 
L 550.030998 1002.76 
L 535.626563 1002.76 
z
" style="fill:#1f77b4;opacity:0.4;"/>
   </g>
   <g id="patch_167">
    <path clip-path="url(#p7795169fa0)" d="M 550.030998 1002.76 
L 564.435432 1002.76 
L 564.435432 1002.76 
L 550.030998 1002.76 
z
" style="fill:#1f77b4;opacity:0.4;"/>
   </g>
   <g id="patch_168">
    <path clip-path="url(#p7795169fa0)" d="M 564.435432 1002.76 
L 578.839867 1002.76 
L 578.839867 1002.76 
L 564.435432 1002.76 
z
" style="fill:#1f77b4;opacity:0.4;"/>
   </g>
   <g id="patch_169">
    <path clip-path="url(#p7795169fa0)" d="M 578.839867 1002.76 
L 593.244302 1002.76 
L 593.244302 1002.76 
L 578.839867 1002.76 
z
" style="fill:#1f77b4;opacity:0.4;"/>
   </g>
   <g id="patch_170">
    <path clip-path="url(#p7795169fa0)" d="M 593.244302 1002.76 
L 607.648736 1002.76 
L 607.648736 1002.76 
L 593.244302 1002.76 
z
" style="fill:#1f77b4;opacity:0.4;"/>
   </g>
   <g id="patch_171">
    <path clip-path="url(#p7795169fa0)" d="M 607.648736 1002.76 
L 622.053171 1002.76 
L 622.053171 1002.76 
L 607.648736 1002.76 
z
" style="fill:#1f77b4;opacity:0.4;"/>
   </g>
   <g id="patch_172">
    <path clip-path="url(#p7795169fa0)" d="M 622.053171 1002.76 
L 636.457605 1002.76 
L 636.457605 1002.76 
L 622.053171 1002.76 
z
" style="fill:#1f77b4;opacity:0.4;"/>
   </g>
   <g id="patch_173">
    <path clip-path="url(#p7795169fa0)" d="M 636.457605 1002.76 
L 650.86204 1002.76 
L 650.86204 1002.76 
L 636.457605 1002.76 
z
" style="fill:#1f77b4;opacity:0.4;"/>
   </g>
   <g id="patch_174">
    <path clip-path="url(#p7795169fa0)" d="M 650.86204 1002.76 
L 665.266475 1002.76 
L 665.266475 1002.76 
L 650.86204 1002.76 
z
" style="fill:#1f77b4;opacity:0.4;"/>
   </g>
   <g id="patch_175">
    <path clip-path="url(#p7795169fa0)" d="M 665.266475 1002.76 
L 679.670909 1002.76 
L 679.670909 1002.76 
L 665.266475 1002.76 
z
" style="fill:#1f77b4;opacity:0.4;"/>
   </g>
   <g id="matplotlib.axis_7">
    <g id="xtick_13">
     <g id="line2d_26">
      <g>
       <use style="stroke:#000000;stroke-width:0.8;" x="233.133437" xlink:href="#mfe5005139b" y="1002.76"/>
      </g>
     </g>
     <g id="text_26">
      <!-- 5 -->
      <g transform="translate(226.182265 1027.693594)scale(0.25 -0.25)">
       <use xlink:href="#Helvetica-53"/>
      </g>
     </g>
    </g>
    <g id="xtick_14">
     <g id="line2d_27">
      <g>
       <use style="stroke:#000000;stroke-width:0.8;" x="377.177783" xlink:href="#mfe5005139b" y="1002.76"/>
      </g>
     </g>
     <g id="text_27">
      <!-- 10 -->
      <g transform="translate(363.275439 1027.693594)scale(0.25 -0.25)">
       <use xlink:href="#Helvetica-49"/>
       <use x="55.615234" xlink:href="#Helvetica-48"/>
      </g>
     </g>
    </g>
    <g id="xtick_15">
     <g id="line2d_28">
      <g>
       <use style="stroke:#000000;stroke-width:0.8;" x="521.222129" xlink:href="#mfe5005139b" y="1002.76"/>
      </g>
     </g>
     <g id="text_28">
      <!-- 15 -->
      <g transform="translate(507.319785 1027.693594)scale(0.25 -0.25)">
       <use xlink:href="#Helvetica-49"/>
       <use x="55.615234" xlink:href="#Helvetica-53"/>
      </g>
     </g>
    </g>
    <g id="xtick_16">
     <g id="line2d_29">
      <g>
       <use style="stroke:#000000;stroke-width:0.8;" x="665.266475" xlink:href="#mfe5005139b" y="1002.76"/>
      </g>
     </g>
     <g id="text_29">
      <!-- 20 -->
      <g transform="translate(651.364131 1027.693594)scale(0.25 -0.25)">
       <use xlink:href="#Helvetica-50"/>
       <use x="55.615234" xlink:href="#Helvetica-48"/>
      </g>
     </g>
    </g>
    <g id="text_30">
     <!-- Bit density (bits/bp) -->
     <defs>
      <path d="M 34.578125 41.40625 
Q 40.71875 41.40625 44.140625 43.109375 
Q 49.515625 45.796875 49.515625 52.78125 
Q 49.515625 59.8125 43.796875 62.25 
Q 40.578125 63.625 34.234375 63.625 
L 16.890625 63.625 
L 16.890625 41.40625 
z
M 37.84375 8.296875 
Q 46.78125 8.296875 50.59375 13.484375 
Q 52.984375 16.75 52.984375 21.390625 
Q 52.984375 29.203125 46 32.03125 
Q 42.28125 33.546875 36.1875 33.546875 
L 16.890625 33.546875 
L 16.890625 8.296875 
z
M 7.375 71.734375 
L 38.1875 71.734375 
Q 50.78125 71.734375 56.109375 64.203125 
Q 59.234375 59.765625 59.234375 53.953125 
Q 59.234375 47.171875 55.375 42.828125 
Q 53.375 40.53125 49.609375 38.625 
Q 55.125 36.53125 57.859375 33.890625 
Q 62.703125 29.203125 62.703125 20.953125 
Q 62.703125 14.015625 58.34375 8.40625 
Q 51.859375 0 37.703125 0 
L 7.375 0 
z
" id="Helvetica-66"/>
      <path d="M 12.015625 25.53125 
Q 12.015625 17.140625 15.578125 11.46875 
Q 19.140625 5.8125 27 5.8125 
Q 33.109375 5.8125 37.03125 11.0625 
Q 40.96875 16.3125 40.96875 26.125 
Q 40.96875 36.03125 36.90625 40.796875 
Q 32.859375 45.5625 26.90625 45.5625 
Q 20.265625 45.5625 16.140625 40.484375 
Q 12.015625 35.40625 12.015625 25.53125 
z
M 25.25 53.21875 
Q 31.25 53.21875 35.296875 50.6875 
Q 37.640625 49.21875 40.625 45.5625 
L 40.625 71.96875 
L 49.078125 71.96875 
L 49.078125 0 
L 41.15625 0 
L 41.15625 7.28125 
Q 38.09375 2.4375 33.890625 0.28125 
Q 29.6875 -1.859375 24.265625 -1.859375 
Q 15.53125 -1.859375 9.125 5.484375 
Q 2.734375 12.84375 2.734375 25.046875 
Q 2.734375 36.46875 8.5625 44.84375 
Q 14.40625 53.21875 25.25 53.21875 
z
" id="Helvetica-100"/>
      <path d="M 11.671875 16.40625 
Q 12.0625 12.015625 13.875 9.671875 
Q 17.1875 5.421875 25.390625 5.421875 
Q 30.28125 5.421875 33.984375 7.546875 
Q 37.703125 9.671875 37.703125 14.109375 
Q 37.703125 17.484375 34.71875 19.234375 
Q 32.8125 20.3125 27.203125 21.734375 
L 20.21875 23.484375 
Q 13.53125 25.140625 10.359375 27.203125 
Q 4.6875 30.765625 4.6875 37.0625 
Q 4.6875 44.484375 10.03125 49.0625 
Q 15.375 53.65625 24.421875 53.65625 
Q 36.234375 53.65625 41.453125 46.734375 
Q 44.734375 42.328125 44.625 37.25 
L 36.328125 37.25 
Q 36.078125 40.234375 34.234375 42.671875 
Q 31.203125 46.140625 23.734375 46.140625 
Q 18.75 46.140625 16.1875 44.234375 
Q 13.625 42.328125 13.625 39.203125 
Q 13.625 35.796875 17 33.734375 
Q 18.953125 32.515625 22.75 31.59375 
L 28.5625 30.171875 
Q 38.03125 27.875 41.265625 25.734375 
Q 46.390625 22.359375 46.390625 15.140625 
Q 46.390625 8.15625 41.09375 3.078125 
Q 35.796875 -2 24.953125 -2 
Q 13.28125 -2 8.421875 3.296875 
Q 3.5625 8.59375 3.21875 16.40625 
z
M 24.65625 53.5625 
z
" id="Helvetica-115"/>
      <path d="M 39.109375 52.296875 
L 48.828125 52.296875 
Q 46.96875 47.265625 40.578125 29.34375 
Q 35.796875 15.875 32.5625 7.375 
Q 24.953125 -12.640625 21.828125 -17.03125 
Q 18.703125 -21.4375 11.078125 -21.4375 
Q 9.234375 -21.4375 8.234375 -21.28125 
Q 7.234375 -21.140625 5.765625 -20.75 
L 5.765625 -12.75 
Q 8.0625 -13.375 9.078125 -13.515625 
Q 10.109375 -13.671875 10.890625 -13.671875 
Q 13.328125 -13.671875 14.46875 -12.859375 
Q 15.625 -12.0625 16.40625 -10.890625 
Q 16.65625 -10.5 18.15625 -6.875 
Q 19.671875 -3.265625 20.359375 -1.515625 
L 1.03125 52.296875 
L 10.984375 52.296875 
L 25 9.71875 
z
M 24.953125 53.5625 
z
" id="Helvetica-121"/>
      <path d="M 5.765625 71.96875 
L 14.3125 71.96875 
L 14.3125 45.953125 
Q 17.1875 49.703125 21.1875 51.671875 
Q 25.203125 53.65625 29.890625 53.65625 
Q 39.65625 53.65625 45.734375 46.9375 
Q 51.8125 40.234375 51.8125 27.15625 
Q 51.8125 14.75 45.796875 6.546875 
Q 39.796875 -1.65625 29.15625 -1.65625 
Q 23.1875 -1.65625 19.09375 1.21875 
Q 16.65625 2.9375 13.875 6.6875 
L 13.875 0 
L 5.765625 0 
z
M 28.609375 6.109375 
Q 35.75 6.109375 39.28125 11.765625 
Q 42.828125 17.4375 42.828125 26.703125 
Q 42.828125 34.96875 39.28125 40.375 
Q 35.75 45.796875 28.859375 45.796875 
Q 22.859375 45.796875 18.328125 41.359375 
Q 13.8125 36.921875 13.8125 26.703125 
Q 13.8125 19.34375 15.671875 14.75 
Q 19.140625 6.109375 28.609375 6.109375 
z
" id="Helvetica-98"/>
      <path d="M 22.75 71.734375 
L 30.171875 71.734375 
L 7.421875 0 
L 0 0 
z
" id="Helvetica-47"/>
     </defs>
     <g transform="translate(239.829531 1061.692656)scale(0.34 -0.34)">
      <use xlink:href="#Helvetica-66"/>
      <use x="66.699219" xlink:href="#Helvetica-105"/>
      <use x="88.916016" xlink:href="#Helvetica-116"/>
      <use x="116.699219" xlink:href="#Helvetica-32"/>
      <use x="144.482422" xlink:href="#Helvetica-100"/>
      <use x="200.097656" xlink:href="#Helvetica-101"/>
      <use x="255.712891" xlink:href="#Helvetica-110"/>
      <use x="311.328125" xlink:href="#Helvetica-115"/>
      <use x="361.328125" xlink:href="#Helvetica-105"/>
      <use x="383.544922" xlink:href="#Helvetica-116"/>
      <use x="411.328125" xlink:href="#Helvetica-121"/>
      <use x="461.328125" xlink:href="#Helvetica-32"/>
      <use x="489.111328" xlink:href="#Helvetica-40"/>
      <use x="522.412109" xlink:href="#Helvetica-98"/>
      <use x="578.027344" xlink:href="#Helvetica-105"/>
      <use x="600.244141" xlink:href="#Helvetica-116"/>
      <use x="628.027344" xlink:href="#Helvetica-115"/>
      <use x="678.027344" xlink:href="#Helvetica-47"/>
      <use x="705.810547" xlink:href="#Helvetica-98"/>
      <use x="761.425781" xlink:href="#Helvetica-112"/>
      <use x="817.041016" xlink:href="#Helvetica-41"/>
     </g>
    </g>
   </g>
   <g id="matplotlib.axis_8">
    <g id="ytick_11">
     <g id="line2d_30">
      <g>
       <use style="stroke:#000000;stroke-width:0.8;" x="59.56" xlink:href="#ma64c3f4e05" y="1002.76"/>
      </g>
     </g>
     <g id="text_31">
      <!-- 0 -->
      <g transform="translate(38.657656 1011.726797)scale(0.25 -0.25)">
       <use xlink:href="#Helvetica-48"/>
      </g>
     </g>
    </g>
    <g id="ytick_12">
     <g id="line2d_31">
      <g>
       <use style="stroke:#000000;stroke-width:0.8;" x="59.56" xlink:href="#ma64c3f4e05" y="940.511004"/>
      </g>
     </g>
     <g id="text_32">
      <!-- 200 -->
      <g transform="translate(10.852969 949.477801)scale(0.25 -0.25)">
       <use xlink:href="#Helvetica-50"/>
       <use x="55.615234" xlink:href="#Helvetica-48"/>
       <use x="111.230469" xlink:href="#Helvetica-48"/>
      </g>
     </g>
    </g>
    <g id="ytick_13">
     <g id="line2d_32">
      <g>
       <use style="stroke:#000000;stroke-width:0.8;" x="59.56" xlink:href="#ma64c3f4e05" y="878.262008"/>
      </g>
     </g>
     <g id="text_33">
      <!-- 400 -->
      <g transform="translate(10.852969 887.228805)scale(0.25 -0.25)">
       <use xlink:href="#Helvetica-52"/>
       <use x="55.615234" xlink:href="#Helvetica-48"/>
       <use x="111.230469" xlink:href="#Helvetica-48"/>
      </g>
     </g>
    </g>
    <g id="ytick_14">
     <g id="line2d_33">
      <g>
       <use style="stroke:#000000;stroke-width:0.8;" x="59.56" xlink:href="#ma64c3f4e05" y="816.013012"/>
      </g>
     </g>
     <g id="text_34">
      <!-- 600 -->
      <g transform="translate(10.852969 824.979809)scale(0.25 -0.25)">
       <use xlink:href="#Helvetica-54"/>
       <use x="55.615234" xlink:href="#Helvetica-48"/>
       <use x="111.230469" xlink:href="#Helvetica-48"/>
      </g>
     </g>
    </g>
   </g>
   <g id="line2d_34">
    <path clip-path="url(#p7795169fa0)" d="M 175.515698 1002.76 
L 175.515698 785.76 
" style="fill:none;stroke:#1f77b4;stroke-linecap:square;stroke-width:1.5;"/>
   </g>
   <g id="patch_176">
    <path d="M 59.56 1002.76 
L 59.56 785.76 
" style="fill:none;stroke:#000000;stroke-linecap:square;stroke-linejoin:miter;stroke-width:0.8;"/>
   </g>
   <g id="patch_177">
    <path d="M 59.56 1002.76 
L 709.2 1002.76 
" style="fill:none;stroke:#000000;stroke-linecap:square;stroke-linejoin:miter;stroke-width:0.8;"/>
   </g>
   <g id="text_35">
    <!-- Inter-TU (2122) -->
    <defs>
     <path d="M 4.15625 32.375 
L 28.65625 32.375 
L 28.65625 23.34375 
L 4.15625 23.34375 
z
" id="Helvetica-45"/>
    </defs>
    <g transform="translate(498.335175 970.21)scale(0.28 -0.28)">
     <use xlink:href="#Helvetica-73"/>
     <use x="27.783203" xlink:href="#Helvetica-110"/>
     <use x="83.398438" xlink:href="#Helvetica-116"/>
     <use x="111.181641" xlink:href="#Helvetica-101"/>
     <use x="166.796875" xlink:href="#Helvetica-114"/>
     <use x="200.097656" xlink:href="#Helvetica-45"/>
     <use x="233.398438" xlink:href="#Helvetica-84"/>
     <use x="294.482422" xlink:href="#Helvetica-85"/>
     <use x="366.699219" xlink:href="#Helvetica-32"/>
     <use x="394.482422" xlink:href="#Helvetica-40"/>
     <use x="427.783203" xlink:href="#Helvetica-50"/>
     <use x="483.398438" xlink:href="#Helvetica-49"/>
     <use x="539.013672" xlink:href="#Helvetica-50"/>
     <use x="594.628906" xlink:href="#Helvetica-50"/>
     <use x="650.244141" xlink:href="#Helvetica-41"/>
    </g>
   </g>
  </g>
 </g>
 <defs>
  <clipPath id="pa860321368">
   <rect height="217" width="649.64" x="59.56" y="10.8"/>
  </clipPath>
  <clipPath id="p34511edd6d">
   <rect height="217" width="649.64" x="59.56" y="269.12"/>
  </clipPath>
  <clipPath id="p1fe8683737">
   <rect height="217" width="649.64" x="59.56" y="527.44"/>
  </clipPath>
  <clipPath id="p7795169fa0">
   <rect height="217" width="649.64" x="59.56" y="785.76"/>
  </clipPath>
 </defs>
</svg>
